<?xml version="1.0" encoding="UTF-8" standalone="no"?>
<svg
   width="870.64026"
   height="888.96021"
   viewBox="0 0 230.3569 235.20406"
   version="1.1"
   id="svg5"
   xmlns="http://www.w3.org/2000/svg"
   xmlns:svg="http://www.w3.org/2000/svg">
  <defs
     id="defs2" />
     <clipPath id="clip01" clipPathUnits="objectBoundingBox">
  <g
     id="layer1"
     transform="translate(-10.884825,-61.821049)">
    <path
       style="fill:#ff0000;stroke:#ffffff;stroke-width:0"
       d="m 13.204496,116.43965 c -0.965101,-9.95766 2.008291,-20.148886 7.710237,-28.369245 5.701946,-8.220359 14.02707,-14.489374 23.296172,-18.253713 9.269101,-3.764339 19.447838,-5.079893 29.428808,-4.396726 9.980971,0.683167 19.772766,3.327584 28.995237,7.204763 4.32679,1.819005 8.59317,3.926669 13.20449,4.801635 7.53745,1.430178 15.23911,-0.546043 22.80777,-1.800614 19.22541,-3.18678 39.47639,-1.587105 57.29914,6.294629 17.82274,7.881734 33.00315,22.323731 40.14582,40.455311 7.13076,18.10135 5.9942,38.47756 1.79295,57.47377 -6.55782,29.65158 -20.59914,57.94486 -42.02777,79.4631 -21.42863,21.51824 -50.45236,35.89078 -80.77475,37.55619 -30.322394,1.66541 -61.59022,-10.02201 -81.753003,-32.73067 -10.081392,-11.35433 -17.320568,-25.26211 -20.540492,-40.10082 -3.2199235,-14.83871 -2.378412,-30.57835 2.691866,-44.89085 2.493636,-7.03909 6.015522,-13.85886 6.726591,-21.29266 0.676687,-7.07436 -1.258014,-14.12494 -3.496507,-20.86983 -2.238492,-6.7449 -4.820992,-13.47076 -5.506559,-20.54427 z"
       id="path301" />
  </g>
  </clipPath>
</svg>
