<svg width="107" height="56" viewBox="0 0 107 56" fill="none" xmlns="http://www.w3.org/2000/svg">
<g clip-path="url(#clip0_7_4)">
<g filter="url(#filter0_d_7_4)">
<path d="M35.88 19.88C35 19.88 34.36 19.8 33.96 19.8C33.32 19.8 33.16 19.96 33.16 20.76V21.8C33.16 22.6 33.2 22.88 33.88 22.88C34.32 22.88 35.24 22.8 36.12 22.8H37.32C38.24 22.8 39.16 22.88 39.6 22.88C40.24 22.88 40.32 22.64 40.32 21.96V20.84C40.32 20.12 40.28 19.8 39.64 19.8C39.16 19.8 38.16 19.88 37.32 19.88H35.88ZM20.4 19.88C19.48 19.88 18.84 19.8 18.4 19.8C17.8 19.8 17.64 19.96 17.64 20.72V21.84C17.64 22.6 17.68 22.88 18.4 22.88C18.8 22.88 19.76 22.8 20.64 22.8H21.8C22.68 22.8 23.6 22.88 24.04 22.88C24.68 22.88 24.76 22.64 24.76 21.88V20.8C24.76 20.12 24.72 19.8 24.12 19.8C23.6 19.8 22.64 19.88 21.8 19.88H20.4ZM35.84 24C34.96 24 34.36 23.92 33.96 23.92C33.32 23.92 33.16 24.04 33.16 24.84V25.96C33.16 26.72 33.2 27.04 33.88 27.04C34.32 27.04 35.24 26.96 36.12 26.96H37.32C38.24 26.96 39.16 27.04 39.6 27.04C40.28 27.04 40.32 26.8 40.32 26.04V24.96C40.32 24.28 40.28 23.96 39.64 23.96C39.16 23.96 38.16 24 37.32 24H35.84ZM20.36 24C19.4 24 18.76 23.92 18.36 23.92C17.8 23.92 17.64 24.08 17.64 24.8V25.92C17.64 26.72 17.68 27.04 18.4 27.04C18.8 27.04 19.76 26.96 20.64 26.96H21.8C22.68 26.96 23.6 27.04 24.04 27.04C24.72 27.04 24.76 26.8 24.76 25.96V24.96C24.76 24.28 24.72 23.96 24.12 23.96C23.6 23.96 22.64 24 21.8 24H20.36ZM37.08 14.08C38.6 14.08 40.08 14.16 41.56 14.16C42.4 14.16 42.48 13.88 42.48 13.04V11.64C42.48 10.76 42.4 10.52 41.52 10.52C40.04 10.52 38.56 10.6 37.08 10.6H20.88C19.4 10.6 17.92 10.52 16.44 10.52C15.56 10.52 15.48 10.76 15.48 11.64V13.04C15.48 13.88 15.56 14.16 16.4 14.16C17.92 14.16 19.4 14.08 20.88 14.08H25.56C25.84 14.08 26.08 14.32 26.08 14.6V14.72C26.08 15 25.84 15.2 25.56 15.2H16.32C15.28 15.2 14.24 15.12 13.2 15.12C11.64 15.12 11.4 15.36 11.4 16.64V21C11.4 21.76 11.32 22.4 11.32 22.88C11.32 23.68 11.8 23.76 12.88 23.76H15.2C16.32 23.76 16.8 23.68 16.8 22.88C16.8 22.4 16.72 21.68 16.72 21V19.76C16.72 19.2 17.24 18.68 17.84 18.68H24.96C25.56 18.68 26.08 19.16 26.08 19.8V22.28C26.08 23.8 25.96 25.28 25.96 26.4C25.96 27.36 26.4 27.48 27.6 27.48H30.36C31.56 27.48 32.04 27.36 32.04 26.44C32.04 25.24 31.92 23.68 31.92 22.28V19.8C31.92 19.16 32.44 18.68 33.04 18.68H40.08C40.68 18.68 41.16 19.16 41.16 19.76V21C41.16 21.76 41.08 22.4 41.08 22.88C41.08 23.68 41.56 23.76 42.68 23.76H45C46.08 23.76 46.56 23.68 46.56 22.88C46.56 22.4 46.48 21.68 46.48 21V16.6C46.48 15.32 46.16 15.12 44.64 15.12C43.64 15.12 42.6 15.2 41.56 15.2H32.44C32.16 15.2 31.92 15 31.92 14.72V14.6C31.92 14.28 32.16 14.08 32.44 14.08H37.08ZM37.28 40.08C38.6 40.08 39.92 40.12 41.2 40.12H41.32C41.84 40.12 42.28 40.2 42.28 40.76C42.28 41.44 41.4 41.48 40.92 41.48H33.32C32.8 41.48 31.92 41.4 31.92 40.72C31.92 40.36 32.2 40.08 32.56 40.08H37.28ZM26 35.6C26.28 35.6 26.44 35.8 26.44 36.08V36.28C26.44 36.52 26.24 36.72 26 36.72H20.96C20.72 36.72 20.52 36.52 20.52 36.28V36.08C20.52 35.8 20.72 35.6 20.96 35.6H26ZM37.44 35.6C37.72 35.6 37.92 35.8 37.92 36.08V36.28C37.92 36.52 37.72 36.72 37.44 36.72H32.28C32.04 36.72 31.84 36.52 31.84 36.28V36.08C31.84 35.8 32.04 35.6 32.28 35.6H37.44ZM21 32.68C20.72 32.68 20.52 32.44 20.52 32.16V32.08C20.52 31.8 20.72 31.56 21 31.56H25.92C26.2 31.56 26.44 31.8 26.44 32.08V32.16C26.44 32.48 26.2 32.64 25.92 32.68H21ZM32.36 32.68C32.08 32.64 31.84 32.48 31.84 32.16V32.08C31.84 31.8 32.08 31.56 32.36 31.56H37.4C37.68 31.56 37.92 31.8 37.92 32.08V32.16C37.92 32.44 37.68 32.68 37.4 32.68H32.36ZM42.4 45.44C44 45.44 45.08 45.32 46.04 43.88C46.72 42.88 47.6 40.84 47.6 39.6C47.6 38.32 45.24 37.84 44.44 37.8C43.48 37.76 43.36 37.4 43.36 36.4V29.76C43.36 28.6 43.24 28.24 41.84 28.24H16.64C15.28 28.24 15.04 28.48 15.04 29.76C15.04 30.84 15.08 31.96 15.08 33.04V36.88C15.08 38.08 15 39.28 15 40.44C15 41.48 15.56 41.56 16.52 41.56H18.52C20.12 41.56 20.44 41.48 20.44 40.56C20.44 40.12 20.72 40.08 21.44 40.08H25.24C25.84 40.08 26.4 40.48 26.4 41.44V41.64C26.4 45.16 28.32 45.44 31.32 45.44H42.4ZM83 28.08C83.68 28.08 84.12 28.6 84.12 29.28V29.6C84.12 33.52 84.24 38.32 85.48 42.04C86.24 44.4 87.68 45.88 90.28 45.88C94.32 45.88 95.24 41.44 95.68 38.28C95.76 37.72 95.84 36.96 95.84 36.48C95.84 35.16 93.92 34.56 92.8 34.56C92 34.56 91.76 34.8 91.72 35.52C91.72 36.12 91.52 39.6 90.8 39.6C90.44 39.6 90.4 38.96 90.36 38.68C90.12 36.8 90.04 34.92 90.04 33.04C90.04 30.56 90.16 26.92 90.16 25.52C90.16 24 89.84 23.48 88.24 23.48C87.08 23.48 85.92 23.56 84.72 23.56H67.8C66.12 23.56 64.44 23.44 62.72 23.44C61.8 23.44 61.72 23.84 61.72 25V27.08C61.72 28 62.16 28.16 62.68 28.16C64.4 28.16 66.12 28.08 67.8 28.08H72.52C72.96 28.08 73.52 28.12 73.52 28.72C73.52 29.2 72.72 30.56 72.44 31.04C72.12 31.6 71.72 32.36 71.12 32.36C70.72 32.36 70.4 32.16 70.08 31.96C69.24 31.52 66.12 30 65.32 30C64.56 30 62.28 32.8 62.28 33.56C62.28 34.04 62.8 34.24 63.2 34.36C63.84 34.6 67.32 35.84 67.32 36.52C67.32 37.36 61.84 40.24 60.92 40.64C60.56 40.8 59.96 41 59.96 41.44C59.96 42.2 62.2 45.68 63.24 45.68C64.4 45.68 70.92 41.16 71.88 40.16C72.2 39.8 72.48 39.76 72.6 39.76C72.92 39.76 73.16 39.88 73.56 40.2C74.36 40.84 75.76 42.08 77.16 43.24C77.52 43.56 77.92 43.96 78.4 43.96C80.08 43.96 81.44 40.56 81.44 39.84C81.44 39.4 81.12 39.16 80.84 38.92C80.2 38.4 78.52 37.2 77.8 36.72C77.36 36.44 76.52 35.88 76.52 35.28C76.52 34.92 76.76 34.6 76.96 34.32C77.44 33.64 77.92 32.8 78.32 32.08C78.6 31.52 78.72 31.52 79.28 31.48C79.56 31.48 79.92 31.36 79.92 31.04C79.92 30.56 78.72 30 78.32 29.8C78 29.64 75.8 28.52 75.8 28.32C75.8 28.08 76.32 28.08 76.44 28.08H83ZM72.56 12.84C72.36 12.84 72.12 12.76 72.12 12.48C72.12 12 72.8 11.72 73.16 11.6C73.44 11.52 74 11.36 74 11C74 10.56 73.16 10.4 72.76 10.28C71.92 10.08 68.4 9.12 67.8 9.12C67.4 9.12 67.32 9.48 67.16 9.88C65.92 13.2 62.88 17.12 60.12 19.36C59.72 19.72 59.12 20.08 59.12 20.48C59.12 21.56 62.28 23.32 62.92 23.32C63.68 23.32 66.04 20.84 66.6 20.2C66.76 20 66.96 19.72 67.2 19.72C67.56 19.72 67.56 20.2 67.56 20.44V20.8C67.56 21.8 67.56 22.28 68.48 22.28C69.68 22.28 70.84 22.24 72.04 22.24H84.8C86 22.24 87.16 22.28 88.36 22.28C89.12 22.28 89.28 21.96 89.28 21.12V19.4C89.28 18.56 89.12 18.24 88.32 18.24C87.16 18.24 86 18.32 84.8 18.32H72.04C71.08 18.32 70.16 18.24 69.24 18.24C68.64 18.24 68.52 18.2 68.52 17.96C68.52 17.68 69.04 17.12 70.24 17.12H88.04C89.56 17.12 91.08 17.2 92.6 17.2C93.48 17.2 93.56 16.88 93.56 15.8V14.16C93.56 13.08 93.48 12.76 92.56 12.76C91.04 12.76 89.56 12.84 88.04 12.84H72.56Z" fill="white"/>
</g>
</g>
<rect x="1" y="1" width="105" height="54" rx="3" stroke="white" stroke-width="2"/>
<defs>
<filter id="filter0_d_7_4" x="7.32007" y="9.12" width="92.52" height="44.76" filterUnits="userSpaceOnUse" color-interpolation-filters="sRGB">
<feFlood flood-opacity="0" result="BackgroundImageFix"/>
<feColorMatrix in="SourceAlpha" type="matrix" values="0 0 0 0 0 0 0 0 0 0 0 0 0 0 0 0 0 0 127 0" result="hardAlpha"/>
<feOffset dy="4"/>
<feGaussianBlur stdDeviation="2"/>
<feComposite in2="hardAlpha" operator="out"/>
<feColorMatrix type="matrix" values="0 0 0 0 0 0 0 0 0 0 0 0 0 0 0 0 0 0 0.4 0"/>
<feBlend mode="normal" in2="BackgroundImageFix" result="effect1_dropShadow_7_4"/>
<feBlend mode="normal" in="SourceGraphic" in2="effect1_dropShadow_7_4" result="shape"/>
</filter>
<clipPath id="clip0_7_4">
<rect width="107" height="56" rx="4" fill="white"/>
</clipPath>
</defs>
</svg>
