<svg width="80" height="40" viewBox="0 0 80 40" fill="none" xmlns="http://www.w3.org/2000/svg">
<g clip-path="url(#clip0_366_18)">
<g filter="none">
<path d="M29.128 15.128C28.6 15.128 28.216 15.08 27.976 15.08C27.592 15.08 27.496 15.176 27.496 15.656V16.28C27.496 16.76 27.52 16.928 27.928 16.928C28.192 16.928 28.744 16.88 29.272 16.88H29.992C30.544 16.88 31.096 16.928 31.36 16.928C31.744 16.928 31.792 16.784 31.792 16.376V15.704C31.792 15.272 31.768 15.08 31.384 15.08C31.096 15.08 30.496 15.128 29.992 15.128H29.128ZM19.84 15.128C19.288 15.128 18.904 15.08 18.64 15.08C18.28 15.08 18.184 15.176 18.184 15.632V16.304C18.184 16.76 18.208 16.928 18.64 16.928C18.88 16.928 19.456 16.88 19.984 16.88H20.68C21.208 16.88 21.76 16.928 22.024 16.928C22.408 16.928 22.456 16.784 22.456 16.328V15.68C22.456 15.272 22.432 15.08 22.072 15.08C21.76 15.08 21.184 15.128 20.68 15.128H19.84ZM29.104 17.6C28.576 17.6 28.216 17.552 27.976 17.552C27.592 17.552 27.496 17.624 27.496 18.104V18.776C27.496 19.232 27.52 19.424 27.928 19.424C28.192 19.424 28.744 19.376 29.272 19.376H29.992C30.544 19.376 31.096 19.424 31.36 19.424C31.768 19.424 31.792 19.28 31.792 18.824V18.176C31.792 17.768 31.768 17.576 31.384 17.576C31.096 17.576 30.496 17.6 29.992 17.6H29.104ZM19.816 17.6C19.24 17.6 18.856 17.552 18.616 17.552C18.28 17.552 18.184 17.648 18.184 18.08V18.752C18.184 19.232 18.208 19.424 18.64 19.424C18.88 19.424 19.456 19.376 19.984 19.376H20.68C21.208 19.376 21.76 19.424 22.024 19.424C22.432 19.424 22.456 19.28 22.456 18.776V18.176C22.456 17.768 22.432 17.576 22.072 17.576C21.76 17.576 21.184 17.6 20.68 17.6H19.816ZM29.848 11.648C30.76 11.648 31.648 11.696 32.536 11.696C33.04 11.696 33.088 11.528 33.088 11.024V10.184C33.088 9.656 33.04 9.512 32.512 9.512C31.624 9.512 30.736 9.56 29.848 9.56H20.128C19.24 9.56 18.352 9.512 17.464 9.512C16.936 9.512 16.888 9.656 16.888 10.184V11.024C16.888 11.528 16.936 11.696 17.44 11.696C18.352 11.696 19.24 11.648 20.128 11.648H22.936C23.104 11.648 23.248 11.792 23.248 11.96V12.032C23.248 12.2 23.104 12.32 22.936 12.32H17.392C16.768 12.32 16.144 12.272 15.52 12.272C14.584 12.272 14.44 12.416 14.44 13.184V15.8C14.44 16.256 14.392 16.64 14.392 16.928C14.392 17.408 14.68 17.456 15.328 17.456H16.72C17.392 17.456 17.68 17.408 17.68 16.928C17.68 16.64 17.632 16.208 17.632 15.8V15.056C17.632 14.72 17.944 14.408 18.304 14.408H22.576C22.936 14.408 23.248 14.696 23.248 15.08V16.568C23.248 17.48 23.176 18.368 23.176 19.04C23.176 19.616 23.44 19.688 24.16 19.688H25.816C26.536 19.688 26.824 19.616 26.824 19.064C26.824 18.344 26.752 17.408 26.752 16.568V15.08C26.752 14.696 27.064 14.408 27.424 14.408H31.648C32.008 14.408 32.296 14.696 32.296 15.056V15.8C32.296 16.256 32.248 16.64 32.248 16.928C32.248 17.408 32.536 17.456 33.208 17.456H34.6C35.248 17.456 35.536 17.408 35.536 16.928C35.536 16.64 35.488 16.208 35.488 15.8V13.16C35.488 12.392 35.296 12.272 34.384 12.272C33.784 12.272 33.16 12.32 32.536 12.32H27.064C26.896 12.32 26.752 12.2 26.752 12.032V11.96C26.752 11.768 26.896 11.648 27.064 11.648H29.848ZM29.968 27.248C30.76 27.248 31.552 27.272 32.32 27.272H32.392C32.704 27.272 32.968 27.32 32.968 27.656C32.968 28.064 32.44 28.088 32.152 28.088H27.592C27.28 28.088 26.752 28.04 26.752 27.632C26.752 27.416 26.92 27.248 27.136 27.248H29.968ZM23.2 24.56C23.368 24.56 23.464 24.68 23.464 24.848V24.968C23.464 25.112 23.344 25.232 23.2 25.232H20.176C20.032 25.232 19.912 25.112 19.912 24.968V24.848C19.912 24.68 20.032 24.56 20.176 24.56H23.2ZM30.064 24.56C30.232 24.56 30.352 24.68 30.352 24.848V24.968C30.352 25.112 30.232 25.232 30.064 25.232H26.968C26.824 25.232 26.704 25.112 26.704 24.968V24.848C26.704 24.68 26.824 24.56 26.968 24.56H30.064ZM20.2 22.808C20.032 22.808 19.912 22.664 19.912 22.496V22.448C19.912 22.28 20.032 22.136 20.2 22.136H23.152C23.32 22.136 23.464 22.28 23.464 22.448V22.496C23.464 22.688 23.32 22.784 23.152 22.808H20.2ZM27.016 22.808C26.848 22.784 26.704 22.688 26.704 22.496V22.448C26.704 22.28 26.848 22.136 27.016 22.136H30.04C30.208 22.136 30.352 22.28 30.352 22.448V22.496C30.352 22.664 30.208 22.808 30.04 22.808H27.016ZM33.04 30.464C34 30.464 34.648 30.392 35.224 29.528C35.632 28.928 36.16 27.704 36.16 26.96C36.16 26.192 34.744 25.904 34.264 25.88C33.688 25.856 33.616 25.64 33.616 25.04V21.056C33.616 20.36 33.544 20.144 32.704 20.144H17.584C16.768 20.144 16.624 20.288 16.624 21.056C16.624 21.704 16.648 22.376 16.648 23.024V25.328C16.648 26.048 16.6 26.768 16.6 27.464C16.6 28.088 16.936 28.136 17.512 28.136H18.712C19.672 28.136 19.864 28.088 19.864 27.536C19.864 27.272 20.032 27.248 20.464 27.248H22.744C23.104 27.248 23.44 27.488 23.44 28.064V28.184C23.44 30.296 24.592 30.464 26.392 30.464H33.04ZM57.4 20.048C57.808 20.048 58.072 20.36 58.072 20.768V20.96C58.072 23.312 58.144 26.192 58.888 28.424C59.344 29.84 60.208 30.728 61.768 30.728C64.192 30.728 64.744 28.064 65.008 26.168C65.056 25.832 65.104 25.376 65.104 25.088C65.104 24.296 63.952 23.936 63.28 23.936C62.8 23.936 62.656 24.08 62.632 24.512C62.632 24.872 62.512 26.96 62.08 26.96C61.864 26.96 61.84 26.576 61.816 26.408C61.672 25.28 61.624 24.152 61.624 23.024C61.624 21.536 61.696 19.352 61.696 18.512C61.696 17.6 61.504 17.288 60.544 17.288C59.848 17.288 59.152 17.336 58.432 17.336H48.28C47.272 17.336 46.264 17.264 45.232 17.264C44.68 17.264 44.632 17.504 44.632 18.2V19.448C44.632 20 44.896 20.096 45.208 20.096C46.24 20.096 47.272 20.048 48.28 20.048H51.112C51.376 20.048 51.712 20.072 51.712 20.432C51.712 20.72 51.232 21.536 51.064 21.824C50.872 22.16 50.632 22.616 50.272 22.616C50.032 22.616 49.84 22.496 49.648 22.376C49.144 22.112 47.272 21.2 46.792 21.2C46.336 21.2 44.968 22.88 44.968 23.336C44.968 23.624 45.28 23.744 45.52 23.816C45.904 23.96 47.992 24.704 47.992 25.112C47.992 25.616 44.704 27.344 44.152 27.584C43.936 27.68 43.576 27.8 43.576 28.064C43.576 28.52 44.92 30.608 45.544 30.608C46.24 30.608 50.152 27.896 50.728 27.296C50.92 27.08 51.088 27.056 51.16 27.056C51.352 27.056 51.496 27.128 51.736 27.32C52.216 27.704 53.056 28.448 53.896 29.144C54.112 29.336 54.352 29.576 54.64 29.576C55.648 29.576 56.464 27.536 56.464 27.104C56.464 26.84 56.272 26.696 56.104 26.552C55.72 26.24 54.712 25.52 54.28 25.232C54.016 25.064 53.512 24.728 53.512 24.368C53.512 24.152 53.656 23.96 53.776 23.792C54.064 23.384 54.352 22.88 54.592 22.448C54.76 22.112 54.832 22.112 55.168 22.088C55.336 22.088 55.552 22.016 55.552 21.824C55.552 21.536 54.832 21.2 54.592 21.08C54.4 20.984 53.08 20.312 53.08 20.192C53.08 20.048 53.392 20.048 53.464 20.048H57.4ZM51.136 10.904C51.016 10.904 50.872 10.856 50.872 10.688C50.872 10.4 51.28 10.232 51.496 10.16C51.664 10.112 52 10.016 52 9.8C52 9.536 51.496 9.44 51.256 9.368C50.752 9.248 48.64 8.672 48.28 8.672C48.04 8.672 47.992 8.888 47.896 9.128C47.152 11.12 45.328 13.472 43.672 14.816C43.432 15.032 43.072 15.248 43.072 15.488C43.072 16.136 44.968 17.192 45.352 17.192C45.808 17.192 47.224 15.704 47.56 15.32C47.656 15.2 47.776 15.032 47.92 15.032C48.136 15.032 48.136 15.32 48.136 15.464V15.68C48.136 16.28 48.136 16.568 48.688 16.568C49.408 16.568 50.104 16.544 50.824 16.544H58.48C59.2 16.544 59.896 16.568 60.616 16.568C61.072 16.568 61.168 16.376 61.168 15.872V14.84C61.168 14.336 61.072 14.144 60.592 14.144C59.896 14.144 59.2 14.192 58.48 14.192H50.824C50.248 14.192 49.696 14.144 49.144 14.144C48.784 14.144 48.712 14.12 48.712 13.976C48.712 13.808 49.024 13.472 49.744 13.472H60.424C61.336 13.472 62.248 13.52 63.16 13.52C63.688 13.52 63.736 13.328 63.736 12.68V11.696C63.736 11.048 63.688 10.856 63.136 10.856C62.224 10.856 61.336 10.904 60.424 10.904H51.136Z" fill="white"/>
</g>
</g>
</svg>
