<svg width="959" height="220" viewBox="0 0 959 220" fill="none" xmlns="http://www.w3.org/2000/svg">
<path d="M121 5.55998H0.360002V219H121V177.4H49.64V130.04H117.48V88.44H49.64V47.16H121V5.55998ZM197.465 219V80.76L313.305 219H356.185V5.55998H306.905V143.16L191.065 5.55998H148.185V219H197.465ZM510.712 5.55998H390.072V219H510.712V177.4H439.352V130.04H507.192V88.44H439.352V47.16H510.712V5.55998ZM670.057 21.88C645.097 3.31999 621.417 0.759987 606.697 0.759987C586.857 0.759987 568.937 4.91999 553.897 20.28C541.097 33.4 535.337 49.4 535.337 68.28C535.337 78.52 536.937 93.56 548.137 105.4C556.457 114.36 567.977 118.84 577.897 122.36L595.497 128.44C601.577 130.68 614.697 135.48 620.457 140.28C624.937 144.12 627.817 148.6 627.817 155.64C627.817 163.64 624.297 169.4 620.137 172.92C613.097 179 604.137 180.28 597.737 180.28C587.817 180.28 579.177 177.72 570.857 172.6C565.097 169.08 556.457 161.72 551.017 156.28L525.417 191.48C533.417 199.48 545.897 209.4 556.777 214.84C570.217 221.56 583.657 223.8 599.017 223.8C613.097 223.8 640.617 221.88 659.497 202.04C670.697 190.52 678.377 171.32 678.377 149.24C678.377 136.76 675.177 121.4 662.697 109.56C654.377 101.56 642.857 96.76 633.577 93.24L617.577 87.16C603.177 81.72 595.817 79.8 590.697 75C587.497 72.12 585.897 68.28 585.897 63.16C585.897 57.72 588.137 52.92 591.337 49.72C597.097 43.32 605.417 42.36 612.137 42.36C618.217 42.36 631.977 43.32 647.977 57.72L670.057 21.88ZM744.155 219H793.435V119.48L869.915 5.55998H811.675L768.795 71.8L725.915 5.55998H667.675L744.155 119.48V219ZM999.145 21.88C974.185 3.31999 950.505 0.759987 935.785 0.759987C915.945 0.759987 898.025 4.91999 882.985 20.28C870.185 33.4 864.425 49.4 864.425 68.28C864.425 78.52 866.025 93.56 877.225 105.4C885.545 114.36 897.065 118.84 906.985 122.36L924.585 128.44C930.665 130.68 943.785 135.48 949.545 140.28C954.025 144.12 956.905 148.6 956.905 155.64C956.905 163.64 953.385 169.4 949.225 172.92C942.185 179 933.225 180.28 926.825 180.28C916.905 180.28 908.265 177.72 899.945 172.6C894.185 169.08 885.545 161.72 880.105 156.28L854.505 191.48C862.505 199.48 874.985 209.4 885.865 214.84C899.305 221.56 912.745 223.8 928.105 223.8C942.185 223.8 969.705 221.88 988.585 202.04C999.785 190.52 1007.47 171.32 1007.47 149.24C1007.47 136.76 1004.27 121.4 991.785 109.56C983.465 101.56 971.945 96.76 962.665 93.24L946.665 87.16C932.265 81.72 924.905 79.8 919.785 75C916.585 72.12 914.985 68.28 914.985 63.16C914.985 57.72 917.225 52.92 920.425 49.72C926.185 43.32 934.505 42.36 941.225 42.36C947.305 42.36 961.065 43.32 977.065 57.72L999.145 21.88Z" fill="#B3B3B3" fill-opacity="0.25"/>
</svg>
