<svg width="686" height="25" viewBox="0 0 686 25" fill="none" xmlns="http://www.w3.org/2000/svg">
<g filter="url(#filter0_d_4_91)">
<path d="M16.128 7.128C15.6 7.128 15.216 7.08 14.976 7.08C14.592 7.08 14.496 7.176 14.496 7.656V8.28C14.496 8.76 14.52 8.928 14.928 8.928C15.192 8.928 15.744 8.88 16.272 8.88H16.992C17.544 8.88 18.096 8.928 18.36 8.928C18.744 8.928 18.792 8.784 18.792 8.376V7.704C18.792 7.272 18.768 7.08 18.384 7.08C18.096 7.08 17.496 7.128 16.992 7.128H16.128ZM6.84 7.128C6.288 7.128 5.904 7.08 5.64 7.08C5.28 7.08 5.184 7.176 5.184 7.632V8.304C5.184 8.76 5.208 8.928 5.64 8.928C5.88 8.928 6.456 8.88 6.984 8.88H7.68C8.208 8.88 8.76 8.928 9.024 8.928C9.408 8.928 9.456 8.784 9.456 8.328V7.68C9.456 7.272 9.432 7.08 9.072 7.08C8.76 7.08 8.184 7.128 7.68 7.128H6.84ZM16.104 9.6C15.576 9.6 15.216 9.552 14.976 9.552C14.592 9.552 14.496 9.624 14.496 10.104V10.776C14.496 11.232 14.52 11.424 14.928 11.424C15.192 11.424 15.744 11.376 16.272 11.376H16.992C17.544 11.376 18.096 11.424 18.36 11.424C18.768 11.424 18.792 11.28 18.792 10.824V10.176C18.792 9.768 18.768 9.576 18.384 9.576C18.096 9.576 17.496 9.6 16.992 9.6H16.104ZM6.816 9.6C6.24 9.6 5.856 9.552 5.616 9.552C5.28 9.552 5.184 9.648 5.184 10.08V10.752C5.184 11.232 5.208 11.424 5.64 11.424C5.88 11.424 6.456 11.376 6.984 11.376H7.68C8.208 11.376 8.76 11.424 9.024 11.424C9.432 11.424 9.456 11.28 9.456 10.776V10.176C9.456 9.768 9.432 9.576 9.072 9.576C8.76 9.576 8.184 9.6 7.68 9.6H6.816ZM16.848 3.648C17.76 3.648 18.648 3.696 19.536 3.696C20.04 3.696 20.088 3.528 20.088 3.024V2.184C20.088 1.656 20.04 1.512 19.512 1.512C18.624 1.512 17.736 1.56 16.848 1.56H7.128C6.24 1.56 5.352 1.512 4.464 1.512C3.936 1.512 3.888 1.656 3.888 2.184V3.024C3.888 3.528 3.936 3.696 4.44 3.696C5.352 3.696 6.24 3.648 7.128 3.648H9.936C10.104 3.648 10.248 3.792 10.248 3.96V4.032C10.248 4.2 10.104 4.32 9.936 4.32H4.392C3.768 4.32 3.144 4.272 2.52 4.272C1.584 4.272 1.44 4.416 1.44 5.184V7.8C1.44 8.256 1.392 8.64 1.392 8.928C1.392 9.408 1.68 9.456 2.328 9.456H3.72C4.392 9.456 4.68 9.408 4.68 8.928C4.68 8.64 4.632 8.208 4.632 7.8V7.056C4.632 6.72 4.944 6.408 5.304 6.408H9.576C9.936 6.408 10.248 6.696 10.248 7.08V8.568C10.248 9.48 10.176 10.368 10.176 11.04C10.176 11.616 10.44 11.688 11.16 11.688H12.816C13.536 11.688 13.824 11.616 13.824 11.064C13.824 10.344 13.752 9.408 13.752 8.568V7.08C13.752 6.696 14.064 6.408 14.424 6.408H18.648C19.008 6.408 19.296 6.696 19.296 7.056V7.8C19.296 8.256 19.248 8.64 19.248 8.928C19.248 9.408 19.536 9.456 20.208 9.456H21.6C22.248 9.456 22.536 9.408 22.536 8.928C22.536 8.64 22.488 8.208 22.488 7.8V5.16C22.488 4.392 22.296 4.272 21.384 4.272C20.784 4.272 20.16 4.32 19.536 4.32H14.064C13.896 4.32 13.752 4.2 13.752 4.032V3.96C13.752 3.768 13.896 3.648 14.064 3.648H16.848ZM16.968 19.248C17.76 19.248 18.552 19.272 19.32 19.272H19.392C19.704 19.272 19.968 19.32 19.968 19.656C19.968 20.064 19.44 20.088 19.152 20.088H14.592C14.28 20.088 13.752 20.04 13.752 19.632C13.752 19.416 13.92 19.248 14.136 19.248H16.968ZM10.2 16.56C10.368 16.56 10.464 16.68 10.464 16.848V16.968C10.464 17.112 10.344 17.232 10.2 17.232H7.176C7.032 17.232 6.912 17.112 6.912 16.968V16.848C6.912 16.68 7.032 16.56 7.176 16.56H10.2ZM17.064 16.56C17.232 16.56 17.352 16.68 17.352 16.848V16.968C17.352 17.112 17.232 17.232 17.064 17.232H13.968C13.824 17.232 13.704 17.112 13.704 16.968V16.848C13.704 16.68 13.824 16.56 13.968 16.56H17.064ZM7.2 14.808C7.032 14.808 6.912 14.664 6.912 14.496V14.448C6.912 14.28 7.032 14.136 7.2 14.136H10.152C10.32 14.136 10.464 14.28 10.464 14.448V14.496C10.464 14.688 10.32 14.784 10.152 14.808H7.2ZM14.016 14.808C13.848 14.784 13.704 14.688 13.704 14.496V14.448C13.704 14.28 13.848 14.136 14.016 14.136H17.04C17.208 14.136 17.352 14.28 17.352 14.448V14.496C17.352 14.664 17.208 14.808 17.04 14.808H14.016ZM20.04 22.464C21 22.464 21.648 22.392 22.224 21.528C22.632 20.928 23.16 19.704 23.16 18.96C23.16 18.192 21.744 17.904 21.264 17.88C20.688 17.856 20.616 17.64 20.616 17.04V13.056C20.616 12.36 20.544 12.144 19.704 12.144H4.584C3.768 12.144 3.624 12.288 3.624 13.056C3.624 13.704 3.648 14.376 3.648 15.024V17.328C3.648 18.048 3.6 18.768 3.6 19.464C3.6 20.088 3.936 20.136 4.512 20.136H5.712C6.672 20.136 6.864 20.088 6.864 19.536C6.864 19.272 7.032 19.248 7.464 19.248H9.744C10.104 19.248 10.44 19.488 10.44 20.064V20.184C10.44 22.296 11.592 22.464 13.392 22.464H20.04ZM44.4 12.048C44.808 12.048 45.072 12.36 45.072 12.768V12.96C45.072 15.312 45.144 18.192 45.888 20.424C46.344 21.84 47.208 22.728 48.768 22.728C51.192 22.728 51.744 20.064 52.008 18.168C52.056 17.832 52.104 17.376 52.104 17.088C52.104 16.296 50.952 15.936 50.28 15.936C49.8 15.936 49.656 16.08 49.632 16.512C49.632 16.872 49.512 18.96 49.08 18.96C48.864 18.96 48.84 18.576 48.816 18.408C48.672 17.28 48.624 16.152 48.624 15.024C48.624 13.536 48.696 11.352 48.696 10.512C48.696 9.6 48.504 9.288 47.544 9.288C46.848 9.288 46.152 9.336 45.432 9.336H35.28C34.272 9.336 33.264 9.264 32.232 9.264C31.68 9.264 31.632 9.504 31.632 10.2V11.448C31.632 12 31.896 12.096 32.208 12.096C33.24 12.096 34.272 12.048 35.28 12.048H38.112C38.376 12.048 38.712 12.072 38.712 12.432C38.712 12.72 38.232 13.536 38.064 13.824C37.872 14.16 37.632 14.616 37.272 14.616C37.032 14.616 36.84 14.496 36.648 14.376C36.144 14.112 34.272 13.2 33.792 13.2C33.336 13.2 31.968 14.88 31.968 15.336C31.968 15.624 32.28 15.744 32.52 15.816C32.904 15.96 34.992 16.704 34.992 17.112C34.992 17.616 31.704 19.344 31.152 19.584C30.936 19.68 30.576 19.8 30.576 20.064C30.576 20.52 31.92 22.608 32.544 22.608C33.24 22.608 37.152 19.896 37.728 19.296C37.92 19.08 38.088 19.056 38.16 19.056C38.352 19.056 38.496 19.128 38.736 19.32C39.216 19.704 40.056 20.448 40.896 21.144C41.112 21.336 41.352 21.576 41.64 21.576C42.648 21.576 43.464 19.536 43.464 19.104C43.464 18.84 43.272 18.696 43.104 18.552C42.72 18.24 41.712 17.52 41.28 17.232C41.016 17.064 40.512 16.728 40.512 16.368C40.512 16.152 40.656 15.96 40.776 15.792C41.064 15.384 41.352 14.88 41.592 14.448C41.76 14.112 41.832 14.112 42.168 14.088C42.336 14.088 42.552 14.016 42.552 13.824C42.552 13.536 41.832 13.2 41.592 13.08C41.4 12.984 40.08 12.312 40.08 12.192C40.08 12.048 40.392 12.048 40.464 12.048H44.4ZM38.136 2.904C38.016 2.904 37.872 2.856 37.872 2.688C37.872 2.4 38.28 2.232 38.496 2.16C38.664 2.112 39 2.016 39 1.8C39 1.536 38.496 1.44 38.256 1.368C37.752 1.248 35.64 0.671999 35.28 0.671999C35.04 0.671999 34.992 0.887999 34.896 1.128C34.152 3.12 32.328 5.472 30.672 6.816C30.432 7.032 30.072 7.248 30.072 7.488C30.072 8.136 31.968 9.192 32.352 9.192C32.808 9.192 34.224 7.704 34.56 7.32C34.656 7.2 34.776 7.032 34.92 7.032C35.136 7.032 35.136 7.32 35.136 7.464V7.68C35.136 8.28 35.136 8.568 35.688 8.568C36.408 8.568 37.104 8.544 37.824 8.544H45.48C46.2 8.544 46.896 8.568 47.616 8.568C48.072 8.568 48.168 8.376 48.168 7.872V6.84C48.168 6.336 48.072 6.144 47.592 6.144C46.896 6.144 46.2 6.192 45.48 6.192H37.824C37.248 6.192 36.696 6.144 36.144 6.144C35.784 6.144 35.712 6.12 35.712 5.976C35.712 5.808 36.024 5.472 36.744 5.472H47.424C48.336 5.472 49.248 5.52 50.16 5.52C50.688 5.52 50.736 5.328 50.736 4.68V3.696C50.736 3.048 50.688 2.856 50.136 2.856C49.224 2.856 48.336 2.904 47.424 2.904H38.136ZM60.984 12.72C60.984 15.36 61.344 18.048 62.52 20.424C62.952 21.288 63.168 21.6 63.624 21.6C64.368 21.6 66.144 20.904 66.144 20.016C66.144 19.872 66.096 19.464 66.072 19.32C66.024 18.96 65.976 18.36 65.976 18.192C65.976 16.896 67.032 15.048 67.032 14.712C67.032 14.352 66.072 13.536 65.784 13.536C65.52 13.536 65.376 13.8 65.232 14.04C65.112 14.232 64.992 14.424 64.824 14.424C64.512 14.424 64.512 13.776 64.512 12.456C64.512 10.272 65.184 7.488 65.976 5.64C66.192 5.112 66.312 4.92 66.864 4.656C66.96 4.608 67.032 4.56 67.032 4.464C67.032 4.344 66.888 4.2 66.408 3.984C65.376 3.528 63.072 2.688 62.856 2.688C62.544 2.688 62.52 2.904 62.448 3.36C62.376 3.744 62.256 4.2 62.136 4.656C61.392 7.488 60.984 9.768 60.984 12.72ZM68.28 6.744C68.28 7.008 68.28 7.728 68.472 7.896C68.928 8.28 72.24 8.4 72.96 8.4C74.304 8.4 75.648 8.304 76.992 8.112C77.616 8.016 77.688 7.848 77.688 7.272C77.688 6.672 77.616 5.904 77.544 5.304C77.496 4.944 77.352 4.44 76.896 4.44C76.752 4.44 76.632 4.464 76.416 4.512C75.264 4.8 74.064 4.992 72.864 4.992C71.928 4.992 70.608 4.848 69.696 4.656C69.48 4.608 69.096 4.56 68.952 4.56C68.376 4.56 68.28 4.968 68.28 6.744ZM68.712 14.76C68.16 14.76 66.96 17.184 66.96 17.64C66.96 18.192 68.664 20.112 72.528 20.112C73.608 20.112 77.616 19.752 78.456 19.344C78.768 19.2 78.792 19.032 78.792 18.72C78.792 18.24 78.768 16.872 78.672 16.224C78.648 16.008 78.504 15.696 78.192 15.696C78.024 15.696 77.784 15.744 77.616 15.792C75.912 16.272 74.136 16.56 72.36 16.56C70.8 16.56 70.008 16.152 69 14.952C68.928 14.88 68.832 14.76 68.712 14.76ZM95.28 14.952C94.512 14.952 93.72 14.904 92.928 14.904C92.448 14.904 92.4 15.12 92.4 15.648V16.536C92.4 17.088 92.448 17.304 92.928 17.304C93.672 17.304 94.416 17.256 95.16 17.256C95.28 17.256 95.52 17.28 95.52 17.448C95.52 17.808 93.408 19.008 92.4 19.344C92.112 19.44 91.752 19.56 91.752 19.824C91.752 20.376 92.712 21.816 93.696 21.816C94.536 21.816 96.96 20.088 97.584 19.464C97.776 19.272 98.016 19.032 98.28 19.032C98.568 19.032 98.76 19.248 98.928 19.464C99.384 19.992 99.984 20.568 100.536 21C100.824 21.24 101.832 21.984 102.168 21.984C102.408 21.984 102.672 21.792 102.888 21.648C103.056 21.528 103.2 21.432 103.296 21.432C103.464 21.432 103.512 21.552 103.56 21.744C103.8 22.536 104.28 22.656 104.928 22.656C105.864 22.656 107.232 22.536 107.952 21.888C108.648 21.288 108.696 20.448 108.696 19.584C108.696 18.912 108.648 18.264 108.648 17.592V5.4C108.648 4.536 108.696 3.696 108.696 2.832C108.696 1.728 108.192 1.512 107.376 1.512C106.608 1.512 105.84 1.56 105.072 1.56H102.648C101.88 1.56 101.088 1.488 100.32 1.488C99.384 1.488 99.024 1.872 99.024 2.832C99.024 3.648 99.072 4.464 99.072 5.304V5.544C99.072 6.36 99.024 7.176 99.024 8.016C99.024 8.472 99.168 9.192 99.744 9.288C99.912 9.312 100.104 9.336 100.104 9.576C100.104 9.864 99.432 10.944 99.24 11.232C99.024 11.568 98.88 11.76 98.448 11.76H98.232C97.848 11.76 97.776 11.568 97.656 11.304C97.512 10.992 97.176 10.32 97.032 10.08C96.936 9.912 96.84 9.768 96.84 9.648C96.84 9.48 96.96 9.336 97.104 9.288C97.704 9.072 97.824 8.592 97.824 8.016C97.824 7.176 97.776 6.36 97.776 5.544V5.304C97.776 4.464 97.824 3.648 97.824 2.832C97.824 1.68 97.248 1.512 96.504 1.512C95.736 1.512 94.968 1.56 94.2 1.56H91.752C90.984 1.56 90.216 1.488 89.424 1.488C88.488 1.488 88.128 1.896 88.128 2.832C88.128 3.696 88.176 4.536 88.176 5.4V18.24C88.176 19.488 88.128 20.712 88.128 21.936C88.128 22.584 88.368 22.632 89.136 22.632H90.504C91.344 22.632 91.608 22.584 91.608 21.936C91.608 20.712 91.536 19.488 91.536 18.24V9.96C91.536 9.576 91.848 9.288 92.208 9.288H94.344C94.752 9.288 94.848 9.312 94.848 9.408C94.848 9.48 94.656 9.552 94.584 9.576C94.344 9.672 93.696 9.912 93.696 10.224C93.696 10.344 93.792 10.464 93.888 10.584C94.032 10.752 94.584 11.424 94.584 11.568C94.584 11.664 94.488 11.736 94.296 11.736H93.48C93 11.736 92.952 11.976 92.952 12.456V13.296C92.952 13.824 93 14.064 93.48 14.064C94.2 14.064 94.92 14.016 95.616 14.016H96.408C96.624 14.016 96.792 14.208 96.792 14.424V14.568C96.792 14.784 96.624 14.952 96.408 14.952H95.28ZM103.128 10.752C103.272 10.584 103.296 10.56 103.536 10.536C103.728 10.512 103.896 10.512 103.896 10.224C103.896 10.008 103.656 9.936 102.984 9.72C102.648 9.624 102.504 9.552 102.504 9.456C102.504 9.312 102.744 9.288 102.84 9.288H104.616C105 9.288 105.288 9.576 105.288 9.96V18.768C105.288 19.248 105.24 19.608 104.76 19.608C103.944 19.608 103.488 19.344 102.816 18.912C102.552 18.744 101.112 17.736 101.112 17.472C101.112 17.28 101.352 17.256 101.712 17.256C102.456 17.256 103.176 17.304 103.92 17.304C104.376 17.304 104.424 17.04 104.424 16.512V15.768C104.424 15.144 104.4 14.904 103.872 14.904C103.08 14.904 102.312 14.952 101.52 14.952H100.296C100.104 14.952 99.912 14.808 99.912 14.592V14.4C99.912 14.232 100.104 14.016 100.32 14.016H101.16C101.88 14.016 102.576 14.064 103.296 14.064C103.776 14.064 103.824 13.848 103.824 13.296V12.528C103.824 11.976 103.776 11.736 103.296 11.736H103.056C102.888 11.736 102.648 11.688 102.648 11.472C102.648 11.28 102.768 11.16 103.128 10.752ZM94.488 4.224C94.488 4.416 94.368 4.536 94.176 4.536H91.848C91.68 4.536 91.536 4.416 91.536 4.224V4.152C91.536 3.984 91.68 3.84 91.848 3.84H94.176C94.344 3.84 94.488 3.984 94.488 4.152V4.224ZM94.488 6.672C94.488 6.84 94.344 6.96 94.176 6.96H91.848C91.68 6.96 91.536 6.84 91.536 6.672V6.528C91.536 6.36 91.68 6.24 91.848 6.24H94.176C94.368 6.24 94.488 6.36 94.488 6.528V6.672ZM105.288 4.224C105.288 4.416 105.168 4.536 104.976 4.536H102.648C102.48 4.536 102.36 4.416 102.36 4.224V4.152C102.36 3.984 102.48 3.84 102.648 3.84H104.976C105.168 3.84 105.288 3.984 105.288 4.152V4.224ZM105.288 6.672C105.288 6.84 105.168 6.96 104.976 6.96H102.648C102.48 6.96 102.36 6.84 102.36 6.672V6.528C102.36 6.36 102.48 6.24 102.648 6.24H104.976C105.168 6.24 105.288 6.36 105.288 6.528V6.672ZM122.736 1.584C122.448 1.584 122.28 1.68 122.28 1.992V2.568C122.28 3.504 122.28 4.44 122.256 5.376C122.256 5.808 122.16 6.024 122.016 6.144C121.608 6.504 119.592 6.552 118.992 6.552H118.656C118.296 6.552 117.936 6.6 117.936 7.104C117.936 7.488 118.32 9.216 118.44 9.672C118.536 10.008 118.68 10.44 119.088 10.44C119.568 10.44 120.912 10.08 121.392 9.936C121.536 9.888 121.68 9.84 121.8 9.84C122.064 9.84 122.136 10.08 122.136 10.32C122.136 10.44 122.04 10.656 121.944 10.824C120.888 12.672 119.496 14.448 117.984 15.96L117.84 16.104C117.6 16.32 117.336 16.56 117.336 16.824C117.336 17.352 119.28 19.44 119.832 19.44C120.048 19.44 120.168 19.224 120.264 19.056C120.456 18.744 121.32 17.328 121.656 17.328C121.944 17.328 121.968 17.592 121.968 17.784C121.968 18.552 121.92 20.328 121.824 21.048C121.8 21.144 121.8 21.312 121.8 21.432C121.8 21.912 122.136 21.912 123.144 21.912C123.888 21.912 124.56 21.888 125.28 21.816C125.64 21.768 125.712 21.696 125.712 21.504C125.712 21.408 125.52 18.6 125.496 18.168C125.448 16.92 125.424 15.648 125.424 14.376V14.16C125.424 13.872 125.448 13.656 125.592 13.368C126.312 12.048 129.048 10.104 131.016 10.104C132.648 10.104 133.56 11.568 133.56 13.056C133.56 14.616 132.576 15.696 131.304 16.464C130.416 16.992 129.216 17.304 128.208 17.544C127.776 17.64 127.368 17.712 127.368 18.264C127.368 18.864 128.064 21.024 129.096 21.024C130.032 21.024 131.76 20.28 132.624 19.824C135.384 18.36 137.304 16.152 137.304 12.912C137.304 9.456 134.808 6.6 131.256 6.6C129.432 6.6 127.824 7.368 126.456 8.544C126.432 8.568 126.36 8.616 126.288 8.688C126.024 8.928 125.664 9.216 125.616 9.216C125.544 9.216 125.496 9.144 125.496 9.072C125.496 8.952 125.688 8.664 126.144 8.136C126.504 7.728 126.864 7.344 126.864 7.152C126.864 6.816 126.264 6.216 126.048 6C125.808 5.784 125.664 5.664 125.664 5.328C125.664 5.232 125.688 5.136 125.688 5.04C125.76 4.536 125.808 4.08 125.832 3.84C125.928 2.88 125.928 2.808 126.312 2.496C126.408 2.424 126.456 2.352 126.456 2.208C126.456 2.016 126.312 1.944 126.072 1.896C125.64 1.8 123.168 1.584 122.736 1.584ZM158.28 2.304C158.112 2.304 157.848 2.424 157.248 2.688C155.88 3.264 152.448 3.528 150.888 3.552H150.336C149.64 3.552 149.568 3.552 149.568 3.912V4.152C149.568 4.608 149.712 7.32 150.264 7.32C150.36 7.32 150.456 7.32 150.552 7.296C151.176 7.2 153.792 6.72 153.864 6.72C153.96 6.72 154.344 6.768 154.344 7.056C154.344 7.296 154.176 7.44 154.008 7.608C153.6 8.064 153.24 8.496 152.784 8.952C151.944 9.768 147.96 13.728 147.36 14.208C146.856 14.592 146.616 14.808 146.616 15.096C146.616 15.552 148.488 17.52 149.04 17.52C149.136 17.52 149.328 17.352 149.664 16.92C150.384 16.032 151.752 14.664 152.616 13.896C153.936 12.72 155.496 12.048 157.248 12.048C159.096 12.048 160.752 12.96 160.752 15C160.752 16.584 159.6 17.784 159.024 17.784C158.76 17.784 158.544 17.568 158.448 17.328C158.232 16.824 158.16 16.584 157.8 16.128C157.008 15.168 155.808 14.592 154.56 14.592C152.712 14.592 150.96 16.008 150.96 17.928C150.96 20.688 154.008 21.6 156.264 21.6C160.44 21.6 164.4 19.32 164.4 14.736C164.4 12.024 162.792 9.936 160.2 9.144C159.72 9 158.88 8.856 158.52 8.856C158.424 8.856 158.328 8.88 158.256 8.88C157.968 8.88 157.704 8.664 157.704 8.376C157.704 8.208 157.8 8.064 157.92 7.944C158.784 7.128 159.864 6.144 160.872 5.52C160.992 5.448 161.136 5.328 161.136 5.184C161.136 4.656 159.312 2.304 158.28 2.304ZM155.784 18.336C155.784 18.648 155.496 18.864 155.184 18.864C154.632 18.864 153.816 18.552 153.816 17.904C153.816 17.472 154.2 17.256 154.584 17.256C155.424 17.256 155.784 18 155.784 18.336ZM182.904 1.704C182.712 1.704 182.52 1.8 182.472 2.016C182.448 2.088 182.16 4.224 182.136 4.464C182.04 5.376 181.8 5.4 179.4 5.4C178.728 5.4 178.152 5.328 177.648 5.328C177.216 5.328 177.096 5.424 177.096 7.392C177.096 8.592 177.168 8.592 178.488 8.592C179.232 8.592 179.952 8.544 180.672 8.472C180.864 8.448 181.104 8.424 181.296 8.424C181.56 8.424 181.728 8.544 181.728 8.808C181.728 9.072 181.56 9.288 181.344 9.384C180.456 9.816 179.664 10.272 178.896 10.896C177.096 12.336 175.44 14.688 175.44 17.088C175.44 18.888 176.76 20.424 178.608 20.424C179.616 20.424 180.864 20.04 181.776 19.608C181.824 19.584 181.872 19.56 181.944 19.56C182.064 19.56 182.112 19.608 182.208 19.68C182.328 19.776 182.424 19.848 182.592 19.848C183.432 19.848 185.28 18.456 185.28 17.904C185.28 17.664 185.184 17.4 185.184 17.256C185.184 17.064 185.256 16.968 185.376 16.848C186.6 15.576 187.752 14.016 188.664 12.504C188.808 12.24 188.928 12.096 189.168 12.096C189.6 12.096 190.464 13.224 190.464 14.736C190.464 16.56 189.192 17.736 187.608 18.432C187.008 18.696 185.64 19.2 185.016 19.368C184.776 19.44 184.536 19.488 184.536 19.776C184.536 20.328 185.328 22.56 186 22.56C186.384 22.56 188.088 22.032 189.48 21.264C192.048 19.848 194.04 17.736 194.04 14.64C194.04 10.32 190.56 8.28 186.624 8.28C186.144 8.28 185.568 8.304 185.376 8.304C185.232 8.304 184.992 8.304 184.992 8.088C184.992 7.896 185.352 7.8 185.544 7.776C186.744 7.584 187.968 7.392 189.12 7.128C189.648 7.008 190.056 6.888 190.056 6.432C190.056 6.024 189.696 4.704 189.576 4.296C189.48 4.008 189.312 3.72 189.024 3.72C188.928 3.72 188.808 3.768 188.712 3.816C187.776 4.224 186.168 4.656 185.928 4.656C185.736 4.656 185.592 4.512 185.592 4.32C185.592 4.2 185.736 3.816 185.784 3.696C185.904 3.384 185.976 3.312 186.264 3.12C186.36 3.072 186.528 2.976 186.528 2.856C186.528 2.688 186.288 2.592 186 2.52C185.544 2.4 183.144 1.704 182.904 1.704ZM181.152 13.464C181.416 13.464 181.464 13.704 181.464 13.92C181.464 14.136 181.44 14.352 181.44 14.592C181.44 14.88 181.464 15.192 181.464 15.48C181.464 15.744 181.464 15.984 181.224 16.176C180.84 16.488 179.856 16.896 179.352 16.896C179.088 16.896 178.896 16.776 178.896 16.488C178.896 15.696 180.648 13.464 181.152 13.464ZM185.496 11.28C185.664 11.28 185.856 11.352 185.856 11.544C185.856 11.76 185.232 12.648 184.968 12.648C184.728 12.648 184.656 12.24 184.656 12.072C184.656 11.832 184.656 11.28 185.496 11.28ZM209.616 3.768C209.616 4.032 209.856 4.152 210.216 4.368C211.464 5.088 212.688 5.904 213.792 6.84C213.96 6.984 214.176 7.176 214.416 7.176C215.112 7.176 216.528 5.088 216.528 4.56C216.528 4.296 216.168 4.056 215.664 3.696C214.992 3.216 213.384 2.208 212.304 1.656C211.968 1.488 211.632 1.344 211.464 1.344C210.672 1.344 209.616 3.408 209.616 3.768ZM208.296 5.736C207.768 5.736 207.768 6.144 207.768 7.032C207.768 8.856 207.36 12.744 206.448 15.888C206.4 16.032 206.352 16.224 206.352 16.392C206.352 17.232 208.464 17.568 208.848 17.568C209.232 17.568 209.424 17.328 209.64 17.04C210.984 15.312 213.48 13.128 215.784 13.128C216.936 13.128 218.136 13.752 218.136 15.072C218.136 17.616 213.6 18.096 211.728 18.12C211.416 18.12 211.08 18.192 211.08 18.648C211.08 19.32 211.488 20.664 211.848 21.312C212.064 21.696 212.328 21.792 212.76 21.792C213.624 21.792 215.352 21.384 216.216 21.12C217.704 20.664 219.36 19.896 220.44 18.744C221.424 17.688 221.736 16.44 221.736 15.024C221.736 13.632 221.4 12.504 220.464 11.472C219.36 10.248 217.848 9.672 216.216 9.672C215.112 9.672 213.624 9.96 212.64 10.512C212.4 10.656 211.416 11.232 211.2 11.232C210.984 11.232 210.864 11.016 210.864 10.8C210.864 10.608 210.912 10.416 210.936 10.248C211.08 9.552 211.176 8.856 211.344 8.184C211.488 7.608 211.512 7.488 211.824 7.344C211.944 7.296 212.112 7.2 212.112 7.056C212.112 6.792 211.608 6.648 211.032 6.456C210.552 6.288 208.704 5.736 208.296 5.736ZM233.448 12.504C233.448 14.328 233.664 17.136 234.264 18.816C234.384 19.176 234.504 19.464 234.936 19.464C235.44 19.464 236.4 19.176 236.88 19.008C237.312 18.864 237.648 18.72 237.648 18.36C237.648 18.24 237.624 18.12 237.6 18C237.456 17.448 237.384 16.92 237.384 16.368C237.384 13.92 238.608 11.568 240.432 9.984C240.792 9.672 242.016 8.784 242.472 8.784C242.928 8.784 242.928 9.336 242.928 10.608C242.928 11.352 242.856 14.016 242.64 14.592C242.592 14.736 242.472 14.88 242.328 14.88C241.824 14.88 241.392 13.32 241.32 12.936C241.224 12.336 241.2 12.048 240.624 12.048C240.072 12.048 239.28 12.288 238.8 12.576C238.464 12.768 238.344 13.032 238.344 13.416C238.344 15.144 239.448 17.04 240.768 18.096C240.984 18.264 241.104 18.456 241.104 18.744C241.104 19.128 240.384 19.992 240.096 20.28C239.976 20.4 239.832 20.544 239.832 20.736C239.832 21.12 240.264 21.456 240.552 21.696C240.888 21.984 241.92 22.8 242.304 22.8C242.64 22.8 242.928 22.56 243.144 22.32C243.672 21.72 244.344 20.616 244.704 19.872C244.92 19.416 245.088 19.32 245.592 19.272C249.504 18.936 251.952 15.792 251.952 11.976C251.952 9.048 250.536 6.72 247.8 5.616C247.368 5.448 246.984 5.352 246.576 5.256C246.264 5.184 246.048 5.136 245.928 4.848C245.832 4.632 245.736 3.816 245.736 3.552C245.736 3.336 245.808 3.144 245.904 2.976C246 2.808 246.096 2.664 246.096 2.496C246.096 2.208 245.784 2.184 245.592 2.184C244.752 2.184 243.624 2.064 242.664 2.064C242.304 2.064 241.8 2.088 241.8 2.568C241.8 2.784 241.896 3.096 241.968 3.336C242.064 3.696 242.304 4.584 242.304 4.824C242.304 5.28 241.992 5.448 241.632 5.592C239.952 6.264 238.56 7.32 237.456 8.76C237.36 8.88 237.24 9 237.12 9C236.976 9 236.904 8.856 236.904 8.736C236.904 8.616 237.336 6.744 237.984 6.312C238.128 6.216 238.176 6.192 238.176 6.072C238.176 5.904 237.984 5.784 237.528 5.616C237.096 5.448 234.864 4.608 234.576 4.608C234.288 4.608 234.24 4.992 234.216 5.184C233.736 8.04 233.448 9.552 233.448 12.504ZM246.696 8.712C247.104 8.712 248.592 9.528 248.592 11.928C248.592 14.592 246.792 15.792 246.312 15.792C246.12 15.792 246 15.6 246 15.456C246 15.384 246.024 15.264 246.048 15.216C246.24 13.968 246.336 12.312 246.336 11.064C246.336 10.44 246.288 9.816 246.288 9.264C246.288 8.976 246.36 8.712 246.696 8.712ZM273.48 2.304C273.312 2.304 273.048 2.424 272.448 2.688C271.08 3.264 267.648 3.528 266.088 3.552H265.536C264.84 3.552 264.768 3.552 264.768 3.912V4.152C264.768 4.608 264.912 7.32 265.464 7.32C265.56 7.32 265.656 7.32 265.752 7.296C266.376 7.2 268.992 6.72 269.064 6.72C269.16 6.72 269.544 6.768 269.544 7.056C269.544 7.296 269.376 7.44 269.208 7.608C268.8 8.064 268.44 8.496 267.984 8.952C267.144 9.768 263.16 13.728 262.56 14.208C262.056 14.592 261.816 14.808 261.816 15.096C261.816 15.552 263.688 17.52 264.24 17.52C264.336 17.52 264.528 17.352 264.864 16.92C265.584 16.032 266.952 14.664 267.816 13.896C269.136 12.72 270.696 12.048 272.448 12.048C274.296 12.048 275.952 12.96 275.952 15C275.952 16.584 274.8 17.784 274.224 17.784C273.96 17.784 273.744 17.568 273.648 17.328C273.432 16.824 273.36 16.584 273 16.128C272.208 15.168 271.008 14.592 269.76 14.592C267.912 14.592 266.16 16.008 266.16 17.928C266.16 20.688 269.208 21.6 271.464 21.6C275.64 21.6 279.6 19.32 279.6 14.736C279.6 12.024 277.992 9.936 275.4 9.144C274.92 9 274.08 8.856 273.72 8.856C273.624 8.856 273.528 8.88 273.456 8.88C273.168 8.88 272.904 8.664 272.904 8.376C272.904 8.208 273 8.064 273.12 7.944C273.984 7.128 275.064 6.144 276.072 5.52C276.192 5.448 276.336 5.328 276.336 5.184C276.336 4.656 274.512 2.304 273.48 2.304ZM270.984 18.336C270.984 18.648 270.696 18.864 270.384 18.864C269.832 18.864 269.016 18.552 269.016 17.904C269.016 17.472 269.4 17.256 269.784 17.256C270.624 17.256 270.984 18 270.984 18.336ZM294.24 7.2C294.24 7.416 294.312 7.584 294.48 7.704C295.296 8.256 299.4 8.376 300.528 8.376C301.968 8.376 303.432 8.304 304.872 8.04C305.448 7.944 305.616 7.896 305.616 7.344C305.616 6.936 305.568 6.072 305.544 5.664C305.496 4.824 305.376 4.224 304.824 4.224C304.704 4.224 304.56 4.248 304.44 4.272C303.024 4.584 301.584 4.776 300.144 4.776C298.8 4.776 297.456 4.608 296.184 4.32C295.92 4.248 295.56 4.152 295.296 4.152C294.792 4.152 294.672 4.512 294.624 4.8C294.528 5.328 294.24 6.96 294.24 7.2ZM291.768 14.832C291.768 15.552 292.416 16.872 292.848 17.472C294.456 19.704 297.24 20.016 299.808 20.016C301.656 20.016 305.256 19.776 307.032 19.344C307.608 19.2 307.872 19.056 307.872 18.624C307.872 18.312 307.8 17.088 307.776 16.68C307.728 15.888 307.632 15.384 307.176 15.384C307.008 15.384 306.792 15.432 306.624 15.48C304.56 16.104 301.872 16.32 299.712 16.32C298.464 16.32 296.952 16.272 296.04 15.336C295.656 14.952 295.488 14.28 295.416 13.776C295.368 13.416 295.296 13.176 294.984 13.176C294.696 13.176 293.064 13.872 292.704 14.04C292.104 14.304 291.768 14.496 291.768 14.832ZM323.376 2.928C323.376 3 323.424 3.144 323.448 3.216C323.856 4.392 324.192 5.712 324.456 6.888C324.624 7.584 324.792 8.256 324.984 8.904C325.056 9.12 325.128 9.312 325.128 9.48C325.128 9.888 324.912 10.008 324.552 10.224C322.656 11.448 320.952 13.44 320.952 15.816C320.952 17.544 321.864 19.056 323.352 19.92C325.032 20.88 326.688 21 328.584 21C329.904 21 334.056 20.88 335.16 20.592C335.784 20.424 335.808 20.208 335.808 19.488C335.808 18.792 335.784 18 335.712 17.304C335.688 17.112 335.616 16.704 335.376 16.704C335.304 16.704 335.208 16.728 335.136 16.728C334.752 16.848 333.096 17.112 332.592 17.184C331.44 17.328 330.168 17.376 328.944 17.376C327.84 17.376 324.792 17.376 324.792 15.768C324.792 14.52 326.448 13.44 327.6 12.72C329.928 11.256 332.976 9.672 335.16 8.928C335.28 8.88 335.4 8.856 335.496 8.808C336 8.64 336.264 8.544 336.264 8.28C336.264 7.824 335.544 6.648 335.28 6.216C334.944 5.664 334.44 4.92 334.176 4.92C333.864 4.92 332.64 5.664 332.28 5.88C331.752 6.192 329.616 7.464 329.16 7.464C328.8 7.464 328.68 7.128 328.608 6.84C328.44 6.192 328.344 5.472 328.2 3.936C328.032 2.136 327.984 2.088 327.336 2.088C326.88 2.088 326.328 2.16 325.392 2.28C323.664 2.496 323.376 2.64 323.376 2.928ZM361.6 9.936C360.376 9.936 359.176 9.864 357.976 9.864C357.28 9.864 357.208 10.224 357.208 11.136V12.768C357.208 13.728 357.28 14.064 357.976 14.064C359.2 14.064 360.4 13.968 361.6 13.968H373.84C375.04 13.968 376.264 14.064 377.464 14.064C378.16 14.064 378.232 13.752 378.232 12.768V11.136C378.232 10.224 378.16 9.864 377.464 9.864C376.264 9.864 375.04 9.936 373.84 9.936H361.6ZM393.832 11.88C394.456 11.88 394.504 12.456 394.504 13.128V14.04C394.504 15.072 394.48 15.216 393.592 15.216C393.184 15.216 392.848 15.168 392.728 15.168C392.176 15.168 392.176 15.6 392.176 16.128C392.176 16.752 392.344 17.832 392.704 18.336C392.92 18.624 393.232 18.624 393.544 18.648C393.664 18.648 393.808 18.672 393.808 18.816C393.808 18.96 393.592 18.984 393.448 19.008C391.792 19.272 390.616 19.416 388.936 19.416C388.336 19.416 387.76 19.392 387.184 19.392C386.896 19.392 386.728 19.392 386.728 19.824C386.728 20.352 386.8 20.904 386.944 21.504C387.184 22.44 387.4 22.728 388 22.728C388.408 22.728 388.864 22.704 389.296 22.68C391.888 22.512 394.096 22.32 396.568 21.408C398.584 20.664 400.888 19.392 402.52 17.976C402.616 17.88 402.832 17.688 402.976 17.688C403 17.688 403.096 17.712 403.144 17.712C403.24 17.736 403.36 17.76 403.456 17.76C403.648 17.76 403.816 17.688 403.816 17.496C403.816 17.208 403.384 16.992 402.736 16.488C402.688 16.44 402.592 16.368 402.496 16.296C401.968 15.888 400.984 15.144 400.672 15.144C400.504 15.144 400.432 15.24 400.336 15.36C400.096 15.624 398.752 16.968 398.44 16.968C398.296 16.968 398.248 16.872 398.248 16.728V16.656C398.272 16.392 398.296 16.248 398.296 15.984C398.296 15.408 398.224 14.832 398.224 14.256V13.44C398.224 12.816 398.248 12.744 398.608 12.504C398.776 12.384 398.968 12.288 398.968 12.144V12.096C398.944 12.048 398.944 12.048 398.944 12.024C398.944 11.904 399.088 11.88 399.184 11.88H400.624C400.816 11.88 400.96 11.88 400.96 12.12C400.96 12.216 400.84 12.312 400.792 12.36C400.6 12.504 399.928 13.08 399.928 13.296C399.928 13.488 400.24 13.704 400.36 13.8C401.8 14.856 403.12 16.032 404.32 17.352C404.464 17.544 404.848 17.976 405.088 17.976C405.64 17.976 407.272 16.464 407.272 15.864C407.272 15.624 406.84 15.24 406.576 14.976C406.528 14.904 406.48 14.88 406.432 14.832C405.808 14.232 404.824 13.272 404.152 12.768C404.104 12.72 404.032 12.672 403.96 12.624C403.696 12.432 403.432 12.24 403.432 12.096C403.432 11.88 403.72 11.88 403.864 11.88C404.752 11.88 405.664 11.928 406.552 11.928C407.104 11.928 407.152 11.64 407.152 10.968V9.624C407.152 8.952 407.104 8.664 406.552 8.664C405.496 8.664 404.44 8.736 403.384 8.736H398.944C398.584 8.736 398.272 8.424 398.272 8.064V7.128C398.272 6.744 398.584 6.456 398.944 6.456H401.512C402.808 6.456 403.6 6.528 404.104 6.528C404.896 6.528 404.92 6.36 404.92 5.496V4.104C404.92 3.432 404.872 3.216 404.32 3.216C403.384 3.216 402.448 3.288 401.512 3.288H399.112C398.656 3.288 398.296 3.072 398.296 2.568C398.296 2.304 398.344 2.064 398.536 1.896C398.704 1.728 398.8 1.68 398.8 1.512C398.8 1.224 398.464 1.2 398.248 1.176C397.384 1.08 396.496 1.008 395.608 0.935999C395.44 0.912 395.152 0.887999 394.96 0.887999C394.72 0.887999 394.48 0.935999 394.48 1.248C394.48 1.32 394.48 1.344 394.504 1.488C394.576 1.992 394.576 2.688 394.576 3.336V8.064C394.576 8.424 394.264 8.736 393.904 8.736H392.512C392.152 8.736 391.84 8.424 391.84 8.064V4.512C391.84 3.888 391.864 3.336 392.08 3.144C392.248 3 392.344 2.928 392.344 2.784C392.344 2.472 392.056 2.448 391.624 2.4C391.216 2.352 389.176 2.16 388.84 2.16C388.576 2.16 388.384 2.208 388.384 2.52C388.384 2.832 388.48 3.552 388.48 5.208V7.92C388.48 8.448 388.168 8.712 387.784 8.712C387.352 8.712 386.92 8.664 386.488 8.664C385.936 8.664 385.888 8.952 385.888 9.624V10.968C385.888 11.664 385.936 11.928 386.488 11.928C387.448 11.928 388.408 11.88 389.368 11.88C389.56 11.88 389.776 11.928 389.776 12.168C389.776 12.336 389.32 12.912 389.104 13.2C389.056 13.248 389.032 13.296 389.008 13.32C388.168 14.28 387.232 15.096 386.176 15.816C386.008 15.936 385.768 16.056 385.768 16.296C385.768 16.632 387.4 18.312 388.024 18.312C388.384 18.312 388.816 17.952 389.08 17.736C390.376 16.752 391.6 15.432 392.584 14.112C392.8 13.824 392.896 13.68 393.28 13.632C393.496 13.584 393.736 13.512 393.736 13.248C393.736 12.984 393.208 12.72 392.272 12.216C392.2 12.192 392.056 12.12 392.056 12.024C392.056 11.88 392.2 11.88 392.368 11.88H393.832ZM432.376 13.392C433.408 13.392 434.464 13.464 435.52 13.464C436.096 13.464 436.144 13.2 436.144 12.48V11.112C436.144 10.368 436.096 10.104 435.52 10.104C434.464 10.104 433.432 10.152 432.376 10.152H427.816C427.432 10.152 427.144 9.84 427.144 9.48V7.848C427.144 7.464 427.432 7.176 427.816 7.176H431.128C431.944 7.176 432.76 7.224 433.576 7.224C434.08 7.224 434.128 6.96 434.128 6.216V4.968C434.128 4.152 434.08 3.912 433.552 3.912C432.808 3.912 431.992 3.96 431.128 3.96H427.768C427.312 3.96 427.144 3.624 427.144 3.216V2.664C427.144 2.136 427.168 1.728 427.384 1.512C427.48 1.392 427.648 1.272 427.648 1.128C427.648 0.887999 427.36 0.887999 427.096 0.863999C426.544 0.816 424.408 0.671999 423.952 0.671999C423.688 0.671999 423.448 0.719999 423.448 1.032C423.448 1.104 423.448 1.176 423.472 1.248C423.52 1.608 423.544 2.304 423.544 2.664V3.096C423.544 3.552 423.472 3.96 422.92 3.96H422.344C422.056 3.96 421.888 3.792 421.888 3.504C421.888 3.408 421.936 2.88 422.32 2.736C422.536 2.664 422.68 2.592 422.68 2.376C422.68 2.112 422.368 2.016 421.72 1.824C421.312 1.704 419.536 1.176 419.224 1.176C419.008 1.176 418.96 1.392 418.888 1.656C418.336 3.672 416.896 6.552 415.648 8.232C415.552 8.376 415.384 8.568 415.384 8.712C415.384 9.096 416.344 9.6 416.656 9.768C416.728 9.792 416.896 9.888 416.896 9.984C416.896 10.128 416.584 10.128 416.488 10.128C416.104 10.128 415.72 10.104 415.336 10.104C414.76 10.104 414.712 10.368 414.712 11.088V12.456C414.712 13.2 414.76 13.464 415.336 13.464C416.392 13.464 417.424 13.392 418.48 13.392H420.352C420.832 13.392 420.88 13.632 420.88 13.896C420.88 16.584 417.376 19.152 415.024 19.8C414.808 19.848 414.568 19.92 414.568 20.208C414.568 20.88 415.912 22.536 416.728 22.536C417.16 22.536 418.336 21.888 418.768 21.648C421.36 20.16 423.376 18.048 424.048 15.072C424.072 14.928 424.144 14.88 424.312 14.832C424.504 14.784 424.696 14.712 424.696 14.472C424.696 14.232 424.384 14.136 423.88 13.992C423.736 13.944 423.616 13.92 423.496 13.896C423.04 13.776 422.776 13.704 422.776 13.56C422.776 13.416 422.992 13.392 423.088 13.392H425.176C425.536 13.392 425.848 13.704 425.848 14.064V17.568C425.848 17.856 425.824 18.672 425.824 19.224C425.824 21.648 426.688 22.152 428.992 22.152H432.616C434.032 22.152 434.824 21.888 435.448 20.52C435.784 19.752 436.24 18.048 436.24 17.184C436.24 16.776 435.928 16.656 435.592 16.536C435.088 16.344 434.392 16.176 433.864 16.176C433.24 16.176 433.168 16.488 433.12 16.896C432.952 18.288 432.784 18.792 431.896 18.792H429.904C429.136 18.792 429.112 18.504 429.112 17.832V14.064C429.112 13.704 429.448 13.392 429.784 13.392H432.376ZM419.392 10.152C419.176 10.152 418.864 10.128 418.864 9.864C418.864 9.744 418.936 9.576 418.984 9.504C419.344 8.952 419.68 8.352 419.992 7.8C420.232 7.392 420.4 7.176 420.952 7.176H422.872C423.232 7.176 423.544 7.464 423.544 7.848V9.48C423.544 9.84 423.232 10.152 422.872 10.152H419.392ZM452.728 0.743999C452.488 0.743999 452.44 0.912 452.368 1.272C452.176 2.16 451.72 3.408 451.24 4.248C451.048 4.584 450.832 4.68 449.656 4.68C448.864 4.68 448 4.632 447.472 4.632C446.704 4.632 446.608 4.656 446.608 6.144C446.608 7.944 446.68 8.016 447.496 8.016C447.808 8.016 448.144 7.992 448.432 7.992C448.624 7.992 448.792 8.136 448.792 8.328C448.792 8.424 448.768 8.496 448.648 8.664C447.88 9.744 446.32 12.24 445.336 13.368C445.048 13.68 444.904 13.824 444.904 14.016C444.904 14.592 447.352 15.936 447.88 15.936C448.072 15.936 448.168 15.816 448.24 15.672C448.936 14.424 449.656 13.152 450.784 12.264C451.504 11.712 453.16 10.872 454.072 10.872C454.504 10.872 454.816 11.16 454.816 11.496C454.816 11.76 454.624 11.88 454.408 11.976C453.976 12.192 453.496 12.456 453.088 12.696C451.336 13.728 449.632 15.024 449.632 17.28C449.632 19.032 450.544 20.304 452.08 21C453.496 21.648 454.6 21.768 456.28 21.768C457.456 21.768 459.856 21.696 460.936 21.48C461.632 21.336 461.68 21.096 461.68 20.184C461.68 18.648 461.656 17.784 461.08 17.784C460.912 17.784 460.696 17.808 460.48 17.856C458.968 18.192 457.552 18.456 456.016 18.456C455.176 18.456 453.136 18.456 453.136 17.256C453.136 16.416 454.336 15.648 454.576 15.648C454.768 15.648 454.864 15.816 454.864 15.984V16.104C454.84 16.32 454.816 16.536 454.816 16.752C454.816 17.496 455.32 17.568 456.976 17.568C458.32 17.568 458.344 17.544 458.344 16.008C458.344 15.48 458.32 14.904 458.32 14.616C458.32 13.968 458.416 13.752 458.992 13.512C460.096 13.056 460.816 12.744 461.968 12.312C462.448 12.144 462.688 12.072 462.688 11.76C462.688 11.208 461.848 8.448 461.248 8.448C461.152 8.448 461.032 8.52 460.936 8.568C460.84 8.616 460.672 8.712 460.456 8.832C459.736 9.24 458.464 9.96 458.224 9.96C458.032 9.96 457.912 9.864 457.816 9.672C457.504 9 457.336 8.688 456.664 8.304C456.184 8.016 455.512 7.92 454.936 7.92C454.216 7.92 453.592 8.04 452.896 8.28C452.848 8.304 452.728 8.352 452.68 8.352C452.584 8.352 452.464 8.304 452.464 8.184C452.464 8.16 452.512 7.632 453.28 7.536C454.768 7.368 456.4 7.08 457.72 6.84C459.04 6.6 459.256 6.504 459.256 6.144C459.256 5.64 459.088 4.68 458.968 4.2C458.872 3.768 458.752 3.264 458.224 3.264C458.008 3.264 457.744 3.36 457.552 3.432C457.048 3.6 455.968 3.96 455.608 3.96C455.44 3.96 455.32 3.888 455.32 3.696C455.32 3.504 455.68 2.904 455.968 2.784C456.136 2.736 456.4 2.664 456.4 2.472C456.4 2.256 456.088 2.088 455.656 1.896C455.272 1.728 452.992 0.743999 452.728 0.743999ZM482.128 16.92C482.2 16.776 482.272 16.704 482.416 16.656C482.632 16.608 482.968 16.536 482.968 16.248C482.968 15.888 481.864 15.48 481.24 15.24C480.88 15.096 480.592 14.976 480.592 14.856C480.592 14.688 480.808 14.688 480.904 14.688H482.56C482.944 14.688 483.232 15 483.232 15.36V18.528C483.232 18.96 483.208 19.776 483.208 20.136C483.208 21.696 484.048 22.272 485.488 22.272H489.592C490.552 22.272 491.656 22.272 492.28 21.6C493.048 20.784 493.576 18.888 493.576 17.784C493.576 16.728 491.656 16.344 491.008 16.344C490.672 16.344 490.504 16.44 490.48 16.776C490.336 18.6 490.288 18.984 488.848 18.984H487.888C486.784 18.984 486.712 18.768 486.712 17.688V15.072C486.712 14.856 486.88 14.688 487.096 14.688H487.168C487.384 14.688 487.456 14.832 487.552 15C487.696 15.24 488.008 15.264 488.872 15.264H490.024C490.816 15.264 491.056 15.216 491.056 14.712C491.056 14.112 491.008 13.248 491.008 12.408V4.68C491.008 3.936 491.056 3.216 491.056 2.472C491.056 1.608 490.6 1.44 489.88 1.44C489.064 1.44 488.248 1.488 487.456 1.488H478.408C477.592 1.488 476.776 1.44 475.96 1.44C475.192 1.44 474.808 1.656 474.808 2.472C474.808 3.216 474.832 3.936 474.832 4.68V12.408C474.832 13.224 474.784 14.112 474.784 14.712C474.784 15.192 475.048 15.264 475.48 15.264H476.896C477.88 15.264 478.192 15.264 478.288 15C478.336 14.88 478.48 14.688 478.744 14.688C478.96 14.688 479.128 14.856 479.128 15.072C479.128 15.168 479.008 16.032 478.408 16.824C477.16 18.48 475.144 19.008 473.2 19.176C472.624 19.224 472.264 19.248 472.264 19.752C472.264 20.112 472.384 20.616 472.504 20.952C472.696 21.528 473.008 22.56 473.752 22.56C474.208 22.56 475.576 22.248 476.056 22.104C478.912 21.288 481.024 19.728 482.128 16.92ZM478.288 4.872C478.288 4.704 478.432 4.56 478.6 4.56H487.264C487.432 4.56 487.552 4.704 487.552 4.872V4.992C487.552 5.16 487.432 5.304 487.264 5.304H478.6C478.408 5.304 478.288 5.16 478.288 4.992V4.872ZM478.288 8.064C478.288 7.896 478.408 7.752 478.6 7.752H487.264C487.432 7.752 487.552 7.896 487.552 8.064V8.208C487.552 8.376 487.432 8.52 487.264 8.52H478.6C478.432 8.52 478.288 8.376 478.288 8.208V8.064ZM478.288 11.376C478.288 11.184 478.408 11.064 478.6 11.064H487.264C487.432 11.064 487.552 11.184 487.552 11.376V11.496C487.552 11.688 487.432 11.808 487.264 11.808H478.6C478.432 11.808 478.288 11.688 478.288 11.496V11.376ZM505.96 15.072C505.96 14.616 506.008 14.4 506.392 14.208C507.616 13.608 507.784 13.488 507.784 12.576C507.784 11.88 507.784 10.392 507.208 10.392C507.04 10.392 506.872 10.488 506.728 10.56C506.584 10.632 506.392 10.752 506.224 10.752C505.96 10.752 505.96 10.488 505.96 10.272V8.856C505.96 8.376 506.176 8.112 506.656 8.112H506.992C507.568 8.112 507.616 7.848 507.616 7.152V5.832C507.616 5.064 507.568 4.872 506.944 4.872H506.56C506.08 4.872 505.96 4.488 505.96 4.08V2.736C505.96 2.256 505.984 2.016 506.176 1.872C506.32 1.752 506.464 1.68 506.464 1.464C506.464 1.152 506.032 1.128 505.72 1.104C504.832 1.056 503.704 1.008 503.2 1.008C502.84 1.008 502.648 1.056 502.648 1.44C502.648 1.536 502.696 2.64 502.696 3.624V4.152C502.696 4.344 502.696 4.872 502.072 4.872H501.688C501.04 4.872 500.992 5.088 500.992 5.832V7.128C500.992 7.872 501.04 8.112 501.664 8.112C501.808 8.112 501.952 8.088 502.096 8.088C502.6 8.088 502.696 8.472 502.696 8.904V11.16C502.696 12.168 502.504 12.216 501.4 12.528C501.112 12.6 500.776 12.648 500.776 13.008C500.776 13.248 501.088 14.424 501.16 14.712C501.232 15 501.304 15.264 501.352 15.48C501.52 16.176 501.592 16.536 501.832 16.536C501.976 16.536 502.096 16.368 502.144 16.248C502.192 16.128 502.288 15.936 502.48 15.936C502.696 15.936 502.696 16.248 502.696 16.416V17.976C502.696 19.176 502.672 19.296 501.832 19.296H501.52C501.04 19.296 500.992 19.704 500.992 20.376C500.992 22.68 501.712 22.68 502.48 22.68C504.616 22.68 506.008 22.104 506.008 19.704C506.008 19.128 505.96 18.552 505.96 18V15.072ZM515.08 17.88C515.08 17.52 515.392 17.208 515.752 17.208H517.528C517.912 17.208 518.2 17.52 518.2 17.88V18.312C518.2 18.672 517.912 18.984 517.528 18.984H515.752C515.368 18.984 515.08 18.696 515.08 18.312V17.88ZM511.936 5.28C511.696 5.256 511.552 5.112 511.552 4.896V4.728C511.552 4.512 511.72 4.344 511.936 4.344H517.888C518.08 4.344 518.272 4.512 518.272 4.728V4.896C518.272 5.112 518.08 5.28 517.888 5.28H511.936ZM514.096 8.04C514.696 8.04 514.888 8.352 514.888 8.928C514.888 9.456 514.528 9.6 514.072 9.6H512.392C511.912 9.6 511.552 9.432 511.552 8.88C511.552 8.256 511.792 8.04 512.392 8.04H514.096ZM518.368 13.392C518.368 12.6 518.92 12.6 519.328 12.6C520.192 12.6 521.032 12.672 521.896 12.672C522.424 12.672 522.472 12.432 522.472 11.76V10.416C522.472 9.768 522.424 9.528 521.872 9.528C521.032 9.528 520.192 9.6 519.352 9.6H518.92C518.632 9.6 518.392 9.456 518.392 9.12C518.392 8.952 518.416 8.616 518.584 8.52C518.632 8.496 518.776 8.424 518.8 8.352C518.848 8.112 518.896 8.04 519.304 8.04H519.976C521.056 8.04 521.656 7.944 521.656 6.888C521.656 6.264 521.584 5.64 521.584 5.04V4.488C521.584 3.912 521.632 3.336 521.632 2.76C521.632 1.848 521.272 1.536 520.384 1.536C519.664 1.536 518.92 1.584 518.176 1.584H511.648C510.88 1.584 510.136 1.536 509.392 1.536C508.528 1.536 508.168 1.872 508.168 2.76C508.168 3.336 508.216 3.912 508.216 4.488V6.576C508.216 7.344 508.24 8.112 508.24 8.88C508.24 12.168 508.024 16.8 506.68 19.8C506.584 19.992 506.392 20.4 506.392 20.592C506.392 21.192 508.36 22.368 509.152 22.368C509.416 22.368 509.512 22.248 509.752 21.648C510.712 19.224 511.264 16.176 511.408 13.512C511.432 12.888 511.576 12.6 512.272 12.6H514.264C514.624 12.6 514.936 12.912 514.936 13.272V13.608C514.936 14.064 514.792 14.424 514.264 14.424C514.072 14.424 513.688 14.4 513.376 14.4C512.656 14.4 511.816 14.472 511.816 15.384C511.816 15.816 511.864 16.416 511.864 17.04V20.52C511.864 21.048 511.816 22.008 511.816 22.248C511.816 22.68 512.128 22.728 512.584 22.728H514.072C514.816 22.728 515.104 22.68 515.128 22.344C515.152 22.056 515.152 21.84 515.632 21.84H517.72C517.816 21.84 518.128 21.84 518.152 22.152C518.2 22.704 518.296 22.728 519.136 22.728H520.552C521.368 22.728 521.584 22.68 521.584 22.224C521.584 22.008 521.512 21.264 521.512 20.52V17.04C521.512 16.368 521.56 15.768 521.56 15.384C521.56 14.472 520.72 14.4 520 14.4C519.664 14.4 519.28 14.424 519.064 14.424C518.368 14.424 518.368 13.824 518.368 13.56V13.392ZM542.824 5.832C542.776 5.856 542.68 5.88 542.608 5.88C542.44 5.88 542.296 5.736 542.296 5.568C542.296 5.472 542.32 5.376 542.368 5.256C542.512 4.872 542.896 3.744 542.896 3.36C542.896 2.976 542.512 2.88 541.624 2.616C540.52 2.28 539.416 1.896 538.336 1.536C538.072 1.44 537.784 1.344 537.52 1.344C537.232 1.344 537.184 1.416 536.824 2.4C536.584 3.048 536.32 3.936 536.32 4.152C536.32 4.584 536.752 4.68 537.712 4.944C538.648 5.208 539.512 5.544 540.424 5.856C540.64 5.928 540.76 6 540.76 6.168C540.76 6.336 540.592 6.384 540.376 6.432C538.432 6.84 536.272 7.272 534.304 7.392C533.944 7.416 533.704 7.512 533.704 7.872C533.704 8.472 534.496 9.864 534.88 10.488C535.12 10.872 535.312 10.968 535.552 10.968C535.984 10.968 537.28 10.584 537.76 10.464C538 10.392 539.344 9.984 539.44 9.984C539.584 9.984 539.68 10.08 539.68 10.2C539.68 10.368 539.488 10.56 539.368 10.68C538.408 11.712 537.448 12.744 536.512 13.8C535.432 15 533.08 17.52 532.48 18.024C531.544 18.792 531.256 19.152 531.256 19.416C531.256 20.232 533.416 21.912 534.064 21.912C534.28 21.912 534.52 21.576 534.928 21.048C535.576 20.232 539.032 14.88 540.928 14.88C541.216 14.88 541.312 15.12 541.312 15.36C541.312 16.224 540.928 17.592 540.928 18.672C540.928 20.472 542.56 21.744 544.264 21.744C545.584 21.744 547.936 21.024 549.136 20.424C549.52 20.232 549.616 20.088 549.616 19.248C549.616 18.792 549.52 17.304 549.448 16.848C549.424 16.656 549.376 16.416 549.136 16.416C548.8 16.416 548.248 16.752 547.864 16.992C547.792 17.04 547.72 17.088 547.672 17.112C547 17.52 545.608 18.312 544.816 18.312C544.504 18.312 544.408 18.12 544.408 17.832C544.408 17.568 544.528 16.824 544.576 16.536C544.672 15.912 544.744 15.288 544.744 14.664C544.744 13.488 544.384 12.6 543.232 12.168C542.848 12.024 542.68 11.928 542.68 11.64C542.68 11.472 542.896 11.232 543.256 10.896C543.856 10.344 545.152 9.168 545.776 8.712C545.992 8.568 546.232 8.424 546.232 8.136C546.232 7.704 544.768 5.52 544.072 5.52C543.808 5.52 543.208 5.712 542.824 5.832ZM560.728 9.336C560.824 9.336 560.992 9.312 561.088 9.288C562.336 8.928 563.968 8.568 565.24 8.328C565.6 8.256 566.296 8.112 566.536 8.112C566.8 8.112 566.968 8.256 566.968 8.472C566.968 8.664 566.824 8.856 566.728 9C565.456 10.824 564.76 12.72 564.76 14.952C564.76 20.136 568.48 21.288 572.944 21.288C573.448 21.288 573.736 21.24 573.952 20.736C574.192 20.16 574.36 18.624 574.36 17.928C574.36 17.472 574.192 17.4 573.76 17.4C573.4 17.4 572.632 17.472 572.008 17.472C569.896 17.472 568.72 16.848 568.72 14.568C568.72 11.4 570.712 8.616 573.664 7.56C574.888 7.128 575.848 7.152 577.12 7.128C578.104 7.104 578.392 7.104 578.392 6.648C578.392 6.024 578.224 4.608 578.104 3.984C578.032 3.6 577.912 3.192 577.48 3.192C577.408 3.192 577.336 3.192 577.264 3.216C575.536 3.528 573.616 3.768 571.888 3.984C568.36 4.416 564.856 4.752 561.328 4.944C560.056 5.016 559.72 5.016 559.72 5.76C559.72 6.384 559.96 7.68 560.104 8.328C560.176 8.664 560.32 9.336 560.728 9.336ZM589.888 14.832C589.888 15.552 590.536 16.896 590.944 17.472C592.576 19.728 595.336 20.016 597.904 20.016C599.776 20.016 603.376 19.776 605.128 19.344C605.728 19.2 605.968 19.08 605.968 18.648C605.968 18 605.968 17.64 605.824 16.104C605.776 15.6 605.56 15.384 605.296 15.384C605.128 15.384 604.912 15.432 604.744 15.48C602.68 16.128 599.992 16.344 597.808 16.344C596.56 16.344 595.072 16.296 594.136 15.336C593.776 14.976 593.56 14.184 593.512 13.776C593.488 13.512 593.44 13.2 593.08 13.2C592.816 13.2 591.112 13.92 590.824 14.04C590.488 14.184 589.888 14.424 589.888 14.832ZM605.44 2.832C605.176 2.832 603.952 3.72 603.952 4.056C603.952 4.176 604.048 4.248 604.216 4.416C604.672 4.872 605.152 5.328 605.56 5.832C605.632 5.904 605.68 5.976 605.752 6.048C605.992 6.336 606.184 6.576 606.328 6.576C606.592 6.576 607.72 5.664 607.72 5.232C607.72 4.848 606.16 3.384 605.824 3.072C605.704 2.952 605.56 2.832 605.44 2.832ZM607.744 0.719999C607.528 0.719999 606.28 1.584 606.28 1.968C606.28 2.088 606.424 2.232 606.496 2.304C607.024 2.808 607.528 3.288 608.008 3.864C608.368 4.32 608.488 4.488 608.632 4.488C608.896 4.488 610.048 3.552 610.048 3.12C610.048 2.76 607.984 0.719999 607.744 0.719999ZM593.272 4.128C592.936 4.128 592.744 4.32 592.648 4.608C592.552 4.92 592.168 6.888 592.168 7.2C592.168 7.488 592.384 7.656 592.624 7.752C594.016 8.304 597.712 8.472 599.296 8.472C600.448 8.472 601.84 8.4 602.968 8.208C603.472 8.112 603.544 7.968 603.544 7.464C603.544 6.768 603.52 6.072 603.472 5.376C603.448 5.016 603.352 4.416 602.824 4.416C602.68 4.416 602.56 4.44 602.44 4.464C601.144 4.704 599.848 4.848 598.552 4.848C596.8 4.848 595.288 4.608 594.184 4.296C593.92 4.224 593.488 4.128 593.272 4.128ZM628.864 1.512C628.216 1.512 627.544 1.488 626.896 1.488C626.44 1.488 625.96 1.56 625.96 2.136C625.96 2.568 625.984 3.096 625.984 3.672V8.04C625.984 8.616 625.96 9.168 625.96 9.6C625.96 10.176 626.464 10.224 626.92 10.224C627.568 10.224 628.216 10.2 628.864 10.2H632.992C633.664 10.2 634.312 10.224 634.984 10.224C635.44 10.224 635.92 10.176 635.92 9.6C635.92 9.144 635.872 8.592 635.872 8.04V3.672C635.872 3.12 635.92 2.592 635.92 2.136C635.92 1.536 635.416 1.488 634.96 1.488C634.312 1.488 633.64 1.512 632.992 1.512H628.864ZM629.152 4.248C629.152 4.032 629.32 3.864 629.536 3.864H632.32C632.536 3.864 632.704 4.032 632.704 4.248V4.416C632.704 4.632 632.536 4.8 632.32 4.8H629.536C629.32 4.8 629.176 4.656 629.152 4.416V4.248ZM629.152 7.272C629.176 7.032 629.32 6.888 629.536 6.888H632.32C632.536 6.888 632.704 7.056 632.704 7.272V7.488C632.704 7.68 632.536 7.872 632.32 7.872H629.536C629.32 7.872 629.152 7.68 629.152 7.488V7.272ZM629.656 17.88C629.656 18.336 629.632 18.48 629.392 18.48C629.08 18.48 627.928 17.616 627.928 16.848C627.928 16.632 628 16.368 628.048 16.152C628.096 15.888 628.168 15.816 628.384 15.696C628.528 15.648 628.672 15.552 628.672 15.384C628.672 15.072 628.336 15.048 627.544 14.856C627.208 14.784 625.696 14.448 625.456 14.448C625.096 14.448 625.096 14.664 625.072 14.952C624.856 16.632 623.872 19.272 622.912 20.64C622.792 20.784 622.6 21.024 622.6 21.216C622.6 21.984 624.664 22.488 625.192 22.488C625.72 22.488 626.176 21.456 626.608 20.568C626.704 20.376 626.848 20.016 627.088 20.016C627.28 20.016 627.424 20.184 627.52 20.304C628.912 21.912 631.024 22.272 633.04 22.272C634.096 22.272 635.176 22.272 636.232 22.272C636.52 22.272 636.904 22.272 637.12 22.056C637.528 21.648 637.72 20.448 637.72 19.848C637.72 19.32 637.432 19.08 636.904 19.08C636.784 19.08 636.64 19.08 636.544 19.104C636.064 19.128 635.032 19.2 634.552 19.2H633.952C633.064 19.2 632.872 19.104 632.872 18.552V18.144C632.872 17.88 633.088 17.664 633.352 17.664H633.952C634.744 17.664 635.536 17.736 636.328 17.736C636.76 17.736 636.808 17.544 636.808 16.968V15.576C636.808 15.024 636.76 14.832 636.328 14.832C635.536 14.832 634.744 14.88 633.952 14.88H633.352C633.088 14.88 632.872 14.688 632.872 14.424V14.232C632.872 13.992 633.088 13.776 633.352 13.776H634.672C635.728 13.776 636.424 13.824 636.856 13.824C637.6 13.824 637.696 13.68 637.696 12.864V11.88C637.696 11.184 637.648 10.944 637 10.944C636.232 10.944 635.464 10.992 634.672 10.992H627.472C626.704 10.992 625.936 10.944 625.168 10.944C624.544 10.944 624.472 11.184 624.472 11.832V12.912C624.472 13.56 624.52 13.824 625.12 13.824C625.912 13.824 626.704 13.776 627.472 13.776H628.984C629.368 13.776 629.656 14.088 629.656 14.448V17.88ZM618.472 11.04C618.472 11.904 618.328 12.048 617.488 12.264C617.32 12.312 617.176 12.336 616.96 12.384C616.264 12.552 615.952 12.624 615.952 12.96C615.952 13.152 616.048 13.488 616.096 13.68C616.192 14.112 616.288 14.448 616.36 14.76C616.624 15.888 616.696 16.2 616.984 16.2C617.176 16.2 617.296 16.08 617.368 15.912C617.584 15.528 618.064 15.456 618.184 15.456C618.472 15.456 618.472 15.648 618.472 15.936V18.696C618.472 18.888 618.448 19.176 617.944 19.176C617.728 19.176 617.368 19.104 617.2 19.104C616.624 19.104 616.552 19.608 616.552 20.064C616.552 20.664 616.648 21.672 616.96 22.2C617.128 22.536 617.488 22.632 618.184 22.632C619.12 22.632 620.368 22.56 621.088 21.936C621.688 21.432 621.736 20.712 621.736 19.992C621.736 19.416 621.688 18.816 621.688 18.24V15.024C621.688 14.472 621.784 14.232 622.336 14.016C624.088 13.344 624.256 13.296 624.256 12.048C624.256 11.664 624.208 10.224 623.656 10.224C623.488 10.224 623.224 10.344 623.056 10.416C622.816 10.536 622.24 10.776 622 10.776C621.712 10.776 621.688 10.56 621.688 10.128V8.904C621.688 8.448 621.808 7.992 622.36 7.992C622.648 7.992 622.936 8.04 623.224 8.04C623.824 8.04 623.872 7.776 623.872 7.08V5.736C623.872 5.04 623.8 4.8 623.2 4.8C622.912 4.8 622.6 4.848 622.288 4.848C621.832 4.848 621.688 4.536 621.688 3.936V2.976C621.688 2.328 621.688 1.992 621.952 1.824C622.12 1.704 622.288 1.632 622.288 1.392C622.288 1.056 621.736 1.056 621.496 1.056C620.776 1.008 619.6 0.935999 618.928 0.935999C618.664 0.935999 618.4 0.959999 618.4 1.296C618.4 1.512 618.472 2.352 618.472 3.624V3.936C618.472 4.44 618.4 4.848 617.8 4.848C617.488 4.848 617.2 4.8 616.888 4.8C616.264 4.8 616.216 5.064 616.216 5.808V7.08C616.216 7.776 616.264 8.04 616.888 8.04C617.2 8.04 617.536 7.992 617.848 7.992C618.352 7.992 618.472 8.256 618.472 8.808V11.04ZM649.408 17.568C649.576 17.568 649.912 17.568 649.912 17.808C649.912 18.312 646.096 19.752 645.496 19.92C645.232 19.992 644.896 20.088 644.896 20.328C644.896 20.592 645.16 20.952 645.64 21.6C645.928 21.96 646.48 22.68 646.96 22.68C647.44 22.68 649.552 21.528 650.08 21.24C651.112 20.64 652.432 19.824 653.344 19.056C653.464 18.96 653.584 18.888 653.656 18.888C653.992 18.888 653.992 19.2 653.992 19.344C653.992 20.232 653.92 21.096 653.92 21.984C653.92 22.608 654.208 22.656 655 22.656H656.416C657.208 22.656 657.472 22.608 657.472 21.984C657.472 21.168 657.424 20.328 657.424 19.512C657.424 19.296 657.424 19.032 657.736 19.032C657.856 19.032 657.976 19.128 658.072 19.2C659.128 20.016 660.28 20.712 661.432 21.384C662.752 22.08 663.904 22.68 664.24 22.68C664.936 22.68 666.328 20.784 666.328 20.352C666.328 20.088 666.16 20.04 665.824 19.944C664.384 19.488 662.68 18.816 661.456 18.048C661.288 17.952 661.072 17.832 661.072 17.712C661.072 17.568 661.24 17.568 661.36 17.568H663.04C663.952 17.568 664.864 17.616 665.8 17.616C666.376 17.616 666.424 17.424 666.424 16.728V15.792C666.424 15.168 666.376 14.952 665.8 14.952C664.864 14.952 663.952 15 663.04 15H657.976C657.688 15 657.544 14.856 657.544 14.64C657.544 14.52 657.592 14.424 657.688 14.328C657.88 14.184 658 14.112 658 13.968C658 13.8 657.88 13.728 657.664 13.68C657.424 13.632 656.92 13.584 656.632 13.56C656.2 13.536 656.128 13.512 656.128 13.416C656.128 13.296 656.248 13.248 656.368 13.2C656.944 12.936 657.472 12.696 657.808 12.696C658.6 12.696 661.12 13.872 661.888 14.304C662.032 14.4 662.368 14.592 662.512 14.592C663.232 14.592 664.384 12.792 664.384 12.24C664.384 11.976 664.096 11.88 663.688 11.712C662.92 11.4 662.128 11.112 661.336 10.872C661.12 10.8 660.904 10.752 660.904 10.464C660.904 10.296 661 10.176 661.096 10.056C661.168 9.984 661.24 9.888 661.312 9.816C661.6 9.456 661.84 9.144 662.416 9.144C662.896 9.144 663.376 9.192 663.88 9.192C664.264 9.192 664.48 9.096 664.48 8.688C664.48 8.208 664.624 8.064 665.104 8.064C665.992 8.064 666.208 8.04 666.208 7.584C666.208 7.248 666.16 6.912 666.16 6.528V4.608C666.16 4.176 666.184 3.768 666.184 3.624C666.184 2.952 665.224 2.952 664.648 2.952C663.784 2.952 662.92 3 662.032 3H658.36C657.88 3 657.688 2.688 657.688 2.4C657.688 2.136 657.76 2.04 657.928 1.848C658.048 1.752 658.192 1.632 658.192 1.488C658.192 1.176 657.736 1.176 657.52 1.176C656.44 1.176 655.384 1.08 654.328 1.08C654.088 1.08 653.752 1.08 653.752 1.416C653.752 1.704 653.824 2.112 653.824 2.376C653.824 2.592 653.68 3 653.008 3H649.408C648.544 3 647.68 2.952 646.792 2.952C646.24 2.952 645.256 2.952 645.256 3.624C645.256 3.768 645.28 4.176 645.28 4.608V6.552C645.28 6.984 645.256 7.392 645.256 7.728C645.256 8.136 645.64 8.16 646.072 8.16H646.624C646.888 8.16 647.104 8.376 647.128 8.64C647.152 8.976 647.176 9.192 647.728 9.192C648.28 9.192 648.832 9.144 649.384 9.144C649.456 9.144 649.576 9.144 649.576 9.24C649.576 9.384 649.12 9.744 649 9.84C648.928 9.888 648.784 10.008 648.784 10.128C648.784 10.608 650.752 11.52 651.256 11.52C651.376 11.52 651.472 11.496 651.568 11.448C651.736 11.352 651.88 11.28 652.072 11.28C652.192 11.28 652.792 11.328 652.792 11.496C652.792 11.616 652.168 11.688 652.048 11.688C650.8 11.88 649.6 11.88 648.352 11.88H648.088C647.824 11.88 647.632 11.928 647.632 12.24C647.632 12.528 647.968 13.32 648.088 13.608C648.424 14.352 648.616 14.64 649.144 14.64C650.008 14.64 652.504 14.304 653.344 14.112C653.416 14.088 653.464 14.088 653.512 14.088C653.752 14.088 653.968 14.28 653.968 14.52C653.968 14.76 653.824 15 653.464 15H648.52C647.608 15 646.672 14.952 645.76 14.952C645.184 14.952 645.136 15.144 645.136 15.792V16.728C645.136 17.424 645.184 17.616 645.76 17.616C646.672 17.616 647.608 17.568 648.52 17.568H649.408ZM656.944 9.144C657.064 9.144 657.304 9.144 657.304 9.312C657.304 9.432 656.8 10.008 656.224 10.008C656.128 10.008 656.032 9.984 655.936 9.984C655.312 9.888 654.688 9.792 654.064 9.72C653.872 9.696 653.632 9.648 653.632 9.504C653.632 9.192 654.304 9.144 654.52 9.144H656.944ZM656.8 6.72C656.56 6.72 656.248 6.72 656.248 6.432C656.248 6.288 656.296 6.216 656.368 6.12C656.68 5.688 656.824 5.496 657.64 5.496H662.248C662.488 5.496 662.704 5.712 662.704 5.952V6.168C662.704 6.672 662.368 6.72 661.984 6.72H656.8ZM652.144 5.496C652.336 5.496 652.624 5.52 652.624 5.784C652.624 5.808 652.408 6.72 651.28 6.72H649.096C648.784 6.72 648.616 6.528 648.616 6.216V6.072C648.616 5.76 648.88 5.496 649.192 5.496H652.144ZM677.68 14.976C675.784 14.976 674.272 16.512 674.272 18.408C674.272 20.304 675.808 21.84 677.68 21.84C679.576 21.84 681.112 20.304 681.112 18.408C681.112 16.512 679.576 14.976 677.68 14.976ZM677.68 16.392C678.808 16.392 679.72 17.28 679.72 18.408C679.72 19.512 678.808 20.424 677.68 20.424C676.576 20.424 675.664 19.512 675.664 18.408C675.664 17.28 676.576 16.392 677.68 16.392Z" fill="white"/>
</g>
<defs>
<filter id="filter0_d_4_91" x="-2.60791" y="0.671997" width="687.72" height="30.128" filterUnits="userSpaceOnUse" color-interpolation-filters="sRGB">
<feFlood flood-opacity="0" result="BackgroundImageFix"/>
<feColorMatrix in="SourceAlpha" type="matrix" values="0 0 0 0 0 0 0 0 0 0 0 0 0 0 0 0 0 0 127 0" result="hardAlpha"/>
<feOffset dy="4"/>
<feGaussianBlur stdDeviation="2"/>
<feComposite in2="hardAlpha" operator="out"/>
<feColorMatrix type="matrix" values="0 0 0 0 0 0 0 0 0 0 0 0 0 0 0 0 0 0 0.4 0"/>
<feBlend mode="normal" in2="BackgroundImageFix" result="effect1_dropShadow_4_91"/>
<feBlend mode="normal" in="SourceGraphic" in2="effect1_dropShadow_4_91" result="shape"/>
</filter>
</defs>
</svg>
