<svg width="199" height="91" viewBox="0 0 199 91" fill="none" xmlns="http://www.w3.org/2000/svg">
<g clip-path="url(#clip0_366_15)">
<g filter="none">
<path d="M90.82 22.1C90.82 24.3 91.12 26.54 92.1 28.52C92.46 29.24 92.64 29.5 93.02 29.5C93.64 29.5 95.12 28.92 95.12 28.18C95.12 28.06 95.08 27.72 95.06 27.6C95.02 27.3 94.98 26.8 94.98 26.66C94.98 25.58 95.86 24.04 95.86 23.76C95.86 23.46 95.06 22.78 94.82 22.78C94.6 22.78 94.48 23 94.36 23.2C94.26 23.36 94.16 23.52 94.02 23.52C93.76 23.52 93.76 22.98 93.76 21.88C93.76 20.06 94.32 17.74 94.98 16.2C95.16 15.76 95.26 15.6 95.72 15.38C95.8 15.34 95.86 15.3 95.86 15.22C95.86 15.12 95.74 15 95.34 14.82C94.48 14.44 92.56 13.74 92.38 13.74C92.12 13.74 92.1 13.92 92.04 14.3C91.98 14.62 91.88 15 91.78 15.38C91.16 17.74 90.82 19.64 90.82 22.1ZM96.9 17.12C96.9 17.34 96.9 17.94 97.06 18.08C97.44 18.4 100.2 18.5 100.8 18.5C101.92 18.5 103.04 18.42 104.16 18.26C104.68 18.18 104.74 18.04 104.74 17.56C104.74 17.06 104.68 16.42 104.62 15.92C104.58 15.62 104.46 15.2 104.08 15.2C103.96 15.2 103.86 15.22 103.68 15.26C102.72 15.5 101.72 15.66 100.72 15.66C99.94 15.66 98.84 15.54 98.08 15.38C97.9 15.34 97.58 15.3 97.46 15.3C96.98 15.3 96.9 15.64 96.9 17.12ZM97.26 23.8C96.8 23.8 95.8 25.82 95.8 26.2C95.8 26.66 97.22 28.26 100.44 28.26C101.34 28.26 104.68 27.96 105.38 27.62C105.64 27.5 105.66 27.36 105.66 27.1C105.66 26.7 105.64 25.56 105.56 25.02C105.54 24.84 105.42 24.58 105.16 24.58C105.02 24.58 104.82 24.62 104.68 24.66C103.26 25.06 101.78 25.3 100.3 25.3C99 25.3 98.34 24.96 97.5 23.96C97.44 23.9 97.36 23.8 97.26 23.8ZM115.28 24.36C114.84 24.36 113.4 25.92 113.4 26.3C113.4 26.42 113.5 26.52 113.6 26.58C114.82 27.42 115.94 28.38 116.88 29.52C116.98 29.66 117.12 29.86 117.32 29.86C117.88 29.86 119.32 28.32 119.32 27.74C119.32 27.24 115.68 24.36 115.28 24.36ZM133.22 16.96C132.34 16.96 131.24 16.9 130.54 16.9C130.1 16.9 130 17.08 130 17.78V18.8C130 19.54 130.06 19.92 130.64 19.92C131.36 19.92 132.28 19.86 133.22 19.86H135.88C136.22 19.86 136.5 20.14 136.5 20.48V24.82C136.5 26.14 136.46 26.38 134.8 26.48C134.44 26.5 134.14 26.56 134.14 26.8C134.14 27.1 134.46 27.86 134.6 28.16C135.08 29.28 135.24 29.34 135.6 29.34C136.52 29.34 138.44 28.84 139.02 28.08C139.42 27.54 139.5 26.58 139.5 25.7C139.5 25.28 139.48 24.9 139.48 24.58V20.48C139.48 20.14 139.76 19.86 140.1 19.86H142.6C143.52 19.86 144.44 19.9 145.36 19.9C145.9 19.9 146 19.68 146 18.86V17.72C146 17.22 145.96 16.9 145.44 16.9C144.8 16.9 143.58 16.96 142.6 16.96H140.04C139.52 16.96 139.48 16.46 139.48 16.2V16C139.48 15.7 139.5 15.4 139.5 15.1V14.86C139.5 14.4 139.66 14.24 139.78 14.12C139.88 14.04 139.94 13.98 139.94 13.86C139.94 13.7 139.68 13.64 139.56 13.62C138.98 13.56 137.3 13.34 136.8 13.34C136.56 13.34 136.4 13.38 136.4 13.62V13.9C136.5 14.72 136.48 15.2 136.5 16V16.2C136.5 16.52 136.46 16.96 135.94 16.96H133.22ZM132.82 20.86C132.64 20.86 132.52 21.06 132.44 21.2C131.8 22.34 130.76 23.42 129.7 24.22C129.52 24.34 129.2 24.54 129.2 24.78C129.2 25.28 130.8 26.74 131.2 26.74C131.8 26.74 134.4 23.76 134.88 23.16C135.12 22.88 135.14 22.84 135.46 22.64C135.54 22.6 135.66 22.54 135.66 22.44C135.66 22.28 135.44 22.14 135.18 21.98C134.76 21.74 133.16 20.86 132.82 20.86ZM142.56 20.8C142.26 20.8 142.04 21.02 141.76 21.32L141.58 21.5C141.36 21.72 140.8 22.34 140.8 22.66C140.8 22.86 140.94 22.96 141.08 23.08C142.32 24.16 143.08 24.9 144.08 26.2C144.2 26.36 144.38 26.62 144.6 26.62C145.04 26.62 146.6 25.12 146.6 24.62C146.6 24.24 145.62 23.26 145.32 22.96C144.82 22.46 143.22 20.8 142.56 20.8ZM157.715 13.9C157.135 13.9 155.935 15.8 155.935 16.2C155.935 16.4 156.135 16.52 156.295 16.62C157.615 17.36 158.495 18 159.655 18.96C159.775 19.08 159.975 19.26 160.155 19.26C160.615 19.26 162.035 17.64 162.035 17.06C162.035 16.9 161.975 16.8 161.855 16.7C161.195 16.1 159.955 15.14 158.335 14.18C158.055 14.02 157.815 13.9 157.715 13.9ZM169.175 16.86C168.955 16.86 168.795 17.08 168.615 17.34C168.575 17.4 168.535 17.44 168.495 17.5C166.815 19.8 163.735 22.3 161.275 23.76C159.675 24.7 157.935 25.48 156.155 25.96C155.995 26 155.775 26.1 155.775 26.28C155.775 26.5 156.215 27.24 156.355 27.48C156.635 28 156.955 28.52 157.295 29.02C157.375 29.16 157.495 29.34 157.655 29.34C157.735 29.34 157.795 29.28 157.815 29.22C157.975 28.94 157.955 28.9 158.355 28.7C162.355 26.78 165.575 24.98 168.795 21.84C169.215 21.44 170.835 19.9 170.835 19.42C170.835 19.2 170.635 18.78 170.495 18.48C170.435 18.4 170.415 18.32 170.375 18.26C170.195 17.94 169.575 16.86 169.175 16.86ZM181.955 16.9C181.215 17.02 180.615 17.08 180.175 17.14C178.955 17.28 178.675 17.32 178.675 17.76C178.675 18.06 178.835 19.22 178.895 19.58C178.955 19.88 179.075 20.18 179.415 20.18C179.615 20.18 181.875 19.82 182.295 19.76L183.655 19.56C183.695 19.56 183.755 19.56 183.795 19.56C184.095 19.56 184.315 19.76 184.375 20.08L184.595 21.24C184.615 21.32 184.615 21.34 184.615 21.38C184.615 21.64 184.435 21.84 184.155 21.9L181.175 22.32C180.455 22.42 179.895 22.48 179.455 22.52C178.335 22.64 178.055 22.68 178.055 23.08C178.055 23.34 178.255 24.74 178.315 25.02C178.395 25.34 178.475 25.58 178.855 25.58C179.055 25.58 181.155 25.22 181.575 25.16L184.675 24.72C184.695 24.72 184.715 24.72 184.755 24.72C185.055 24.72 185.315 24.94 185.375 25.26L185.555 26.16C185.735 27.16 185.935 28.16 186.055 29.18C186.115 29.78 186.215 30.06 186.575 30.06C186.975 30.06 188.135 29.8 188.555 29.7C188.815 29.64 189.155 29.58 189.155 29.26C189.155 28.92 188.535 26.1 188.415 25.52L188.275 24.8C188.255 24.74 188.255 24.68 188.255 24.64C188.255 24.44 188.435 24.2 188.715 24.14L191.275 23.78C191.575 23.74 193.875 23.44 194.055 23.42C194.415 23.36 194.555 23.18 194.555 22.82C194.555 22.6 194.495 22.14 194.455 21.9L194.395 21.5C194.335 20.92 194.275 20.48 193.815 20.48C193.715 20.48 191.275 20.88 190.875 20.94L188.195 21.32C188.175 21.32 188.135 21.32 188.115 21.32C187.815 21.32 187.575 21.12 187.515 20.82L187.275 19.6C187.275 19.58 187.275 19.52 187.275 19.5C187.275 19.24 187.435 19.02 187.695 18.96L188.915 18.78C189.555 18.68 190.055 18.62 190.475 18.58C191.775 18.42 192.075 18.38 192.075 17.9C192.075 17.62 191.915 16.76 191.875 16.44C191.775 15.96 191.755 15.52 191.295 15.52C191.195 15.52 188.875 15.9 188.495 15.94L187.235 16.14C187.215 16.14 187.175 16.14 187.155 16.14C186.815 16.14 186.575 15.9 186.515 15.56L186.475 15.4C186.415 15.08 186.215 14.14 186.215 13.88C186.215 13.66 186.295 13.52 186.375 13.4C186.435 13.3 186.475 13.2 186.475 13.1C186.475 12.96 186.295 12.96 186.115 12.96C185.295 12.96 184.475 13.02 183.675 13.08C183.315 13.1 183.015 13.16 183.015 13.38C183.015 13.46 183.395 15.02 183.435 15.26L183.555 15.78C183.575 15.92 183.615 16.04 183.615 16.18C183.615 16.46 183.415 16.68 183.135 16.72L181.955 16.9Z" fill="white"/>
</g>
<g filter="none">
<path d="M9.408 57.908C9.1 57.908 8.876 57.88 8.736 57.88C8.512 57.88 8.456 57.936 8.456 58.216V58.58C8.456 58.86 8.47 58.958 8.708 58.958C8.862 58.958 9.184 58.93 9.492 58.93H9.912C10.234 58.93 10.556 58.958 10.71 58.958C10.934 58.958 10.962 58.874 10.962 58.636V58.244C10.962 57.992 10.948 57.88 10.724 57.88C10.556 57.88 10.206 57.908 9.912 57.908H9.408ZM3.99 57.908C3.668 57.908 3.444 57.88 3.29 57.88C3.08 57.88 3.024 57.936 3.024 58.202V58.594C3.024 58.86 3.038 58.958 3.29 58.958C3.43 58.958 3.766 58.93 4.074 58.93H4.48C4.788 58.93 5.11 58.958 5.264 58.958C5.488 58.958 5.516 58.874 5.516 58.608V58.23C5.516 57.992 5.502 57.88 5.292 57.88C5.11 57.88 4.774 57.908 4.48 57.908H3.99ZM9.394 59.35C9.086 59.35 8.876 59.322 8.736 59.322C8.512 59.322 8.456 59.364 8.456 59.644V60.036C8.456 60.302 8.47 60.414 8.708 60.414C8.862 60.414 9.184 60.386 9.492 60.386H9.912C10.234 60.386 10.556 60.414 10.71 60.414C10.948 60.414 10.962 60.33 10.962 60.064V59.686C10.962 59.448 10.948 59.336 10.724 59.336C10.556 59.336 10.206 59.35 9.912 59.35H9.394ZM3.976 59.35C3.64 59.35 3.416 59.322 3.276 59.322C3.08 59.322 3.024 59.378 3.024 59.63V60.022C3.024 60.302 3.038 60.414 3.29 60.414C3.43 60.414 3.766 60.386 4.074 60.386H4.48C4.788 60.386 5.11 60.414 5.264 60.414C5.502 60.414 5.516 60.33 5.516 60.036V59.686C5.516 59.448 5.502 59.336 5.292 59.336C5.11 59.336 4.774 59.35 4.48 59.35H3.976ZM9.828 55.878C10.36 55.878 10.878 55.906 11.396 55.906C11.69 55.906 11.718 55.808 11.718 55.514V55.024C11.718 54.716 11.69 54.632 11.382 54.632C10.864 54.632 10.346 54.66 9.828 54.66H4.158C3.64 54.66 3.122 54.632 2.604 54.632C2.296 54.632 2.268 54.716 2.268 55.024V55.514C2.268 55.808 2.296 55.906 2.59 55.906C3.122 55.906 3.64 55.878 4.158 55.878H5.796C5.894 55.878 5.978 55.962 5.978 56.06V56.102C5.978 56.2 5.894 56.27 5.796 56.27H2.562C2.198 56.27 1.834 56.242 1.47 56.242C0.924 56.242 0.84 56.326 0.84 56.774V58.3C0.84 58.566 0.812 58.79 0.812 58.958C0.812 59.238 0.98 59.266 1.358 59.266H2.17C2.562 59.266 2.73 59.238 2.73 58.958C2.73 58.79 2.702 58.538 2.702 58.3V57.866C2.702 57.67 2.884 57.488 3.094 57.488H5.586C5.796 57.488 5.978 57.656 5.978 57.88V58.748C5.978 59.28 5.936 59.798 5.936 60.19C5.936 60.526 6.09 60.568 6.51 60.568H7.476C7.896 60.568 8.064 60.526 8.064 60.204C8.064 59.784 8.022 59.238 8.022 58.748V57.88C8.022 57.656 8.204 57.488 8.414 57.488H10.878C11.088 57.488 11.256 57.656 11.256 57.866V58.3C11.256 58.566 11.228 58.79 11.228 58.958C11.228 59.238 11.396 59.266 11.788 59.266H12.6C12.978 59.266 13.146 59.238 13.146 58.958C13.146 58.79 13.118 58.538 13.118 58.3V56.76C13.118 56.312 13.006 56.242 12.474 56.242C12.124 56.242 11.76 56.27 11.396 56.27H8.204C8.106 56.27 8.022 56.2 8.022 56.102V56.06C8.022 55.948 8.106 55.878 8.204 55.878H9.828ZM9.898 64.978C10.36 64.978 10.822 64.992 11.27 64.992H11.312C11.494 64.992 11.648 65.02 11.648 65.216C11.648 65.454 11.34 65.468 11.172 65.468H8.512C8.33 65.468 8.022 65.44 8.022 65.202C8.022 65.076 8.12 64.978 8.246 64.978H9.898ZM5.95 63.41C6.048 63.41 6.104 63.48 6.104 63.578V63.648C6.104 63.732 6.034 63.802 5.95 63.802H4.186C4.102 63.802 4.032 63.732 4.032 63.648V63.578C4.032 63.48 4.102 63.41 4.186 63.41H5.95ZM9.954 63.41C10.052 63.41 10.122 63.48 10.122 63.578V63.648C10.122 63.732 10.052 63.802 9.954 63.802H8.148C8.064 63.802 7.994 63.732 7.994 63.648V63.578C7.994 63.48 8.064 63.41 8.148 63.41H9.954ZM4.2 62.388C4.102 62.388 4.032 62.304 4.032 62.206V62.178C4.032 62.08 4.102 61.996 4.2 61.996H5.922C6.02 61.996 6.104 62.08 6.104 62.178V62.206C6.104 62.318 6.02 62.374 5.922 62.388H4.2ZM8.176 62.388C8.078 62.374 7.994 62.318 7.994 62.206V62.178C7.994 62.08 8.078 61.996 8.176 61.996H9.94C10.038 61.996 10.122 62.08 10.122 62.178V62.206C10.122 62.304 10.038 62.388 9.94 62.388H8.176ZM11.69 66.854C12.25 66.854 12.628 66.812 12.964 66.308C13.202 65.958 13.51 65.244 13.51 64.81C13.51 64.362 12.684 64.194 12.404 64.18C12.068 64.166 12.026 64.04 12.026 63.69V61.366C12.026 60.96 11.984 60.834 11.494 60.834H2.674C2.198 60.834 2.114 60.918 2.114 61.366C2.114 61.744 2.128 62.136 2.128 62.514V63.858C2.128 64.278 2.1 64.698 2.1 65.104C2.1 65.468 2.296 65.496 2.632 65.496H3.332C3.892 65.496 4.004 65.468 4.004 65.146C4.004 64.992 4.102 64.978 4.354 64.978H5.684C5.894 64.978 6.09 65.118 6.09 65.454V65.524C6.09 66.756 6.762 66.854 7.812 66.854H11.69ZM25.9 60.778C26.138 60.778 26.292 60.96 26.292 61.198V61.31C26.292 62.682 26.334 64.362 26.768 65.664C27.034 66.49 27.538 67.008 28.448 67.008C29.862 67.008 30.184 65.454 30.338 64.348C30.366 64.152 30.394 63.886 30.394 63.718C30.394 63.256 29.722 63.046 29.33 63.046C29.05 63.046 28.966 63.13 28.952 63.382C28.952 63.592 28.882 64.81 28.63 64.81C28.504 64.81 28.49 64.586 28.476 64.488C28.392 63.83 28.364 63.172 28.364 62.514C28.364 61.646 28.406 60.372 28.406 59.882C28.406 59.35 28.294 59.168 27.734 59.168C27.328 59.168 26.922 59.196 26.502 59.196H20.58C19.992 59.196 19.404 59.154 18.802 59.154C18.48 59.154 18.452 59.294 18.452 59.7V60.428C18.452 60.75 18.606 60.806 18.788 60.806C19.39 60.806 19.992 60.778 20.58 60.778H22.232C22.386 60.778 22.582 60.792 22.582 61.002C22.582 61.17 22.302 61.646 22.204 61.814C22.092 62.01 21.952 62.276 21.742 62.276C21.602 62.276 21.49 62.206 21.378 62.136C21.084 61.982 19.992 61.45 19.712 61.45C19.446 61.45 18.648 62.43 18.648 62.696C18.648 62.864 18.83 62.934 18.97 62.976C19.194 63.06 20.412 63.494 20.412 63.732C20.412 64.026 18.494 65.034 18.172 65.174C18.046 65.23 17.836 65.3 17.836 65.454C17.836 65.72 18.62 66.938 18.984 66.938C19.39 66.938 21.672 65.356 22.008 65.006C22.12 64.88 22.218 64.866 22.26 64.866C22.372 64.866 22.456 64.908 22.596 65.02C22.876 65.244 23.366 65.678 23.856 66.084C23.982 66.196 24.122 66.336 24.29 66.336C24.878 66.336 25.354 65.146 25.354 64.894C25.354 64.74 25.242 64.656 25.144 64.572C24.92 64.39 24.332 63.97 24.08 63.802C23.926 63.704 23.632 63.508 23.632 63.298C23.632 63.172 23.716 63.06 23.786 62.962C23.954 62.724 24.122 62.43 24.262 62.178C24.36 61.982 24.402 61.982 24.598 61.968C24.696 61.968 24.822 61.926 24.822 61.814C24.822 61.646 24.402 61.45 24.262 61.38C24.15 61.324 23.38 60.932 23.38 60.862C23.38 60.778 23.562 60.778 23.604 60.778H25.9ZM22.246 55.444C22.176 55.444 22.092 55.416 22.092 55.318C22.092 55.15 22.33 55.052 22.456 55.01C22.554 54.982 22.75 54.926 22.75 54.8C22.75 54.646 22.456 54.59 22.316 54.548C22.022 54.478 20.79 54.142 20.58 54.142C20.44 54.142 20.412 54.268 20.356 54.408C19.922 55.57 18.858 56.942 17.892 57.726C17.752 57.852 17.542 57.978 17.542 58.118C17.542 58.496 18.648 59.112 18.872 59.112C19.138 59.112 19.964 58.244 20.16 58.02C20.216 57.95 20.286 57.852 20.37 57.852C20.496 57.852 20.496 58.02 20.496 58.104V58.23C20.496 58.58 20.496 58.748 20.818 58.748C21.238 58.748 21.644 58.734 22.064 58.734H26.53C26.95 58.734 27.356 58.748 27.776 58.748C28.042 58.748 28.098 58.636 28.098 58.342V57.74C28.098 57.446 28.042 57.334 27.762 57.334C27.356 57.334 26.95 57.362 26.53 57.362H22.064C21.728 57.362 21.406 57.334 21.084 57.334C20.874 57.334 20.832 57.32 20.832 57.236C20.832 57.138 21.014 56.942 21.434 56.942H27.664C28.196 56.942 28.728 56.97 29.26 56.97C29.568 56.97 29.596 56.858 29.596 56.48V55.906C29.596 55.528 29.568 55.416 29.246 55.416C28.714 55.416 28.196 55.444 27.664 55.444H22.246ZM35.574 61.17C35.574 62.71 35.784 64.278 36.47 65.664C36.722 66.168 36.848 66.35 37.114 66.35C37.548 66.35 38.584 65.944 38.584 65.426C38.584 65.342 38.556 65.104 38.542 65.02C38.514 64.81 38.486 64.46 38.486 64.362C38.486 63.606 39.102 62.528 39.102 62.332C39.102 62.122 38.542 61.646 38.374 61.646C38.22 61.646 38.136 61.8 38.052 61.94C37.982 62.052 37.912 62.164 37.814 62.164C37.632 62.164 37.632 61.786 37.632 61.016C37.632 59.742 38.024 58.118 38.486 57.04C38.612 56.732 38.682 56.62 39.004 56.466C39.06 56.438 39.102 56.41 39.102 56.354C39.102 56.284 39.018 56.2 38.738 56.074C38.136 55.808 36.792 55.318 36.666 55.318C36.484 55.318 36.47 55.444 36.428 55.71C36.386 55.934 36.316 56.2 36.246 56.466C35.812 58.118 35.574 59.448 35.574 61.17ZM39.83 57.684C39.83 57.838 39.83 58.258 39.942 58.356C40.208 58.58 42.14 58.65 42.56 58.65C43.344 58.65 44.128 58.594 44.912 58.482C45.276 58.426 45.318 58.328 45.318 57.992C45.318 57.642 45.276 57.194 45.234 56.844C45.206 56.634 45.122 56.34 44.856 56.34C44.772 56.34 44.702 56.354 44.576 56.382C43.904 56.55 43.204 56.662 42.504 56.662C41.958 56.662 41.188 56.578 40.656 56.466C40.53 56.438 40.306 56.41 40.222 56.41C39.886 56.41 39.83 56.648 39.83 57.684ZM40.082 62.36C39.76 62.36 39.06 63.774 39.06 64.04C39.06 64.362 40.054 65.482 42.308 65.482C42.938 65.482 45.276 65.272 45.766 65.034C45.948 64.95 45.962 64.852 45.962 64.67C45.962 64.39 45.948 63.592 45.892 63.214C45.878 63.088 45.794 62.906 45.612 62.906C45.514 62.906 45.374 62.934 45.276 62.962C44.282 63.242 43.246 63.41 42.21 63.41C41.3 63.41 40.838 63.172 40.25 62.472C40.208 62.43 40.152 62.36 40.082 62.36ZM55.58 62.472C55.132 62.472 54.67 62.444 54.208 62.444C53.928 62.444 53.9 62.57 53.9 62.878V63.396C53.9 63.718 53.928 63.844 54.208 63.844C54.642 63.844 55.076 63.816 55.51 63.816C55.58 63.816 55.72 63.83 55.72 63.928C55.72 64.138 54.488 64.838 53.9 65.034C53.732 65.09 53.522 65.16 53.522 65.314C53.522 65.636 54.082 66.476 54.656 66.476C55.146 66.476 56.56 65.468 56.924 65.104C57.036 64.992 57.176 64.852 57.33 64.852C57.498 64.852 57.61 64.978 57.708 65.104C57.974 65.412 58.324 65.748 58.646 66C58.814 66.14 59.402 66.574 59.598 66.574C59.738 66.574 59.892 66.462 60.018 66.378C60.116 66.308 60.2 66.252 60.256 66.252C60.354 66.252 60.382 66.322 60.41 66.434C60.55 66.896 60.83 66.966 61.208 66.966C61.754 66.966 62.552 66.896 62.972 66.518C63.378 66.168 63.406 65.678 63.406 65.174C63.406 64.782 63.378 64.404 63.378 64.012V56.9C63.378 56.396 63.406 55.906 63.406 55.402C63.406 54.758 63.112 54.632 62.636 54.632C62.188 54.632 61.74 54.66 61.292 54.66H59.878C59.43 54.66 58.968 54.618 58.52 54.618C57.974 54.618 57.764 54.842 57.764 55.402C57.764 55.878 57.792 56.354 57.792 56.844V56.984C57.792 57.46 57.764 57.936 57.764 58.426C57.764 58.692 57.848 59.112 58.184 59.168C58.282 59.182 58.394 59.196 58.394 59.336C58.394 59.504 58.002 60.134 57.89 60.302C57.764 60.498 57.68 60.61 57.428 60.61H57.302C57.078 60.61 57.036 60.498 56.966 60.344C56.882 60.162 56.686 59.77 56.602 59.63C56.546 59.532 56.49 59.448 56.49 59.378C56.49 59.28 56.56 59.196 56.644 59.168C56.994 59.042 57.064 58.762 57.064 58.426C57.064 57.936 57.036 57.46 57.036 56.984V56.844C57.036 56.354 57.064 55.878 57.064 55.402C57.064 54.73 56.728 54.632 56.294 54.632C55.846 54.632 55.398 54.66 54.95 54.66H53.522C53.074 54.66 52.626 54.618 52.164 54.618C51.618 54.618 51.408 54.856 51.408 55.402C51.408 55.906 51.436 56.396 51.436 56.9V64.39C51.436 65.118 51.408 65.832 51.408 66.546C51.408 66.924 51.548 66.952 51.996 66.952H52.794C53.284 66.952 53.438 66.924 53.438 66.546C53.438 65.832 53.396 65.118 53.396 64.39V59.56C53.396 59.336 53.578 59.168 53.788 59.168H55.034C55.272 59.168 55.328 59.182 55.328 59.238C55.328 59.28 55.216 59.322 55.174 59.336C55.034 59.392 54.656 59.532 54.656 59.714C54.656 59.784 54.712 59.854 54.768 59.924C54.852 60.022 55.174 60.414 55.174 60.498C55.174 60.554 55.118 60.596 55.006 60.596H54.53C54.25 60.596 54.222 60.736 54.222 61.016V61.506C54.222 61.814 54.25 61.954 54.53 61.954C54.95 61.954 55.37 61.926 55.776 61.926H56.238C56.364 61.926 56.462 62.038 56.462 62.164V62.248C56.462 62.374 56.364 62.472 56.238 62.472H55.58ZM60.158 60.022C60.242 59.924 60.256 59.91 60.396 59.896C60.508 59.882 60.606 59.882 60.606 59.714C60.606 59.588 60.466 59.546 60.074 59.42C59.878 59.364 59.794 59.322 59.794 59.266C59.794 59.182 59.934 59.168 59.99 59.168H61.026C61.25 59.168 61.418 59.336 61.418 59.56V64.698C61.418 64.978 61.39 65.188 61.11 65.188C60.634 65.188 60.368 65.034 59.976 64.782C59.822 64.684 58.982 64.096 58.982 63.942C58.982 63.83 59.122 63.816 59.332 63.816C59.766 63.816 60.186 63.844 60.62 63.844C60.886 63.844 60.914 63.69 60.914 63.382V62.948C60.914 62.584 60.9 62.444 60.592 62.444C60.13 62.444 59.682 62.472 59.22 62.472H58.506C58.394 62.472 58.282 62.388 58.282 62.262V62.15C58.282 62.052 58.394 61.926 58.52 61.926H59.01C59.43 61.926 59.836 61.954 60.256 61.954C60.536 61.954 60.564 61.828 60.564 61.506V61.058C60.564 60.736 60.536 60.596 60.256 60.596H60.116C60.018 60.596 59.878 60.568 59.878 60.442C59.878 60.33 59.948 60.26 60.158 60.022ZM55.118 56.214C55.118 56.326 55.048 56.396 54.936 56.396H53.578C53.48 56.396 53.396 56.326 53.396 56.214V56.172C53.396 56.074 53.48 55.99 53.578 55.99H54.936C55.034 55.99 55.118 56.074 55.118 56.172V56.214ZM55.118 57.642C55.118 57.74 55.034 57.81 54.936 57.81H53.578C53.48 57.81 53.396 57.74 53.396 57.642V57.558C53.396 57.46 53.48 57.39 53.578 57.39H54.936C55.048 57.39 55.118 57.46 55.118 57.558V57.642ZM61.418 56.214C61.418 56.326 61.348 56.396 61.236 56.396H59.878C59.78 56.396 59.71 56.326 59.71 56.214V56.172C59.71 56.074 59.78 55.99 59.878 55.99H61.236C61.348 55.99 61.418 56.074 61.418 56.172V56.214ZM61.418 57.642C61.418 57.74 61.348 57.81 61.236 57.81H59.878C59.78 57.81 59.71 57.74 59.71 57.642V57.558C59.71 57.46 59.78 57.39 59.878 57.39H61.236C61.348 57.39 61.418 57.46 61.418 57.558V57.642ZM71.596 54.674C71.428 54.674 71.33 54.73 71.33 54.912V55.248C71.33 55.794 71.33 56.34 71.316 56.886C71.316 57.138 71.26 57.264 71.176 57.334C70.938 57.544 69.762 57.572 69.412 57.572H69.216C69.006 57.572 68.796 57.6 68.796 57.894C68.796 58.118 69.02 59.126 69.09 59.392C69.146 59.588 69.23 59.84 69.468 59.84C69.748 59.84 70.532 59.63 70.812 59.546C70.896 59.518 70.98 59.49 71.05 59.49C71.204 59.49 71.246 59.63 71.246 59.77C71.246 59.84 71.19 59.966 71.134 60.064C70.518 61.142 69.706 62.178 68.824 63.06L68.74 63.144C68.6 63.27 68.446 63.41 68.446 63.564C68.446 63.872 69.58 65.09 69.902 65.09C70.028 65.09 70.098 64.964 70.154 64.866C70.266 64.684 70.77 63.858 70.966 63.858C71.134 63.858 71.148 64.012 71.148 64.124C71.148 64.572 71.12 65.608 71.064 66.028C71.05 66.084 71.05 66.182 71.05 66.252C71.05 66.532 71.246 66.532 71.834 66.532C72.268 66.532 72.66 66.518 73.08 66.476C73.29 66.448 73.332 66.406 73.332 66.294C73.332 66.238 73.22 64.6 73.206 64.348C73.178 63.62 73.164 62.878 73.164 62.136V62.01C73.164 61.842 73.178 61.716 73.262 61.548C73.682 60.778 75.278 59.644 76.426 59.644C77.378 59.644 77.91 60.498 77.91 61.366C77.91 62.276 77.336 62.906 76.594 63.354C76.076 63.662 75.376 63.844 74.788 63.984C74.536 64.04 74.298 64.082 74.298 64.404C74.298 64.754 74.704 66.014 75.306 66.014C75.852 66.014 76.86 65.58 77.364 65.314C78.974 64.46 80.094 63.172 80.094 61.282C80.094 59.266 78.638 57.6 76.566 57.6C75.502 57.6 74.564 58.048 73.766 58.734C73.752 58.748 73.71 58.776 73.668 58.818C73.514 58.958 73.304 59.126 73.276 59.126C73.234 59.126 73.206 59.084 73.206 59.042C73.206 58.972 73.318 58.804 73.584 58.496C73.794 58.258 74.004 58.034 74.004 57.922C74.004 57.726 73.654 57.376 73.528 57.25C73.388 57.124 73.304 57.054 73.304 56.858C73.304 56.802 73.318 56.746 73.318 56.69C73.36 56.396 73.388 56.13 73.402 55.99C73.458 55.43 73.458 55.388 73.682 55.206C73.738 55.164 73.766 55.122 73.766 55.038C73.766 54.926 73.682 54.884 73.542 54.856C73.29 54.8 71.848 54.674 71.596 54.674ZM92.33 55.094C92.232 55.094 92.078 55.164 91.728 55.318C90.93 55.654 88.928 55.808 88.018 55.822H87.696C87.29 55.822 87.248 55.822 87.248 56.032V56.172C87.248 56.438 87.332 58.02 87.654 58.02C87.71 58.02 87.766 58.02 87.822 58.006C88.186 57.95 89.712 57.67 89.754 57.67C89.81 57.67 90.034 57.698 90.034 57.866C90.034 58.006 89.936 58.09 89.838 58.188C89.6 58.454 89.39 58.706 89.124 58.972C88.634 59.448 86.31 61.758 85.96 62.038C85.666 62.262 85.526 62.388 85.526 62.556C85.526 62.822 86.618 63.97 86.94 63.97C86.996 63.97 87.108 63.872 87.304 63.62C87.724 63.102 88.522 62.304 89.026 61.856C89.796 61.17 90.706 60.778 91.728 60.778C92.806 60.778 93.772 61.31 93.772 62.5C93.772 63.424 93.1 64.124 92.764 64.124C92.61 64.124 92.484 63.998 92.428 63.858C92.302 63.564 92.26 63.424 92.05 63.158C91.588 62.598 90.888 62.262 90.16 62.262C89.082 62.262 88.06 63.088 88.06 64.208C88.06 65.818 89.838 66.35 91.154 66.35C93.59 66.35 95.9 65.02 95.9 62.346C95.9 60.764 94.962 59.546 93.45 59.084C93.17 59 92.68 58.916 92.47 58.916C92.414 58.916 92.358 58.93 92.316 58.93C92.148 58.93 91.994 58.804 91.994 58.636C91.994 58.538 92.05 58.454 92.12 58.384C92.624 57.908 93.254 57.334 93.842 56.97C93.912 56.928 93.996 56.858 93.996 56.774C93.996 56.466 92.932 55.094 92.33 55.094ZM90.874 64.446C90.874 64.628 90.706 64.754 90.524 64.754C90.202 64.754 89.726 64.572 89.726 64.194C89.726 63.942 89.95 63.816 90.174 63.816C90.664 63.816 90.874 64.25 90.874 64.446ZM106.694 54.744C106.582 54.744 106.47 54.8 106.442 54.926C106.428 54.968 106.26 56.214 106.246 56.354C106.19 56.886 106.05 56.9 104.65 56.9C104.258 56.9 103.922 56.858 103.628 56.858C103.376 56.858 103.306 56.914 103.306 58.062C103.306 58.762 103.348 58.762 104.118 58.762C104.552 58.762 104.972 58.734 105.392 58.692C105.504 58.678 105.644 58.664 105.756 58.664C105.91 58.664 106.008 58.734 106.008 58.888C106.008 59.042 105.91 59.168 105.784 59.224C105.266 59.476 104.804 59.742 104.356 60.106C103.306 60.946 102.34 62.318 102.34 63.718C102.34 64.768 103.11 65.664 104.188 65.664C104.776 65.664 105.504 65.44 106.036 65.188C106.064 65.174 106.092 65.16 106.134 65.16C106.204 65.16 106.232 65.188 106.288 65.23C106.358 65.286 106.414 65.328 106.512 65.328C107.002 65.328 108.08 64.516 108.08 64.194C108.08 64.054 108.024 63.9 108.024 63.816C108.024 63.704 108.066 63.648 108.136 63.578C108.85 62.836 109.522 61.926 110.054 61.044C110.138 60.89 110.208 60.806 110.348 60.806C110.6 60.806 111.104 61.464 111.104 62.346C111.104 63.41 110.362 64.096 109.438 64.502C109.088 64.656 108.29 64.95 107.926 65.048C107.786 65.09 107.646 65.118 107.646 65.286C107.646 65.608 108.108 66.91 108.5 66.91C108.724 66.91 109.718 66.602 110.53 66.154C112.028 65.328 113.19 64.096 113.19 62.29C113.19 59.77 111.16 58.58 108.864 58.58C108.584 58.58 108.248 58.594 108.136 58.594C108.052 58.594 107.912 58.594 107.912 58.468C107.912 58.356 108.122 58.3 108.234 58.286C108.934 58.174 109.648 58.062 110.32 57.908C110.628 57.838 110.866 57.768 110.866 57.502C110.866 57.264 110.656 56.494 110.586 56.256C110.53 56.088 110.432 55.92 110.264 55.92C110.208 55.92 110.138 55.948 110.082 55.976C109.536 56.214 108.598 56.466 108.458 56.466C108.346 56.466 108.262 56.382 108.262 56.27C108.262 56.2 108.346 55.976 108.374 55.906C108.444 55.724 108.486 55.682 108.654 55.57C108.71 55.542 108.808 55.486 108.808 55.416C108.808 55.318 108.668 55.262 108.5 55.22C108.234 55.15 106.834 54.744 106.694 54.744ZM105.672 61.604C105.826 61.604 105.854 61.744 105.854 61.87C105.854 61.996 105.84 62.122 105.84 62.262C105.84 62.43 105.854 62.612 105.854 62.78C105.854 62.934 105.854 63.074 105.714 63.186C105.49 63.368 104.916 63.606 104.622 63.606C104.468 63.606 104.356 63.536 104.356 63.368C104.356 62.906 105.378 61.604 105.672 61.604ZM108.206 60.33C108.304 60.33 108.416 60.372 108.416 60.484C108.416 60.61 108.052 61.128 107.898 61.128C107.758 61.128 107.716 60.89 107.716 60.792C107.716 60.652 107.716 60.33 108.206 60.33ZM122.276 55.948C122.276 56.102 122.416 56.172 122.626 56.298C123.354 56.718 124.068 57.194 124.712 57.74C124.81 57.824 124.936 57.936 125.076 57.936C125.482 57.936 126.308 56.718 126.308 56.41C126.308 56.256 126.098 56.116 125.804 55.906C125.412 55.626 124.474 55.038 123.844 54.716C123.648 54.618 123.452 54.534 123.354 54.534C122.892 54.534 122.276 55.738 122.276 55.948ZM121.506 57.096C121.198 57.096 121.198 57.334 121.198 57.852C121.198 58.916 120.96 61.184 120.428 63.018C120.4 63.102 120.372 63.214 120.372 63.312C120.372 63.802 121.604 63.998 121.828 63.998C122.052 63.998 122.164 63.858 122.29 63.69C123.074 62.682 124.53 61.408 125.874 61.408C126.546 61.408 127.246 61.772 127.246 62.542C127.246 64.026 124.6 64.306 123.508 64.32C123.326 64.32 123.13 64.362 123.13 64.628C123.13 65.02 123.368 65.804 123.578 66.182C123.704 66.406 123.858 66.462 124.11 66.462C124.614 66.462 125.622 66.224 126.126 66.07C126.994 65.804 127.96 65.356 128.59 64.684C129.164 64.068 129.346 63.34 129.346 62.514C129.346 61.702 129.15 61.044 128.604 60.442C127.96 59.728 127.078 59.392 126.126 59.392C125.482 59.392 124.614 59.56 124.04 59.882C123.9 59.966 123.326 60.302 123.2 60.302C123.074 60.302 123.004 60.176 123.004 60.05C123.004 59.938 123.032 59.826 123.046 59.728C123.13 59.322 123.186 58.916 123.284 58.524C123.368 58.188 123.382 58.118 123.564 58.034C123.634 58.006 123.732 57.95 123.732 57.866C123.732 57.712 123.438 57.628 123.102 57.516C122.822 57.418 121.744 57.096 121.506 57.096ZM136.178 61.044C136.178 62.108 136.304 63.746 136.654 64.726C136.724 64.936 136.794 65.104 137.046 65.104C137.34 65.104 137.9 64.936 138.18 64.838C138.432 64.754 138.628 64.67 138.628 64.46C138.628 64.39 138.614 64.32 138.6 64.25C138.516 63.928 138.474 63.62 138.474 63.298C138.474 61.87 139.188 60.498 140.252 59.574C140.462 59.392 141.176 58.874 141.442 58.874C141.708 58.874 141.708 59.196 141.708 59.938C141.708 60.372 141.666 61.926 141.54 62.262C141.512 62.346 141.442 62.43 141.358 62.43C141.064 62.43 140.812 61.52 140.77 61.296C140.714 60.946 140.7 60.778 140.364 60.778C140.042 60.778 139.58 60.918 139.3 61.086C139.104 61.198 139.034 61.352 139.034 61.576C139.034 62.584 139.678 63.69 140.448 64.306C140.574 64.404 140.644 64.516 140.644 64.684C140.644 64.908 140.224 65.412 140.056 65.58C139.986 65.65 139.902 65.734 139.902 65.846C139.902 66.07 140.154 66.266 140.322 66.406C140.518 66.574 141.12 67.05 141.344 67.05C141.54 67.05 141.708 66.91 141.834 66.77C142.142 66.42 142.534 65.776 142.744 65.342C142.87 65.076 142.968 65.02 143.262 64.992C145.544 64.796 146.972 62.962 146.972 60.736C146.972 59.028 146.146 57.67 144.55 57.026C144.298 56.928 144.074 56.872 143.836 56.816C143.654 56.774 143.528 56.746 143.458 56.578C143.402 56.452 143.346 55.976 143.346 55.822C143.346 55.696 143.388 55.584 143.444 55.486C143.5 55.388 143.556 55.304 143.556 55.206C143.556 55.038 143.374 55.024 143.262 55.024C142.772 55.024 142.114 54.954 141.554 54.954C141.344 54.954 141.05 54.968 141.05 55.248C141.05 55.374 141.106 55.556 141.148 55.696C141.204 55.906 141.344 56.424 141.344 56.564C141.344 56.83 141.162 56.928 140.952 57.012C139.972 57.404 139.16 58.02 138.516 58.86C138.46 58.93 138.39 59 138.32 59C138.236 59 138.194 58.916 138.194 58.846C138.194 58.776 138.446 57.684 138.824 57.432C138.908 57.376 138.936 57.362 138.936 57.292C138.936 57.194 138.824 57.124 138.558 57.026C138.306 56.928 137.004 56.438 136.836 56.438C136.668 56.438 136.64 56.662 136.626 56.774C136.346 58.44 136.178 59.322 136.178 61.044ZM143.906 58.832C144.144 58.832 145.012 59.308 145.012 60.708C145.012 62.262 143.962 62.962 143.682 62.962C143.57 62.962 143.5 62.85 143.5 62.766C143.5 62.724 143.514 62.654 143.528 62.626C143.64 61.898 143.696 60.932 143.696 60.204C143.696 59.84 143.668 59.476 143.668 59.154C143.668 58.986 143.71 58.832 143.906 58.832ZM159.53 55.094C159.432 55.094 159.278 55.164 158.928 55.318C158.13 55.654 156.128 55.808 155.218 55.822H154.896C154.49 55.822 154.448 55.822 154.448 56.032V56.172C154.448 56.438 154.532 58.02 154.854 58.02C154.91 58.02 154.966 58.02 155.022 58.006C155.386 57.95 156.912 57.67 156.954 57.67C157.01 57.67 157.234 57.698 157.234 57.866C157.234 58.006 157.136 58.09 157.038 58.188C156.8 58.454 156.59 58.706 156.324 58.972C155.834 59.448 153.51 61.758 153.16 62.038C152.866 62.262 152.726 62.388 152.726 62.556C152.726 62.822 153.818 63.97 154.14 63.97C154.196 63.97 154.308 63.872 154.504 63.62C154.924 63.102 155.722 62.304 156.226 61.856C156.996 61.17 157.906 60.778 158.928 60.778C160.006 60.778 160.972 61.31 160.972 62.5C160.972 63.424 160.3 64.124 159.964 64.124C159.81 64.124 159.684 63.998 159.628 63.858C159.502 63.564 159.46 63.424 159.25 63.158C158.788 62.598 158.088 62.262 157.36 62.262C156.282 62.262 155.26 63.088 155.26 64.208C155.26 65.818 157.038 66.35 158.354 66.35C160.79 66.35 163.1 65.02 163.1 62.346C163.1 60.764 162.162 59.546 160.65 59.084C160.37 59 159.88 58.916 159.67 58.916C159.614 58.916 159.558 58.93 159.516 58.93C159.348 58.93 159.194 58.804 159.194 58.636C159.194 58.538 159.25 58.454 159.32 58.384C159.824 57.908 160.454 57.334 161.042 56.97C161.112 56.928 161.196 56.858 161.196 56.774C161.196 56.466 160.132 55.094 159.53 55.094ZM158.074 64.446C158.074 64.628 157.906 64.754 157.724 64.754C157.402 64.754 156.926 64.572 156.926 64.194C156.926 63.942 157.15 63.816 157.374 63.816C157.864 63.816 158.074 64.25 158.074 64.446ZM171.64 57.95C171.64 58.076 171.682 58.174 171.78 58.244C172.256 58.566 174.65 58.636 175.308 58.636C176.148 58.636 177.002 58.594 177.842 58.44C178.178 58.384 178.276 58.356 178.276 58.034C178.276 57.796 178.248 57.292 178.234 57.054C178.206 56.564 178.136 56.214 177.814 56.214C177.744 56.214 177.66 56.228 177.59 56.242C176.764 56.424 175.924 56.536 175.084 56.536C174.3 56.536 173.516 56.438 172.774 56.27C172.62 56.228 172.41 56.172 172.256 56.172C171.962 56.172 171.892 56.382 171.864 56.55C171.808 56.858 171.64 57.81 171.64 57.95ZM170.198 62.402C170.198 62.822 170.576 63.592 170.828 63.942C171.766 65.244 173.39 65.426 174.888 65.426C175.966 65.426 178.066 65.286 179.102 65.034C179.438 64.95 179.592 64.866 179.592 64.614C179.592 64.432 179.55 63.718 179.536 63.48C179.508 63.018 179.452 62.724 179.186 62.724C179.088 62.724 178.962 62.752 178.864 62.78C177.66 63.144 176.092 63.27 174.832 63.27C174.104 63.27 173.222 63.242 172.69 62.696C172.466 62.472 172.368 62.08 172.326 61.786C172.298 61.576 172.256 61.436 172.074 61.436C171.906 61.436 170.954 61.842 170.744 61.94C170.394 62.094 170.198 62.206 170.198 62.402ZM188.636 55.458C188.636 55.5 188.664 55.584 188.678 55.626C188.916 56.312 189.112 57.082 189.266 57.768C189.364 58.174 189.462 58.566 189.574 58.944C189.616 59.07 189.658 59.182 189.658 59.28C189.658 59.518 189.532 59.588 189.322 59.714C188.216 60.428 187.222 61.59 187.222 62.976C187.222 63.984 187.754 64.866 188.622 65.37C189.602 65.93 190.568 66 191.674 66C192.444 66 194.866 65.93 195.51 65.762C195.874 65.664 195.888 65.538 195.888 65.118C195.888 64.712 195.874 64.25 195.832 63.844C195.818 63.732 195.776 63.494 195.636 63.494C195.594 63.494 195.538 63.508 195.496 63.508C195.272 63.578 194.306 63.732 194.012 63.774C193.34 63.858 192.598 63.886 191.884 63.886C191.24 63.886 189.462 63.886 189.462 62.948C189.462 62.22 190.428 61.59 191.1 61.17C192.458 60.316 194.236 59.392 195.51 58.958C195.58 58.93 195.65 58.916 195.706 58.888C196 58.79 196.154 58.734 196.154 58.58C196.154 58.314 195.734 57.628 195.58 57.376C195.384 57.054 195.09 56.62 194.936 56.62C194.754 56.62 194.04 57.054 193.83 57.18C193.522 57.362 192.276 58.104 192.01 58.104C191.8 58.104 191.73 57.908 191.688 57.74C191.59 57.362 191.534 56.942 191.45 56.046C191.352 54.996 191.324 54.968 190.946 54.968C190.68 54.968 190.358 55.01 189.812 55.08C188.804 55.206 188.636 55.29 188.636 55.458ZM3.43 79.546C2.716 79.546 2.016 79.504 1.316 79.504C0.91 79.504 0.868 79.714 0.868 80.246V81.198C0.868 81.758 0.91 81.954 1.316 81.954C2.03 81.954 2.73 81.898 3.43 81.898H10.57C11.27 81.898 11.984 81.954 12.684 81.954C13.09 81.954 13.132 81.772 13.132 81.198V80.246C13.132 79.714 13.09 79.504 12.684 79.504C11.984 79.504 11.27 79.546 10.57 79.546H3.43ZM22.232 80.68C22.596 80.68 22.624 81.016 22.624 81.408V81.94C22.624 82.542 22.61 82.626 22.092 82.626C21.854 82.626 21.658 82.598 21.588 82.598C21.266 82.598 21.266 82.85 21.266 83.158C21.266 83.522 21.364 84.152 21.574 84.446C21.7 84.614 21.882 84.614 22.064 84.628C22.134 84.628 22.218 84.642 22.218 84.726C22.218 84.81 22.092 84.824 22.008 84.838C21.042 84.992 20.356 85.076 19.376 85.076C19.026 85.076 18.69 85.062 18.354 85.062C18.186 85.062 18.088 85.062 18.088 85.314C18.088 85.622 18.13 85.944 18.214 86.294C18.354 86.84 18.48 87.008 18.83 87.008C19.068 87.008 19.334 86.994 19.586 86.98C21.098 86.882 22.386 86.77 23.828 86.238C25.004 85.804 26.348 85.062 27.3 84.236C27.356 84.18 27.482 84.068 27.566 84.068C27.58 84.068 27.636 84.082 27.664 84.082C27.72 84.096 27.79 84.11 27.846 84.11C27.958 84.11 28.056 84.068 28.056 83.956C28.056 83.788 27.804 83.662 27.426 83.368C27.398 83.34 27.342 83.298 27.286 83.256C26.978 83.018 26.404 82.584 26.222 82.584C26.124 82.584 26.082 82.64 26.026 82.71C25.886 82.864 25.102 83.648 24.92 83.648C24.836 83.648 24.808 83.592 24.808 83.508V83.466C24.822 83.312 24.836 83.228 24.836 83.074C24.836 82.738 24.794 82.402 24.794 82.066V81.59C24.794 81.226 24.808 81.184 25.018 81.044C25.116 80.974 25.228 80.918 25.228 80.834V80.806C25.214 80.778 25.214 80.778 25.214 80.764C25.214 80.694 25.298 80.68 25.354 80.68H26.194C26.306 80.68 26.39 80.68 26.39 80.82C26.39 80.876 26.32 80.932 26.292 80.96C26.18 81.044 25.788 81.38 25.788 81.506C25.788 81.618 25.97 81.744 26.04 81.8C26.88 82.416 27.65 83.102 28.35 83.872C28.434 83.984 28.658 84.236 28.798 84.236C29.12 84.236 30.072 83.354 30.072 83.004C30.072 82.864 29.82 82.64 29.666 82.486C29.638 82.444 29.61 82.43 29.582 82.402C29.218 82.052 28.644 81.492 28.252 81.198C28.224 81.17 28.182 81.142 28.14 81.114C27.986 81.002 27.832 80.89 27.832 80.806C27.832 80.68 28 80.68 28.084 80.68C28.602 80.68 29.134 80.708 29.652 80.708C29.974 80.708 30.002 80.54 30.002 80.148V79.364C30.002 78.972 29.974 78.804 29.652 78.804C29.036 78.804 28.42 78.846 27.804 78.846H25.214C25.004 78.846 24.822 78.664 24.822 78.454V77.908C24.822 77.684 25.004 77.516 25.214 77.516H26.712C27.468 77.516 27.93 77.558 28.224 77.558C28.686 77.558 28.7 77.46 28.7 76.956V76.144C28.7 75.752 28.672 75.626 28.35 75.626C27.804 75.626 27.258 75.668 26.712 75.668H25.312C25.046 75.668 24.836 75.542 24.836 75.248C24.836 75.094 24.864 74.954 24.976 74.856C25.074 74.758 25.13 74.73 25.13 74.632C25.13 74.464 24.934 74.45 24.808 74.436C24.304 74.38 23.786 74.338 23.268 74.296C23.17 74.282 23.002 74.268 22.89 74.268C22.75 74.268 22.61 74.296 22.61 74.478C22.61 74.52 22.61 74.534 22.624 74.618C22.666 74.912 22.666 75.318 22.666 75.696V78.454C22.666 78.664 22.484 78.846 22.274 78.846H21.462C21.252 78.846 21.07 78.664 21.07 78.454V76.382C21.07 76.018 21.084 75.696 21.21 75.584C21.308 75.5 21.364 75.458 21.364 75.374C21.364 75.192 21.196 75.178 20.944 75.15C20.706 75.122 19.516 75.01 19.32 75.01C19.166 75.01 19.054 75.038 19.054 75.22C19.054 75.402 19.11 75.822 19.11 76.788V78.37C19.11 78.678 18.928 78.832 18.704 78.832C18.452 78.832 18.2 78.804 17.948 78.804C17.626 78.804 17.598 78.972 17.598 79.364V80.148C17.598 80.554 17.626 80.708 17.948 80.708C18.508 80.708 19.068 80.68 19.628 80.68C19.74 80.68 19.866 80.708 19.866 80.848C19.866 80.946 19.6 81.282 19.474 81.45C19.446 81.478 19.432 81.506 19.418 81.52C18.928 82.08 18.382 82.556 17.766 82.976C17.668 83.046 17.528 83.116 17.528 83.256C17.528 83.452 18.48 84.432 18.844 84.432C19.054 84.432 19.306 84.222 19.46 84.096C20.216 83.522 20.93 82.752 21.504 81.982C21.63 81.814 21.686 81.73 21.91 81.702C22.036 81.674 22.176 81.632 22.176 81.478C22.176 81.324 21.868 81.17 21.322 80.876C21.28 80.862 21.196 80.82 21.196 80.764C21.196 80.68 21.28 80.68 21.378 80.68H22.232ZM44.716 81.562C45.318 81.562 45.934 81.604 46.55 81.604C46.886 81.604 46.914 81.45 46.914 81.03V80.232C46.914 79.798 46.886 79.644 46.55 79.644C45.934 79.644 45.332 79.672 44.716 79.672H42.056C41.832 79.672 41.664 79.49 41.664 79.28V78.328C41.664 78.104 41.832 77.936 42.056 77.936H43.988C44.464 77.936 44.94 77.964 45.416 77.964C45.71 77.964 45.738 77.81 45.738 77.376V76.648C45.738 76.172 45.71 76.032 45.402 76.032C44.968 76.032 44.492 76.06 43.988 76.06H42.028C41.762 76.06 41.664 75.864 41.664 75.626V75.304C41.664 74.996 41.678 74.758 41.804 74.632C41.86 74.562 41.958 74.492 41.958 74.408C41.958 74.268 41.79 74.268 41.636 74.254C41.314 74.226 40.068 74.142 39.802 74.142C39.648 74.142 39.508 74.17 39.508 74.352C39.508 74.394 39.508 74.436 39.522 74.478C39.55 74.688 39.564 75.094 39.564 75.304V75.556C39.564 75.822 39.522 76.06 39.2 76.06H38.864C38.696 76.06 38.598 75.962 38.598 75.794C38.598 75.738 38.626 75.43 38.85 75.346C38.976 75.304 39.06 75.262 39.06 75.136C39.06 74.982 38.878 74.926 38.5 74.814C38.262 74.744 37.226 74.436 37.044 74.436C36.918 74.436 36.89 74.562 36.848 74.716C36.526 75.892 35.686 77.572 34.958 78.552C34.902 78.636 34.804 78.748 34.804 78.832C34.804 79.056 35.364 79.35 35.546 79.448C35.588 79.462 35.686 79.518 35.686 79.574C35.686 79.658 35.504 79.658 35.448 79.658C35.224 79.658 35 79.644 34.776 79.644C34.44 79.644 34.412 79.798 34.412 80.218V81.016C34.412 81.45 34.44 81.604 34.776 81.604C35.392 81.604 35.994 81.562 36.61 81.562H37.702C37.982 81.562 38.01 81.702 38.01 81.856C38.01 83.424 35.966 84.922 34.594 85.3C34.468 85.328 34.328 85.37 34.328 85.538C34.328 85.93 35.112 86.896 35.588 86.896C35.84 86.896 36.526 86.518 36.778 86.378C38.29 85.51 39.466 84.278 39.858 82.542C39.872 82.458 39.914 82.43 40.012 82.402C40.124 82.374 40.236 82.332 40.236 82.192C40.236 82.052 40.054 81.996 39.76 81.912C39.676 81.884 39.606 81.87 39.536 81.856C39.27 81.786 39.116 81.744 39.116 81.66C39.116 81.576 39.242 81.562 39.298 81.562H40.516C40.726 81.562 40.908 81.744 40.908 81.954V83.998C40.908 84.166 40.894 84.642 40.894 84.964C40.894 86.378 41.398 86.672 42.742 86.672H44.856C45.682 86.672 46.144 86.518 46.508 85.72C46.704 85.272 46.97 84.278 46.97 83.774C46.97 83.536 46.788 83.466 46.592 83.396C46.298 83.284 45.892 83.186 45.584 83.186C45.22 83.186 45.178 83.368 45.15 83.606C45.052 84.418 44.954 84.712 44.436 84.712H43.274C42.826 84.712 42.812 84.544 42.812 84.152V81.954C42.812 81.744 43.008 81.562 43.204 81.562H44.716ZM37.142 79.672C37.016 79.672 36.834 79.658 36.834 79.504C36.834 79.434 36.876 79.336 36.904 79.294C37.114 78.972 37.31 78.622 37.492 78.3C37.632 78.062 37.73 77.936 38.052 77.936H39.172C39.382 77.936 39.564 78.104 39.564 78.328V79.28C39.564 79.49 39.382 79.672 39.172 79.672H37.142ZM56.588 74.184C56.448 74.184 56.42 74.282 56.378 74.492C56.266 75.01 56 75.738 55.72 76.228C55.608 76.424 55.482 76.48 54.796 76.48C54.334 76.48 53.83 76.452 53.522 76.452C53.074 76.452 53.018 76.466 53.018 77.334C53.018 78.384 53.06 78.426 53.536 78.426C53.718 78.426 53.914 78.412 54.082 78.412C54.194 78.412 54.292 78.496 54.292 78.608C54.292 78.664 54.278 78.706 54.208 78.804C53.76 79.434 52.85 80.89 52.276 81.548C52.108 81.73 52.024 81.814 52.024 81.926C52.024 82.262 53.452 83.046 53.76 83.046C53.872 83.046 53.928 82.976 53.97 82.892C54.376 82.164 54.796 81.422 55.454 80.904C55.874 80.582 56.84 80.092 57.372 80.092C57.624 80.092 57.806 80.26 57.806 80.456C57.806 80.61 57.694 80.68 57.568 80.736C57.316 80.862 57.036 81.016 56.798 81.156C55.776 81.758 54.782 82.514 54.782 83.83C54.782 84.852 55.314 85.594 56.21 86C57.036 86.378 57.68 86.448 58.66 86.448C59.346 86.448 60.746 86.406 61.376 86.28C61.782 86.196 61.81 86.056 61.81 85.524C61.81 84.628 61.796 84.124 61.46 84.124C61.362 84.124 61.236 84.138 61.11 84.166C60.228 84.362 59.402 84.516 58.506 84.516C58.016 84.516 56.826 84.516 56.826 83.816C56.826 83.326 57.526 82.878 57.666 82.878C57.778 82.878 57.834 82.976 57.834 83.074V83.144C57.82 83.27 57.806 83.396 57.806 83.522C57.806 83.956 58.1 83.998 59.066 83.998C59.85 83.998 59.864 83.984 59.864 83.088C59.864 82.78 59.85 82.444 59.85 82.276C59.85 81.898 59.906 81.772 60.242 81.632C60.886 81.366 61.306 81.184 61.978 80.932C62.258 80.834 62.398 80.792 62.398 80.61C62.398 80.288 61.908 78.678 61.558 78.678C61.502 78.678 61.432 78.72 61.376 78.748C61.32 78.776 61.222 78.832 61.096 78.902C60.676 79.14 59.934 79.56 59.794 79.56C59.682 79.56 59.612 79.504 59.556 79.392C59.374 79 59.276 78.818 58.884 78.594C58.604 78.426 58.212 78.37 57.876 78.37C57.456 78.37 57.092 78.44 56.686 78.58C56.658 78.594 56.588 78.622 56.56 78.622C56.504 78.622 56.434 78.594 56.434 78.524C56.434 78.51 56.462 78.202 56.91 78.146C57.778 78.048 58.73 77.88 59.5 77.74C60.27 77.6 60.396 77.544 60.396 77.334C60.396 77.04 60.298 76.48 60.228 76.2C60.172 75.948 60.102 75.654 59.794 75.654C59.668 75.654 59.514 75.71 59.402 75.752C59.108 75.85 58.478 76.06 58.268 76.06C58.17 76.06 58.1 76.018 58.1 75.906C58.1 75.794 58.31 75.444 58.478 75.374C58.576 75.346 58.73 75.304 58.73 75.192C58.73 75.066 58.548 74.968 58.296 74.856C58.072 74.758 56.742 74.184 56.588 74.184ZM73.738 83.62C73.78 83.536 73.822 83.494 73.906 83.466C74.032 83.438 74.228 83.396 74.228 83.228C74.228 83.018 73.584 82.78 73.22 82.64C73.01 82.556 72.842 82.486 72.842 82.416C72.842 82.318 72.968 82.318 73.024 82.318H73.99C74.214 82.318 74.382 82.5 74.382 82.71V84.558C74.382 84.81 74.368 85.286 74.368 85.496C74.368 86.406 74.858 86.742 75.698 86.742H78.092C78.652 86.742 79.296 86.742 79.66 86.35C80.108 85.874 80.416 84.768 80.416 84.124C80.416 83.508 79.296 83.284 78.918 83.284C78.722 83.284 78.624 83.34 78.61 83.536C78.526 84.6 78.498 84.824 77.658 84.824H77.098C76.454 84.824 76.412 84.698 76.412 84.068V82.542C76.412 82.416 76.51 82.318 76.636 82.318H76.678C76.804 82.318 76.846 82.402 76.902 82.5C76.986 82.64 77.168 82.654 77.672 82.654H78.344C78.806 82.654 78.946 82.626 78.946 82.332C78.946 81.982 78.918 81.478 78.918 80.988V76.48C78.918 76.046 78.946 75.626 78.946 75.192C78.946 74.688 78.68 74.59 78.26 74.59C77.784 74.59 77.308 74.618 76.846 74.618H71.568C71.092 74.618 70.616 74.59 70.14 74.59C69.692 74.59 69.468 74.716 69.468 75.192C69.468 75.626 69.482 76.046 69.482 76.48V80.988C69.482 81.464 69.454 81.982 69.454 82.332C69.454 82.612 69.608 82.654 69.86 82.654H70.686C71.26 82.654 71.442 82.654 71.498 82.5C71.526 82.43 71.61 82.318 71.764 82.318C71.89 82.318 71.988 82.416 71.988 82.542C71.988 82.598 71.918 83.102 71.568 83.564C70.84 84.53 69.664 84.838 68.53 84.936C68.194 84.964 67.984 84.978 67.984 85.272C67.984 85.482 68.054 85.776 68.124 85.972C68.236 86.308 68.418 86.91 68.852 86.91C69.118 86.91 69.916 86.728 70.196 86.644C71.862 86.168 73.094 85.258 73.738 83.62ZM71.498 76.592C71.498 76.494 71.582 76.41 71.68 76.41H76.734C76.832 76.41 76.902 76.494 76.902 76.592V76.662C76.902 76.76 76.832 76.844 76.734 76.844H71.68C71.568 76.844 71.498 76.76 71.498 76.662V76.592ZM71.498 78.454C71.498 78.356 71.568 78.272 71.68 78.272H76.734C76.832 78.272 76.902 78.356 76.902 78.454V78.538C76.902 78.636 76.832 78.72 76.734 78.72H71.68C71.582 78.72 71.498 78.636 71.498 78.538V78.454ZM71.498 80.386C71.498 80.274 71.568 80.204 71.68 80.204H76.734C76.832 80.204 76.902 80.274 76.902 80.386V80.456C76.902 80.568 76.832 80.638 76.734 80.638H71.68C71.582 80.638 71.498 80.568 71.498 80.456V80.386ZM87.64 82.542C87.64 82.276 87.668 82.15 87.892 82.038C88.606 81.688 88.704 81.618 88.704 81.086C88.704 80.68 88.704 79.812 88.368 79.812C88.27 79.812 88.172 79.868 88.088 79.91C88.004 79.952 87.892 80.022 87.794 80.022C87.64 80.022 87.64 79.868 87.64 79.742V78.916C87.64 78.636 87.766 78.482 88.046 78.482H88.242C88.578 78.482 88.606 78.328 88.606 77.922V77.152C88.606 76.704 88.578 76.592 88.214 76.592H87.99C87.71 76.592 87.64 76.368 87.64 76.13V75.346C87.64 75.066 87.654 74.926 87.766 74.842C87.85 74.772 87.934 74.73 87.934 74.604C87.934 74.422 87.682 74.408 87.5 74.394C86.982 74.366 86.324 74.338 86.03 74.338C85.82 74.338 85.708 74.366 85.708 74.59C85.708 74.646 85.736 75.29 85.736 75.864V76.172C85.736 76.284 85.736 76.592 85.372 76.592H85.148C84.77 76.592 84.742 76.718 84.742 77.152V77.908C84.742 78.342 84.77 78.482 85.134 78.482C85.218 78.482 85.302 78.468 85.386 78.468C85.68 78.468 85.736 78.692 85.736 78.944V80.26C85.736 80.848 85.624 80.876 84.98 81.058C84.812 81.1 84.616 81.128 84.616 81.338C84.616 81.478 84.798 82.164 84.84 82.332C84.882 82.5 84.924 82.654 84.952 82.78C85.05 83.186 85.092 83.396 85.232 83.396C85.316 83.396 85.386 83.298 85.414 83.228C85.442 83.158 85.498 83.046 85.61 83.046C85.736 83.046 85.736 83.228 85.736 83.326V84.236C85.736 84.936 85.722 85.006 85.232 85.006H85.05C84.77 85.006 84.742 85.244 84.742 85.636C84.742 86.98 85.162 86.98 85.61 86.98C86.856 86.98 87.668 86.644 87.668 85.244C87.668 84.908 87.64 84.572 87.64 84.25V82.542ZM92.96 84.18C92.96 83.97 93.142 83.788 93.352 83.788H94.388C94.612 83.788 94.78 83.97 94.78 84.18V84.432C94.78 84.642 94.612 84.824 94.388 84.824H93.352C93.128 84.824 92.96 84.656 92.96 84.432V84.18ZM91.126 76.83C90.986 76.816 90.902 76.732 90.902 76.606V76.508C90.902 76.382 91 76.284 91.126 76.284H94.598C94.71 76.284 94.822 76.382 94.822 76.508V76.606C94.822 76.732 94.71 76.83 94.598 76.83H91.126ZM92.386 78.44C92.736 78.44 92.848 78.622 92.848 78.958C92.848 79.266 92.638 79.35 92.372 79.35H91.392C91.112 79.35 90.902 79.252 90.902 78.93C90.902 78.566 91.042 78.44 91.392 78.44H92.386ZM94.878 81.562C94.878 81.1 95.2 81.1 95.438 81.1C95.942 81.1 96.432 81.142 96.936 81.142C97.244 81.142 97.272 81.002 97.272 80.61V79.826C97.272 79.448 97.244 79.308 96.922 79.308C96.432 79.308 95.942 79.35 95.452 79.35H95.2C95.032 79.35 94.892 79.266 94.892 79.07C94.892 78.972 94.906 78.776 95.004 78.72C95.032 78.706 95.116 78.664 95.13 78.622C95.158 78.482 95.186 78.44 95.424 78.44H95.816C96.446 78.44 96.796 78.384 96.796 77.768C96.796 77.404 96.754 77.04 96.754 76.69V76.368C96.754 76.032 96.782 75.696 96.782 75.36C96.782 74.828 96.572 74.646 96.054 74.646C95.634 74.646 95.2 74.674 94.766 74.674H90.958C90.51 74.674 90.076 74.646 89.642 74.646C89.138 74.646 88.928 74.842 88.928 75.36C88.928 75.696 88.956 76.032 88.956 76.368V77.586C88.956 78.034 88.97 78.482 88.97 78.93C88.97 80.848 88.844 83.55 88.06 85.3C88.004 85.412 87.892 85.65 87.892 85.762C87.892 86.112 89.04 86.798 89.502 86.798C89.656 86.798 89.712 86.728 89.852 86.378C90.412 84.964 90.734 83.186 90.818 81.632C90.832 81.268 90.916 81.1 91.322 81.1H92.484C92.694 81.1 92.876 81.282 92.876 81.492V81.688C92.876 81.954 92.792 82.164 92.484 82.164C92.372 82.164 92.148 82.15 91.966 82.15C91.546 82.15 91.056 82.192 91.056 82.724C91.056 82.976 91.084 83.326 91.084 83.69V85.72C91.084 86.028 91.056 86.588 91.056 86.728C91.056 86.98 91.238 87.008 91.504 87.008H92.372C92.806 87.008 92.974 86.98 92.988 86.784C93.002 86.616 93.002 86.49 93.282 86.49H94.5C94.556 86.49 94.738 86.49 94.752 86.672C94.78 86.994 94.836 87.008 95.326 87.008H96.152C96.628 87.008 96.754 86.98 96.754 86.714C96.754 86.588 96.712 86.154 96.712 85.72V83.69C96.712 83.298 96.74 82.948 96.74 82.724C96.74 82.192 96.25 82.15 95.83 82.15C95.634 82.15 95.41 82.164 95.284 82.164C94.878 82.164 94.878 81.814 94.878 81.66V81.562ZM109.144 77.152C109.116 77.166 109.06 77.18 109.018 77.18C108.92 77.18 108.836 77.096 108.836 76.998C108.836 76.942 108.85 76.886 108.878 76.816C108.962 76.592 109.186 75.934 109.186 75.71C109.186 75.486 108.962 75.43 108.444 75.276C107.8 75.08 107.156 74.856 106.526 74.646C106.372 74.59 106.204 74.534 106.05 74.534C105.882 74.534 105.854 74.576 105.644 75.15C105.504 75.528 105.35 76.046 105.35 76.172C105.35 76.424 105.602 76.48 106.162 76.634C106.708 76.788 107.212 76.984 107.744 77.166C107.87 77.208 107.94 77.25 107.94 77.348C107.94 77.446 107.842 77.474 107.716 77.502C106.582 77.74 105.322 77.992 104.174 78.062C103.964 78.076 103.824 78.132 103.824 78.342C103.824 78.692 104.286 79.504 104.51 79.868C104.65 80.092 104.762 80.148 104.902 80.148C105.154 80.148 105.91 79.924 106.19 79.854C106.33 79.812 107.114 79.574 107.17 79.574C107.254 79.574 107.31 79.63 107.31 79.7C107.31 79.798 107.198 79.91 107.128 79.98C106.568 80.582 106.008 81.184 105.462 81.8C104.832 82.5 103.46 83.97 103.11 84.264C102.564 84.712 102.396 84.922 102.396 85.076C102.396 85.552 103.656 86.532 104.034 86.532C104.16 86.532 104.3 86.336 104.538 86.028C104.916 85.552 106.932 82.43 108.038 82.43C108.206 82.43 108.262 82.57 108.262 82.71C108.262 83.214 108.038 84.012 108.038 84.642C108.038 85.692 108.99 86.434 109.984 86.434C110.754 86.434 112.126 86.014 112.826 85.664C113.05 85.552 113.106 85.468 113.106 84.978C113.106 84.712 113.05 83.844 113.008 83.578C112.994 83.466 112.966 83.326 112.826 83.326C112.63 83.326 112.308 83.522 112.084 83.662C112.042 83.69 112 83.718 111.972 83.732C111.58 83.97 110.768 84.432 110.306 84.432C110.124 84.432 110.068 84.32 110.068 84.152C110.068 83.998 110.138 83.564 110.166 83.396C110.222 83.032 110.264 82.668 110.264 82.304C110.264 81.618 110.054 81.1 109.382 80.848C109.158 80.764 109.06 80.708 109.06 80.54C109.06 80.442 109.186 80.302 109.396 80.106C109.746 79.784 110.502 79.098 110.866 78.832C110.992 78.748 111.132 78.664 111.132 78.496C111.132 78.244 110.278 76.97 109.872 76.97C109.718 76.97 109.368 77.082 109.144 77.152ZM119.588 79.196C119.644 79.196 119.742 79.182 119.798 79.168C120.526 78.958 121.478 78.748 122.22 78.608C122.43 78.566 122.836 78.482 122.976 78.482C123.13 78.482 123.228 78.566 123.228 78.692C123.228 78.804 123.144 78.916 123.088 79C122.346 80.064 121.94 81.17 121.94 82.472C121.94 85.496 124.11 86.168 126.714 86.168C127.008 86.168 127.176 86.14 127.302 85.846C127.442 85.51 127.54 84.614 127.54 84.208C127.54 83.942 127.442 83.9 127.19 83.9C126.98 83.9 126.532 83.942 126.168 83.942C124.936 83.942 124.25 83.578 124.25 82.248C124.25 80.4 125.412 78.776 127.134 78.16C127.848 77.908 128.408 77.922 129.15 77.908C129.724 77.894 129.892 77.894 129.892 77.628C129.892 77.264 129.794 76.438 129.724 76.074C129.682 75.85 129.612 75.612 129.36 75.612C129.318 75.612 129.276 75.612 129.234 75.626C128.226 75.808 127.106 75.948 126.098 76.074C124.04 76.326 121.996 76.522 119.938 76.634C119.196 76.676 119 76.676 119 77.11C119 77.474 119.14 78.23 119.224 78.608C119.266 78.804 119.35 79.196 119.588 79.196ZM136.598 82.402C136.598 82.822 136.976 83.606 137.214 83.942C138.166 85.258 139.776 85.426 141.274 85.426C142.366 85.426 144.466 85.286 145.488 85.034C145.838 84.95 145.978 84.88 145.978 84.628C145.978 84.25 145.978 84.04 145.894 83.144C145.866 82.85 145.74 82.724 145.586 82.724C145.488 82.724 145.362 82.752 145.264 82.78C144.06 83.158 142.492 83.284 141.218 83.284C140.49 83.284 139.622 83.256 139.076 82.696C138.866 82.486 138.74 82.024 138.712 81.786C138.698 81.632 138.67 81.45 138.46 81.45C138.306 81.45 137.312 81.87 137.144 81.94C136.948 82.024 136.598 82.164 136.598 82.402ZM145.67 75.402C145.516 75.402 144.802 75.92 144.802 76.116C144.802 76.186 144.858 76.228 144.956 76.326C145.222 76.592 145.502 76.858 145.74 77.152C145.782 77.194 145.81 77.236 145.852 77.278C145.992 77.446 146.104 77.586 146.188 77.586C146.342 77.586 147 77.054 147 76.802C147 76.578 146.09 75.724 145.894 75.542C145.824 75.472 145.74 75.402 145.67 75.402ZM147.014 74.17C146.888 74.17 146.16 74.674 146.16 74.898C146.16 74.968 146.244 75.052 146.286 75.094C146.594 75.388 146.888 75.668 147.168 76.004C147.378 76.27 147.448 76.368 147.532 76.368C147.686 76.368 148.358 75.822 148.358 75.57C148.358 75.36 147.154 74.17 147.014 74.17ZM138.572 76.158C138.376 76.158 138.264 76.27 138.208 76.438C138.152 76.62 137.928 77.768 137.928 77.95C137.928 78.118 138.054 78.216 138.194 78.272C139.006 78.594 141.162 78.692 142.086 78.692C142.758 78.692 143.57 78.65 144.228 78.538C144.522 78.482 144.564 78.398 144.564 78.104C144.564 77.698 144.55 77.292 144.522 76.886C144.508 76.676 144.452 76.326 144.144 76.326C144.06 76.326 143.99 76.34 143.92 76.354C143.164 76.494 142.408 76.578 141.652 76.578C140.63 76.578 139.748 76.438 139.104 76.256C138.95 76.214 138.698 76.158 138.572 76.158ZM159.334 74.632C158.956 74.632 158.564 74.618 158.186 74.618C157.92 74.618 157.64 74.66 157.64 74.996C157.64 75.248 157.654 75.556 157.654 75.892V78.44C157.654 78.776 157.64 79.098 157.64 79.35C157.64 79.686 157.934 79.714 158.2 79.714C158.578 79.714 158.956 79.7 159.334 79.7H161.742C162.134 79.7 162.512 79.714 162.904 79.714C163.17 79.714 163.45 79.686 163.45 79.35C163.45 79.084 163.422 78.762 163.422 78.44V75.892C163.422 75.57 163.45 75.262 163.45 74.996C163.45 74.646 163.156 74.618 162.89 74.618C162.512 74.618 162.12 74.632 161.742 74.632H159.334ZM159.502 76.228C159.502 76.102 159.6 76.004 159.726 76.004H161.35C161.476 76.004 161.574 76.102 161.574 76.228V76.326C161.574 76.452 161.476 76.55 161.35 76.55H159.726C159.6 76.55 159.516 76.466 159.502 76.326V76.228ZM159.502 77.992C159.516 77.852 159.6 77.768 159.726 77.768H161.35C161.476 77.768 161.574 77.866 161.574 77.992V78.118C161.574 78.23 161.476 78.342 161.35 78.342H159.726C159.6 78.342 159.502 78.23 159.502 78.118V77.992ZM159.796 84.18C159.796 84.446 159.782 84.53 159.642 84.53C159.46 84.53 158.788 84.026 158.788 83.578C158.788 83.452 158.83 83.298 158.858 83.172C158.886 83.018 158.928 82.976 159.054 82.906C159.138 82.878 159.222 82.822 159.222 82.724C159.222 82.542 159.026 82.528 158.564 82.416C158.368 82.374 157.486 82.178 157.346 82.178C157.136 82.178 157.136 82.304 157.122 82.472C156.996 83.452 156.422 84.992 155.862 85.79C155.792 85.874 155.68 86.014 155.68 86.126C155.68 86.574 156.884 86.868 157.192 86.868C157.5 86.868 157.766 86.266 158.018 85.748C158.074 85.636 158.158 85.426 158.298 85.426C158.41 85.426 158.494 85.524 158.55 85.594C159.362 86.532 160.594 86.742 161.77 86.742C162.386 86.742 163.016 86.742 163.632 86.742C163.8 86.742 164.024 86.742 164.15 86.616C164.388 86.378 164.5 85.678 164.5 85.328C164.5 85.02 164.332 84.88 164.024 84.88C163.954 84.88 163.87 84.88 163.814 84.894C163.534 84.908 162.932 84.95 162.652 84.95H162.302C161.784 84.95 161.672 84.894 161.672 84.572V84.334C161.672 84.18 161.798 84.054 161.952 84.054H162.302C162.764 84.054 163.226 84.096 163.688 84.096C163.94 84.096 163.968 83.984 163.968 83.648V82.836C163.968 82.514 163.94 82.402 163.688 82.402C163.226 82.402 162.764 82.43 162.302 82.43H161.952C161.798 82.43 161.672 82.318 161.672 82.164V82.052C161.672 81.912 161.798 81.786 161.952 81.786H162.722C163.338 81.786 163.744 81.814 163.996 81.814C164.43 81.814 164.486 81.73 164.486 81.254V80.68C164.486 80.274 164.458 80.134 164.08 80.134C163.632 80.134 163.184 80.162 162.722 80.162H158.522C158.074 80.162 157.626 80.134 157.178 80.134C156.814 80.134 156.772 80.274 156.772 80.652V81.282C156.772 81.66 156.8 81.814 157.15 81.814C157.612 81.814 158.074 81.786 158.522 81.786H159.404C159.628 81.786 159.796 81.968 159.796 82.178V84.18ZM153.272 80.19C153.272 80.694 153.188 80.778 152.698 80.904C152.6 80.932 152.516 80.946 152.39 80.974C151.984 81.072 151.802 81.114 151.802 81.31C151.802 81.422 151.858 81.618 151.886 81.73C151.942 81.982 151.998 82.178 152.04 82.36C152.194 83.018 152.236 83.2 152.404 83.2C152.516 83.2 152.586 83.13 152.628 83.032C152.754 82.808 153.034 82.766 153.104 82.766C153.272 82.766 153.272 82.878 153.272 83.046V84.656C153.272 84.768 153.258 84.936 152.964 84.936C152.838 84.936 152.628 84.894 152.53 84.894C152.194 84.894 152.152 85.188 152.152 85.454C152.152 85.804 152.208 86.392 152.39 86.7C152.488 86.896 152.698 86.952 153.104 86.952C153.65 86.952 154.378 86.91 154.798 86.546C155.148 86.252 155.176 85.832 155.176 85.412C155.176 85.076 155.148 84.726 155.148 84.39V82.514C155.148 82.192 155.204 82.052 155.526 81.926C156.548 81.534 156.646 81.506 156.646 80.778C156.646 80.554 156.618 79.714 156.296 79.714C156.198 79.714 156.044 79.784 155.946 79.826C155.806 79.896 155.47 80.036 155.33 80.036C155.162 80.036 155.148 79.91 155.148 79.658V78.944C155.148 78.678 155.218 78.412 155.54 78.412C155.708 78.412 155.876 78.44 156.044 78.44C156.394 78.44 156.422 78.286 156.422 77.88V77.096C156.422 76.69 156.38 76.55 156.03 76.55C155.862 76.55 155.68 76.578 155.498 76.578C155.232 76.578 155.148 76.396 155.148 76.046V75.486C155.148 75.108 155.148 74.912 155.302 74.814C155.4 74.744 155.498 74.702 155.498 74.562C155.498 74.366 155.176 74.366 155.036 74.366C154.616 74.338 153.93 74.296 153.538 74.296C153.384 74.296 153.23 74.31 153.23 74.506C153.23 74.632 153.272 75.122 153.272 75.864V76.046C153.272 76.34 153.23 76.578 152.88 76.578C152.698 76.578 152.53 76.55 152.348 76.55C151.984 76.55 151.956 76.704 151.956 77.138V77.88C151.956 78.286 151.984 78.44 152.348 78.44C152.53 78.44 152.726 78.412 152.908 78.412C153.202 78.412 153.272 78.566 153.272 78.888V80.19ZM171.318 83.998C171.416 83.998 171.612 83.998 171.612 84.138C171.612 84.432 169.386 85.272 169.036 85.37C168.882 85.412 168.686 85.468 168.686 85.608C168.686 85.762 168.84 85.972 169.12 86.35C169.288 86.56 169.61 86.98 169.89 86.98C170.17 86.98 171.402 86.308 171.71 86.14C172.312 85.79 173.082 85.314 173.614 84.866C173.684 84.81 173.754 84.768 173.796 84.768C173.992 84.768 173.992 84.95 173.992 85.034C173.992 85.552 173.95 86.056 173.95 86.574C173.95 86.938 174.118 86.966 174.58 86.966H175.406C175.868 86.966 176.022 86.938 176.022 86.574C176.022 86.098 175.994 85.608 175.994 85.132C175.994 85.006 175.994 84.852 176.176 84.852C176.246 84.852 176.316 84.908 176.372 84.95C176.988 85.426 177.66 85.832 178.332 86.224C179.102 86.63 179.774 86.98 179.97 86.98C180.376 86.98 181.188 85.874 181.188 85.622C181.188 85.468 181.09 85.44 180.894 85.384C180.054 85.118 179.06 84.726 178.346 84.278C178.248 84.222 178.122 84.152 178.122 84.082C178.122 83.998 178.22 83.998 178.29 83.998H179.27C179.802 83.998 180.334 84.026 180.88 84.026C181.216 84.026 181.244 83.914 181.244 83.508V82.962C181.244 82.598 181.216 82.472 180.88 82.472C180.334 82.472 179.802 82.5 179.27 82.5H176.316C176.148 82.5 176.064 82.416 176.064 82.29C176.064 82.22 176.092 82.164 176.148 82.108C176.26 82.024 176.33 81.982 176.33 81.898C176.33 81.8 176.26 81.758 176.134 81.73C175.994 81.702 175.7 81.674 175.532 81.66C175.28 81.646 175.238 81.632 175.238 81.576C175.238 81.506 175.308 81.478 175.378 81.45C175.714 81.296 176.022 81.156 176.218 81.156C176.68 81.156 178.15 81.842 178.598 82.094C178.682 82.15 178.878 82.262 178.962 82.262C179.382 82.262 180.054 81.212 180.054 80.89C180.054 80.736 179.886 80.68 179.648 80.582C179.2 80.4 178.738 80.232 178.276 80.092C178.15 80.05 178.024 80.022 178.024 79.854C178.024 79.756 178.08 79.686 178.136 79.616C178.178 79.574 178.22 79.518 178.262 79.476C178.43 79.266 178.57 79.084 178.906 79.084C179.186 79.084 179.466 79.112 179.76 79.112C179.984 79.112 180.11 79.056 180.11 78.818C180.11 78.538 180.194 78.454 180.474 78.454C180.992 78.454 181.118 78.44 181.118 78.174C181.118 77.978 181.09 77.782 181.09 77.558V76.438C181.09 76.186 181.104 75.948 181.104 75.864C181.104 75.472 180.544 75.472 180.208 75.472C179.704 75.472 179.2 75.5 178.682 75.5H176.54C176.26 75.5 176.148 75.318 176.148 75.15C176.148 74.996 176.19 74.94 176.288 74.828C176.358 74.772 176.442 74.702 176.442 74.618C176.442 74.436 176.176 74.436 176.05 74.436C175.42 74.436 174.804 74.38 174.188 74.38C174.048 74.38 173.852 74.38 173.852 74.576C173.852 74.744 173.894 74.982 173.894 75.136C173.894 75.262 173.81 75.5 173.418 75.5H171.318C170.814 75.5 170.31 75.472 169.792 75.472C169.47 75.472 168.896 75.472 168.896 75.864C168.896 75.948 168.91 76.186 168.91 76.438V77.572C168.91 77.824 168.896 78.062 168.896 78.258C168.896 78.496 169.12 78.51 169.372 78.51H169.694C169.848 78.51 169.974 78.636 169.988 78.79C170.002 78.986 170.016 79.112 170.338 79.112C170.66 79.112 170.982 79.084 171.304 79.084C171.346 79.084 171.416 79.084 171.416 79.14C171.416 79.224 171.15 79.434 171.08 79.49C171.038 79.518 170.954 79.588 170.954 79.658C170.954 79.938 172.102 80.47 172.396 80.47C172.466 80.47 172.522 80.456 172.578 80.428C172.676 80.372 172.76 80.33 172.872 80.33C172.942 80.33 173.292 80.358 173.292 80.456C173.292 80.526 172.928 80.568 172.858 80.568C172.13 80.68 171.43 80.68 170.702 80.68H170.548C170.394 80.68 170.282 80.708 170.282 80.89C170.282 81.058 170.478 81.52 170.548 81.688C170.744 82.122 170.856 82.29 171.164 82.29C171.668 82.29 173.124 82.094 173.614 81.982C173.656 81.968 173.684 81.968 173.712 81.968C173.852 81.968 173.978 82.08 173.978 82.22C173.978 82.36 173.894 82.5 173.684 82.5H170.8C170.268 82.5 169.722 82.472 169.19 82.472C168.854 82.472 168.826 82.584 168.826 82.962V83.508C168.826 83.914 168.854 84.026 169.19 84.026C169.722 84.026 170.268 83.998 170.8 83.998H171.318ZM175.714 79.084C175.784 79.084 175.924 79.084 175.924 79.182C175.924 79.252 175.63 79.588 175.294 79.588C175.238 79.588 175.182 79.574 175.126 79.574C174.762 79.518 174.398 79.462 174.034 79.42C173.922 79.406 173.782 79.378 173.782 79.294C173.782 79.112 174.174 79.084 174.3 79.084H175.714ZM175.63 77.67C175.49 77.67 175.308 77.67 175.308 77.502C175.308 77.418 175.336 77.376 175.378 77.32C175.56 77.068 175.644 76.956 176.12 76.956H178.808C178.948 76.956 179.074 77.082 179.074 77.222V77.348C179.074 77.642 178.878 77.67 178.654 77.67H175.63ZM172.914 76.956C173.026 76.956 173.194 76.97 173.194 77.124C173.194 77.138 173.068 77.67 172.41 77.67H171.136C170.954 77.67 170.856 77.558 170.856 77.376V77.292C170.856 77.11 171.01 76.956 171.192 76.956H172.914ZM187.81 82.486C186.704 82.486 185.822 83.382 185.822 84.488C185.822 85.594 186.718 86.49 187.81 86.49C188.916 86.49 189.812 85.594 189.812 84.488C189.812 83.382 188.916 82.486 187.81 82.486ZM187.81 83.312C188.468 83.312 189 83.83 189 84.488C189 85.132 188.468 85.664 187.81 85.664C187.166 85.664 186.634 85.132 186.634 84.488C186.634 83.83 187.166 83.312 187.81 83.312Z" fill="white"/>
</g>
<g clip-path="url(#clip1_366_15)">
<g filter="none">
<path d="M29.128 15.128C28.6 15.128 28.216 15.08 27.976 15.08C27.592 15.08 27.496 15.176 27.496 15.656V16.28C27.496 16.76 27.52 16.928 27.928 16.928C28.192 16.928 28.744 16.88 29.272 16.88H29.992C30.544 16.88 31.096 16.928 31.36 16.928C31.744 16.928 31.792 16.784 31.792 16.376V15.704C31.792 15.272 31.768 15.08 31.384 15.08C31.096 15.08 30.496 15.128 29.992 15.128H29.128ZM19.84 15.128C19.288 15.128 18.904 15.08 18.64 15.08C18.28 15.08 18.184 15.176 18.184 15.632V16.304C18.184 16.76 18.208 16.928 18.64 16.928C18.88 16.928 19.456 16.88 19.984 16.88H20.68C21.208 16.88 21.76 16.928 22.024 16.928C22.408 16.928 22.456 16.784 22.456 16.328V15.68C22.456 15.272 22.432 15.08 22.072 15.08C21.76 15.08 21.184 15.128 20.68 15.128H19.84ZM29.104 17.6C28.576 17.6 28.216 17.552 27.976 17.552C27.592 17.552 27.496 17.624 27.496 18.104V18.776C27.496 19.232 27.52 19.424 27.928 19.424C28.192 19.424 28.744 19.376 29.272 19.376H29.992C30.544 19.376 31.096 19.424 31.36 19.424C31.768 19.424 31.792 19.28 31.792 18.824V18.176C31.792 17.768 31.768 17.576 31.384 17.576C31.096 17.576 30.496 17.6 29.992 17.6H29.104ZM19.816 17.6C19.24 17.6 18.856 17.552 18.616 17.552C18.28 17.552 18.184 17.648 18.184 18.08V18.752C18.184 19.232 18.208 19.424 18.64 19.424C18.88 19.424 19.456 19.376 19.984 19.376H20.68C21.208 19.376 21.76 19.424 22.024 19.424C22.432 19.424 22.456 19.28 22.456 18.776V18.176C22.456 17.768 22.432 17.576 22.072 17.576C21.76 17.576 21.184 17.6 20.68 17.6H19.816ZM29.848 11.648C30.76 11.648 31.648 11.696 32.536 11.696C33.04 11.696 33.088 11.528 33.088 11.024V10.184C33.088 9.656 33.04 9.512 32.512 9.512C31.624 9.512 30.736 9.56 29.848 9.56H20.128C19.24 9.56 18.352 9.512 17.464 9.512C16.936 9.512 16.888 9.656 16.888 10.184V11.024C16.888 11.528 16.936 11.696 17.44 11.696C18.352 11.696 19.24 11.648 20.128 11.648H22.936C23.104 11.648 23.248 11.792 23.248 11.96V12.032C23.248 12.2 23.104 12.32 22.936 12.32H17.392C16.768 12.32 16.144 12.272 15.52 12.272C14.584 12.272 14.44 12.416 14.44 13.184V15.8C14.44 16.256 14.392 16.64 14.392 16.928C14.392 17.408 14.68 17.456 15.328 17.456H16.72C17.392 17.456 17.68 17.408 17.68 16.928C17.68 16.64 17.632 16.208 17.632 15.8V15.056C17.632 14.72 17.944 14.408 18.304 14.408H22.576C22.936 14.408 23.248 14.696 23.248 15.08V16.568C23.248 17.48 23.176 18.368 23.176 19.04C23.176 19.616 23.44 19.688 24.16 19.688H25.816C26.536 19.688 26.824 19.616 26.824 19.064C26.824 18.344 26.752 17.408 26.752 16.568V15.08C26.752 14.696 27.064 14.408 27.424 14.408H31.648C32.008 14.408 32.296 14.696 32.296 15.056V15.8C32.296 16.256 32.248 16.64 32.248 16.928C32.248 17.408 32.536 17.456 33.208 17.456H34.6C35.248 17.456 35.536 17.408 35.536 16.928C35.536 16.64 35.488 16.208 35.488 15.8V13.16C35.488 12.392 35.296 12.272 34.384 12.272C33.784 12.272 33.16 12.32 32.536 12.32H27.064C26.896 12.32 26.752 12.2 26.752 12.032V11.96C26.752 11.768 26.896 11.648 27.064 11.648H29.848ZM29.968 27.248C30.76 27.248 31.552 27.272 32.32 27.272H32.392C32.704 27.272 32.968 27.32 32.968 27.656C32.968 28.064 32.44 28.088 32.152 28.088H27.592C27.28 28.088 26.752 28.04 26.752 27.632C26.752 27.416 26.92 27.248 27.136 27.248H29.968ZM23.2 24.56C23.368 24.56 23.464 24.68 23.464 24.848V24.968C23.464 25.112 23.344 25.232 23.2 25.232H20.176C20.032 25.232 19.912 25.112 19.912 24.968V24.848C19.912 24.68 20.032 24.56 20.176 24.56H23.2ZM30.064 24.56C30.232 24.56 30.352 24.68 30.352 24.848V24.968C30.352 25.112 30.232 25.232 30.064 25.232H26.968C26.824 25.232 26.704 25.112 26.704 24.968V24.848C26.704 24.68 26.824 24.56 26.968 24.56H30.064ZM20.2 22.808C20.032 22.808 19.912 22.664 19.912 22.496V22.448C19.912 22.28 20.032 22.136 20.2 22.136H23.152C23.32 22.136 23.464 22.28 23.464 22.448V22.496C23.464 22.688 23.32 22.784 23.152 22.808H20.2ZM27.016 22.808C26.848 22.784 26.704 22.688 26.704 22.496V22.448C26.704 22.28 26.848 22.136 27.016 22.136H30.04C30.208 22.136 30.352 22.28 30.352 22.448V22.496C30.352 22.664 30.208 22.808 30.04 22.808H27.016ZM33.04 30.464C34 30.464 34.648 30.392 35.224 29.528C35.632 28.928 36.16 27.704 36.16 26.96C36.16 26.192 34.744 25.904 34.264 25.88C33.688 25.856 33.616 25.64 33.616 25.04V21.056C33.616 20.36 33.544 20.144 32.704 20.144H17.584C16.768 20.144 16.624 20.288 16.624 21.056C16.624 21.704 16.648 22.376 16.648 23.024V25.328C16.648 26.048 16.6 26.768 16.6 27.464C16.6 28.088 16.936 28.136 17.512 28.136H18.712C19.672 28.136 19.864 28.088 19.864 27.536C19.864 27.272 20.032 27.248 20.464 27.248H22.744C23.104 27.248 23.44 27.488 23.44 28.064V28.184C23.44 30.296 24.592 30.464 26.392 30.464H33.04ZM57.4 20.048C57.808 20.048 58.072 20.36 58.072 20.768V20.96C58.072 23.312 58.144 26.192 58.888 28.424C59.344 29.84 60.208 30.728 61.768 30.728C64.192 30.728 64.744 28.064 65.008 26.168C65.056 25.832 65.104 25.376 65.104 25.088C65.104 24.296 63.952 23.936 63.28 23.936C62.8 23.936 62.656 24.08 62.632 24.512C62.632 24.872 62.512 26.96 62.08 26.96C61.864 26.96 61.84 26.576 61.816 26.408C61.672 25.28 61.624 24.152 61.624 23.024C61.624 21.536 61.696 19.352 61.696 18.512C61.696 17.6 61.504 17.288 60.544 17.288C59.848 17.288 59.152 17.336 58.432 17.336H48.28C47.272 17.336 46.264 17.264 45.232 17.264C44.68 17.264 44.632 17.504 44.632 18.2V19.448C44.632 20 44.896 20.096 45.208 20.096C46.24 20.096 47.272 20.048 48.28 20.048H51.112C51.376 20.048 51.712 20.072 51.712 20.432C51.712 20.72 51.232 21.536 51.064 21.824C50.872 22.16 50.632 22.616 50.272 22.616C50.032 22.616 49.84 22.496 49.648 22.376C49.144 22.112 47.272 21.2 46.792 21.2C46.336 21.2 44.968 22.88 44.968 23.336C44.968 23.624 45.28 23.744 45.52 23.816C45.904 23.96 47.992 24.704 47.992 25.112C47.992 25.616 44.704 27.344 44.152 27.584C43.936 27.68 43.576 27.8 43.576 28.064C43.576 28.52 44.92 30.608 45.544 30.608C46.24 30.608 50.152 27.896 50.728 27.296C50.92 27.08 51.088 27.056 51.16 27.056C51.352 27.056 51.496 27.128 51.736 27.32C52.216 27.704 53.056 28.448 53.896 29.144C54.112 29.336 54.352 29.576 54.64 29.576C55.648 29.576 56.464 27.536 56.464 27.104C56.464 26.84 56.272 26.696 56.104 26.552C55.72 26.24 54.712 25.52 54.28 25.232C54.016 25.064 53.512 24.728 53.512 24.368C53.512 24.152 53.656 23.96 53.776 23.792C54.064 23.384 54.352 22.88 54.592 22.448C54.76 22.112 54.832 22.112 55.168 22.088C55.336 22.088 55.552 22.016 55.552 21.824C55.552 21.536 54.832 21.2 54.592 21.08C54.4 20.984 53.08 20.312 53.08 20.192C53.08 20.048 53.392 20.048 53.464 20.048H57.4ZM51.136 10.904C51.016 10.904 50.872 10.856 50.872 10.688C50.872 10.4 51.28 10.232 51.496 10.16C51.664 10.112 52 10.016 52 9.8C52 9.536 51.496 9.44 51.256 9.368C50.752 9.248 48.64 8.672 48.28 8.672C48.04 8.672 47.992 8.888 47.896 9.128C47.152 11.12 45.328 13.472 43.672 14.816C43.432 15.032 43.072 15.248 43.072 15.488C43.072 16.136 44.968 17.192 45.352 17.192C45.808 17.192 47.224 15.704 47.56 15.32C47.656 15.2 47.776 15.032 47.92 15.032C48.136 15.032 48.136 15.32 48.136 15.464V15.68C48.136 16.28 48.136 16.568 48.688 16.568C49.408 16.568 50.104 16.544 50.824 16.544H58.48C59.2 16.544 59.896 16.568 60.616 16.568C61.072 16.568 61.168 16.376 61.168 15.872V14.84C61.168 14.336 61.072 14.144 60.592 14.144C59.896 14.144 59.2 14.192 58.48 14.192H50.824C50.248 14.192 49.696 14.144 49.144 14.144C48.784 14.144 48.712 14.12 48.712 13.976C48.712 13.808 49.024 13.472 49.744 13.472H60.424C61.336 13.472 62.248 13.52 63.16 13.52C63.688 13.52 63.736 13.328 63.736 12.68V11.696C63.736 11.048 63.688 10.856 63.136 10.856C62.224 10.856 61.336 10.904 60.424 10.904H51.136Z" fill="white"/>
</g>
</g>
<rect x="1" y="1" width="78" height="38" rx="3" stroke="white" stroke-width="2"/>
</g>
<defs>
<filter id="filter0_d_366_15" x="86.8201" y="12.96" width="111.735" height="25.1" filterUnits="userSpaceOnUse" color-interpolation-filters="sRGB">
<feFlood flood-opacity="0" result="BackgroundImageFix"/>
<feColorMatrix in="SourceAlpha" type="matrix" values="0 0 0 0 0 0 0 0 0 0 0 0 0 0 0 0 0 0 127 0" result="hardAlpha"/>
<feOffset dy="4"/>
<feGaussianBlur stdDeviation="2"/>
<feComposite in2="hardAlpha" operator="out"/>
<feColorMatrix type="matrix" values="0 0 0 0 0 0 0 0 0 0 0 0 0 0 0 0 0 0 0.4 0"/>
<feBlend mode="normal" in2="BackgroundImageFix" result="effect1_dropShadow_366_15"/>
<feBlend mode="normal" in="SourceGraphic" in2="effect1_dropShadow_366_15" result="shape"/>
</filter>
<filter id="filter1_d_366_15" x="-3.18799" y="54.142" width="203.342" height="40.866" filterUnits="userSpaceOnUse" color-interpolation-filters="sRGB">
<feFlood flood-opacity="0" result="BackgroundImageFix"/>
<feColorMatrix in="SourceAlpha" type="matrix" values="0 0 0 0 0 0 0 0 0 0 0 0 0 0 0 0 0 0 127 0" result="hardAlpha"/>
<feOffset dy="4"/>
<feGaussianBlur stdDeviation="2"/>
<feComposite in2="hardAlpha" operator="out"/>
<feColorMatrix type="matrix" values="0 0 0 0 0 0 0 0 0 0 0 0 0 0 0 0 0 0 0.4 0"/>
<feBlend mode="normal" in2="BackgroundImageFix" result="effect1_dropShadow_366_15"/>
<feBlend mode="normal" in="SourceGraphic" in2="effect1_dropShadow_366_15" result="shape"/>
</filter>
<filter id="filter2_d_366_15" x="10.3921" y="8.672" width="58.7119" height="30.056" filterUnits="userSpaceOnUse" color-interpolation-filters="sRGB">
<feFlood flood-opacity="0" result="BackgroundImageFix"/>
<feColorMatrix in="SourceAlpha" type="matrix" values="0 0 0 0 0 0 0 0 0 0 0 0 0 0 0 0 0 0 127 0" result="hardAlpha"/>
<feOffset dy="4"/>
<feGaussianBlur stdDeviation="2"/>
<feComposite in2="hardAlpha" operator="out"/>
<feColorMatrix type="matrix" values="0 0 0 0 0 0 0 0 0 0 0 0 0 0 0 0 0 0 0.4 0"/>
<feBlend mode="normal" in2="BackgroundImageFix" result="effect1_dropShadow_366_15"/>
<feBlend mode="normal" in="SourceGraphic" in2="effect1_dropShadow_366_15" result="shape"/>
</filter>
<clipPath id="clip0_366_15">
<rect width="199" height="91" fill="white"/>
</clipPath>
<clipPath id="clip1_366_15">
<rect width="80" height="40" rx="4" fill="white"/>
</clipPath>
</defs>
</svg>
