<svg width="195" height="39" viewBox="0 0 195 39" fill="none" xmlns="http://www.w3.org/2000/svg">
<g filter="url(#filter0_d_7_3)">
<path d="M4.076 16.58C4.076 20.54 4.616 24.572 6.38 28.136C7.028 29.432 7.352 29.9 8.036 29.9C9.152 29.9 11.816 28.856 11.816 27.524C11.816 27.308 11.744 26.696 11.708 26.48C11.636 25.94 11.564 25.04 11.564 24.788C11.564 22.844 13.148 20.072 13.148 19.568C13.148 19.028 11.708 17.804 11.276 17.804C10.88 17.804 10.664 18.2 10.448 18.56C10.268 18.848 10.088 19.136 9.836 19.136C9.368 19.136 9.368 18.164 9.368 16.184C9.368 12.908 10.376 8.732 11.564 5.96C11.888 5.168 12.068 4.88 12.896 4.484C13.04 4.412 13.148 4.34 13.148 4.196C13.148 4.016 12.932 3.8 12.212 3.476C10.664 2.792 7.208 1.532 6.884 1.532C6.416 1.532 6.38 1.856 6.272 2.54C6.164 3.116 5.984 3.8 5.804 4.484C4.688 8.732 4.076 12.152 4.076 16.58ZM15.02 7.616C15.02 8.012 15.02 9.092 15.308 9.344C15.992 9.92 20.96 10.1 22.04 10.1C24.056 10.1 26.072 9.956 28.088 9.668C29.024 9.524 29.132 9.272 29.132 8.408C29.132 7.508 29.024 6.356 28.916 5.456C28.844 4.916 28.628 4.16 27.944 4.16C27.728 4.16 27.548 4.196 27.224 4.268C25.496 4.7 23.696 4.988 21.896 4.988C20.492 4.988 18.512 4.772 17.144 4.484C16.82 4.412 16.244 4.34 16.028 4.34C15.164 4.34 15.02 4.952 15.02 7.616ZM15.668 19.64C14.84 19.64 13.04 23.276 13.04 23.96C13.04 24.788 15.596 27.668 21.392 27.668C23.012 27.668 29.024 27.128 30.284 26.516C30.752 26.3 30.788 26.048 30.788 25.58C30.788 24.86 30.752 22.808 30.608 21.836C30.572 21.512 30.356 21.044 29.888 21.044C29.636 21.044 29.276 21.116 29.024 21.188C26.468 21.908 23.804 22.34 21.14 22.34C18.8 22.34 17.612 21.728 16.1 19.928C15.992 19.82 15.848 19.64 15.668 19.64ZM48.104 20.648C47.312 20.648 44.72 23.456 44.72 24.14C44.72 24.356 44.9 24.536 45.08 24.644C47.276 26.156 49.292 27.884 50.984 29.936C51.164 30.188 51.416 30.548 51.776 30.548C52.784 30.548 55.376 27.776 55.376 26.732C55.376 25.832 48.824 20.648 48.104 20.648ZM80.396 7.328C78.812 7.328 76.832 7.22 75.572 7.22C74.78 7.22 74.6 7.544 74.6 8.804V10.64C74.6 11.972 74.708 12.656 75.752 12.656C77.048 12.656 78.704 12.548 80.396 12.548H85.184C85.796 12.548 86.3 13.052 86.3 13.664V21.476C86.3 23.852 86.228 24.284 83.24 24.464C82.592 24.5 82.052 24.608 82.052 25.04C82.052 25.58 82.628 26.948 82.88 27.488C83.744 29.504 84.032 29.612 84.68 29.612C86.336 29.612 89.792 28.712 90.836 27.344C91.556 26.372 91.7 24.644 91.7 23.06C91.7 22.304 91.664 21.62 91.664 21.044V13.664C91.664 13.052 92.168 12.548 92.78 12.548H97.28C98.936 12.548 100.592 12.62 102.248 12.62C103.22 12.62 103.4 12.224 103.4 10.748V8.696C103.4 7.796 103.328 7.22 102.392 7.22C101.24 7.22 99.044 7.328 97.28 7.328H92.672C91.736 7.328 91.664 6.428 91.664 5.96V5.6C91.664 5.06 91.7 4.52 91.7 3.98V3.548C91.7 2.72 91.988 2.432 92.204 2.216C92.384 2.072 92.492 1.964 92.492 1.748C92.492 1.46 92.024 1.352 91.808 1.316C90.764 1.208 87.74 0.811998 86.84 0.811998C86.408 0.811998 86.12 0.883999 86.12 1.316V1.82C86.3 3.296 86.264 4.16 86.3 5.6V5.96C86.3 6.536 86.228 7.328 85.292 7.328H80.396ZM79.676 14.348C79.352 14.348 79.136 14.708 78.992 14.96C77.84 17.012 75.968 18.956 74.06 20.396C73.736 20.612 73.16 20.972 73.16 21.404C73.16 22.304 76.04 24.932 76.76 24.932C77.84 24.932 82.52 19.568 83.384 18.488C83.816 17.984 83.852 17.912 84.428 17.552C84.572 17.48 84.788 17.372 84.788 17.192C84.788 16.904 84.392 16.652 83.924 16.364C83.168 15.932 80.288 14.348 79.676 14.348ZM97.208 14.24C96.668 14.24 96.272 14.636 95.768 15.176L95.444 15.5C95.048 15.896 94.04 17.012 94.04 17.588C94.04 17.948 94.292 18.128 94.544 18.344C96.776 20.288 98.144 21.62 99.944 23.96C100.16 24.248 100.484 24.716 100.88 24.716C101.672 24.716 104.48 22.016 104.48 21.116C104.48 20.432 102.716 18.668 102.176 18.128C101.276 17.228 98.396 14.24 97.208 14.24ZM124.488 1.82C123.444 1.82 121.284 5.24 121.284 5.96C121.284 6.32 121.644 6.536 121.932 6.716C124.308 8.048 125.892 9.2 127.98 10.928C128.196 11.144 128.556 11.468 128.88 11.468C129.708 11.468 132.264 8.552 132.264 7.508C132.264 7.22 132.156 7.04 131.94 6.86C130.752 5.78 128.52 4.052 125.604 2.324C125.1 2.036 124.668 1.82 124.488 1.82ZM145.116 7.148C144.72 7.148 144.432 7.544 144.108 8.012C144.036 8.12 143.964 8.192 143.892 8.3C140.868 12.44 135.324 16.94 130.896 19.568C128.016 21.26 124.884 22.664 121.68 23.528C121.392 23.6 120.996 23.78 120.996 24.104C120.996 24.5 121.788 25.832 122.04 26.264C122.544 27.2 123.12 28.136 123.732 29.036C123.876 29.288 124.092 29.612 124.38 29.612C124.524 29.612 124.632 29.504 124.668 29.396C124.956 28.892 124.92 28.82 125.64 28.46C132.84 25.004 138.636 21.764 144.432 16.112C145.188 15.392 148.104 12.62 148.104 11.756C148.104 11.36 147.744 10.604 147.492 10.064C147.384 9.92 147.348 9.776 147.276 9.668C146.952 9.092 145.836 7.148 145.116 7.148ZM168.12 7.22C166.788 7.436 165.708 7.544 164.916 7.652C162.72 7.904 162.216 7.976 162.216 8.768C162.216 9.308 162.504 11.396 162.612 12.044C162.72 12.584 162.936 13.124 163.548 13.124C163.908 13.124 167.976 12.476 168.732 12.368L171.18 12.008C171.252 12.008 171.36 12.008 171.432 12.008C171.972 12.008 172.368 12.368 172.476 12.944L172.872 15.032C172.908 15.176 172.908 15.212 172.908 15.284C172.908 15.752 172.584 16.112 172.08 16.22L166.716 16.976C165.42 17.156 164.412 17.264 163.62 17.336C161.604 17.552 161.1 17.624 161.1 18.344C161.1 18.812 161.46 21.332 161.568 21.836C161.712 22.412 161.856 22.844 162.54 22.844C162.9 22.844 166.68 22.196 167.436 22.088L173.016 21.296C173.052 21.296 173.088 21.296 173.16 21.296C173.7 21.296 174.168 21.692 174.276 22.268L174.6 23.888C174.924 25.688 175.284 27.488 175.5 29.324C175.608 30.404 175.788 30.908 176.436 30.908C177.156 30.908 179.244 30.44 180 30.26C180.468 30.152 181.08 30.044 181.08 29.468C181.08 28.856 179.964 23.78 179.748 22.736L179.496 21.44C179.46 21.332 179.46 21.224 179.46 21.152C179.46 20.792 179.784 20.36 180.288 20.252L184.896 19.604C185.436 19.532 189.576 18.992 189.9 18.956C190.548 18.848 190.8 18.524 190.8 17.876C190.8 17.48 190.692 16.652 190.62 16.22L190.512 15.5C190.404 14.456 190.296 13.664 189.468 13.664C189.288 13.664 184.896 14.384 184.176 14.492L179.352 15.176C179.316 15.176 179.244 15.176 179.208 15.176C178.668 15.176 178.236 14.816 178.128 14.276L177.696 12.08C177.696 12.044 177.696 11.936 177.696 11.9C177.696 11.432 177.984 11.036 178.452 10.928L180.648 10.604C181.8 10.424 182.7 10.316 183.456 10.244C185.796 9.956 186.336 9.884 186.336 9.02C186.336 8.516 186.048 6.968 185.976 6.392C185.796 5.528 185.76 4.736 184.932 4.736C184.752 4.736 180.576 5.42 179.892 5.492L177.624 5.852C177.588 5.852 177.516 5.852 177.48 5.852C176.868 5.852 176.436 5.42 176.328 4.808L176.256 4.52C176.148 3.944 175.788 2.252 175.788 1.784C175.788 1.388 175.932 1.136 176.076 0.919999C176.184 0.739999 176.256 0.559999 176.256 0.379999C176.256 0.127998 175.932 0.127998 175.608 0.127998C174.132 0.127998 172.656 0.235999 171.216 0.343998C170.568 0.379999 170.028 0.487998 170.028 0.883999C170.028 1.028 170.712 3.836 170.784 4.268L171 5.204C171.036 5.456 171.108 5.672 171.108 5.924C171.108 6.428 170.748 6.824 170.244 6.896L168.12 7.22Z" fill="white"/>
</g>
<defs>
<filter id="filter0_d_7_3" x="0.0759277" y="0.127991" width="194.724" height="38.78" filterUnits="userSpaceOnUse" color-interpolation-filters="sRGB">
<feFlood flood-opacity="0" result="BackgroundImageFix"/>
<feColorMatrix in="SourceAlpha" type="matrix" values="0 0 0 0 0 0 0 0 0 0 0 0 0 0 0 0 0 0 127 0" result="hardAlpha"/>
<feOffset dy="4"/>
<feGaussianBlur stdDeviation="2"/>
<feComposite in2="hardAlpha" operator="out"/>
<feColorMatrix type="matrix" values="0 0 0 0 0 0 0 0 0 0 0 0 0 0 0 0 0 0 0.4 0"/>
<feBlend mode="normal" in2="BackgroundImageFix" result="effect1_dropShadow_7_3"/>
<feBlend mode="normal" in="SourceGraphic" in2="effect1_dropShadow_7_3" result="shape"/>
</filter>
</defs>
</svg>
