<?xml version="1.0" encoding="utf-8"?>
<!-- Generator: Adobe Illustrator 25.0.1, SVG Export Plug-In . SVG Version: 6.00 Build 0)  -->
<svg version="1.1" id="レイヤー_1" xmlns="http://www.w3.org/2000/svg" xmlns:xlink="http://www.w3.org/1999/xlink" x="0px"
	 y="0px" width="30px" height="30px" viewBox="0 0 30 30" style="enable-background:new 0 0 30 30;" xml:space="preserve">
<style type="text/css">
	.st0{fill:#F35D00;}
	.st1{fill:#FAFAFA;}
</style>
<g>
	<path class="st0" d="M28.68,6.702c-0.811-1.443-1.691-1.708-3.484-1.809c-1.79-0.121-6.292-0.172-10.193-0.172
		c-3.908,0-8.412,0.05-10.2,0.17C3.015,4.994,2.133,5.258,1.314,6.702c-0.835,1.441-1.265,3.923-1.265,8.292
		c0,0.004,0,0.006,0,0.006c0,0.004,0,0.006,0,0.006v0.004c0,4.351,0.43,6.851,1.265,8.277c0.819,1.443,1.699,1.704,3.487,1.826
		c1.79,0.105,6.294,0.166,10.202,0.166c3.9,0,8.402-0.062,10.195-0.164c1.792-0.121,2.672-0.383,3.484-1.826
		c0.843-1.426,1.269-3.926,1.269-8.277c0,0,0-0.006,0-0.009c0,0,0-0.004,0-0.006C29.951,10.625,29.525,8.143,28.68,6.702z"/>
	<polygon class="st1" points="11.262,20.607 11.262,9.393 20.607,15 	"/>
</g>
</svg>
