<svg width="697" height="101" viewBox="0 0 697 101" fill="none" xmlns="http://www.w3.org/2000/svg">
<g clip-path="url(#clip0_4_89)">
<g filter="url(#filter0_d_4_89)">
<path d="M128.076 28.58C128.076 32.54 128.616 36.572 130.38 40.136C131.028 41.432 131.352 41.9 132.036 41.9C133.152 41.9 135.816 40.856 135.816 39.524C135.816 39.308 135.744 38.696 135.708 38.48C135.636 37.94 135.564 37.04 135.564 36.788C135.564 34.844 137.148 32.072 137.148 31.568C137.148 31.028 135.708 29.804 135.276 29.804C134.88 29.804 134.664 30.2 134.448 30.56C134.268 30.848 134.088 31.136 133.836 31.136C133.368 31.136 133.368 30.164 133.368 28.184C133.368 24.908 134.376 20.732 135.564 17.96C135.888 17.168 136.068 16.88 136.896 16.484C137.04 16.412 137.148 16.34 137.148 16.196C137.148 16.016 136.932 15.8 136.212 15.476C134.664 14.792 131.208 13.532 130.884 13.532C130.416 13.532 130.38 13.856 130.272 14.54C130.164 15.116 129.984 15.8 129.804 16.484C128.688 20.732 128.076 24.152 128.076 28.58ZM139.02 19.616C139.02 20.012 139.02 21.092 139.308 21.344C139.992 21.92 144.96 22.1 146.04 22.1C148.056 22.1 150.072 21.956 152.088 21.668C153.024 21.524 153.132 21.272 153.132 20.408C153.132 19.508 153.024 18.356 152.916 17.456C152.844 16.916 152.628 16.16 151.944 16.16C151.728 16.16 151.548 16.196 151.224 16.268C149.496 16.7 147.696 16.988 145.896 16.988C144.492 16.988 142.512 16.772 141.144 16.484C140.82 16.412 140.244 16.34 140.028 16.34C139.164 16.34 139.02 16.952 139.02 19.616ZM139.668 31.64C138.84 31.64 137.04 35.276 137.04 35.96C137.04 36.788 139.596 39.668 145.392 39.668C147.012 39.668 153.024 39.128 154.284 38.516C154.752 38.3 154.788 38.048 154.788 37.58C154.788 36.86 154.752 34.808 154.608 33.836C154.572 33.512 154.356 33.044 153.888 33.044C153.636 33.044 153.276 33.116 153.024 33.188C150.468 33.908 147.804 34.34 145.14 34.34C142.8 34.34 141.612 33.728 140.1 31.928C139.992 31.82 139.848 31.64 139.668 31.64ZM172.104 32.648C171.312 32.648 168.72 35.456 168.72 36.14C168.72 36.356 168.9 36.536 169.08 36.644C171.276 38.156 173.292 39.884 174.984 41.936C175.164 42.188 175.416 42.548 175.776 42.548C176.784 42.548 179.376 39.776 179.376 38.732C179.376 37.832 172.824 32.648 172.104 32.648ZM204.396 19.328C202.812 19.328 200.832 19.22 199.572 19.22C198.78 19.22 198.6 19.544 198.6 20.804V22.64C198.6 23.972 198.708 24.656 199.752 24.656C201.048 24.656 202.704 24.548 204.396 24.548H209.184C209.796 24.548 210.3 25.052 210.3 25.664V33.476C210.3 35.852 210.228 36.284 207.24 36.464C206.592 36.5 206.052 36.608 206.052 37.04C206.052 37.58 206.628 38.948 206.88 39.488C207.744 41.504 208.032 41.612 208.68 41.612C210.336 41.612 213.792 40.712 214.836 39.344C215.556 38.372 215.7 36.644 215.7 35.06C215.7 34.304 215.664 33.62 215.664 33.044V25.664C215.664 25.052 216.168 24.548 216.78 24.548H221.28C222.936 24.548 224.592 24.62 226.248 24.62C227.22 24.62 227.4 24.224 227.4 22.748V20.696C227.4 19.796 227.328 19.22 226.392 19.22C225.24 19.22 223.044 19.328 221.28 19.328H216.672C215.736 19.328 215.664 18.428 215.664 17.96V17.6C215.664 17.06 215.7 16.52 215.7 15.98V15.548C215.7 14.72 215.988 14.432 216.204 14.216C216.384 14.072 216.492 13.964 216.492 13.748C216.492 13.46 216.024 13.352 215.808 13.316C214.764 13.208 211.74 12.812 210.84 12.812C210.408 12.812 210.12 12.884 210.12 13.316V13.82C210.3 15.296 210.264 16.16 210.3 17.6V17.96C210.3 18.536 210.228 19.328 209.292 19.328H204.396ZM203.676 26.348C203.352 26.348 203.136 26.708 202.992 26.96C201.84 29.012 199.968 30.956 198.06 32.396C197.736 32.612 197.16 32.972 197.16 33.404C197.16 34.304 200.04 36.932 200.76 36.932C201.84 36.932 206.52 31.568 207.384 30.488C207.816 29.984 207.852 29.912 208.428 29.552C208.572 29.48 208.788 29.372 208.788 29.192C208.788 28.904 208.392 28.652 207.924 28.364C207.168 27.932 204.288 26.348 203.676 26.348ZM221.208 26.24C220.668 26.24 220.272 26.636 219.768 27.176L219.444 27.5C219.048 27.896 218.04 29.012 218.04 29.588C218.04 29.948 218.292 30.128 218.544 30.344C220.776 32.288 222.144 33.62 223.944 35.96C224.16 36.248 224.484 36.716 224.88 36.716C225.672 36.716 228.48 34.016 228.48 33.116C228.48 32.432 226.716 30.668 226.176 30.128C225.276 29.228 222.396 26.24 221.208 26.24ZM248.488 13.82C247.444 13.82 245.284 17.24 245.284 17.96C245.284 18.32 245.644 18.536 245.932 18.716C248.308 20.048 249.892 21.2 251.98 22.928C252.196 23.144 252.556 23.468 252.88 23.468C253.708 23.468 256.264 20.552 256.264 19.508C256.264 19.22 256.156 19.04 255.94 18.86C254.752 17.78 252.52 16.052 249.604 14.324C249.1 14.036 248.668 13.82 248.488 13.82ZM269.116 19.148C268.72 19.148 268.432 19.544 268.108 20.012C268.036 20.12 267.964 20.192 267.892 20.3C264.868 24.44 259.324 28.94 254.896 31.568C252.016 33.26 248.884 34.664 245.68 35.528C245.392 35.6 244.996 35.78 244.996 36.104C244.996 36.5 245.788 37.832 246.04 38.264C246.544 39.2 247.12 40.136 247.732 41.036C247.876 41.288 248.092 41.612 248.38 41.612C248.524 41.612 248.632 41.504 248.668 41.396C248.956 40.892 248.92 40.82 249.64 40.46C256.84 37.004 262.636 33.764 268.432 28.112C269.188 27.392 272.104 24.62 272.104 23.756C272.104 23.36 271.744 22.604 271.492 22.064C271.384 21.92 271.348 21.776 271.276 21.668C270.952 21.092 269.836 19.148 269.116 19.148ZM292.12 19.22C290.788 19.436 289.708 19.544 288.916 19.652C286.72 19.904 286.216 19.976 286.216 20.768C286.216 21.308 286.504 23.396 286.612 24.044C286.72 24.584 286.936 25.124 287.548 25.124C287.908 25.124 291.976 24.476 292.732 24.368L295.18 24.008C295.252 24.008 295.36 24.008 295.432 24.008C295.972 24.008 296.368 24.368 296.476 24.944L296.872 27.032C296.908 27.176 296.908 27.212 296.908 27.284C296.908 27.752 296.584 28.112 296.08 28.22L290.716 28.976C289.42 29.156 288.412 29.264 287.62 29.336C285.604 29.552 285.1 29.624 285.1 30.344C285.1 30.812 285.46 33.332 285.568 33.836C285.712 34.412 285.856 34.844 286.54 34.844C286.9 34.844 290.68 34.196 291.436 34.088L297.016 33.296C297.052 33.296 297.088 33.296 297.16 33.296C297.7 33.296 298.168 33.692 298.276 34.268L298.6 35.888C298.924 37.688 299.284 39.488 299.5 41.324C299.608 42.404 299.788 42.908 300.436 42.908C301.156 42.908 303.244 42.44 304 42.26C304.468 42.152 305.08 42.044 305.08 41.468C305.08 40.856 303.964 35.78 303.748 34.736L303.496 33.44C303.46 33.332 303.46 33.224 303.46 33.152C303.46 32.792 303.784 32.36 304.288 32.252L308.896 31.604C309.436 31.532 313.576 30.992 313.9 30.956C314.548 30.848 314.8 30.524 314.8 29.876C314.8 29.48 314.692 28.652 314.62 28.22L314.512 27.5C314.404 26.456 314.296 25.664 313.468 25.664C313.288 25.664 308.896 26.384 308.176 26.492L303.352 27.176C303.316 27.176 303.244 27.176 303.208 27.176C302.668 27.176 302.236 26.816 302.128 26.276L301.696 24.08C301.696 24.044 301.696 23.936 301.696 23.9C301.696 23.432 301.984 23.036 302.452 22.928L304.648 22.604C305.8 22.424 306.7 22.316 307.456 22.244C309.796 21.956 310.336 21.884 310.336 21.02C310.336 20.516 310.048 18.968 309.976 18.392C309.796 17.528 309.76 16.736 308.932 16.736C308.752 16.736 304.576 17.42 303.892 17.492L301.624 17.852C301.588 17.852 301.516 17.852 301.48 17.852C300.868 17.852 300.436 17.42 300.328 16.808L300.256 16.52C300.148 15.944 299.788 14.252 299.788 13.784C299.788 13.388 299.932 13.136 300.076 12.92C300.184 12.74 300.256 12.56 300.256 12.38C300.256 12.128 299.932 12.128 299.608 12.128C298.132 12.128 296.656 12.236 295.216 12.344C294.568 12.38 294.028 12.488 294.028 12.884C294.028 13.028 294.712 15.836 294.784 16.268L295 17.204C295.036 17.456 295.108 17.672 295.108 17.924C295.108 18.428 294.748 18.824 294.244 18.896L292.12 19.22Z" fill="white"/>
</g>
<g filter="url(#filter1_d_4_89)">
<path d="M16.128 83.128C15.6 83.128 15.216 83.08 14.976 83.08C14.592 83.08 14.496 83.176 14.496 83.656V84.28C14.496 84.76 14.52 84.928 14.928 84.928C15.192 84.928 15.744 84.88 16.272 84.88H16.992C17.544 84.88 18.096 84.928 18.36 84.928C18.744 84.928 18.792 84.784 18.792 84.376V83.704C18.792 83.272 18.768 83.08 18.384 83.08C18.096 83.08 17.496 83.128 16.992 83.128H16.128ZM6.84 83.128C6.288 83.128 5.904 83.08 5.64 83.08C5.28 83.08 5.184 83.176 5.184 83.632V84.304C5.184 84.76 5.208 84.928 5.64 84.928C5.88 84.928 6.456 84.88 6.984 84.88H7.68C8.208 84.88 8.76 84.928 9.024 84.928C9.408 84.928 9.456 84.784 9.456 84.328V83.68C9.456 83.272 9.432 83.08 9.072 83.08C8.76 83.08 8.184 83.128 7.68 83.128H6.84ZM16.104 85.6C15.576 85.6 15.216 85.552 14.976 85.552C14.592 85.552 14.496 85.624 14.496 86.104V86.776C14.496 87.232 14.52 87.424 14.928 87.424C15.192 87.424 15.744 87.376 16.272 87.376H16.992C17.544 87.376 18.096 87.424 18.36 87.424C18.768 87.424 18.792 87.28 18.792 86.824V86.176C18.792 85.768 18.768 85.576 18.384 85.576C18.096 85.576 17.496 85.6 16.992 85.6H16.104ZM6.816 85.6C6.24 85.6 5.856 85.552 5.616 85.552C5.28 85.552 5.184 85.648 5.184 86.08V86.752C5.184 87.232 5.208 87.424 5.64 87.424C5.88 87.424 6.456 87.376 6.984 87.376H7.68C8.208 87.376 8.76 87.424 9.024 87.424C9.432 87.424 9.456 87.28 9.456 86.776V86.176C9.456 85.768 9.432 85.576 9.072 85.576C8.76 85.576 8.184 85.6 7.68 85.6H6.816ZM16.848 79.648C17.76 79.648 18.648 79.696 19.536 79.696C20.04 79.696 20.088 79.528 20.088 79.024V78.184C20.088 77.656 20.04 77.512 19.512 77.512C18.624 77.512 17.736 77.56 16.848 77.56H7.128C6.24 77.56 5.352 77.512 4.464 77.512C3.936 77.512 3.888 77.656 3.888 78.184V79.024C3.888 79.528 3.936 79.696 4.44 79.696C5.352 79.696 6.24 79.648 7.128 79.648H9.936C10.104 79.648 10.248 79.792 10.248 79.96V80.032C10.248 80.2 10.104 80.32 9.936 80.32H4.392C3.768 80.32 3.144 80.272 2.52 80.272C1.584 80.272 1.44 80.416 1.44 81.184V83.8C1.44 84.256 1.392 84.64 1.392 84.928C1.392 85.408 1.68 85.456 2.328 85.456H3.72C4.392 85.456 4.68 85.408 4.68 84.928C4.68 84.64 4.632 84.208 4.632 83.8V83.056C4.632 82.72 4.944 82.408 5.304 82.408H9.576C9.936 82.408 10.248 82.696 10.248 83.08V84.568C10.248 85.48 10.176 86.368 10.176 87.04C10.176 87.616 10.44 87.688 11.16 87.688H12.816C13.536 87.688 13.824 87.616 13.824 87.064C13.824 86.344 13.752 85.408 13.752 84.568V83.08C13.752 82.696 14.064 82.408 14.424 82.408H18.648C19.008 82.408 19.296 82.696 19.296 83.056V83.8C19.296 84.256 19.248 84.64 19.248 84.928C19.248 85.408 19.536 85.456 20.208 85.456H21.6C22.248 85.456 22.536 85.408 22.536 84.928C22.536 84.64 22.488 84.208 22.488 83.8V81.16C22.488 80.392 22.296 80.272 21.384 80.272C20.784 80.272 20.16 80.32 19.536 80.32H14.064C13.896 80.32 13.752 80.2 13.752 80.032V79.96C13.752 79.768 13.896 79.648 14.064 79.648H16.848ZM16.968 95.248C17.76 95.248 18.552 95.272 19.32 95.272H19.392C19.704 95.272 19.968 95.32 19.968 95.656C19.968 96.064 19.44 96.088 19.152 96.088H14.592C14.28 96.088 13.752 96.04 13.752 95.632C13.752 95.416 13.92 95.248 14.136 95.248H16.968ZM10.2 92.56C10.368 92.56 10.464 92.68 10.464 92.848V92.968C10.464 93.112 10.344 93.232 10.2 93.232H7.176C7.032 93.232 6.912 93.112 6.912 92.968V92.848C6.912 92.68 7.032 92.56 7.176 92.56H10.2ZM17.064 92.56C17.232 92.56 17.352 92.68 17.352 92.848V92.968C17.352 93.112 17.232 93.232 17.064 93.232H13.968C13.824 93.232 13.704 93.112 13.704 92.968V92.848C13.704 92.68 13.824 92.56 13.968 92.56H17.064ZM7.2 90.808C7.032 90.808 6.912 90.664 6.912 90.496V90.448C6.912 90.28 7.032 90.136 7.2 90.136H10.152C10.32 90.136 10.464 90.28 10.464 90.448V90.496C10.464 90.688 10.32 90.784 10.152 90.808H7.2ZM14.016 90.808C13.848 90.784 13.704 90.688 13.704 90.496V90.448C13.704 90.28 13.848 90.136 14.016 90.136H17.04C17.208 90.136 17.352 90.28 17.352 90.448V90.496C17.352 90.664 17.208 90.808 17.04 90.808H14.016ZM20.04 98.464C21 98.464 21.648 98.392 22.224 97.528C22.632 96.928 23.16 95.704 23.16 94.96C23.16 94.192 21.744 93.904 21.264 93.88C20.688 93.856 20.616 93.64 20.616 93.04V89.056C20.616 88.36 20.544 88.144 19.704 88.144H4.584C3.768 88.144 3.624 88.288 3.624 89.056C3.624 89.704 3.648 90.376 3.648 91.024V93.328C3.648 94.048 3.6 94.768 3.6 95.464C3.6 96.088 3.936 96.136 4.512 96.136H5.712C6.672 96.136 6.864 96.088 6.864 95.536C6.864 95.272 7.032 95.248 7.464 95.248H9.744C10.104 95.248 10.44 95.488 10.44 96.064V96.184C10.44 98.296 11.592 98.464 13.392 98.464H20.04ZM44.4 88.048C44.808 88.048 45.072 88.36 45.072 88.768V88.96C45.072 91.312 45.144 94.192 45.888 96.424C46.344 97.84 47.208 98.728 48.768 98.728C51.192 98.728 51.744 96.064 52.008 94.168C52.056 93.832 52.104 93.376 52.104 93.088C52.104 92.296 50.952 91.936 50.28 91.936C49.8 91.936 49.656 92.08 49.632 92.512C49.632 92.872 49.512 94.96 49.08 94.96C48.864 94.96 48.84 94.576 48.816 94.408C48.672 93.28 48.624 92.152 48.624 91.024C48.624 89.536 48.696 87.352 48.696 86.512C48.696 85.6 48.504 85.288 47.544 85.288C46.848 85.288 46.152 85.336 45.432 85.336H35.28C34.272 85.336 33.264 85.264 32.232 85.264C31.68 85.264 31.632 85.504 31.632 86.2V87.448C31.632 88 31.896 88.096 32.208 88.096C33.24 88.096 34.272 88.048 35.28 88.048H38.112C38.376 88.048 38.712 88.072 38.712 88.432C38.712 88.72 38.232 89.536 38.064 89.824C37.872 90.16 37.632 90.616 37.272 90.616C37.032 90.616 36.84 90.496 36.648 90.376C36.144 90.112 34.272 89.2 33.792 89.2C33.336 89.2 31.968 90.88 31.968 91.336C31.968 91.624 32.28 91.744 32.52 91.816C32.904 91.96 34.992 92.704 34.992 93.112C34.992 93.616 31.704 95.344 31.152 95.584C30.936 95.68 30.576 95.8 30.576 96.064C30.576 96.52 31.92 98.608 32.544 98.608C33.24 98.608 37.152 95.896 37.728 95.296C37.92 95.08 38.088 95.056 38.16 95.056C38.352 95.056 38.496 95.128 38.736 95.32C39.216 95.704 40.056 96.448 40.896 97.144C41.112 97.336 41.352 97.576 41.64 97.576C42.648 97.576 43.464 95.536 43.464 95.104C43.464 94.84 43.272 94.696 43.104 94.552C42.72 94.24 41.712 93.52 41.28 93.232C41.016 93.064 40.512 92.728 40.512 92.368C40.512 92.152 40.656 91.96 40.776 91.792C41.064 91.384 41.352 90.88 41.592 90.448C41.76 90.112 41.832 90.112 42.168 90.088C42.336 90.088 42.552 90.016 42.552 89.824C42.552 89.536 41.832 89.2 41.592 89.08C41.4 88.984 40.08 88.312 40.08 88.192C40.08 88.048 40.392 88.048 40.464 88.048H44.4ZM38.136 78.904C38.016 78.904 37.872 78.856 37.872 78.688C37.872 78.4 38.28 78.232 38.496 78.16C38.664 78.112 39 78.016 39 77.8C39 77.536 38.496 77.44 38.256 77.368C37.752 77.248 35.64 76.672 35.28 76.672C35.04 76.672 34.992 76.888 34.896 77.128C34.152 79.12 32.328 81.472 30.672 82.816C30.432 83.032 30.072 83.248 30.072 83.488C30.072 84.136 31.968 85.192 32.352 85.192C32.808 85.192 34.224 83.704 34.56 83.32C34.656 83.2 34.776 83.032 34.92 83.032C35.136 83.032 35.136 83.32 35.136 83.464V83.68C35.136 84.28 35.136 84.568 35.688 84.568C36.408 84.568 37.104 84.544 37.824 84.544H45.48C46.2 84.544 46.896 84.568 47.616 84.568C48.072 84.568 48.168 84.376 48.168 83.872V82.84C48.168 82.336 48.072 82.144 47.592 82.144C46.896 82.144 46.2 82.192 45.48 82.192H37.824C37.248 82.192 36.696 82.144 36.144 82.144C35.784 82.144 35.712 82.12 35.712 81.976C35.712 81.808 36.024 81.472 36.744 81.472H47.424C48.336 81.472 49.248 81.52 50.16 81.52C50.688 81.52 50.736 81.328 50.736 80.68V79.696C50.736 79.048 50.688 78.856 50.136 78.856C49.224 78.856 48.336 78.904 47.424 78.904H38.136ZM60.984 88.72C60.984 91.36 61.344 94.048 62.52 96.424C62.952 97.288 63.168 97.6 63.624 97.6C64.368 97.6 66.144 96.904 66.144 96.016C66.144 95.872 66.096 95.464 66.072 95.32C66.024 94.96 65.976 94.36 65.976 94.192C65.976 92.896 67.032 91.048 67.032 90.712C67.032 90.352 66.072 89.536 65.784 89.536C65.52 89.536 65.376 89.8 65.232 90.04C65.112 90.232 64.992 90.424 64.824 90.424C64.512 90.424 64.512 89.776 64.512 88.456C64.512 86.272 65.184 83.488 65.976 81.64C66.192 81.112 66.312 80.92 66.864 80.656C66.96 80.608 67.032 80.56 67.032 80.464C67.032 80.344 66.888 80.2 66.408 79.984C65.376 79.528 63.072 78.688 62.856 78.688C62.544 78.688 62.52 78.904 62.448 79.36C62.376 79.744 62.256 80.2 62.136 80.656C61.392 83.488 60.984 85.768 60.984 88.72ZM68.28 82.744C68.28 83.008 68.28 83.728 68.472 83.896C68.928 84.28 72.24 84.4 72.96 84.4C74.304 84.4 75.648 84.304 76.992 84.112C77.616 84.016 77.688 83.848 77.688 83.272C77.688 82.672 77.616 81.904 77.544 81.304C77.496 80.944 77.352 80.44 76.896 80.44C76.752 80.44 76.632 80.464 76.416 80.512C75.264 80.8 74.064 80.992 72.864 80.992C71.928 80.992 70.608 80.848 69.696 80.656C69.48 80.608 69.096 80.56 68.952 80.56C68.376 80.56 68.28 80.968 68.28 82.744ZM68.712 90.76C68.16 90.76 66.96 93.184 66.96 93.64C66.96 94.192 68.664 96.112 72.528 96.112C73.608 96.112 77.616 95.752 78.456 95.344C78.768 95.2 78.792 95.032 78.792 94.72C78.792 94.24 78.768 92.872 78.672 92.224C78.648 92.008 78.504 91.696 78.192 91.696C78.024 91.696 77.784 91.744 77.616 91.792C75.912 92.272 74.136 92.56 72.36 92.56C70.8 92.56 70.008 92.152 69 90.952C68.928 90.88 68.832 90.76 68.712 90.76ZM95.28 90.952C94.512 90.952 93.72 90.904 92.928 90.904C92.448 90.904 92.4 91.12 92.4 91.648V92.536C92.4 93.088 92.448 93.304 92.928 93.304C93.672 93.304 94.416 93.256 95.16 93.256C95.28 93.256 95.52 93.28 95.52 93.448C95.52 93.808 93.408 95.008 92.4 95.344C92.112 95.44 91.752 95.56 91.752 95.824C91.752 96.376 92.712 97.816 93.696 97.816C94.536 97.816 96.96 96.088 97.584 95.464C97.776 95.272 98.016 95.032 98.28 95.032C98.568 95.032 98.76 95.248 98.928 95.464C99.384 95.992 99.984 96.568 100.536 97C100.824 97.24 101.832 97.984 102.168 97.984C102.408 97.984 102.672 97.792 102.888 97.648C103.056 97.528 103.2 97.432 103.296 97.432C103.464 97.432 103.512 97.552 103.56 97.744C103.8 98.536 104.28 98.656 104.928 98.656C105.864 98.656 107.232 98.536 107.952 97.888C108.648 97.288 108.696 96.448 108.696 95.584C108.696 94.912 108.648 94.264 108.648 93.592V81.4C108.648 80.536 108.696 79.696 108.696 78.832C108.696 77.728 108.192 77.512 107.376 77.512C106.608 77.512 105.84 77.56 105.072 77.56H102.648C101.88 77.56 101.088 77.488 100.32 77.488C99.384 77.488 99.024 77.872 99.024 78.832C99.024 79.648 99.072 80.464 99.072 81.304V81.544C99.072 82.36 99.024 83.176 99.024 84.016C99.024 84.472 99.168 85.192 99.744 85.288C99.912 85.312 100.104 85.336 100.104 85.576C100.104 85.864 99.432 86.944 99.24 87.232C99.024 87.568 98.88 87.76 98.448 87.76H98.232C97.848 87.76 97.776 87.568 97.656 87.304C97.512 86.992 97.176 86.32 97.032 86.08C96.936 85.912 96.84 85.768 96.84 85.648C96.84 85.48 96.96 85.336 97.104 85.288C97.704 85.072 97.824 84.592 97.824 84.016C97.824 83.176 97.776 82.36 97.776 81.544V81.304C97.776 80.464 97.824 79.648 97.824 78.832C97.824 77.68 97.248 77.512 96.504 77.512C95.736 77.512 94.968 77.56 94.2 77.56H91.752C90.984 77.56 90.216 77.488 89.424 77.488C88.488 77.488 88.128 77.896 88.128 78.832C88.128 79.696 88.176 80.536 88.176 81.4V94.24C88.176 95.488 88.128 96.712 88.128 97.936C88.128 98.584 88.368 98.632 89.136 98.632H90.504C91.344 98.632 91.608 98.584 91.608 97.936C91.608 96.712 91.536 95.488 91.536 94.24V85.96C91.536 85.576 91.848 85.288 92.208 85.288H94.344C94.752 85.288 94.848 85.312 94.848 85.408C94.848 85.48 94.656 85.552 94.584 85.576C94.344 85.672 93.696 85.912 93.696 86.224C93.696 86.344 93.792 86.464 93.888 86.584C94.032 86.752 94.584 87.424 94.584 87.568C94.584 87.664 94.488 87.736 94.296 87.736H93.48C93 87.736 92.952 87.976 92.952 88.456V89.296C92.952 89.824 93 90.064 93.48 90.064C94.2 90.064 94.92 90.016 95.616 90.016H96.408C96.624 90.016 96.792 90.208 96.792 90.424V90.568C96.792 90.784 96.624 90.952 96.408 90.952H95.28ZM103.128 86.752C103.272 86.584 103.296 86.56 103.536 86.536C103.728 86.512 103.896 86.512 103.896 86.224C103.896 86.008 103.656 85.936 102.984 85.72C102.648 85.624 102.504 85.552 102.504 85.456C102.504 85.312 102.744 85.288 102.84 85.288H104.616C105 85.288 105.288 85.576 105.288 85.96V94.768C105.288 95.248 105.24 95.608 104.76 95.608C103.944 95.608 103.488 95.344 102.816 94.912C102.552 94.744 101.112 93.736 101.112 93.472C101.112 93.28 101.352 93.256 101.712 93.256C102.456 93.256 103.176 93.304 103.92 93.304C104.376 93.304 104.424 93.04 104.424 92.512V91.768C104.424 91.144 104.4 90.904 103.872 90.904C103.08 90.904 102.312 90.952 101.52 90.952H100.296C100.104 90.952 99.912 90.808 99.912 90.592V90.4C99.912 90.232 100.104 90.016 100.32 90.016H101.16C101.88 90.016 102.576 90.064 103.296 90.064C103.776 90.064 103.824 89.848 103.824 89.296V88.528C103.824 87.976 103.776 87.736 103.296 87.736H103.056C102.888 87.736 102.648 87.688 102.648 87.472C102.648 87.28 102.768 87.16 103.128 86.752ZM94.488 80.224C94.488 80.416 94.368 80.536 94.176 80.536H91.848C91.68 80.536 91.536 80.416 91.536 80.224V80.152C91.536 79.984 91.68 79.84 91.848 79.84H94.176C94.344 79.84 94.488 79.984 94.488 80.152V80.224ZM94.488 82.672C94.488 82.84 94.344 82.96 94.176 82.96H91.848C91.68 82.96 91.536 82.84 91.536 82.672V82.528C91.536 82.36 91.68 82.24 91.848 82.24H94.176C94.368 82.24 94.488 82.36 94.488 82.528V82.672ZM105.288 80.224C105.288 80.416 105.168 80.536 104.976 80.536H102.648C102.48 80.536 102.36 80.416 102.36 80.224V80.152C102.36 79.984 102.48 79.84 102.648 79.84H104.976C105.168 79.84 105.288 79.984 105.288 80.152V80.224ZM105.288 82.672C105.288 82.84 105.168 82.96 104.976 82.96H102.648C102.48 82.96 102.36 82.84 102.36 82.672V82.528C102.36 82.36 102.48 82.24 102.648 82.24H104.976C105.168 82.24 105.288 82.36 105.288 82.528V82.672ZM122.736 77.584C122.448 77.584 122.28 77.68 122.28 77.992V78.568C122.28 79.504 122.28 80.44 122.256 81.376C122.256 81.808 122.16 82.024 122.016 82.144C121.608 82.504 119.592 82.552 118.992 82.552H118.656C118.296 82.552 117.936 82.6 117.936 83.104C117.936 83.488 118.32 85.216 118.44 85.672C118.536 86.008 118.68 86.44 119.088 86.44C119.568 86.44 120.912 86.08 121.392 85.936C121.536 85.888 121.68 85.84 121.8 85.84C122.064 85.84 122.136 86.08 122.136 86.32C122.136 86.44 122.04 86.656 121.944 86.824C120.888 88.672 119.496 90.448 117.984 91.96L117.84 92.104C117.6 92.32 117.336 92.56 117.336 92.824C117.336 93.352 119.28 95.44 119.832 95.44C120.048 95.44 120.168 95.224 120.264 95.056C120.456 94.744 121.32 93.328 121.656 93.328C121.944 93.328 121.968 93.592 121.968 93.784C121.968 94.552 121.92 96.328 121.824 97.048C121.8 97.144 121.8 97.312 121.8 97.432C121.8 97.912 122.136 97.912 123.144 97.912C123.888 97.912 124.56 97.888 125.28 97.816C125.64 97.768 125.712 97.696 125.712 97.504C125.712 97.408 125.52 94.6 125.496 94.168C125.448 92.92 125.424 91.648 125.424 90.376V90.16C125.424 89.872 125.448 89.656 125.592 89.368C126.312 88.048 129.048 86.104 131.016 86.104C132.648 86.104 133.56 87.568 133.56 89.056C133.56 90.616 132.576 91.696 131.304 92.464C130.416 92.992 129.216 93.304 128.208 93.544C127.776 93.64 127.368 93.712 127.368 94.264C127.368 94.864 128.064 97.024 129.096 97.024C130.032 97.024 131.76 96.28 132.624 95.824C135.384 94.36 137.304 92.152 137.304 88.912C137.304 85.456 134.808 82.6 131.256 82.6C129.432 82.6 127.824 83.368 126.456 84.544C126.432 84.568 126.36 84.616 126.288 84.688C126.024 84.928 125.664 85.216 125.616 85.216C125.544 85.216 125.496 85.144 125.496 85.072C125.496 84.952 125.688 84.664 126.144 84.136C126.504 83.728 126.864 83.344 126.864 83.152C126.864 82.816 126.264 82.216 126.048 82C125.808 81.784 125.664 81.664 125.664 81.328C125.664 81.232 125.688 81.136 125.688 81.04C125.76 80.536 125.808 80.08 125.832 79.84C125.928 78.88 125.928 78.808 126.312 78.496C126.408 78.424 126.456 78.352 126.456 78.208C126.456 78.016 126.312 77.944 126.072 77.896C125.64 77.8 123.168 77.584 122.736 77.584ZM158.28 78.304C158.112 78.304 157.848 78.424 157.248 78.688C155.88 79.264 152.448 79.528 150.888 79.552H150.336C149.64 79.552 149.568 79.552 149.568 79.912V80.152C149.568 80.608 149.712 83.32 150.264 83.32C150.36 83.32 150.456 83.32 150.552 83.296C151.176 83.2 153.792 82.72 153.864 82.72C153.96 82.72 154.344 82.768 154.344 83.056C154.344 83.296 154.176 83.44 154.008 83.608C153.6 84.064 153.24 84.496 152.784 84.952C151.944 85.768 147.96 89.728 147.36 90.208C146.856 90.592 146.616 90.808 146.616 91.096C146.616 91.552 148.488 93.52 149.04 93.52C149.136 93.52 149.328 93.352 149.664 92.92C150.384 92.032 151.752 90.664 152.616 89.896C153.936 88.72 155.496 88.048 157.248 88.048C159.096 88.048 160.752 88.96 160.752 91C160.752 92.584 159.6 93.784 159.024 93.784C158.76 93.784 158.544 93.568 158.448 93.328C158.232 92.824 158.16 92.584 157.8 92.128C157.008 91.168 155.808 90.592 154.56 90.592C152.712 90.592 150.96 92.008 150.96 93.928C150.96 96.688 154.008 97.6 156.264 97.6C160.44 97.6 164.4 95.32 164.4 90.736C164.4 88.024 162.792 85.936 160.2 85.144C159.72 85 158.88 84.856 158.52 84.856C158.424 84.856 158.328 84.88 158.256 84.88C157.968 84.88 157.704 84.664 157.704 84.376C157.704 84.208 157.8 84.064 157.92 83.944C158.784 83.128 159.864 82.144 160.872 81.52C160.992 81.448 161.136 81.328 161.136 81.184C161.136 80.656 159.312 78.304 158.28 78.304ZM155.784 94.336C155.784 94.648 155.496 94.864 155.184 94.864C154.632 94.864 153.816 94.552 153.816 93.904C153.816 93.472 154.2 93.256 154.584 93.256C155.424 93.256 155.784 94 155.784 94.336ZM182.904 77.704C182.712 77.704 182.52 77.8 182.472 78.016C182.448 78.088 182.16 80.224 182.136 80.464C182.04 81.376 181.8 81.4 179.4 81.4C178.728 81.4 178.152 81.328 177.648 81.328C177.216 81.328 177.096 81.424 177.096 83.392C177.096 84.592 177.168 84.592 178.488 84.592C179.232 84.592 179.952 84.544 180.672 84.472C180.864 84.448 181.104 84.424 181.296 84.424C181.56 84.424 181.728 84.544 181.728 84.808C181.728 85.072 181.56 85.288 181.344 85.384C180.456 85.816 179.664 86.272 178.896 86.896C177.096 88.336 175.44 90.688 175.44 93.088C175.44 94.888 176.76 96.424 178.608 96.424C179.616 96.424 180.864 96.04 181.776 95.608C181.824 95.584 181.872 95.56 181.944 95.56C182.064 95.56 182.112 95.608 182.208 95.68C182.328 95.776 182.424 95.848 182.592 95.848C183.432 95.848 185.28 94.456 185.28 93.904C185.28 93.664 185.184 93.4 185.184 93.256C185.184 93.064 185.256 92.968 185.376 92.848C186.6 91.576 187.752 90.016 188.664 88.504C188.808 88.24 188.928 88.096 189.168 88.096C189.6 88.096 190.464 89.224 190.464 90.736C190.464 92.56 189.192 93.736 187.608 94.432C187.008 94.696 185.64 95.2 185.016 95.368C184.776 95.44 184.536 95.488 184.536 95.776C184.536 96.328 185.328 98.56 186 98.56C186.384 98.56 188.088 98.032 189.48 97.264C192.048 95.848 194.04 93.736 194.04 90.64C194.04 86.32 190.56 84.28 186.624 84.28C186.144 84.28 185.568 84.304 185.376 84.304C185.232 84.304 184.992 84.304 184.992 84.088C184.992 83.896 185.352 83.8 185.544 83.776C186.744 83.584 187.968 83.392 189.12 83.128C189.648 83.008 190.056 82.888 190.056 82.432C190.056 82.024 189.696 80.704 189.576 80.296C189.48 80.008 189.312 79.72 189.024 79.72C188.928 79.72 188.808 79.768 188.712 79.816C187.776 80.224 186.168 80.656 185.928 80.656C185.736 80.656 185.592 80.512 185.592 80.32C185.592 80.2 185.736 79.816 185.784 79.696C185.904 79.384 185.976 79.312 186.264 79.12C186.36 79.072 186.528 78.976 186.528 78.856C186.528 78.688 186.288 78.592 186 78.52C185.544 78.4 183.144 77.704 182.904 77.704ZM181.152 89.464C181.416 89.464 181.464 89.704 181.464 89.92C181.464 90.136 181.44 90.352 181.44 90.592C181.44 90.88 181.464 91.192 181.464 91.48C181.464 91.744 181.464 91.984 181.224 92.176C180.84 92.488 179.856 92.896 179.352 92.896C179.088 92.896 178.896 92.776 178.896 92.488C178.896 91.696 180.648 89.464 181.152 89.464ZM185.496 87.28C185.664 87.28 185.856 87.352 185.856 87.544C185.856 87.76 185.232 88.648 184.968 88.648C184.728 88.648 184.656 88.24 184.656 88.072C184.656 87.832 184.656 87.28 185.496 87.28ZM209.616 79.768C209.616 80.032 209.856 80.152 210.216 80.368C211.464 81.088 212.688 81.904 213.792 82.84C213.96 82.984 214.176 83.176 214.416 83.176C215.112 83.176 216.528 81.088 216.528 80.56C216.528 80.296 216.168 80.056 215.664 79.696C214.992 79.216 213.384 78.208 212.304 77.656C211.968 77.488 211.632 77.344 211.464 77.344C210.672 77.344 209.616 79.408 209.616 79.768ZM208.296 81.736C207.768 81.736 207.768 82.144 207.768 83.032C207.768 84.856 207.36 88.744 206.448 91.888C206.4 92.032 206.352 92.224 206.352 92.392C206.352 93.232 208.464 93.568 208.848 93.568C209.232 93.568 209.424 93.328 209.64 93.04C210.984 91.312 213.48 89.128 215.784 89.128C216.936 89.128 218.136 89.752 218.136 91.072C218.136 93.616 213.6 94.096 211.728 94.12C211.416 94.12 211.08 94.192 211.08 94.648C211.08 95.32 211.488 96.664 211.848 97.312C212.064 97.696 212.328 97.792 212.76 97.792C213.624 97.792 215.352 97.384 216.216 97.12C217.704 96.664 219.36 95.896 220.44 94.744C221.424 93.688 221.736 92.44 221.736 91.024C221.736 89.632 221.4 88.504 220.464 87.472C219.36 86.248 217.848 85.672 216.216 85.672C215.112 85.672 213.624 85.96 212.64 86.512C212.4 86.656 211.416 87.232 211.2 87.232C210.984 87.232 210.864 87.016 210.864 86.8C210.864 86.608 210.912 86.416 210.936 86.248C211.08 85.552 211.176 84.856 211.344 84.184C211.488 83.608 211.512 83.488 211.824 83.344C211.944 83.296 212.112 83.2 212.112 83.056C212.112 82.792 211.608 82.648 211.032 82.456C210.552 82.288 208.704 81.736 208.296 81.736ZM233.448 88.504C233.448 90.328 233.664 93.136 234.264 94.816C234.384 95.176 234.504 95.464 234.936 95.464C235.44 95.464 236.4 95.176 236.88 95.008C237.312 94.864 237.648 94.72 237.648 94.36C237.648 94.24 237.624 94.12 237.6 94C237.456 93.448 237.384 92.92 237.384 92.368C237.384 89.92 238.608 87.568 240.432 85.984C240.792 85.672 242.016 84.784 242.472 84.784C242.928 84.784 242.928 85.336 242.928 86.608C242.928 87.352 242.856 90.016 242.64 90.592C242.592 90.736 242.472 90.88 242.328 90.88C241.824 90.88 241.392 89.32 241.32 88.936C241.224 88.336 241.2 88.048 240.624 88.048C240.072 88.048 239.28 88.288 238.8 88.576C238.464 88.768 238.344 89.032 238.344 89.416C238.344 91.144 239.448 93.04 240.768 94.096C240.984 94.264 241.104 94.456 241.104 94.744C241.104 95.128 240.384 95.992 240.096 96.28C239.976 96.4 239.832 96.544 239.832 96.736C239.832 97.12 240.264 97.456 240.552 97.696C240.888 97.984 241.92 98.8 242.304 98.8C242.64 98.8 242.928 98.56 243.144 98.32C243.672 97.72 244.344 96.616 244.704 95.872C244.92 95.416 245.088 95.32 245.592 95.272C249.504 94.936 251.952 91.792 251.952 87.976C251.952 85.048 250.536 82.72 247.8 81.616C247.368 81.448 246.984 81.352 246.576 81.256C246.264 81.184 246.048 81.136 245.928 80.848C245.832 80.632 245.736 79.816 245.736 79.552C245.736 79.336 245.808 79.144 245.904 78.976C246 78.808 246.096 78.664 246.096 78.496C246.096 78.208 245.784 78.184 245.592 78.184C244.752 78.184 243.624 78.064 242.664 78.064C242.304 78.064 241.8 78.088 241.8 78.568C241.8 78.784 241.896 79.096 241.968 79.336C242.064 79.696 242.304 80.584 242.304 80.824C242.304 81.28 241.992 81.448 241.632 81.592C239.952 82.264 238.56 83.32 237.456 84.76C237.36 84.88 237.24 85 237.12 85C236.976 85 236.904 84.856 236.904 84.736C236.904 84.616 237.336 82.744 237.984 82.312C238.128 82.216 238.176 82.192 238.176 82.072C238.176 81.904 237.984 81.784 237.528 81.616C237.096 81.448 234.864 80.608 234.576 80.608C234.288 80.608 234.24 80.992 234.216 81.184C233.736 84.04 233.448 85.552 233.448 88.504ZM246.696 84.712C247.104 84.712 248.592 85.528 248.592 87.928C248.592 90.592 246.792 91.792 246.312 91.792C246.12 91.792 246 91.6 246 91.456C246 91.384 246.024 91.264 246.048 91.216C246.24 89.968 246.336 88.312 246.336 87.064C246.336 86.44 246.288 85.816 246.288 85.264C246.288 84.976 246.36 84.712 246.696 84.712ZM273.48 78.304C273.312 78.304 273.048 78.424 272.448 78.688C271.08 79.264 267.648 79.528 266.088 79.552H265.536C264.84 79.552 264.768 79.552 264.768 79.912V80.152C264.768 80.608 264.912 83.32 265.464 83.32C265.56 83.32 265.656 83.32 265.752 83.296C266.376 83.2 268.992 82.72 269.064 82.72C269.16 82.72 269.544 82.768 269.544 83.056C269.544 83.296 269.376 83.44 269.208 83.608C268.8 84.064 268.44 84.496 267.984 84.952C267.144 85.768 263.16 89.728 262.56 90.208C262.056 90.592 261.816 90.808 261.816 91.096C261.816 91.552 263.688 93.52 264.24 93.52C264.336 93.52 264.528 93.352 264.864 92.92C265.584 92.032 266.952 90.664 267.816 89.896C269.136 88.72 270.696 88.048 272.448 88.048C274.296 88.048 275.952 88.96 275.952 91C275.952 92.584 274.8 93.784 274.224 93.784C273.96 93.784 273.744 93.568 273.648 93.328C273.432 92.824 273.36 92.584 273 92.128C272.208 91.168 271.008 90.592 269.76 90.592C267.912 90.592 266.16 92.008 266.16 93.928C266.16 96.688 269.208 97.6 271.464 97.6C275.64 97.6 279.6 95.32 279.6 90.736C279.6 88.024 277.992 85.936 275.4 85.144C274.92 85 274.08 84.856 273.72 84.856C273.624 84.856 273.528 84.88 273.456 84.88C273.168 84.88 272.904 84.664 272.904 84.376C272.904 84.208 273 84.064 273.12 83.944C273.984 83.128 275.064 82.144 276.072 81.52C276.192 81.448 276.336 81.328 276.336 81.184C276.336 80.656 274.512 78.304 273.48 78.304ZM270.984 94.336C270.984 94.648 270.696 94.864 270.384 94.864C269.832 94.864 269.016 94.552 269.016 93.904C269.016 93.472 269.4 93.256 269.784 93.256C270.624 93.256 270.984 94 270.984 94.336ZM294.24 83.2C294.24 83.416 294.312 83.584 294.48 83.704C295.296 84.256 299.4 84.376 300.528 84.376C301.968 84.376 303.432 84.304 304.872 84.04C305.448 83.944 305.616 83.896 305.616 83.344C305.616 82.936 305.568 82.072 305.544 81.664C305.496 80.824 305.376 80.224 304.824 80.224C304.704 80.224 304.56 80.248 304.44 80.272C303.024 80.584 301.584 80.776 300.144 80.776C298.8 80.776 297.456 80.608 296.184 80.32C295.92 80.248 295.56 80.152 295.296 80.152C294.792 80.152 294.672 80.512 294.624 80.8C294.528 81.328 294.24 82.96 294.24 83.2ZM291.768 90.832C291.768 91.552 292.416 92.872 292.848 93.472C294.456 95.704 297.24 96.016 299.808 96.016C301.656 96.016 305.256 95.776 307.032 95.344C307.608 95.2 307.872 95.056 307.872 94.624C307.872 94.312 307.8 93.088 307.776 92.68C307.728 91.888 307.632 91.384 307.176 91.384C307.008 91.384 306.792 91.432 306.624 91.48C304.56 92.104 301.872 92.32 299.712 92.32C298.464 92.32 296.952 92.272 296.04 91.336C295.656 90.952 295.488 90.28 295.416 89.776C295.368 89.416 295.296 89.176 294.984 89.176C294.696 89.176 293.064 89.872 292.704 90.04C292.104 90.304 291.768 90.496 291.768 90.832ZM323.376 78.928C323.376 79 323.424 79.144 323.448 79.216C323.856 80.392 324.192 81.712 324.456 82.888C324.624 83.584 324.792 84.256 324.984 84.904C325.056 85.12 325.128 85.312 325.128 85.48C325.128 85.888 324.912 86.008 324.552 86.224C322.656 87.448 320.952 89.44 320.952 91.816C320.952 93.544 321.864 95.056 323.352 95.92C325.032 96.88 326.688 97 328.584 97C329.904 97 334.056 96.88 335.16 96.592C335.784 96.424 335.808 96.208 335.808 95.488C335.808 94.792 335.784 94 335.712 93.304C335.688 93.112 335.616 92.704 335.376 92.704C335.304 92.704 335.208 92.728 335.136 92.728C334.752 92.848 333.096 93.112 332.592 93.184C331.44 93.328 330.168 93.376 328.944 93.376C327.84 93.376 324.792 93.376 324.792 91.768C324.792 90.52 326.448 89.44 327.6 88.72C329.928 87.256 332.976 85.672 335.16 84.928C335.28 84.88 335.4 84.856 335.496 84.808C336 84.64 336.264 84.544 336.264 84.28C336.264 83.824 335.544 82.648 335.28 82.216C334.944 81.664 334.44 80.92 334.176 80.92C333.864 80.92 332.64 81.664 332.28 81.88C331.752 82.192 329.616 83.464 329.16 83.464C328.8 83.464 328.68 83.128 328.608 82.84C328.44 82.192 328.344 81.472 328.2 79.936C328.032 78.136 327.984 78.088 327.336 78.088C326.88 78.088 326.328 78.16 325.392 78.28C323.664 78.496 323.376 78.64 323.376 78.928ZM361.6 85.936C360.376 85.936 359.176 85.864 357.976 85.864C357.28 85.864 357.208 86.224 357.208 87.136V88.768C357.208 89.728 357.28 90.064 357.976 90.064C359.2 90.064 360.4 89.968 361.6 89.968H373.84C375.04 89.968 376.264 90.064 377.464 90.064C378.16 90.064 378.232 89.752 378.232 88.768V87.136C378.232 86.224 378.16 85.864 377.464 85.864C376.264 85.864 375.04 85.936 373.84 85.936H361.6ZM393.832 87.88C394.456 87.88 394.504 88.456 394.504 89.128V90.04C394.504 91.072 394.48 91.216 393.592 91.216C393.184 91.216 392.848 91.168 392.728 91.168C392.176 91.168 392.176 91.6 392.176 92.128C392.176 92.752 392.344 93.832 392.704 94.336C392.92 94.624 393.232 94.624 393.544 94.648C393.664 94.648 393.808 94.672 393.808 94.816C393.808 94.96 393.592 94.984 393.448 95.008C391.792 95.272 390.616 95.416 388.936 95.416C388.336 95.416 387.76 95.392 387.184 95.392C386.896 95.392 386.728 95.392 386.728 95.824C386.728 96.352 386.8 96.904 386.944 97.504C387.184 98.44 387.4 98.728 388 98.728C388.408 98.728 388.864 98.704 389.296 98.68C391.888 98.512 394.096 98.32 396.568 97.408C398.584 96.664 400.888 95.392 402.52 93.976C402.616 93.88 402.832 93.688 402.976 93.688C403 93.688 403.096 93.712 403.144 93.712C403.24 93.736 403.36 93.76 403.456 93.76C403.648 93.76 403.816 93.688 403.816 93.496C403.816 93.208 403.384 92.992 402.736 92.488C402.688 92.44 402.592 92.368 402.496 92.296C401.968 91.888 400.984 91.144 400.672 91.144C400.504 91.144 400.432 91.24 400.336 91.36C400.096 91.624 398.752 92.968 398.44 92.968C398.296 92.968 398.248 92.872 398.248 92.728V92.656C398.272 92.392 398.296 92.248 398.296 91.984C398.296 91.408 398.224 90.832 398.224 90.256V89.44C398.224 88.816 398.248 88.744 398.608 88.504C398.776 88.384 398.968 88.288 398.968 88.144V88.096C398.944 88.048 398.944 88.048 398.944 88.024C398.944 87.904 399.088 87.88 399.184 87.88H400.624C400.816 87.88 400.96 87.88 400.96 88.12C400.96 88.216 400.84 88.312 400.792 88.36C400.6 88.504 399.928 89.08 399.928 89.296C399.928 89.488 400.24 89.704 400.36 89.8C401.8 90.856 403.12 92.032 404.32 93.352C404.464 93.544 404.848 93.976 405.088 93.976C405.64 93.976 407.272 92.464 407.272 91.864C407.272 91.624 406.84 91.24 406.576 90.976C406.528 90.904 406.48 90.88 406.432 90.832C405.808 90.232 404.824 89.272 404.152 88.768C404.104 88.72 404.032 88.672 403.96 88.624C403.696 88.432 403.432 88.24 403.432 88.096C403.432 87.88 403.72 87.88 403.864 87.88C404.752 87.88 405.664 87.928 406.552 87.928C407.104 87.928 407.152 87.64 407.152 86.968V85.624C407.152 84.952 407.104 84.664 406.552 84.664C405.496 84.664 404.44 84.736 403.384 84.736H398.944C398.584 84.736 398.272 84.424 398.272 84.064V83.128C398.272 82.744 398.584 82.456 398.944 82.456H401.512C402.808 82.456 403.6 82.528 404.104 82.528C404.896 82.528 404.92 82.36 404.92 81.496V80.104C404.92 79.432 404.872 79.216 404.32 79.216C403.384 79.216 402.448 79.288 401.512 79.288H399.112C398.656 79.288 398.296 79.072 398.296 78.568C398.296 78.304 398.344 78.064 398.536 77.896C398.704 77.728 398.8 77.68 398.8 77.512C398.8 77.224 398.464 77.2 398.248 77.176C397.384 77.08 396.496 77.008 395.608 76.936C395.44 76.912 395.152 76.888 394.96 76.888C394.72 76.888 394.48 76.936 394.48 77.248C394.48 77.32 394.48 77.344 394.504 77.488C394.576 77.992 394.576 78.688 394.576 79.336V84.064C394.576 84.424 394.264 84.736 393.904 84.736H392.512C392.152 84.736 391.84 84.424 391.84 84.064V80.512C391.84 79.888 391.864 79.336 392.08 79.144C392.248 79 392.344 78.928 392.344 78.784C392.344 78.472 392.056 78.448 391.624 78.4C391.216 78.352 389.176 78.16 388.84 78.16C388.576 78.16 388.384 78.208 388.384 78.52C388.384 78.832 388.48 79.552 388.48 81.208V83.92C388.48 84.448 388.168 84.712 387.784 84.712C387.352 84.712 386.92 84.664 386.488 84.664C385.936 84.664 385.888 84.952 385.888 85.624V86.968C385.888 87.664 385.936 87.928 386.488 87.928C387.448 87.928 388.408 87.88 389.368 87.88C389.56 87.88 389.776 87.928 389.776 88.168C389.776 88.336 389.32 88.912 389.104 89.2C389.056 89.248 389.032 89.296 389.008 89.32C388.168 90.28 387.232 91.096 386.176 91.816C386.008 91.936 385.768 92.056 385.768 92.296C385.768 92.632 387.4 94.312 388.024 94.312C388.384 94.312 388.816 93.952 389.08 93.736C390.376 92.752 391.6 91.432 392.584 90.112C392.8 89.824 392.896 89.68 393.28 89.632C393.496 89.584 393.736 89.512 393.736 89.248C393.736 88.984 393.208 88.72 392.272 88.216C392.2 88.192 392.056 88.12 392.056 88.024C392.056 87.88 392.2 87.88 392.368 87.88H393.832ZM432.376 89.392C433.408 89.392 434.464 89.464 435.52 89.464C436.096 89.464 436.144 89.2 436.144 88.48V87.112C436.144 86.368 436.096 86.104 435.52 86.104C434.464 86.104 433.432 86.152 432.376 86.152H427.816C427.432 86.152 427.144 85.84 427.144 85.48V83.848C427.144 83.464 427.432 83.176 427.816 83.176H431.128C431.944 83.176 432.76 83.224 433.576 83.224C434.08 83.224 434.128 82.96 434.128 82.216V80.968C434.128 80.152 434.08 79.912 433.552 79.912C432.808 79.912 431.992 79.96 431.128 79.96H427.768C427.312 79.96 427.144 79.624 427.144 79.216V78.664C427.144 78.136 427.168 77.728 427.384 77.512C427.48 77.392 427.648 77.272 427.648 77.128C427.648 76.888 427.36 76.888 427.096 76.864C426.544 76.816 424.408 76.672 423.952 76.672C423.688 76.672 423.448 76.72 423.448 77.032C423.448 77.104 423.448 77.176 423.472 77.248C423.52 77.608 423.544 78.304 423.544 78.664V79.096C423.544 79.552 423.472 79.96 422.92 79.96H422.344C422.056 79.96 421.888 79.792 421.888 79.504C421.888 79.408 421.936 78.88 422.32 78.736C422.536 78.664 422.68 78.592 422.68 78.376C422.68 78.112 422.368 78.016 421.72 77.824C421.312 77.704 419.536 77.176 419.224 77.176C419.008 77.176 418.96 77.392 418.888 77.656C418.336 79.672 416.896 82.552 415.648 84.232C415.552 84.376 415.384 84.568 415.384 84.712C415.384 85.096 416.344 85.6 416.656 85.768C416.728 85.792 416.896 85.888 416.896 85.984C416.896 86.128 416.584 86.128 416.488 86.128C416.104 86.128 415.72 86.104 415.336 86.104C414.76 86.104 414.712 86.368 414.712 87.088V88.456C414.712 89.2 414.76 89.464 415.336 89.464C416.392 89.464 417.424 89.392 418.48 89.392H420.352C420.832 89.392 420.88 89.632 420.88 89.896C420.88 92.584 417.376 95.152 415.024 95.8C414.808 95.848 414.568 95.92 414.568 96.208C414.568 96.88 415.912 98.536 416.728 98.536C417.16 98.536 418.336 97.888 418.768 97.648C421.36 96.16 423.376 94.048 424.048 91.072C424.072 90.928 424.144 90.88 424.312 90.832C424.504 90.784 424.696 90.712 424.696 90.472C424.696 90.232 424.384 90.136 423.88 89.992C423.736 89.944 423.616 89.92 423.496 89.896C423.04 89.776 422.776 89.704 422.776 89.56C422.776 89.416 422.992 89.392 423.088 89.392H425.176C425.536 89.392 425.848 89.704 425.848 90.064V93.568C425.848 93.856 425.824 94.672 425.824 95.224C425.824 97.648 426.688 98.152 428.992 98.152H432.616C434.032 98.152 434.824 97.888 435.448 96.52C435.784 95.752 436.24 94.048 436.24 93.184C436.24 92.776 435.928 92.656 435.592 92.536C435.088 92.344 434.392 92.176 433.864 92.176C433.24 92.176 433.168 92.488 433.12 92.896C432.952 94.288 432.784 94.792 431.896 94.792H429.904C429.136 94.792 429.112 94.504 429.112 93.832V90.064C429.112 89.704 429.448 89.392 429.784 89.392H432.376ZM419.392 86.152C419.176 86.152 418.864 86.128 418.864 85.864C418.864 85.744 418.936 85.576 418.984 85.504C419.344 84.952 419.68 84.352 419.992 83.8C420.232 83.392 420.4 83.176 420.952 83.176H422.872C423.232 83.176 423.544 83.464 423.544 83.848V85.48C423.544 85.84 423.232 86.152 422.872 86.152H419.392ZM452.728 76.744C452.488 76.744 452.44 76.912 452.368 77.272C452.176 78.16 451.72 79.408 451.24 80.248C451.048 80.584 450.832 80.68 449.656 80.68C448.864 80.68 448 80.632 447.472 80.632C446.704 80.632 446.608 80.656 446.608 82.144C446.608 83.944 446.68 84.016 447.496 84.016C447.808 84.016 448.144 83.992 448.432 83.992C448.624 83.992 448.792 84.136 448.792 84.328C448.792 84.424 448.768 84.496 448.648 84.664C447.88 85.744 446.32 88.24 445.336 89.368C445.048 89.68 444.904 89.824 444.904 90.016C444.904 90.592 447.352 91.936 447.88 91.936C448.072 91.936 448.168 91.816 448.24 91.672C448.936 90.424 449.656 89.152 450.784 88.264C451.504 87.712 453.16 86.872 454.072 86.872C454.504 86.872 454.816 87.16 454.816 87.496C454.816 87.76 454.624 87.88 454.408 87.976C453.976 88.192 453.496 88.456 453.088 88.696C451.336 89.728 449.632 91.024 449.632 93.28C449.632 95.032 450.544 96.304 452.08 97C453.496 97.648 454.6 97.768 456.28 97.768C457.456 97.768 459.856 97.696 460.936 97.48C461.632 97.336 461.68 97.096 461.68 96.184C461.68 94.648 461.656 93.784 461.08 93.784C460.912 93.784 460.696 93.808 460.48 93.856C458.968 94.192 457.552 94.456 456.016 94.456C455.176 94.456 453.136 94.456 453.136 93.256C453.136 92.416 454.336 91.648 454.576 91.648C454.768 91.648 454.864 91.816 454.864 91.984V92.104C454.84 92.32 454.816 92.536 454.816 92.752C454.816 93.496 455.32 93.568 456.976 93.568C458.32 93.568 458.344 93.544 458.344 92.008C458.344 91.48 458.32 90.904 458.32 90.616C458.32 89.968 458.416 89.752 458.992 89.512C460.096 89.056 460.816 88.744 461.968 88.312C462.448 88.144 462.688 88.072 462.688 87.76C462.688 87.208 461.848 84.448 461.248 84.448C461.152 84.448 461.032 84.52 460.936 84.568C460.84 84.616 460.672 84.712 460.456 84.832C459.736 85.24 458.464 85.96 458.224 85.96C458.032 85.96 457.912 85.864 457.816 85.672C457.504 85 457.336 84.688 456.664 84.304C456.184 84.016 455.512 83.92 454.936 83.92C454.216 83.92 453.592 84.04 452.896 84.28C452.848 84.304 452.728 84.352 452.68 84.352C452.584 84.352 452.464 84.304 452.464 84.184C452.464 84.16 452.512 83.632 453.28 83.536C454.768 83.368 456.4 83.08 457.72 82.84C459.04 82.6 459.256 82.504 459.256 82.144C459.256 81.64 459.088 80.68 458.968 80.2C458.872 79.768 458.752 79.264 458.224 79.264C458.008 79.264 457.744 79.36 457.552 79.432C457.048 79.6 455.968 79.96 455.608 79.96C455.44 79.96 455.32 79.888 455.32 79.696C455.32 79.504 455.68 78.904 455.968 78.784C456.136 78.736 456.4 78.664 456.4 78.472C456.4 78.256 456.088 78.088 455.656 77.896C455.272 77.728 452.992 76.744 452.728 76.744ZM482.128 92.92C482.2 92.776 482.272 92.704 482.416 92.656C482.632 92.608 482.968 92.536 482.968 92.248C482.968 91.888 481.864 91.48 481.24 91.24C480.88 91.096 480.592 90.976 480.592 90.856C480.592 90.688 480.808 90.688 480.904 90.688H482.56C482.944 90.688 483.232 91 483.232 91.36V94.528C483.232 94.96 483.208 95.776 483.208 96.136C483.208 97.696 484.048 98.272 485.488 98.272H489.592C490.552 98.272 491.656 98.272 492.28 97.6C493.048 96.784 493.576 94.888 493.576 93.784C493.576 92.728 491.656 92.344 491.008 92.344C490.672 92.344 490.504 92.44 490.48 92.776C490.336 94.6 490.288 94.984 488.848 94.984H487.888C486.784 94.984 486.712 94.768 486.712 93.688V91.072C486.712 90.856 486.88 90.688 487.096 90.688H487.168C487.384 90.688 487.456 90.832 487.552 91C487.696 91.24 488.008 91.264 488.872 91.264H490.024C490.816 91.264 491.056 91.216 491.056 90.712C491.056 90.112 491.008 89.248 491.008 88.408V80.68C491.008 79.936 491.056 79.216 491.056 78.472C491.056 77.608 490.6 77.44 489.88 77.44C489.064 77.44 488.248 77.488 487.456 77.488H478.408C477.592 77.488 476.776 77.44 475.96 77.44C475.192 77.44 474.808 77.656 474.808 78.472C474.808 79.216 474.832 79.936 474.832 80.68V88.408C474.832 89.224 474.784 90.112 474.784 90.712C474.784 91.192 475.048 91.264 475.48 91.264H476.896C477.88 91.264 478.192 91.264 478.288 91C478.336 90.88 478.48 90.688 478.744 90.688C478.96 90.688 479.128 90.856 479.128 91.072C479.128 91.168 479.008 92.032 478.408 92.824C477.16 94.48 475.144 95.008 473.2 95.176C472.624 95.224 472.264 95.248 472.264 95.752C472.264 96.112 472.384 96.616 472.504 96.952C472.696 97.528 473.008 98.56 473.752 98.56C474.208 98.56 475.576 98.248 476.056 98.104C478.912 97.288 481.024 95.728 482.128 92.92ZM478.288 80.872C478.288 80.704 478.432 80.56 478.6 80.56H487.264C487.432 80.56 487.552 80.704 487.552 80.872V80.992C487.552 81.16 487.432 81.304 487.264 81.304H478.6C478.408 81.304 478.288 81.16 478.288 80.992V80.872ZM478.288 84.064C478.288 83.896 478.408 83.752 478.6 83.752H487.264C487.432 83.752 487.552 83.896 487.552 84.064V84.208C487.552 84.376 487.432 84.52 487.264 84.52H478.6C478.432 84.52 478.288 84.376 478.288 84.208V84.064ZM478.288 87.376C478.288 87.184 478.408 87.064 478.6 87.064H487.264C487.432 87.064 487.552 87.184 487.552 87.376V87.496C487.552 87.688 487.432 87.808 487.264 87.808H478.6C478.432 87.808 478.288 87.688 478.288 87.496V87.376ZM505.96 91.072C505.96 90.616 506.008 90.4 506.392 90.208C507.616 89.608 507.784 89.488 507.784 88.576C507.784 87.88 507.784 86.392 507.208 86.392C507.04 86.392 506.872 86.488 506.728 86.56C506.584 86.632 506.392 86.752 506.224 86.752C505.96 86.752 505.96 86.488 505.96 86.272V84.856C505.96 84.376 506.176 84.112 506.656 84.112H506.992C507.568 84.112 507.616 83.848 507.616 83.152V81.832C507.616 81.064 507.568 80.872 506.944 80.872H506.56C506.08 80.872 505.96 80.488 505.96 80.08V78.736C505.96 78.256 505.984 78.016 506.176 77.872C506.32 77.752 506.464 77.68 506.464 77.464C506.464 77.152 506.032 77.128 505.72 77.104C504.832 77.056 503.704 77.008 503.2 77.008C502.84 77.008 502.648 77.056 502.648 77.44C502.648 77.536 502.696 78.64 502.696 79.624V80.152C502.696 80.344 502.696 80.872 502.072 80.872H501.688C501.04 80.872 500.992 81.088 500.992 81.832V83.128C500.992 83.872 501.04 84.112 501.664 84.112C501.808 84.112 501.952 84.088 502.096 84.088C502.6 84.088 502.696 84.472 502.696 84.904V87.16C502.696 88.168 502.504 88.216 501.4 88.528C501.112 88.6 500.776 88.648 500.776 89.008C500.776 89.248 501.088 90.424 501.16 90.712C501.232 91 501.304 91.264 501.352 91.48C501.52 92.176 501.592 92.536 501.832 92.536C501.976 92.536 502.096 92.368 502.144 92.248C502.192 92.128 502.288 91.936 502.48 91.936C502.696 91.936 502.696 92.248 502.696 92.416V93.976C502.696 95.176 502.672 95.296 501.832 95.296H501.52C501.04 95.296 500.992 95.704 500.992 96.376C500.992 98.68 501.712 98.68 502.48 98.68C504.616 98.68 506.008 98.104 506.008 95.704C506.008 95.128 505.96 94.552 505.96 94V91.072ZM515.08 93.88C515.08 93.52 515.392 93.208 515.752 93.208H517.528C517.912 93.208 518.2 93.52 518.2 93.88V94.312C518.2 94.672 517.912 94.984 517.528 94.984H515.752C515.368 94.984 515.08 94.696 515.08 94.312V93.88ZM511.936 81.28C511.696 81.256 511.552 81.112 511.552 80.896V80.728C511.552 80.512 511.72 80.344 511.936 80.344H517.888C518.08 80.344 518.272 80.512 518.272 80.728V80.896C518.272 81.112 518.08 81.28 517.888 81.28H511.936ZM514.096 84.04C514.696 84.04 514.888 84.352 514.888 84.928C514.888 85.456 514.528 85.6 514.072 85.6H512.392C511.912 85.6 511.552 85.432 511.552 84.88C511.552 84.256 511.792 84.04 512.392 84.04H514.096ZM518.368 89.392C518.368 88.6 518.92 88.6 519.328 88.6C520.192 88.6 521.032 88.672 521.896 88.672C522.424 88.672 522.472 88.432 522.472 87.76V86.416C522.472 85.768 522.424 85.528 521.872 85.528C521.032 85.528 520.192 85.6 519.352 85.6H518.92C518.632 85.6 518.392 85.456 518.392 85.12C518.392 84.952 518.416 84.616 518.584 84.52C518.632 84.496 518.776 84.424 518.8 84.352C518.848 84.112 518.896 84.04 519.304 84.04H519.976C521.056 84.04 521.656 83.944 521.656 82.888C521.656 82.264 521.584 81.64 521.584 81.04V80.488C521.584 79.912 521.632 79.336 521.632 78.76C521.632 77.848 521.272 77.536 520.384 77.536C519.664 77.536 518.92 77.584 518.176 77.584H511.648C510.88 77.584 510.136 77.536 509.392 77.536C508.528 77.536 508.168 77.872 508.168 78.76C508.168 79.336 508.216 79.912 508.216 80.488V82.576C508.216 83.344 508.24 84.112 508.24 84.88C508.24 88.168 508.024 92.8 506.68 95.8C506.584 95.992 506.392 96.4 506.392 96.592C506.392 97.192 508.36 98.368 509.152 98.368C509.416 98.368 509.512 98.248 509.752 97.648C510.712 95.224 511.264 92.176 511.408 89.512C511.432 88.888 511.576 88.6 512.272 88.6H514.264C514.624 88.6 514.936 88.912 514.936 89.272V89.608C514.936 90.064 514.792 90.424 514.264 90.424C514.072 90.424 513.688 90.4 513.376 90.4C512.656 90.4 511.816 90.472 511.816 91.384C511.816 91.816 511.864 92.416 511.864 93.04V96.52C511.864 97.048 511.816 98.008 511.816 98.248C511.816 98.68 512.128 98.728 512.584 98.728H514.072C514.816 98.728 515.104 98.68 515.128 98.344C515.152 98.056 515.152 97.84 515.632 97.84H517.72C517.816 97.84 518.128 97.84 518.152 98.152C518.2 98.704 518.296 98.728 519.136 98.728H520.552C521.368 98.728 521.584 98.68 521.584 98.224C521.584 98.008 521.512 97.264 521.512 96.52V93.04C521.512 92.368 521.56 91.768 521.56 91.384C521.56 90.472 520.72 90.4 520 90.4C519.664 90.4 519.28 90.424 519.064 90.424C518.368 90.424 518.368 89.824 518.368 89.56V89.392ZM542.824 81.832C542.776 81.856 542.68 81.88 542.608 81.88C542.44 81.88 542.296 81.736 542.296 81.568C542.296 81.472 542.32 81.376 542.368 81.256C542.512 80.872 542.896 79.744 542.896 79.36C542.896 78.976 542.512 78.88 541.624 78.616C540.52 78.28 539.416 77.896 538.336 77.536C538.072 77.44 537.784 77.344 537.52 77.344C537.232 77.344 537.184 77.416 536.824 78.4C536.584 79.048 536.32 79.936 536.32 80.152C536.32 80.584 536.752 80.68 537.712 80.944C538.648 81.208 539.512 81.544 540.424 81.856C540.64 81.928 540.76 82 540.76 82.168C540.76 82.336 540.592 82.384 540.376 82.432C538.432 82.84 536.272 83.272 534.304 83.392C533.944 83.416 533.704 83.512 533.704 83.872C533.704 84.472 534.496 85.864 534.88 86.488C535.12 86.872 535.312 86.968 535.552 86.968C535.984 86.968 537.28 86.584 537.76 86.464C538 86.392 539.344 85.984 539.44 85.984C539.584 85.984 539.68 86.08 539.68 86.2C539.68 86.368 539.488 86.56 539.368 86.68C538.408 87.712 537.448 88.744 536.512 89.8C535.432 91 533.08 93.52 532.48 94.024C531.544 94.792 531.256 95.152 531.256 95.416C531.256 96.232 533.416 97.912 534.064 97.912C534.28 97.912 534.52 97.576 534.928 97.048C535.576 96.232 539.032 90.88 540.928 90.88C541.216 90.88 541.312 91.12 541.312 91.36C541.312 92.224 540.928 93.592 540.928 94.672C540.928 96.472 542.56 97.744 544.264 97.744C545.584 97.744 547.936 97.024 549.136 96.424C549.52 96.232 549.616 96.088 549.616 95.248C549.616 94.792 549.52 93.304 549.448 92.848C549.424 92.656 549.376 92.416 549.136 92.416C548.8 92.416 548.248 92.752 547.864 92.992C547.792 93.04 547.72 93.088 547.672 93.112C547 93.52 545.608 94.312 544.816 94.312C544.504 94.312 544.408 94.12 544.408 93.832C544.408 93.568 544.528 92.824 544.576 92.536C544.672 91.912 544.744 91.288 544.744 90.664C544.744 89.488 544.384 88.6 543.232 88.168C542.848 88.024 542.68 87.928 542.68 87.64C542.68 87.472 542.896 87.232 543.256 86.896C543.856 86.344 545.152 85.168 545.776 84.712C545.992 84.568 546.232 84.424 546.232 84.136C546.232 83.704 544.768 81.52 544.072 81.52C543.808 81.52 543.208 81.712 542.824 81.832ZM560.728 85.336C560.824 85.336 560.992 85.312 561.088 85.288C562.336 84.928 563.968 84.568 565.24 84.328C565.6 84.256 566.296 84.112 566.536 84.112C566.8 84.112 566.968 84.256 566.968 84.472C566.968 84.664 566.824 84.856 566.728 85C565.456 86.824 564.76 88.72 564.76 90.952C564.76 96.136 568.48 97.288 572.944 97.288C573.448 97.288 573.736 97.24 573.952 96.736C574.192 96.16 574.36 94.624 574.36 93.928C574.36 93.472 574.192 93.4 573.76 93.4C573.4 93.4 572.632 93.472 572.008 93.472C569.896 93.472 568.72 92.848 568.72 90.568C568.72 87.4 570.712 84.616 573.664 83.56C574.888 83.128 575.848 83.152 577.12 83.128C578.104 83.104 578.392 83.104 578.392 82.648C578.392 82.024 578.224 80.608 578.104 79.984C578.032 79.6 577.912 79.192 577.48 79.192C577.408 79.192 577.336 79.192 577.264 79.216C575.536 79.528 573.616 79.768 571.888 79.984C568.36 80.416 564.856 80.752 561.328 80.944C560.056 81.016 559.72 81.016 559.72 81.76C559.72 82.384 559.96 83.68 560.104 84.328C560.176 84.664 560.32 85.336 560.728 85.336ZM589.888 90.832C589.888 91.552 590.536 92.896 590.944 93.472C592.576 95.728 595.336 96.016 597.904 96.016C599.776 96.016 603.376 95.776 605.128 95.344C605.728 95.2 605.968 95.08 605.968 94.648C605.968 94 605.968 93.64 605.824 92.104C605.776 91.6 605.56 91.384 605.296 91.384C605.128 91.384 604.912 91.432 604.744 91.48C602.68 92.128 599.992 92.344 597.808 92.344C596.56 92.344 595.072 92.296 594.136 91.336C593.776 90.976 593.56 90.184 593.512 89.776C593.488 89.512 593.44 89.2 593.08 89.2C592.816 89.2 591.112 89.92 590.824 90.04C590.488 90.184 589.888 90.424 589.888 90.832ZM605.44 78.832C605.176 78.832 603.952 79.72 603.952 80.056C603.952 80.176 604.048 80.248 604.216 80.416C604.672 80.872 605.152 81.328 605.56 81.832C605.632 81.904 605.68 81.976 605.752 82.048C605.992 82.336 606.184 82.576 606.328 82.576C606.592 82.576 607.72 81.664 607.72 81.232C607.72 80.848 606.16 79.384 605.824 79.072C605.704 78.952 605.56 78.832 605.44 78.832ZM607.744 76.72C607.528 76.72 606.28 77.584 606.28 77.968C606.28 78.088 606.424 78.232 606.496 78.304C607.024 78.808 607.528 79.288 608.008 79.864C608.368 80.32 608.488 80.488 608.632 80.488C608.896 80.488 610.048 79.552 610.048 79.12C610.048 78.76 607.984 76.72 607.744 76.72ZM593.272 80.128C592.936 80.128 592.744 80.32 592.648 80.608C592.552 80.92 592.168 82.888 592.168 83.2C592.168 83.488 592.384 83.656 592.624 83.752C594.016 84.304 597.712 84.472 599.296 84.472C600.448 84.472 601.84 84.4 602.968 84.208C603.472 84.112 603.544 83.968 603.544 83.464C603.544 82.768 603.52 82.072 603.472 81.376C603.448 81.016 603.352 80.416 602.824 80.416C602.68 80.416 602.56 80.44 602.44 80.464C601.144 80.704 599.848 80.848 598.552 80.848C596.8 80.848 595.288 80.608 594.184 80.296C593.92 80.224 593.488 80.128 593.272 80.128ZM628.864 77.512C628.216 77.512 627.544 77.488 626.896 77.488C626.44 77.488 625.96 77.56 625.96 78.136C625.96 78.568 625.984 79.096 625.984 79.672V84.04C625.984 84.616 625.96 85.168 625.96 85.6C625.96 86.176 626.464 86.224 626.92 86.224C627.568 86.224 628.216 86.2 628.864 86.2H632.992C633.664 86.2 634.312 86.224 634.984 86.224C635.44 86.224 635.92 86.176 635.92 85.6C635.92 85.144 635.872 84.592 635.872 84.04V79.672C635.872 79.12 635.92 78.592 635.92 78.136C635.92 77.536 635.416 77.488 634.96 77.488C634.312 77.488 633.64 77.512 632.992 77.512H628.864ZM629.152 80.248C629.152 80.032 629.32 79.864 629.536 79.864H632.32C632.536 79.864 632.704 80.032 632.704 80.248V80.416C632.704 80.632 632.536 80.8 632.32 80.8H629.536C629.32 80.8 629.176 80.656 629.152 80.416V80.248ZM629.152 83.272C629.176 83.032 629.32 82.888 629.536 82.888H632.32C632.536 82.888 632.704 83.056 632.704 83.272V83.488C632.704 83.68 632.536 83.872 632.32 83.872H629.536C629.32 83.872 629.152 83.68 629.152 83.488V83.272ZM629.656 93.88C629.656 94.336 629.632 94.48 629.392 94.48C629.08 94.48 627.928 93.616 627.928 92.848C627.928 92.632 628 92.368 628.048 92.152C628.096 91.888 628.168 91.816 628.384 91.696C628.528 91.648 628.672 91.552 628.672 91.384C628.672 91.072 628.336 91.048 627.544 90.856C627.208 90.784 625.696 90.448 625.456 90.448C625.096 90.448 625.096 90.664 625.072 90.952C624.856 92.632 623.872 95.272 622.912 96.64C622.792 96.784 622.6 97.024 622.6 97.216C622.6 97.984 624.664 98.488 625.192 98.488C625.72 98.488 626.176 97.456 626.608 96.568C626.704 96.376 626.848 96.016 627.088 96.016C627.28 96.016 627.424 96.184 627.52 96.304C628.912 97.912 631.024 98.272 633.04 98.272C634.096 98.272 635.176 98.272 636.232 98.272C636.52 98.272 636.904 98.272 637.12 98.056C637.528 97.648 637.72 96.448 637.72 95.848C637.72 95.32 637.432 95.08 636.904 95.08C636.784 95.08 636.64 95.08 636.544 95.104C636.064 95.128 635.032 95.2 634.552 95.2H633.952C633.064 95.2 632.872 95.104 632.872 94.552V94.144C632.872 93.88 633.088 93.664 633.352 93.664H633.952C634.744 93.664 635.536 93.736 636.328 93.736C636.76 93.736 636.808 93.544 636.808 92.968V91.576C636.808 91.024 636.76 90.832 636.328 90.832C635.536 90.832 634.744 90.88 633.952 90.88H633.352C633.088 90.88 632.872 90.688 632.872 90.424V90.232C632.872 89.992 633.088 89.776 633.352 89.776H634.672C635.728 89.776 636.424 89.824 636.856 89.824C637.6 89.824 637.696 89.68 637.696 88.864V87.88C637.696 87.184 637.648 86.944 637 86.944C636.232 86.944 635.464 86.992 634.672 86.992H627.472C626.704 86.992 625.936 86.944 625.168 86.944C624.544 86.944 624.472 87.184 624.472 87.832V88.912C624.472 89.56 624.52 89.824 625.12 89.824C625.912 89.824 626.704 89.776 627.472 89.776H628.984C629.368 89.776 629.656 90.088 629.656 90.448V93.88ZM618.472 87.04C618.472 87.904 618.328 88.048 617.488 88.264C617.32 88.312 617.176 88.336 616.96 88.384C616.264 88.552 615.952 88.624 615.952 88.96C615.952 89.152 616.048 89.488 616.096 89.68C616.192 90.112 616.288 90.448 616.36 90.76C616.624 91.888 616.696 92.2 616.984 92.2C617.176 92.2 617.296 92.08 617.368 91.912C617.584 91.528 618.064 91.456 618.184 91.456C618.472 91.456 618.472 91.648 618.472 91.936V94.696C618.472 94.888 618.448 95.176 617.944 95.176C617.728 95.176 617.368 95.104 617.2 95.104C616.624 95.104 616.552 95.608 616.552 96.064C616.552 96.664 616.648 97.672 616.96 98.2C617.128 98.536 617.488 98.632 618.184 98.632C619.12 98.632 620.368 98.56 621.088 97.936C621.688 97.432 621.736 96.712 621.736 95.992C621.736 95.416 621.688 94.816 621.688 94.24V91.024C621.688 90.472 621.784 90.232 622.336 90.016C624.088 89.344 624.256 89.296 624.256 88.048C624.256 87.664 624.208 86.224 623.656 86.224C623.488 86.224 623.224 86.344 623.056 86.416C622.816 86.536 622.24 86.776 622 86.776C621.712 86.776 621.688 86.56 621.688 86.128V84.904C621.688 84.448 621.808 83.992 622.36 83.992C622.648 83.992 622.936 84.04 623.224 84.04C623.824 84.04 623.872 83.776 623.872 83.08V81.736C623.872 81.04 623.8 80.8 623.2 80.8C622.912 80.8 622.6 80.848 622.288 80.848C621.832 80.848 621.688 80.536 621.688 79.936V78.976C621.688 78.328 621.688 77.992 621.952 77.824C622.12 77.704 622.288 77.632 622.288 77.392C622.288 77.056 621.736 77.056 621.496 77.056C620.776 77.008 619.6 76.936 618.928 76.936C618.664 76.936 618.4 76.96 618.4 77.296C618.4 77.512 618.472 78.352 618.472 79.624V79.936C618.472 80.44 618.4 80.848 617.8 80.848C617.488 80.848 617.2 80.8 616.888 80.8C616.264 80.8 616.216 81.064 616.216 81.808V83.08C616.216 83.776 616.264 84.04 616.888 84.04C617.2 84.04 617.536 83.992 617.848 83.992C618.352 83.992 618.472 84.256 618.472 84.808V87.04ZM649.408 93.568C649.576 93.568 649.912 93.568 649.912 93.808C649.912 94.312 646.096 95.752 645.496 95.92C645.232 95.992 644.896 96.088 644.896 96.328C644.896 96.592 645.16 96.952 645.64 97.6C645.928 97.96 646.48 98.68 646.96 98.68C647.44 98.68 649.552 97.528 650.08 97.24C651.112 96.64 652.432 95.824 653.344 95.056C653.464 94.96 653.584 94.888 653.656 94.888C653.992 94.888 653.992 95.2 653.992 95.344C653.992 96.232 653.92 97.096 653.92 97.984C653.92 98.608 654.208 98.656 655 98.656H656.416C657.208 98.656 657.472 98.608 657.472 97.984C657.472 97.168 657.424 96.328 657.424 95.512C657.424 95.296 657.424 95.032 657.736 95.032C657.856 95.032 657.976 95.128 658.072 95.2C659.128 96.016 660.28 96.712 661.432 97.384C662.752 98.08 663.904 98.68 664.24 98.68C664.936 98.68 666.328 96.784 666.328 96.352C666.328 96.088 666.16 96.04 665.824 95.944C664.384 95.488 662.68 94.816 661.456 94.048C661.288 93.952 661.072 93.832 661.072 93.712C661.072 93.568 661.24 93.568 661.36 93.568H663.04C663.952 93.568 664.864 93.616 665.8 93.616C666.376 93.616 666.424 93.424 666.424 92.728V91.792C666.424 91.168 666.376 90.952 665.8 90.952C664.864 90.952 663.952 91 663.04 91H657.976C657.688 91 657.544 90.856 657.544 90.64C657.544 90.52 657.592 90.424 657.688 90.328C657.88 90.184 658 90.112 658 89.968C658 89.8 657.88 89.728 657.664 89.68C657.424 89.632 656.92 89.584 656.632 89.56C656.2 89.536 656.128 89.512 656.128 89.416C656.128 89.296 656.248 89.248 656.368 89.2C656.944 88.936 657.472 88.696 657.808 88.696C658.6 88.696 661.12 89.872 661.888 90.304C662.032 90.4 662.368 90.592 662.512 90.592C663.232 90.592 664.384 88.792 664.384 88.24C664.384 87.976 664.096 87.88 663.688 87.712C662.92 87.4 662.128 87.112 661.336 86.872C661.12 86.8 660.904 86.752 660.904 86.464C660.904 86.296 661 86.176 661.096 86.056C661.168 85.984 661.24 85.888 661.312 85.816C661.6 85.456 661.84 85.144 662.416 85.144C662.896 85.144 663.376 85.192 663.88 85.192C664.264 85.192 664.48 85.096 664.48 84.688C664.48 84.208 664.624 84.064 665.104 84.064C665.992 84.064 666.208 84.04 666.208 83.584C666.208 83.248 666.16 82.912 666.16 82.528V80.608C666.16 80.176 666.184 79.768 666.184 79.624C666.184 78.952 665.224 78.952 664.648 78.952C663.784 78.952 662.92 79 662.032 79H658.36C657.88 79 657.688 78.688 657.688 78.4C657.688 78.136 657.76 78.04 657.928 77.848C658.048 77.752 658.192 77.632 658.192 77.488C658.192 77.176 657.736 77.176 657.52 77.176C656.44 77.176 655.384 77.08 654.328 77.08C654.088 77.08 653.752 77.08 653.752 77.416C653.752 77.704 653.824 78.112 653.824 78.376C653.824 78.592 653.68 79 653.008 79H649.408C648.544 79 647.68 78.952 646.792 78.952C646.24 78.952 645.256 78.952 645.256 79.624C645.256 79.768 645.28 80.176 645.28 80.608V82.552C645.28 82.984 645.256 83.392 645.256 83.728C645.256 84.136 645.64 84.16 646.072 84.16H646.624C646.888 84.16 647.104 84.376 647.128 84.64C647.152 84.976 647.176 85.192 647.728 85.192C648.28 85.192 648.832 85.144 649.384 85.144C649.456 85.144 649.576 85.144 649.576 85.24C649.576 85.384 649.12 85.744 649 85.84C648.928 85.888 648.784 86.008 648.784 86.128C648.784 86.608 650.752 87.52 651.256 87.52C651.376 87.52 651.472 87.496 651.568 87.448C651.736 87.352 651.88 87.28 652.072 87.28C652.192 87.28 652.792 87.328 652.792 87.496C652.792 87.616 652.168 87.688 652.048 87.688C650.8 87.88 649.6 87.88 648.352 87.88H648.088C647.824 87.88 647.632 87.928 647.632 88.24C647.632 88.528 647.968 89.32 648.088 89.608C648.424 90.352 648.616 90.64 649.144 90.64C650.008 90.64 652.504 90.304 653.344 90.112C653.416 90.088 653.464 90.088 653.512 90.088C653.752 90.088 653.968 90.28 653.968 90.52C653.968 90.76 653.824 91 653.464 91H648.52C647.608 91 646.672 90.952 645.76 90.952C645.184 90.952 645.136 91.144 645.136 91.792V92.728C645.136 93.424 645.184 93.616 645.76 93.616C646.672 93.616 647.608 93.568 648.52 93.568H649.408ZM656.944 85.144C657.064 85.144 657.304 85.144 657.304 85.312C657.304 85.432 656.8 86.008 656.224 86.008C656.128 86.008 656.032 85.984 655.936 85.984C655.312 85.888 654.688 85.792 654.064 85.72C653.872 85.696 653.632 85.648 653.632 85.504C653.632 85.192 654.304 85.144 654.52 85.144H656.944ZM656.8 82.72C656.56 82.72 656.248 82.72 656.248 82.432C656.248 82.288 656.296 82.216 656.368 82.12C656.68 81.688 656.824 81.496 657.64 81.496H662.248C662.488 81.496 662.704 81.712 662.704 81.952V82.168C662.704 82.672 662.368 82.72 661.984 82.72H656.8ZM652.144 81.496C652.336 81.496 652.624 81.52 652.624 81.784C652.624 81.808 652.408 82.72 651.28 82.72H649.096C648.784 82.72 648.616 82.528 648.616 82.216V82.072C648.616 81.76 648.88 81.496 649.192 81.496H652.144ZM677.68 90.976C675.784 90.976 674.272 92.512 674.272 94.408C674.272 96.304 675.808 97.84 677.68 97.84C679.576 97.84 681.112 96.304 681.112 94.408C681.112 92.512 679.576 90.976 677.68 90.976ZM677.68 92.392C678.808 92.392 679.72 93.28 679.72 94.408C679.72 95.512 678.808 96.424 677.68 96.424C676.576 96.424 675.664 95.512 675.664 94.408C675.664 93.28 676.576 92.392 677.68 92.392Z" fill="white"/>
</g>
<g clip-path="url(#clip1_4_89)">
<g filter="url(#filter2_d_4_89)">
<path d="M35.88 19.88C35 19.88 34.36 19.8 33.96 19.8C33.32 19.8 33.16 19.96 33.16 20.76V21.8C33.16 22.6 33.2 22.88 33.88 22.88C34.32 22.88 35.24 22.8 36.12 22.8H37.32C38.24 22.8 39.16 22.88 39.6 22.88C40.24 22.88 40.32 22.64 40.32 21.96V20.84C40.32 20.12 40.28 19.8 39.64 19.8C39.16 19.8 38.16 19.88 37.32 19.88H35.88ZM20.4 19.88C19.48 19.88 18.84 19.8 18.4 19.8C17.8 19.8 17.64 19.96 17.64 20.72V21.84C17.64 22.6 17.68 22.88 18.4 22.88C18.8 22.88 19.76 22.8 20.64 22.8H21.8C22.68 22.8 23.6 22.88 24.04 22.88C24.68 22.88 24.76 22.64 24.76 21.88V20.8C24.76 20.12 24.72 19.8 24.12 19.8C23.6 19.8 22.64 19.88 21.8 19.88H20.4ZM35.84 24C34.96 24 34.36 23.92 33.96 23.92C33.32 23.92 33.16 24.04 33.16 24.84V25.96C33.16 26.72 33.2 27.04 33.88 27.04C34.32 27.04 35.24 26.96 36.12 26.96H37.32C38.24 26.96 39.16 27.04 39.6 27.04C40.28 27.04 40.32 26.8 40.32 26.04V24.96C40.32 24.28 40.28 23.96 39.64 23.96C39.16 23.96 38.16 24 37.32 24H35.84ZM20.36 24C19.4 24 18.76 23.92 18.36 23.92C17.8 23.92 17.64 24.08 17.64 24.8V25.92C17.64 26.72 17.68 27.04 18.4 27.04C18.8 27.04 19.76 26.96 20.64 26.96H21.8C22.68 26.96 23.6 27.04 24.04 27.04C24.72 27.04 24.76 26.8 24.76 25.96V24.96C24.76 24.28 24.72 23.96 24.12 23.96C23.6 23.96 22.64 24 21.8 24H20.36ZM37.08 14.08C38.6 14.08 40.08 14.16 41.56 14.16C42.4 14.16 42.48 13.88 42.48 13.04V11.64C42.48 10.76 42.4 10.52 41.52 10.52C40.04 10.52 38.56 10.6 37.08 10.6H20.88C19.4 10.6 17.92 10.52 16.44 10.52C15.56 10.52 15.48 10.76 15.48 11.64V13.04C15.48 13.88 15.56 14.16 16.4 14.16C17.92 14.16 19.4 14.08 20.88 14.08H25.56C25.84 14.08 26.08 14.32 26.08 14.6V14.72C26.08 15 25.84 15.2 25.56 15.2H16.32C15.28 15.2 14.24 15.12 13.2 15.12C11.64 15.12 11.4 15.36 11.4 16.64V21C11.4 21.76 11.32 22.4 11.32 22.88C11.32 23.68 11.8 23.76 12.88 23.76H15.2C16.32 23.76 16.8 23.68 16.8 22.88C16.8 22.4 16.72 21.68 16.72 21V19.76C16.72 19.2 17.24 18.68 17.84 18.68H24.96C25.56 18.68 26.08 19.16 26.08 19.8V22.28C26.08 23.8 25.96 25.28 25.96 26.4C25.96 27.36 26.4 27.48 27.6 27.48H30.36C31.56 27.48 32.04 27.36 32.04 26.44C32.04 25.24 31.92 23.68 31.92 22.28V19.8C31.92 19.16 32.44 18.68 33.04 18.68H40.08C40.68 18.68 41.16 19.16 41.16 19.76V21C41.16 21.76 41.08 22.4 41.08 22.88C41.08 23.68 41.56 23.76 42.68 23.76H45C46.08 23.76 46.56 23.68 46.56 22.88C46.56 22.4 46.48 21.68 46.48 21V16.6C46.48 15.32 46.16 15.12 44.64 15.12C43.64 15.12 42.6 15.2 41.56 15.2H32.44C32.16 15.2 31.92 15 31.92 14.72V14.6C31.92 14.28 32.16 14.08 32.44 14.08H37.08ZM37.28 40.08C38.6 40.08 39.92 40.12 41.2 40.12H41.32C41.84 40.12 42.28 40.2 42.28 40.76C42.28 41.44 41.4 41.48 40.92 41.48H33.32C32.8 41.48 31.92 41.4 31.92 40.72C31.92 40.36 32.2 40.08 32.56 40.08H37.28ZM26 35.6C26.28 35.6 26.44 35.8 26.44 36.08V36.28C26.44 36.52 26.24 36.72 26 36.72H20.96C20.72 36.72 20.52 36.52 20.52 36.28V36.08C20.52 35.8 20.72 35.6 20.96 35.6H26ZM37.44 35.6C37.72 35.6 37.92 35.8 37.92 36.08V36.28C37.92 36.52 37.72 36.72 37.44 36.72H32.28C32.04 36.72 31.84 36.52 31.84 36.28V36.08C31.84 35.8 32.04 35.6 32.28 35.6H37.44ZM21 32.68C20.72 32.68 20.52 32.44 20.52 32.16V32.08C20.52 31.8 20.72 31.56 21 31.56H25.92C26.2 31.56 26.44 31.8 26.44 32.08V32.16C26.44 32.48 26.2 32.64 25.92 32.68H21ZM32.36 32.68C32.08 32.64 31.84 32.48 31.84 32.16V32.08C31.84 31.8 32.08 31.56 32.36 31.56H37.4C37.68 31.56 37.92 31.8 37.92 32.08V32.16C37.92 32.44 37.68 32.68 37.4 32.68H32.36ZM42.4 45.44C44 45.44 45.08 45.32 46.04 43.88C46.72 42.88 47.6 40.84 47.6 39.6C47.6 38.32 45.24 37.84 44.44 37.8C43.48 37.76 43.36 37.4 43.36 36.4V29.76C43.36 28.6 43.24 28.24 41.84 28.24H16.64C15.28 28.24 15.04 28.48 15.04 29.76C15.04 30.84 15.08 31.96 15.08 33.04V36.88C15.08 38.08 15 39.28 15 40.44C15 41.48 15.56 41.56 16.52 41.56H18.52C20.12 41.56 20.44 41.48 20.44 40.56C20.44 40.12 20.72 40.08 21.44 40.08H25.24C25.84 40.08 26.4 40.48 26.4 41.44V41.64C26.4 45.16 28.32 45.44 31.32 45.44H42.4ZM83 28.08C83.68 28.08 84.12 28.6 84.12 29.28V29.6C84.12 33.52 84.24 38.32 85.48 42.04C86.24 44.4 87.68 45.88 90.28 45.88C94.32 45.88 95.24 41.44 95.68 38.28C95.76 37.72 95.84 36.96 95.84 36.48C95.84 35.16 93.92 34.56 92.8 34.56C92 34.56 91.76 34.8 91.72 35.52C91.72 36.12 91.52 39.6 90.8 39.6C90.44 39.6 90.4 38.96 90.36 38.68C90.12 36.8 90.04 34.92 90.04 33.04C90.04 30.56 90.16 26.92 90.16 25.52C90.16 24 89.84 23.48 88.24 23.48C87.08 23.48 85.92 23.56 84.72 23.56H67.8C66.12 23.56 64.44 23.44 62.72 23.44C61.8 23.44 61.72 23.84 61.72 25V27.08C61.72 28 62.16 28.16 62.68 28.16C64.4 28.16 66.12 28.08 67.8 28.08H72.52C72.96 28.08 73.52 28.12 73.52 28.72C73.52 29.2 72.72 30.56 72.44 31.04C72.12 31.6 71.72 32.36 71.12 32.36C70.72 32.36 70.4 32.16 70.08 31.96C69.24 31.52 66.12 30 65.32 30C64.56 30 62.28 32.8 62.28 33.56C62.28 34.04 62.8 34.24 63.2 34.36C63.84 34.6 67.32 35.84 67.32 36.52C67.32 37.36 61.84 40.24 60.92 40.64C60.56 40.8 59.96 41 59.96 41.44C59.96 42.2 62.2 45.68 63.24 45.68C64.4 45.68 70.92 41.16 71.88 40.16C72.2 39.8 72.48 39.76 72.6 39.76C72.92 39.76 73.16 39.88 73.56 40.2C74.36 40.84 75.76 42.08 77.16 43.24C77.52 43.56 77.92 43.96 78.4 43.96C80.08 43.96 81.44 40.56 81.44 39.84C81.44 39.4 81.12 39.16 80.84 38.92C80.2 38.4 78.52 37.2 77.8 36.72C77.36 36.44 76.52 35.88 76.52 35.28C76.52 34.92 76.76 34.6 76.96 34.32C77.44 33.64 77.92 32.8 78.32 32.08C78.6 31.52 78.72 31.52 79.28 31.48C79.56 31.48 79.92 31.36 79.92 31.04C79.92 30.56 78.72 30 78.32 29.8C78 29.64 75.8 28.52 75.8 28.32C75.8 28.08 76.32 28.08 76.44 28.08H83ZM72.56 12.84C72.36 12.84 72.12 12.76 72.12 12.48C72.12 12 72.8 11.72 73.16 11.6C73.44 11.52 74 11.36 74 11C74 10.56 73.16 10.4 72.76 10.28C71.92 10.08 68.4 9.12 67.8 9.12C67.4 9.12 67.32 9.48 67.16 9.88C65.92 13.2 62.88 17.12 60.12 19.36C59.72 19.72 59.12 20.08 59.12 20.48C59.12 21.56 62.28 23.32 62.92 23.32C63.68 23.32 66.04 20.84 66.6 20.2C66.76 20 66.96 19.72 67.2 19.72C67.56 19.72 67.56 20.2 67.56 20.44V20.8C67.56 21.8 67.56 22.28 68.48 22.28C69.68 22.28 70.84 22.24 72.04 22.24H84.8C86 22.24 87.16 22.28 88.36 22.28C89.12 22.28 89.28 21.96 89.28 21.12V19.4C89.28 18.56 89.12 18.24 88.32 18.24C87.16 18.24 86 18.32 84.8 18.32H72.04C71.08 18.32 70.16 18.24 69.24 18.24C68.64 18.24 68.52 18.2 68.52 17.96C68.52 17.68 69.04 17.12 70.24 17.12H88.04C89.56 17.12 91.08 17.2 92.6 17.2C93.48 17.2 93.56 16.88 93.56 15.8V14.16C93.56 13.08 93.48 12.76 92.56 12.76C91.04 12.76 89.56 12.84 88.04 12.84H72.56Z" fill="white"/>
</g>
</g>
<rect x="1" y="1" width="105" height="54" rx="3" stroke="white" stroke-width="2"/>
</g>
<defs>
<filter id="filter0_d_4_89" x="124.076" y="12.128" width="194.724" height="38.78" filterUnits="userSpaceOnUse" color-interpolation-filters="sRGB">
<feFlood flood-opacity="0" result="BackgroundImageFix"/>
<feColorMatrix in="SourceAlpha" type="matrix" values="0 0 0 0 0 0 0 0 0 0 0 0 0 0 0 0 0 0 127 0" result="hardAlpha"/>
<feOffset dy="4"/>
<feGaussianBlur stdDeviation="2"/>
<feComposite in2="hardAlpha" operator="out"/>
<feColorMatrix type="matrix" values="0 0 0 0 0 0 0 0 0 0 0 0 0 0 0 0 0 0 0.4 0"/>
<feBlend mode="normal" in2="BackgroundImageFix" result="effect1_dropShadow_4_89"/>
<feBlend mode="normal" in="SourceGraphic" in2="effect1_dropShadow_4_89" result="shape"/>
</filter>
<filter id="filter1_d_4_89" x="-2.60791" y="76.672" width="687.72" height="30.128" filterUnits="userSpaceOnUse" color-interpolation-filters="sRGB">
<feFlood flood-opacity="0" result="BackgroundImageFix"/>
<feColorMatrix in="SourceAlpha" type="matrix" values="0 0 0 0 0 0 0 0 0 0 0 0 0 0 0 0 0 0 127 0" result="hardAlpha"/>
<feOffset dy="4"/>
<feGaussianBlur stdDeviation="2"/>
<feComposite in2="hardAlpha" operator="out"/>
<feColorMatrix type="matrix" values="0 0 0 0 0 0 0 0 0 0 0 0 0 0 0 0 0 0 0.4 0"/>
<feBlend mode="normal" in2="BackgroundImageFix" result="effect1_dropShadow_4_89"/>
<feBlend mode="normal" in="SourceGraphic" in2="effect1_dropShadow_4_89" result="shape"/>
</filter>
<filter id="filter2_d_4_89" x="7.32007" y="9.12" width="92.52" height="44.76" filterUnits="userSpaceOnUse" color-interpolation-filters="sRGB">
<feFlood flood-opacity="0" result="BackgroundImageFix"/>
<feColorMatrix in="SourceAlpha" type="matrix" values="0 0 0 0 0 0 0 0 0 0 0 0 0 0 0 0 0 0 127 0" result="hardAlpha"/>
<feOffset dy="4"/>
<feGaussianBlur stdDeviation="2"/>
<feComposite in2="hardAlpha" operator="out"/>
<feColorMatrix type="matrix" values="0 0 0 0 0 0 0 0 0 0 0 0 0 0 0 0 0 0 0.4 0"/>
<feBlend mode="normal" in2="BackgroundImageFix" result="effect1_dropShadow_4_89"/>
<feBlend mode="normal" in="SourceGraphic" in2="effect1_dropShadow_4_89" result="shape"/>
</filter>
<clipPath id="clip0_4_89">
<rect width="697" height="101" fill="white"/>
</clipPath>
<clipPath id="clip1_4_89">
<rect width="107" height="56" rx="4" fill="white"/>
</clipPath>
</defs>
</svg>
