<svg width="199" height="37" viewBox="0 0 199 37" fill="none" xmlns="http://www.w3.org/2000/svg">
<g filter="none">
<path d="M9.408 3.908C9.1 3.908 8.876 3.88 8.736 3.88C8.512 3.88 8.456 3.936 8.456 4.216V4.58C8.456 4.86 8.47 4.958 8.708 4.958C8.862 4.958 9.184 4.93 9.492 4.93H9.912C10.234 4.93 10.556 4.958 10.71 4.958C10.934 4.958 10.962 4.874 10.962 4.636V4.244C10.962 3.992 10.948 3.88 10.724 3.88C10.556 3.88 10.206 3.908 9.912 3.908H9.408ZM3.99 3.908C3.668 3.908 3.444 3.88 3.29 3.88C3.08 3.88 3.024 3.936 3.024 4.202V4.594C3.024 4.86 3.038 4.958 3.29 4.958C3.43 4.958 3.766 4.93 4.074 4.93H4.48C4.788 4.93 5.11 4.958 5.264 4.958C5.488 4.958 5.516 4.874 5.516 4.608V4.23C5.516 3.992 5.502 3.88 5.292 3.88C5.11 3.88 4.774 3.908 4.48 3.908H3.99ZM9.394 5.35C9.086 5.35 8.876 5.322 8.736 5.322C8.512 5.322 8.456 5.364 8.456 5.644V6.036C8.456 6.302 8.47 6.414 8.708 6.414C8.862 6.414 9.184 6.386 9.492 6.386H9.912C10.234 6.386 10.556 6.414 10.71 6.414C10.948 6.414 10.962 6.33 10.962 6.064V5.686C10.962 5.448 10.948 5.336 10.724 5.336C10.556 5.336 10.206 5.35 9.912 5.35H9.394ZM3.976 5.35C3.64 5.35 3.416 5.322 3.276 5.322C3.08 5.322 3.024 5.378 3.024 5.63V6.022C3.024 6.302 3.038 6.414 3.29 6.414C3.43 6.414 3.766 6.386 4.074 6.386H4.48C4.788 6.386 5.11 6.414 5.264 6.414C5.502 6.414 5.516 6.33 5.516 6.036V5.686C5.516 5.448 5.502 5.336 5.292 5.336C5.11 5.336 4.774 5.35 4.48 5.35H3.976ZM9.828 1.878C10.36 1.878 10.878 1.906 11.396 1.906C11.69 1.906 11.718 1.808 11.718 1.514V1.024C11.718 0.715999 11.69 0.631999 11.382 0.631999C10.864 0.631999 10.346 0.659999 9.828 0.659999H4.158C3.64 0.659999 3.122 0.631999 2.604 0.631999C2.296 0.631999 2.268 0.715999 2.268 1.024V1.514C2.268 1.808 2.296 1.906 2.59 1.906C3.122 1.906 3.64 1.878 4.158 1.878H5.796C5.894 1.878 5.978 1.962 5.978 2.06V2.102C5.978 2.2 5.894 2.27 5.796 2.27H2.562C2.198 2.27 1.834 2.242 1.47 2.242C0.924 2.242 0.84 2.326 0.84 2.774V4.3C0.84 4.566 0.812 4.79 0.812 4.958C0.812 5.238 0.98 5.266 1.358 5.266H2.17C2.562 5.266 2.73 5.238 2.73 4.958C2.73 4.79 2.702 4.538 2.702 4.3V3.866C2.702 3.67 2.884 3.488 3.094 3.488H5.586C5.796 3.488 5.978 3.656 5.978 3.88V4.748C5.978 5.28 5.936 5.798 5.936 6.19C5.936 6.526 6.09 6.568 6.51 6.568H7.476C7.896 6.568 8.064 6.526 8.064 6.204C8.064 5.784 8.022 5.238 8.022 4.748V3.88C8.022 3.656 8.204 3.488 8.414 3.488H10.878C11.088 3.488 11.256 3.656 11.256 3.866V4.3C11.256 4.566 11.228 4.79 11.228 4.958C11.228 5.238 11.396 5.266 11.788 5.266H12.6C12.978 5.266 13.146 5.238 13.146 4.958C13.146 4.79 13.118 4.538 13.118 4.3V2.76C13.118 2.312 13.006 2.242 12.474 2.242C12.124 2.242 11.76 2.27 11.396 2.27H8.204C8.106 2.27 8.022 2.2 8.022 2.102V2.06C8.022 1.948 8.106 1.878 8.204 1.878H9.828ZM9.898 10.978C10.36 10.978 10.822 10.992 11.27 10.992H11.312C11.494 10.992 11.648 11.02 11.648 11.216C11.648 11.454 11.34 11.468 11.172 11.468H8.512C8.33 11.468 8.022 11.44 8.022 11.202C8.022 11.076 8.12 10.978 8.246 10.978H9.898ZM5.95 9.41C6.048 9.41 6.104 9.48 6.104 9.578V9.648C6.104 9.732 6.034 9.802 5.95 9.802H4.186C4.102 9.802 4.032 9.732 4.032 9.648V9.578C4.032 9.48 4.102 9.41 4.186 9.41H5.95ZM9.954 9.41C10.052 9.41 10.122 9.48 10.122 9.578V9.648C10.122 9.732 10.052 9.802 9.954 9.802H8.148C8.064 9.802 7.994 9.732 7.994 9.648V9.578C7.994 9.48 8.064 9.41 8.148 9.41H9.954ZM4.2 8.388C4.102 8.388 4.032 8.304 4.032 8.206V8.178C4.032 8.08 4.102 7.996 4.2 7.996H5.922C6.02 7.996 6.104 8.08 6.104 8.178V8.206C6.104 8.318 6.02 8.374 5.922 8.388H4.2ZM8.176 8.388C8.078 8.374 7.994 8.318 7.994 8.206V8.178C7.994 8.08 8.078 7.996 8.176 7.996H9.94C10.038 7.996 10.122 8.08 10.122 8.178V8.206C10.122 8.304 10.038 8.388 9.94 8.388H8.176ZM11.69 12.854C12.25 12.854 12.628 12.812 12.964 12.308C13.202 11.958 13.51 11.244 13.51 10.81C13.51 10.362 12.684 10.194 12.404 10.18C12.068 10.166 12.026 10.04 12.026 9.69V7.366C12.026 6.96 11.984 6.834 11.494 6.834H2.674C2.198 6.834 2.114 6.918 2.114 7.366C2.114 7.744 2.128 8.136 2.128 8.514V9.858C2.128 10.278 2.1 10.698 2.1 11.104C2.1 11.468 2.296 11.496 2.632 11.496H3.332C3.892 11.496 4.004 11.468 4.004 11.146C4.004 10.992 4.102 10.978 4.354 10.978H5.684C5.894 10.978 6.09 11.118 6.09 11.454V11.524C6.09 12.756 6.762 12.854 7.812 12.854H11.69ZM25.9 6.778C26.138 6.778 26.292 6.96 26.292 7.198V7.31C26.292 8.682 26.334 10.362 26.768 11.664C27.034 12.49 27.538 13.008 28.448 13.008C29.862 13.008 30.184 11.454 30.338 10.348C30.366 10.152 30.394 9.886 30.394 9.718C30.394 9.256 29.722 9.046 29.33 9.046C29.05 9.046 28.966 9.13 28.952 9.382C28.952 9.592 28.882 10.81 28.63 10.81C28.504 10.81 28.49 10.586 28.476 10.488C28.392 9.83 28.364 9.172 28.364 8.514C28.364 7.646 28.406 6.372 28.406 5.882C28.406 5.35 28.294 5.168 27.734 5.168C27.328 5.168 26.922 5.196 26.502 5.196H20.58C19.992 5.196 19.404 5.154 18.802 5.154C18.48 5.154 18.452 5.294 18.452 5.7V6.428C18.452 6.75 18.606 6.806 18.788 6.806C19.39 6.806 19.992 6.778 20.58 6.778H22.232C22.386 6.778 22.582 6.792 22.582 7.002C22.582 7.17 22.302 7.646 22.204 7.814C22.092 8.01 21.952 8.276 21.742 8.276C21.602 8.276 21.49 8.206 21.378 8.136C21.084 7.982 19.992 7.45 19.712 7.45C19.446 7.45 18.648 8.43 18.648 8.696C18.648 8.864 18.83 8.934 18.97 8.976C19.194 9.06 20.412 9.494 20.412 9.732C20.412 10.026 18.494 11.034 18.172 11.174C18.046 11.23 17.836 11.3 17.836 11.454C17.836 11.72 18.62 12.938 18.984 12.938C19.39 12.938 21.672 11.356 22.008 11.006C22.12 10.88 22.218 10.866 22.26 10.866C22.372 10.866 22.456 10.908 22.596 11.02C22.876 11.244 23.366 11.678 23.856 12.084C23.982 12.196 24.122 12.336 24.29 12.336C24.878 12.336 25.354 11.146 25.354 10.894C25.354 10.74 25.242 10.656 25.144 10.572C24.92 10.39 24.332 9.97 24.08 9.802C23.926 9.704 23.632 9.508 23.632 9.298C23.632 9.172 23.716 9.06 23.786 8.962C23.954 8.724 24.122 8.43 24.262 8.178C24.36 7.982 24.402 7.982 24.598 7.968C24.696 7.968 24.822 7.926 24.822 7.814C24.822 7.646 24.402 7.45 24.262 7.38C24.15 7.324 23.38 6.932 23.38 6.862C23.38 6.778 23.562 6.778 23.604 6.778H25.9ZM22.246 1.444C22.176 1.444 22.092 1.416 22.092 1.318C22.092 1.15 22.33 1.052 22.456 1.01C22.554 0.981999 22.75 0.926 22.75 0.8C22.75 0.645999 22.456 0.589999 22.316 0.548C22.022 0.478 20.79 0.141999 20.58 0.141999C20.44 0.141999 20.412 0.267999 20.356 0.407999C19.922 1.57 18.858 2.942 17.892 3.726C17.752 3.852 17.542 3.978 17.542 4.118C17.542 4.496 18.648 5.112 18.872 5.112C19.138 5.112 19.964 4.244 20.16 4.02C20.216 3.95 20.286 3.852 20.37 3.852C20.496 3.852 20.496 4.02 20.496 4.104V4.23C20.496 4.58 20.496 4.748 20.818 4.748C21.238 4.748 21.644 4.734 22.064 4.734H26.53C26.95 4.734 27.356 4.748 27.776 4.748C28.042 4.748 28.098 4.636 28.098 4.342V3.74C28.098 3.446 28.042 3.334 27.762 3.334C27.356 3.334 26.95 3.362 26.53 3.362H22.064C21.728 3.362 21.406 3.334 21.084 3.334C20.874 3.334 20.832 3.32 20.832 3.236C20.832 3.138 21.014 2.942 21.434 2.942H27.664C28.196 2.942 28.728 2.97 29.26 2.97C29.568 2.97 29.596 2.858 29.596 2.48V1.906C29.596 1.528 29.568 1.416 29.246 1.416C28.714 1.416 28.196 1.444 27.664 1.444H22.246ZM35.574 7.17C35.574 8.71 35.784 10.278 36.47 11.664C36.722 12.168 36.848 12.35 37.114 12.35C37.548 12.35 38.584 11.944 38.584 11.426C38.584 11.342 38.556 11.104 38.542 11.02C38.514 10.81 38.486 10.46 38.486 10.362C38.486 9.606 39.102 8.528 39.102 8.332C39.102 8.122 38.542 7.646 38.374 7.646C38.22 7.646 38.136 7.8 38.052 7.94C37.982 8.052 37.912 8.164 37.814 8.164C37.632 8.164 37.632 7.786 37.632 7.016C37.632 5.742 38.024 4.118 38.486 3.04C38.612 2.732 38.682 2.62 39.004 2.466C39.06 2.438 39.102 2.41 39.102 2.354C39.102 2.284 39.018 2.2 38.738 2.074C38.136 1.808 36.792 1.318 36.666 1.318C36.484 1.318 36.47 1.444 36.428 1.71C36.386 1.934 36.316 2.2 36.246 2.466C35.812 4.118 35.574 5.448 35.574 7.17ZM39.83 3.684C39.83 3.838 39.83 4.258 39.942 4.356C40.208 4.58 42.14 4.65 42.56 4.65C43.344 4.65 44.128 4.594 44.912 4.482C45.276 4.426 45.318 4.328 45.318 3.992C45.318 3.642 45.276 3.194 45.234 2.844C45.206 2.634 45.122 2.34 44.856 2.34C44.772 2.34 44.702 2.354 44.576 2.382C43.904 2.55 43.204 2.662 42.504 2.662C41.958 2.662 41.188 2.578 40.656 2.466C40.53 2.438 40.306 2.41 40.222 2.41C39.886 2.41 39.83 2.648 39.83 3.684ZM40.082 8.36C39.76 8.36 39.06 9.774 39.06 10.04C39.06 10.362 40.054 11.482 42.308 11.482C42.938 11.482 45.276 11.272 45.766 11.034C45.948 10.95 45.962 10.852 45.962 10.67C45.962 10.39 45.948 9.592 45.892 9.214C45.878 9.088 45.794 8.906 45.612 8.906C45.514 8.906 45.374 8.934 45.276 8.962C44.282 9.242 43.246 9.41 42.21 9.41C41.3 9.41 40.838 9.172 40.25 8.472C40.208 8.43 40.152 8.36 40.082 8.36ZM55.58 8.472C55.132 8.472 54.67 8.444 54.208 8.444C53.928 8.444 53.9 8.57 53.9 8.878V9.396C53.9 9.718 53.928 9.844 54.208 9.844C54.642 9.844 55.076 9.816 55.51 9.816C55.58 9.816 55.72 9.83 55.72 9.928C55.72 10.138 54.488 10.838 53.9 11.034C53.732 11.09 53.522 11.16 53.522 11.314C53.522 11.636 54.082 12.476 54.656 12.476C55.146 12.476 56.56 11.468 56.924 11.104C57.036 10.992 57.176 10.852 57.33 10.852C57.498 10.852 57.61 10.978 57.708 11.104C57.974 11.412 58.324 11.748 58.646 12C58.814 12.14 59.402 12.574 59.598 12.574C59.738 12.574 59.892 12.462 60.018 12.378C60.116 12.308 60.2 12.252 60.256 12.252C60.354 12.252 60.382 12.322 60.41 12.434C60.55 12.896 60.83 12.966 61.208 12.966C61.754 12.966 62.552 12.896 62.972 12.518C63.378 12.168 63.406 11.678 63.406 11.174C63.406 10.782 63.378 10.404 63.378 10.012V2.9C63.378 2.396 63.406 1.906 63.406 1.402C63.406 0.758 63.112 0.631999 62.636 0.631999C62.188 0.631999 61.74 0.659999 61.292 0.659999H59.878C59.43 0.659999 58.968 0.618 58.52 0.618C57.974 0.618 57.764 0.841999 57.764 1.402C57.764 1.878 57.792 2.354 57.792 2.844V2.984C57.792 3.46 57.764 3.936 57.764 4.426C57.764 4.692 57.848 5.112 58.184 5.168C58.282 5.182 58.394 5.196 58.394 5.336C58.394 5.504 58.002 6.134 57.89 6.302C57.764 6.498 57.68 6.61 57.428 6.61H57.302C57.078 6.61 57.036 6.498 56.966 6.344C56.882 6.162 56.686 5.77 56.602 5.63C56.546 5.532 56.49 5.448 56.49 5.378C56.49 5.28 56.56 5.196 56.644 5.168C56.994 5.042 57.064 4.762 57.064 4.426C57.064 3.936 57.036 3.46 57.036 2.984V2.844C57.036 2.354 57.064 1.878 57.064 1.402C57.064 0.729999 56.728 0.631999 56.294 0.631999C55.846 0.631999 55.398 0.659999 54.95 0.659999H53.522C53.074 0.659999 52.626 0.618 52.164 0.618C51.618 0.618 51.408 0.855999 51.408 1.402C51.408 1.906 51.436 2.396 51.436 2.9V10.39C51.436 11.118 51.408 11.832 51.408 12.546C51.408 12.924 51.548 12.952 51.996 12.952H52.794C53.284 12.952 53.438 12.924 53.438 12.546C53.438 11.832 53.396 11.118 53.396 10.39V5.56C53.396 5.336 53.578 5.168 53.788 5.168H55.034C55.272 5.168 55.328 5.182 55.328 5.238C55.328 5.28 55.216 5.322 55.174 5.336C55.034 5.392 54.656 5.532 54.656 5.714C54.656 5.784 54.712 5.854 54.768 5.924C54.852 6.022 55.174 6.414 55.174 6.498C55.174 6.554 55.118 6.596 55.006 6.596H54.53C54.25 6.596 54.222 6.736 54.222 7.016V7.506C54.222 7.814 54.25 7.954 54.53 7.954C54.95 7.954 55.37 7.926 55.776 7.926H56.238C56.364 7.926 56.462 8.038 56.462 8.164V8.248C56.462 8.374 56.364 8.472 56.238 8.472H55.58ZM60.158 6.022C60.242 5.924 60.256 5.91 60.396 5.896C60.508 5.882 60.606 5.882 60.606 5.714C60.606 5.588 60.466 5.546 60.074 5.42C59.878 5.364 59.794 5.322 59.794 5.266C59.794 5.182 59.934 5.168 59.99 5.168H61.026C61.25 5.168 61.418 5.336 61.418 5.56V10.698C61.418 10.978 61.39 11.188 61.11 11.188C60.634 11.188 60.368 11.034 59.976 10.782C59.822 10.684 58.982 10.096 58.982 9.942C58.982 9.83 59.122 9.816 59.332 9.816C59.766 9.816 60.186 9.844 60.62 9.844C60.886 9.844 60.914 9.69 60.914 9.382V8.948C60.914 8.584 60.9 8.444 60.592 8.444C60.13 8.444 59.682 8.472 59.22 8.472H58.506C58.394 8.472 58.282 8.388 58.282 8.262V8.15C58.282 8.052 58.394 7.926 58.52 7.926H59.01C59.43 7.926 59.836 7.954 60.256 7.954C60.536 7.954 60.564 7.828 60.564 7.506V7.058C60.564 6.736 60.536 6.596 60.256 6.596H60.116C60.018 6.596 59.878 6.568 59.878 6.442C59.878 6.33 59.948 6.26 60.158 6.022ZM55.118 2.214C55.118 2.326 55.048 2.396 54.936 2.396H53.578C53.48 2.396 53.396 2.326 53.396 2.214V2.172C53.396 2.074 53.48 1.99 53.578 1.99H54.936C55.034 1.99 55.118 2.074 55.118 2.172V2.214ZM55.118 3.642C55.118 3.74 55.034 3.81 54.936 3.81H53.578C53.48 3.81 53.396 3.74 53.396 3.642V3.558C53.396 3.46 53.48 3.39 53.578 3.39H54.936C55.048 3.39 55.118 3.46 55.118 3.558V3.642ZM61.418 2.214C61.418 2.326 61.348 2.396 61.236 2.396H59.878C59.78 2.396 59.71 2.326 59.71 2.214V2.172C59.71 2.074 59.78 1.99 59.878 1.99H61.236C61.348 1.99 61.418 2.074 61.418 2.172V2.214ZM61.418 3.642C61.418 3.74 61.348 3.81 61.236 3.81H59.878C59.78 3.81 59.71 3.74 59.71 3.642V3.558C59.71 3.46 59.78 3.39 59.878 3.39H61.236C61.348 3.39 61.418 3.46 61.418 3.558V3.642ZM71.596 0.674C71.428 0.674 71.33 0.729999 71.33 0.911999V1.248C71.33 1.794 71.33 2.34 71.316 2.886C71.316 3.138 71.26 3.264 71.176 3.334C70.938 3.544 69.762 3.572 69.412 3.572H69.216C69.006 3.572 68.796 3.6 68.796 3.894C68.796 4.118 69.02 5.126 69.09 5.392C69.146 5.588 69.23 5.84 69.468 5.84C69.748 5.84 70.532 5.63 70.812 5.546C70.896 5.518 70.98 5.49 71.05 5.49C71.204 5.49 71.246 5.63 71.246 5.77C71.246 5.84 71.19 5.966 71.134 6.064C70.518 7.142 69.706 8.178 68.824 9.06L68.74 9.144C68.6 9.27 68.446 9.41 68.446 9.564C68.446 9.872 69.58 11.09 69.902 11.09C70.028 11.09 70.098 10.964 70.154 10.866C70.266 10.684 70.77 9.858 70.966 9.858C71.134 9.858 71.148 10.012 71.148 10.124C71.148 10.572 71.12 11.608 71.064 12.028C71.05 12.084 71.05 12.182 71.05 12.252C71.05 12.532 71.246 12.532 71.834 12.532C72.268 12.532 72.66 12.518 73.08 12.476C73.29 12.448 73.332 12.406 73.332 12.294C73.332 12.238 73.22 10.6 73.206 10.348C73.178 9.62 73.164 8.878 73.164 8.136V8.01C73.164 7.842 73.178 7.716 73.262 7.548C73.682 6.778 75.278 5.644 76.426 5.644C77.378 5.644 77.91 6.498 77.91 7.366C77.91 8.276 77.336 8.906 76.594 9.354C76.076 9.662 75.376 9.844 74.788 9.984C74.536 10.04 74.298 10.082 74.298 10.404C74.298 10.754 74.704 12.014 75.306 12.014C75.852 12.014 76.86 11.58 77.364 11.314C78.974 10.46 80.094 9.172 80.094 7.282C80.094 5.266 78.638 3.6 76.566 3.6C75.502 3.6 74.564 4.048 73.766 4.734C73.752 4.748 73.71 4.776 73.668 4.818C73.514 4.958 73.304 5.126 73.276 5.126C73.234 5.126 73.206 5.084 73.206 5.042C73.206 4.972 73.318 4.804 73.584 4.496C73.794 4.258 74.004 4.034 74.004 3.922C74.004 3.726 73.654 3.376 73.528 3.25C73.388 3.124 73.304 3.054 73.304 2.858C73.304 2.802 73.318 2.746 73.318 2.69C73.36 2.396 73.388 2.13 73.402 1.99C73.458 1.43 73.458 1.388 73.682 1.206C73.738 1.164 73.766 1.122 73.766 1.038C73.766 0.926 73.682 0.884 73.542 0.855999C73.29 0.8 71.848 0.674 71.596 0.674ZM92.33 1.094C92.232 1.094 92.078 1.164 91.728 1.318C90.93 1.654 88.928 1.808 88.018 1.822H87.696C87.29 1.822 87.248 1.822 87.248 2.032V2.172C87.248 2.438 87.332 4.02 87.654 4.02C87.71 4.02 87.766 4.02 87.822 4.006C88.186 3.95 89.712 3.67 89.754 3.67C89.81 3.67 90.034 3.698 90.034 3.866C90.034 4.006 89.936 4.09 89.838 4.188C89.6 4.454 89.39 4.706 89.124 4.972C88.634 5.448 86.31 7.758 85.96 8.038C85.666 8.262 85.526 8.388 85.526 8.556C85.526 8.822 86.618 9.97 86.94 9.97C86.996 9.97 87.108 9.872 87.304 9.62C87.724 9.102 88.522 8.304 89.026 7.856C89.796 7.17 90.706 6.778 91.728 6.778C92.806 6.778 93.772 7.31 93.772 8.5C93.772 9.424 93.1 10.124 92.764 10.124C92.61 10.124 92.484 9.998 92.428 9.858C92.302 9.564 92.26 9.424 92.05 9.158C91.588 8.598 90.888 8.262 90.16 8.262C89.082 8.262 88.06 9.088 88.06 10.208C88.06 11.818 89.838 12.35 91.154 12.35C93.59 12.35 95.9 11.02 95.9 8.346C95.9 6.764 94.962 5.546 93.45 5.084C93.17 5 92.68 4.916 92.47 4.916C92.414 4.916 92.358 4.93 92.316 4.93C92.148 4.93 91.994 4.804 91.994 4.636C91.994 4.538 92.05 4.454 92.12 4.384C92.624 3.908 93.254 3.334 93.842 2.97C93.912 2.928 93.996 2.858 93.996 2.774C93.996 2.466 92.932 1.094 92.33 1.094ZM90.874 10.446C90.874 10.628 90.706 10.754 90.524 10.754C90.202 10.754 89.726 10.572 89.726 10.194C89.726 9.942 89.95 9.816 90.174 9.816C90.664 9.816 90.874 10.25 90.874 10.446ZM106.694 0.744C106.582 0.744 106.47 0.8 106.442 0.926C106.428 0.967999 106.26 2.214 106.246 2.354C106.19 2.886 106.05 2.9 104.65 2.9C104.258 2.9 103.922 2.858 103.628 2.858C103.376 2.858 103.306 2.914 103.306 4.062C103.306 4.762 103.348 4.762 104.118 4.762C104.552 4.762 104.972 4.734 105.392 4.692C105.504 4.678 105.644 4.664 105.756 4.664C105.91 4.664 106.008 4.734 106.008 4.888C106.008 5.042 105.91 5.168 105.784 5.224C105.266 5.476 104.804 5.742 104.356 6.106C103.306 6.946 102.34 8.318 102.34 9.718C102.34 10.768 103.11 11.664 104.188 11.664C104.776 11.664 105.504 11.44 106.036 11.188C106.064 11.174 106.092 11.16 106.134 11.16C106.204 11.16 106.232 11.188 106.288 11.23C106.358 11.286 106.414 11.328 106.512 11.328C107.002 11.328 108.08 10.516 108.08 10.194C108.08 10.054 108.024 9.9 108.024 9.816C108.024 9.704 108.066 9.648 108.136 9.578C108.85 8.836 109.522 7.926 110.054 7.044C110.138 6.89 110.208 6.806 110.348 6.806C110.6 6.806 111.104 7.464 111.104 8.346C111.104 9.41 110.362 10.096 109.438 10.502C109.088 10.656 108.29 10.95 107.926 11.048C107.786 11.09 107.646 11.118 107.646 11.286C107.646 11.608 108.108 12.91 108.5 12.91C108.724 12.91 109.718 12.602 110.53 12.154C112.028 11.328 113.19 10.096 113.19 8.29C113.19 5.77 111.16 4.58 108.864 4.58C108.584 4.58 108.248 4.594 108.136 4.594C108.052 4.594 107.912 4.594 107.912 4.468C107.912 4.356 108.122 4.3 108.234 4.286C108.934 4.174 109.648 4.062 110.32 3.908C110.628 3.838 110.866 3.768 110.866 3.502C110.866 3.264 110.656 2.494 110.586 2.256C110.53 2.088 110.432 1.92 110.264 1.92C110.208 1.92 110.138 1.948 110.082 1.976C109.536 2.214 108.598 2.466 108.458 2.466C108.346 2.466 108.262 2.382 108.262 2.27C108.262 2.2 108.346 1.976 108.374 1.906C108.444 1.724 108.486 1.682 108.654 1.57C108.71 1.542 108.808 1.486 108.808 1.416C108.808 1.318 108.668 1.262 108.5 1.22C108.234 1.15 106.834 0.744 106.694 0.744ZM105.672 7.604C105.826 7.604 105.854 7.744 105.854 7.87C105.854 7.996 105.84 8.122 105.84 8.262C105.84 8.43 105.854 8.612 105.854 8.78C105.854 8.934 105.854 9.074 105.714 9.186C105.49 9.368 104.916 9.606 104.622 9.606C104.468 9.606 104.356 9.536 104.356 9.368C104.356 8.906 105.378 7.604 105.672 7.604ZM108.206 6.33C108.304 6.33 108.416 6.372 108.416 6.484C108.416 6.61 108.052 7.128 107.898 7.128C107.758 7.128 107.716 6.89 107.716 6.792C107.716 6.652 107.716 6.33 108.206 6.33ZM122.276 1.948C122.276 2.102 122.416 2.172 122.626 2.298C123.354 2.718 124.068 3.194 124.712 3.74C124.81 3.824 124.936 3.936 125.076 3.936C125.482 3.936 126.308 2.718 126.308 2.41C126.308 2.256 126.098 2.116 125.804 1.906C125.412 1.626 124.474 1.038 123.844 0.715999C123.648 0.618 123.452 0.533999 123.354 0.533999C122.892 0.533999 122.276 1.738 122.276 1.948ZM121.506 3.096C121.198 3.096 121.198 3.334 121.198 3.852C121.198 4.916 120.96 7.184 120.428 9.018C120.4 9.102 120.372 9.214 120.372 9.312C120.372 9.802 121.604 9.998 121.828 9.998C122.052 9.998 122.164 9.858 122.29 9.69C123.074 8.682 124.53 7.408 125.874 7.408C126.546 7.408 127.246 7.772 127.246 8.542C127.246 10.026 124.6 10.306 123.508 10.32C123.326 10.32 123.13 10.362 123.13 10.628C123.13 11.02 123.368 11.804 123.578 12.182C123.704 12.406 123.858 12.462 124.11 12.462C124.614 12.462 125.622 12.224 126.126 12.07C126.994 11.804 127.96 11.356 128.59 10.684C129.164 10.068 129.346 9.34 129.346 8.514C129.346 7.702 129.15 7.044 128.604 6.442C127.96 5.728 127.078 5.392 126.126 5.392C125.482 5.392 124.614 5.56 124.04 5.882C123.9 5.966 123.326 6.302 123.2 6.302C123.074 6.302 123.004 6.176 123.004 6.05C123.004 5.938 123.032 5.826 123.046 5.728C123.13 5.322 123.186 4.916 123.284 4.524C123.368 4.188 123.382 4.118 123.564 4.034C123.634 4.006 123.732 3.95 123.732 3.866C123.732 3.712 123.438 3.628 123.102 3.516C122.822 3.418 121.744 3.096 121.506 3.096ZM136.178 7.044C136.178 8.108 136.304 9.746 136.654 10.726C136.724 10.936 136.794 11.104 137.046 11.104C137.34 11.104 137.9 10.936 138.18 10.838C138.432 10.754 138.628 10.67 138.628 10.46C138.628 10.39 138.614 10.32 138.6 10.25C138.516 9.928 138.474 9.62 138.474 9.298C138.474 7.87 139.188 6.498 140.252 5.574C140.462 5.392 141.176 4.874 141.442 4.874C141.708 4.874 141.708 5.196 141.708 5.938C141.708 6.372 141.666 7.926 141.54 8.262C141.512 8.346 141.442 8.43 141.358 8.43C141.064 8.43 140.812 7.52 140.77 7.296C140.714 6.946 140.7 6.778 140.364 6.778C140.042 6.778 139.58 6.918 139.3 7.086C139.104 7.198 139.034 7.352 139.034 7.576C139.034 8.584 139.678 9.69 140.448 10.306C140.574 10.404 140.644 10.516 140.644 10.684C140.644 10.908 140.224 11.412 140.056 11.58C139.986 11.65 139.902 11.734 139.902 11.846C139.902 12.07 140.154 12.266 140.322 12.406C140.518 12.574 141.12 13.05 141.344 13.05C141.54 13.05 141.708 12.91 141.834 12.77C142.142 12.42 142.534 11.776 142.744 11.342C142.87 11.076 142.968 11.02 143.262 10.992C145.544 10.796 146.972 8.962 146.972 6.736C146.972 5.028 146.146 3.67 144.55 3.026C144.298 2.928 144.074 2.872 143.836 2.816C143.654 2.774 143.528 2.746 143.458 2.578C143.402 2.452 143.346 1.976 143.346 1.822C143.346 1.696 143.388 1.584 143.444 1.486C143.5 1.388 143.556 1.304 143.556 1.206C143.556 1.038 143.374 1.024 143.262 1.024C142.772 1.024 142.114 0.954 141.554 0.954C141.344 0.954 141.05 0.967999 141.05 1.248C141.05 1.374 141.106 1.556 141.148 1.696C141.204 1.906 141.344 2.424 141.344 2.564C141.344 2.83 141.162 2.928 140.952 3.012C139.972 3.404 139.16 4.02 138.516 4.86C138.46 4.93 138.39 5 138.32 5C138.236 5 138.194 4.916 138.194 4.846C138.194 4.776 138.446 3.684 138.824 3.432C138.908 3.376 138.936 3.362 138.936 3.292C138.936 3.194 138.824 3.124 138.558 3.026C138.306 2.928 137.004 2.438 136.836 2.438C136.668 2.438 136.64 2.662 136.626 2.774C136.346 4.44 136.178 5.322 136.178 7.044ZM143.906 4.832C144.144 4.832 145.012 5.308 145.012 6.708C145.012 8.262 143.962 8.962 143.682 8.962C143.57 8.962 143.5 8.85 143.5 8.766C143.5 8.724 143.514 8.654 143.528 8.626C143.64 7.898 143.696 6.932 143.696 6.204C143.696 5.84 143.668 5.476 143.668 5.154C143.668 4.986 143.71 4.832 143.906 4.832ZM159.53 1.094C159.432 1.094 159.278 1.164 158.928 1.318C158.13 1.654 156.128 1.808 155.218 1.822H154.896C154.49 1.822 154.448 1.822 154.448 2.032V2.172C154.448 2.438 154.532 4.02 154.854 4.02C154.91 4.02 154.966 4.02 155.022 4.006C155.386 3.95 156.912 3.67 156.954 3.67C157.01 3.67 157.234 3.698 157.234 3.866C157.234 4.006 157.136 4.09 157.038 4.188C156.8 4.454 156.59 4.706 156.324 4.972C155.834 5.448 153.51 7.758 153.16 8.038C152.866 8.262 152.726 8.388 152.726 8.556C152.726 8.822 153.818 9.97 154.14 9.97C154.196 9.97 154.308 9.872 154.504 9.62C154.924 9.102 155.722 8.304 156.226 7.856C156.996 7.17 157.906 6.778 158.928 6.778C160.006 6.778 160.972 7.31 160.972 8.5C160.972 9.424 160.3 10.124 159.964 10.124C159.81 10.124 159.684 9.998 159.628 9.858C159.502 9.564 159.46 9.424 159.25 9.158C158.788 8.598 158.088 8.262 157.36 8.262C156.282 8.262 155.26 9.088 155.26 10.208C155.26 11.818 157.038 12.35 158.354 12.35C160.79 12.35 163.1 11.02 163.1 8.346C163.1 6.764 162.162 5.546 160.65 5.084C160.37 5 159.88 4.916 159.67 4.916C159.614 4.916 159.558 4.93 159.516 4.93C159.348 4.93 159.194 4.804 159.194 4.636C159.194 4.538 159.25 4.454 159.32 4.384C159.824 3.908 160.454 3.334 161.042 2.97C161.112 2.928 161.196 2.858 161.196 2.774C161.196 2.466 160.132 1.094 159.53 1.094ZM158.074 10.446C158.074 10.628 157.906 10.754 157.724 10.754C157.402 10.754 156.926 10.572 156.926 10.194C156.926 9.942 157.15 9.816 157.374 9.816C157.864 9.816 158.074 10.25 158.074 10.446ZM171.64 3.95C171.64 4.076 171.682 4.174 171.78 4.244C172.256 4.566 174.65 4.636 175.308 4.636C176.148 4.636 177.002 4.594 177.842 4.44C178.178 4.384 178.276 4.356 178.276 4.034C178.276 3.796 178.248 3.292 178.234 3.054C178.206 2.564 178.136 2.214 177.814 2.214C177.744 2.214 177.66 2.228 177.59 2.242C176.764 2.424 175.924 2.536 175.084 2.536C174.3 2.536 173.516 2.438 172.774 2.27C172.62 2.228 172.41 2.172 172.256 2.172C171.962 2.172 171.892 2.382 171.864 2.55C171.808 2.858 171.64 3.81 171.64 3.95ZM170.198 8.402C170.198 8.822 170.576 9.592 170.828 9.942C171.766 11.244 173.39 11.426 174.888 11.426C175.966 11.426 178.066 11.286 179.102 11.034C179.438 10.95 179.592 10.866 179.592 10.614C179.592 10.432 179.55 9.718 179.536 9.48C179.508 9.018 179.452 8.724 179.186 8.724C179.088 8.724 178.962 8.752 178.864 8.78C177.66 9.144 176.092 9.27 174.832 9.27C174.104 9.27 173.222 9.242 172.69 8.696C172.466 8.472 172.368 8.08 172.326 7.786C172.298 7.576 172.256 7.436 172.074 7.436C171.906 7.436 170.954 7.842 170.744 7.94C170.394 8.094 170.198 8.206 170.198 8.402ZM188.636 1.458C188.636 1.5 188.664 1.584 188.678 1.626C188.916 2.312 189.112 3.082 189.266 3.768C189.364 4.174 189.462 4.566 189.574 4.944C189.616 5.07 189.658 5.182 189.658 5.28C189.658 5.518 189.532 5.588 189.322 5.714C188.216 6.428 187.222 7.59 187.222 8.976C187.222 9.984 187.754 10.866 188.622 11.37C189.602 11.93 190.568 12 191.674 12C192.444 12 194.866 11.93 195.51 11.762C195.874 11.664 195.888 11.538 195.888 11.118C195.888 10.712 195.874 10.25 195.832 9.844C195.818 9.732 195.776 9.494 195.636 9.494C195.594 9.494 195.538 9.508 195.496 9.508C195.272 9.578 194.306 9.732 194.012 9.774C193.34 9.858 192.598 9.886 191.884 9.886C191.24 9.886 189.462 9.886 189.462 8.948C189.462 8.22 190.428 7.59 191.1 7.17C192.458 6.316 194.236 5.392 195.51 4.958C195.58 4.93 195.65 4.916 195.706 4.888C196 4.79 196.154 4.734 196.154 4.58C196.154 4.314 195.734 3.628 195.58 3.376C195.384 3.054 195.09 2.62 194.936 2.62C194.754 2.62 194.04 3.054 193.83 3.18C193.522 3.362 192.276 4.104 192.01 4.104C191.8 4.104 191.73 3.908 191.688 3.74C191.59 3.362 191.534 2.942 191.45 2.046C191.352 0.996 191.324 0.967999 190.946 0.967999C190.68 0.967999 190.358 1.01 189.812 1.08C188.804 1.206 188.636 1.29 188.636 1.458ZM3.43 25.546C2.716 25.546 2.016 25.504 1.316 25.504C0.91 25.504 0.868 25.714 0.868 26.246V27.198C0.868 27.758 0.91 27.954 1.316 27.954C2.03 27.954 2.73 27.898 3.43 27.898H10.57C11.27 27.898 11.984 27.954 12.684 27.954C13.09 27.954 13.132 27.772 13.132 27.198V26.246C13.132 25.714 13.09 25.504 12.684 25.504C11.984 25.504 11.27 25.546 10.57 25.546H3.43ZM22.232 26.68C22.596 26.68 22.624 27.016 22.624 27.408V27.94C22.624 28.542 22.61 28.626 22.092 28.626C21.854 28.626 21.658 28.598 21.588 28.598C21.266 28.598 21.266 28.85 21.266 29.158C21.266 29.522 21.364 30.152 21.574 30.446C21.7 30.614 21.882 30.614 22.064 30.628C22.134 30.628 22.218 30.642 22.218 30.726C22.218 30.81 22.092 30.824 22.008 30.838C21.042 30.992 20.356 31.076 19.376 31.076C19.026 31.076 18.69 31.062 18.354 31.062C18.186 31.062 18.088 31.062 18.088 31.314C18.088 31.622 18.13 31.944 18.214 32.294C18.354 32.84 18.48 33.008 18.83 33.008C19.068 33.008 19.334 32.994 19.586 32.98C21.098 32.882 22.386 32.77 23.828 32.238C25.004 31.804 26.348 31.062 27.3 30.236C27.356 30.18 27.482 30.068 27.566 30.068C27.58 30.068 27.636 30.082 27.664 30.082C27.72 30.096 27.79 30.11 27.846 30.11C27.958 30.11 28.056 30.068 28.056 29.956C28.056 29.788 27.804 29.662 27.426 29.368C27.398 29.34 27.342 29.298 27.286 29.256C26.978 29.018 26.404 28.584 26.222 28.584C26.124 28.584 26.082 28.64 26.026 28.71C25.886 28.864 25.102 29.648 24.92 29.648C24.836 29.648 24.808 29.592 24.808 29.508V29.466C24.822 29.312 24.836 29.228 24.836 29.074C24.836 28.738 24.794 28.402 24.794 28.066V27.59C24.794 27.226 24.808 27.184 25.018 27.044C25.116 26.974 25.228 26.918 25.228 26.834V26.806C25.214 26.778 25.214 26.778 25.214 26.764C25.214 26.694 25.298 26.68 25.354 26.68H26.194C26.306 26.68 26.39 26.68 26.39 26.82C26.39 26.876 26.32 26.932 26.292 26.96C26.18 27.044 25.788 27.38 25.788 27.506C25.788 27.618 25.97 27.744 26.04 27.8C26.88 28.416 27.65 29.102 28.35 29.872C28.434 29.984 28.658 30.236 28.798 30.236C29.12 30.236 30.072 29.354 30.072 29.004C30.072 28.864 29.82 28.64 29.666 28.486C29.638 28.444 29.61 28.43 29.582 28.402C29.218 28.052 28.644 27.492 28.252 27.198C28.224 27.17 28.182 27.142 28.14 27.114C27.986 27.002 27.832 26.89 27.832 26.806C27.832 26.68 28 26.68 28.084 26.68C28.602 26.68 29.134 26.708 29.652 26.708C29.974 26.708 30.002 26.54 30.002 26.148V25.364C30.002 24.972 29.974 24.804 29.652 24.804C29.036 24.804 28.42 24.846 27.804 24.846H25.214C25.004 24.846 24.822 24.664 24.822 24.454V23.908C24.822 23.684 25.004 23.516 25.214 23.516H26.712C27.468 23.516 27.93 23.558 28.224 23.558C28.686 23.558 28.7 23.46 28.7 22.956V22.144C28.7 21.752 28.672 21.626 28.35 21.626C27.804 21.626 27.258 21.668 26.712 21.668H25.312C25.046 21.668 24.836 21.542 24.836 21.248C24.836 21.094 24.864 20.954 24.976 20.856C25.074 20.758 25.13 20.73 25.13 20.632C25.13 20.464 24.934 20.45 24.808 20.436C24.304 20.38 23.786 20.338 23.268 20.296C23.17 20.282 23.002 20.268 22.89 20.268C22.75 20.268 22.61 20.296 22.61 20.478C22.61 20.52 22.61 20.534 22.624 20.618C22.666 20.912 22.666 21.318 22.666 21.696V24.454C22.666 24.664 22.484 24.846 22.274 24.846H21.462C21.252 24.846 21.07 24.664 21.07 24.454V22.382C21.07 22.018 21.084 21.696 21.21 21.584C21.308 21.5 21.364 21.458 21.364 21.374C21.364 21.192 21.196 21.178 20.944 21.15C20.706 21.122 19.516 21.01 19.32 21.01C19.166 21.01 19.054 21.038 19.054 21.22C19.054 21.402 19.11 21.822 19.11 22.788V24.37C19.11 24.678 18.928 24.832 18.704 24.832C18.452 24.832 18.2 24.804 17.948 24.804C17.626 24.804 17.598 24.972 17.598 25.364V26.148C17.598 26.554 17.626 26.708 17.948 26.708C18.508 26.708 19.068 26.68 19.628 26.68C19.74 26.68 19.866 26.708 19.866 26.848C19.866 26.946 19.6 27.282 19.474 27.45C19.446 27.478 19.432 27.506 19.418 27.52C18.928 28.08 18.382 28.556 17.766 28.976C17.668 29.046 17.528 29.116 17.528 29.256C17.528 29.452 18.48 30.432 18.844 30.432C19.054 30.432 19.306 30.222 19.46 30.096C20.216 29.522 20.93 28.752 21.504 27.982C21.63 27.814 21.686 27.73 21.91 27.702C22.036 27.674 22.176 27.632 22.176 27.478C22.176 27.324 21.868 27.17 21.322 26.876C21.28 26.862 21.196 26.82 21.196 26.764C21.196 26.68 21.28 26.68 21.378 26.68H22.232ZM44.716 27.562C45.318 27.562 45.934 27.604 46.55 27.604C46.886 27.604 46.914 27.45 46.914 27.03V26.232C46.914 25.798 46.886 25.644 46.55 25.644C45.934 25.644 45.332 25.672 44.716 25.672H42.056C41.832 25.672 41.664 25.49 41.664 25.28V24.328C41.664 24.104 41.832 23.936 42.056 23.936H43.988C44.464 23.936 44.94 23.964 45.416 23.964C45.71 23.964 45.738 23.81 45.738 23.376V22.648C45.738 22.172 45.71 22.032 45.402 22.032C44.968 22.032 44.492 22.06 43.988 22.06H42.028C41.762 22.06 41.664 21.864 41.664 21.626V21.304C41.664 20.996 41.678 20.758 41.804 20.632C41.86 20.562 41.958 20.492 41.958 20.408C41.958 20.268 41.79 20.268 41.636 20.254C41.314 20.226 40.068 20.142 39.802 20.142C39.648 20.142 39.508 20.17 39.508 20.352C39.508 20.394 39.508 20.436 39.522 20.478C39.55 20.688 39.564 21.094 39.564 21.304V21.556C39.564 21.822 39.522 22.06 39.2 22.06H38.864C38.696 22.06 38.598 21.962 38.598 21.794C38.598 21.738 38.626 21.43 38.85 21.346C38.976 21.304 39.06 21.262 39.06 21.136C39.06 20.982 38.878 20.926 38.5 20.814C38.262 20.744 37.226 20.436 37.044 20.436C36.918 20.436 36.89 20.562 36.848 20.716C36.526 21.892 35.686 23.572 34.958 24.552C34.902 24.636 34.804 24.748 34.804 24.832C34.804 25.056 35.364 25.35 35.546 25.448C35.588 25.462 35.686 25.518 35.686 25.574C35.686 25.658 35.504 25.658 35.448 25.658C35.224 25.658 35 25.644 34.776 25.644C34.44 25.644 34.412 25.798 34.412 26.218V27.016C34.412 27.45 34.44 27.604 34.776 27.604C35.392 27.604 35.994 27.562 36.61 27.562H37.702C37.982 27.562 38.01 27.702 38.01 27.856C38.01 29.424 35.966 30.922 34.594 31.3C34.468 31.328 34.328 31.37 34.328 31.538C34.328 31.93 35.112 32.896 35.588 32.896C35.84 32.896 36.526 32.518 36.778 32.378C38.29 31.51 39.466 30.278 39.858 28.542C39.872 28.458 39.914 28.43 40.012 28.402C40.124 28.374 40.236 28.332 40.236 28.192C40.236 28.052 40.054 27.996 39.76 27.912C39.676 27.884 39.606 27.87 39.536 27.856C39.27 27.786 39.116 27.744 39.116 27.66C39.116 27.576 39.242 27.562 39.298 27.562H40.516C40.726 27.562 40.908 27.744 40.908 27.954V29.998C40.908 30.166 40.894 30.642 40.894 30.964C40.894 32.378 41.398 32.672 42.742 32.672H44.856C45.682 32.672 46.144 32.518 46.508 31.72C46.704 31.272 46.97 30.278 46.97 29.774C46.97 29.536 46.788 29.466 46.592 29.396C46.298 29.284 45.892 29.186 45.584 29.186C45.22 29.186 45.178 29.368 45.15 29.606C45.052 30.418 44.954 30.712 44.436 30.712H43.274C42.826 30.712 42.812 30.544 42.812 30.152V27.954C42.812 27.744 43.008 27.562 43.204 27.562H44.716ZM37.142 25.672C37.016 25.672 36.834 25.658 36.834 25.504C36.834 25.434 36.876 25.336 36.904 25.294C37.114 24.972 37.31 24.622 37.492 24.3C37.632 24.062 37.73 23.936 38.052 23.936H39.172C39.382 23.936 39.564 24.104 39.564 24.328V25.28C39.564 25.49 39.382 25.672 39.172 25.672H37.142ZM56.588 20.184C56.448 20.184 56.42 20.282 56.378 20.492C56.266 21.01 56 21.738 55.72 22.228C55.608 22.424 55.482 22.48 54.796 22.48C54.334 22.48 53.83 22.452 53.522 22.452C53.074 22.452 53.018 22.466 53.018 23.334C53.018 24.384 53.06 24.426 53.536 24.426C53.718 24.426 53.914 24.412 54.082 24.412C54.194 24.412 54.292 24.496 54.292 24.608C54.292 24.664 54.278 24.706 54.208 24.804C53.76 25.434 52.85 26.89 52.276 27.548C52.108 27.73 52.024 27.814 52.024 27.926C52.024 28.262 53.452 29.046 53.76 29.046C53.872 29.046 53.928 28.976 53.97 28.892C54.376 28.164 54.796 27.422 55.454 26.904C55.874 26.582 56.84 26.092 57.372 26.092C57.624 26.092 57.806 26.26 57.806 26.456C57.806 26.61 57.694 26.68 57.568 26.736C57.316 26.862 57.036 27.016 56.798 27.156C55.776 27.758 54.782 28.514 54.782 29.83C54.782 30.852 55.314 31.594 56.21 32C57.036 32.378 57.68 32.448 58.66 32.448C59.346 32.448 60.746 32.406 61.376 32.28C61.782 32.196 61.81 32.056 61.81 31.524C61.81 30.628 61.796 30.124 61.46 30.124C61.362 30.124 61.236 30.138 61.11 30.166C60.228 30.362 59.402 30.516 58.506 30.516C58.016 30.516 56.826 30.516 56.826 29.816C56.826 29.326 57.526 28.878 57.666 28.878C57.778 28.878 57.834 28.976 57.834 29.074V29.144C57.82 29.27 57.806 29.396 57.806 29.522C57.806 29.956 58.1 29.998 59.066 29.998C59.85 29.998 59.864 29.984 59.864 29.088C59.864 28.78 59.85 28.444 59.85 28.276C59.85 27.898 59.906 27.772 60.242 27.632C60.886 27.366 61.306 27.184 61.978 26.932C62.258 26.834 62.398 26.792 62.398 26.61C62.398 26.288 61.908 24.678 61.558 24.678C61.502 24.678 61.432 24.72 61.376 24.748C61.32 24.776 61.222 24.832 61.096 24.902C60.676 25.14 59.934 25.56 59.794 25.56C59.682 25.56 59.612 25.504 59.556 25.392C59.374 25 59.276 24.818 58.884 24.594C58.604 24.426 58.212 24.37 57.876 24.37C57.456 24.37 57.092 24.44 56.686 24.58C56.658 24.594 56.588 24.622 56.56 24.622C56.504 24.622 56.434 24.594 56.434 24.524C56.434 24.51 56.462 24.202 56.91 24.146C57.778 24.048 58.73 23.88 59.5 23.74C60.27 23.6 60.396 23.544 60.396 23.334C60.396 23.04 60.298 22.48 60.228 22.2C60.172 21.948 60.102 21.654 59.794 21.654C59.668 21.654 59.514 21.71 59.402 21.752C59.108 21.85 58.478 22.06 58.268 22.06C58.17 22.06 58.1 22.018 58.1 21.906C58.1 21.794 58.31 21.444 58.478 21.374C58.576 21.346 58.73 21.304 58.73 21.192C58.73 21.066 58.548 20.968 58.296 20.856C58.072 20.758 56.742 20.184 56.588 20.184ZM73.738 29.62C73.78 29.536 73.822 29.494 73.906 29.466C74.032 29.438 74.228 29.396 74.228 29.228C74.228 29.018 73.584 28.78 73.22 28.64C73.01 28.556 72.842 28.486 72.842 28.416C72.842 28.318 72.968 28.318 73.024 28.318H73.99C74.214 28.318 74.382 28.5 74.382 28.71V30.558C74.382 30.81 74.368 31.286 74.368 31.496C74.368 32.406 74.858 32.742 75.698 32.742H78.092C78.652 32.742 79.296 32.742 79.66 32.35C80.108 31.874 80.416 30.768 80.416 30.124C80.416 29.508 79.296 29.284 78.918 29.284C78.722 29.284 78.624 29.34 78.61 29.536C78.526 30.6 78.498 30.824 77.658 30.824H77.098C76.454 30.824 76.412 30.698 76.412 30.068V28.542C76.412 28.416 76.51 28.318 76.636 28.318H76.678C76.804 28.318 76.846 28.402 76.902 28.5C76.986 28.64 77.168 28.654 77.672 28.654H78.344C78.806 28.654 78.946 28.626 78.946 28.332C78.946 27.982 78.918 27.478 78.918 26.988V22.48C78.918 22.046 78.946 21.626 78.946 21.192C78.946 20.688 78.68 20.59 78.26 20.59C77.784 20.59 77.308 20.618 76.846 20.618H71.568C71.092 20.618 70.616 20.59 70.14 20.59C69.692 20.59 69.468 20.716 69.468 21.192C69.468 21.626 69.482 22.046 69.482 22.48V26.988C69.482 27.464 69.454 27.982 69.454 28.332C69.454 28.612 69.608 28.654 69.86 28.654H70.686C71.26 28.654 71.442 28.654 71.498 28.5C71.526 28.43 71.61 28.318 71.764 28.318C71.89 28.318 71.988 28.416 71.988 28.542C71.988 28.598 71.918 29.102 71.568 29.564C70.84 30.53 69.664 30.838 68.53 30.936C68.194 30.964 67.984 30.978 67.984 31.272C67.984 31.482 68.054 31.776 68.124 31.972C68.236 32.308 68.418 32.91 68.852 32.91C69.118 32.91 69.916 32.728 70.196 32.644C71.862 32.168 73.094 31.258 73.738 29.62ZM71.498 22.592C71.498 22.494 71.582 22.41 71.68 22.41H76.734C76.832 22.41 76.902 22.494 76.902 22.592V22.662C76.902 22.76 76.832 22.844 76.734 22.844H71.68C71.568 22.844 71.498 22.76 71.498 22.662V22.592ZM71.498 24.454C71.498 24.356 71.568 24.272 71.68 24.272H76.734C76.832 24.272 76.902 24.356 76.902 24.454V24.538C76.902 24.636 76.832 24.72 76.734 24.72H71.68C71.582 24.72 71.498 24.636 71.498 24.538V24.454ZM71.498 26.386C71.498 26.274 71.568 26.204 71.68 26.204H76.734C76.832 26.204 76.902 26.274 76.902 26.386V26.456C76.902 26.568 76.832 26.638 76.734 26.638H71.68C71.582 26.638 71.498 26.568 71.498 26.456V26.386ZM87.64 28.542C87.64 28.276 87.668 28.15 87.892 28.038C88.606 27.688 88.704 27.618 88.704 27.086C88.704 26.68 88.704 25.812 88.368 25.812C88.27 25.812 88.172 25.868 88.088 25.91C88.004 25.952 87.892 26.022 87.794 26.022C87.64 26.022 87.64 25.868 87.64 25.742V24.916C87.64 24.636 87.766 24.482 88.046 24.482H88.242C88.578 24.482 88.606 24.328 88.606 23.922V23.152C88.606 22.704 88.578 22.592 88.214 22.592H87.99C87.71 22.592 87.64 22.368 87.64 22.13V21.346C87.64 21.066 87.654 20.926 87.766 20.842C87.85 20.772 87.934 20.73 87.934 20.604C87.934 20.422 87.682 20.408 87.5 20.394C86.982 20.366 86.324 20.338 86.03 20.338C85.82 20.338 85.708 20.366 85.708 20.59C85.708 20.646 85.736 21.29 85.736 21.864V22.172C85.736 22.284 85.736 22.592 85.372 22.592H85.148C84.77 22.592 84.742 22.718 84.742 23.152V23.908C84.742 24.342 84.77 24.482 85.134 24.482C85.218 24.482 85.302 24.468 85.386 24.468C85.68 24.468 85.736 24.692 85.736 24.944V26.26C85.736 26.848 85.624 26.876 84.98 27.058C84.812 27.1 84.616 27.128 84.616 27.338C84.616 27.478 84.798 28.164 84.84 28.332C84.882 28.5 84.924 28.654 84.952 28.78C85.05 29.186 85.092 29.396 85.232 29.396C85.316 29.396 85.386 29.298 85.414 29.228C85.442 29.158 85.498 29.046 85.61 29.046C85.736 29.046 85.736 29.228 85.736 29.326V30.236C85.736 30.936 85.722 31.006 85.232 31.006H85.05C84.77 31.006 84.742 31.244 84.742 31.636C84.742 32.98 85.162 32.98 85.61 32.98C86.856 32.98 87.668 32.644 87.668 31.244C87.668 30.908 87.64 30.572 87.64 30.25V28.542ZM92.96 30.18C92.96 29.97 93.142 29.788 93.352 29.788H94.388C94.612 29.788 94.78 29.97 94.78 30.18V30.432C94.78 30.642 94.612 30.824 94.388 30.824H93.352C93.128 30.824 92.96 30.656 92.96 30.432V30.18ZM91.126 22.83C90.986 22.816 90.902 22.732 90.902 22.606V22.508C90.902 22.382 91 22.284 91.126 22.284H94.598C94.71 22.284 94.822 22.382 94.822 22.508V22.606C94.822 22.732 94.71 22.83 94.598 22.83H91.126ZM92.386 24.44C92.736 24.44 92.848 24.622 92.848 24.958C92.848 25.266 92.638 25.35 92.372 25.35H91.392C91.112 25.35 90.902 25.252 90.902 24.93C90.902 24.566 91.042 24.44 91.392 24.44H92.386ZM94.878 27.562C94.878 27.1 95.2 27.1 95.438 27.1C95.942 27.1 96.432 27.142 96.936 27.142C97.244 27.142 97.272 27.002 97.272 26.61V25.826C97.272 25.448 97.244 25.308 96.922 25.308C96.432 25.308 95.942 25.35 95.452 25.35H95.2C95.032 25.35 94.892 25.266 94.892 25.07C94.892 24.972 94.906 24.776 95.004 24.72C95.032 24.706 95.116 24.664 95.13 24.622C95.158 24.482 95.186 24.44 95.424 24.44H95.816C96.446 24.44 96.796 24.384 96.796 23.768C96.796 23.404 96.754 23.04 96.754 22.69V22.368C96.754 22.032 96.782 21.696 96.782 21.36C96.782 20.828 96.572 20.646 96.054 20.646C95.634 20.646 95.2 20.674 94.766 20.674H90.958C90.51 20.674 90.076 20.646 89.642 20.646C89.138 20.646 88.928 20.842 88.928 21.36C88.928 21.696 88.956 22.032 88.956 22.368V23.586C88.956 24.034 88.97 24.482 88.97 24.93C88.97 26.848 88.844 29.55 88.06 31.3C88.004 31.412 87.892 31.65 87.892 31.762C87.892 32.112 89.04 32.798 89.502 32.798C89.656 32.798 89.712 32.728 89.852 32.378C90.412 30.964 90.734 29.186 90.818 27.632C90.832 27.268 90.916 27.1 91.322 27.1H92.484C92.694 27.1 92.876 27.282 92.876 27.492V27.688C92.876 27.954 92.792 28.164 92.484 28.164C92.372 28.164 92.148 28.15 91.966 28.15C91.546 28.15 91.056 28.192 91.056 28.724C91.056 28.976 91.084 29.326 91.084 29.69V31.72C91.084 32.028 91.056 32.588 91.056 32.728C91.056 32.98 91.238 33.008 91.504 33.008H92.372C92.806 33.008 92.974 32.98 92.988 32.784C93.002 32.616 93.002 32.49 93.282 32.49H94.5C94.556 32.49 94.738 32.49 94.752 32.672C94.78 32.994 94.836 33.008 95.326 33.008H96.152C96.628 33.008 96.754 32.98 96.754 32.714C96.754 32.588 96.712 32.154 96.712 31.72V29.69C96.712 29.298 96.74 28.948 96.74 28.724C96.74 28.192 96.25 28.15 95.83 28.15C95.634 28.15 95.41 28.164 95.284 28.164C94.878 28.164 94.878 27.814 94.878 27.66V27.562ZM109.144 23.152C109.116 23.166 109.06 23.18 109.018 23.18C108.92 23.18 108.836 23.096 108.836 22.998C108.836 22.942 108.85 22.886 108.878 22.816C108.962 22.592 109.186 21.934 109.186 21.71C109.186 21.486 108.962 21.43 108.444 21.276C107.8 21.08 107.156 20.856 106.526 20.646C106.372 20.59 106.204 20.534 106.05 20.534C105.882 20.534 105.854 20.576 105.644 21.15C105.504 21.528 105.35 22.046 105.35 22.172C105.35 22.424 105.602 22.48 106.162 22.634C106.708 22.788 107.212 22.984 107.744 23.166C107.87 23.208 107.94 23.25 107.94 23.348C107.94 23.446 107.842 23.474 107.716 23.502C106.582 23.74 105.322 23.992 104.174 24.062C103.964 24.076 103.824 24.132 103.824 24.342C103.824 24.692 104.286 25.504 104.51 25.868C104.65 26.092 104.762 26.148 104.902 26.148C105.154 26.148 105.91 25.924 106.19 25.854C106.33 25.812 107.114 25.574 107.17 25.574C107.254 25.574 107.31 25.63 107.31 25.7C107.31 25.798 107.198 25.91 107.128 25.98C106.568 26.582 106.008 27.184 105.462 27.8C104.832 28.5 103.46 29.97 103.11 30.264C102.564 30.712 102.396 30.922 102.396 31.076C102.396 31.552 103.656 32.532 104.034 32.532C104.16 32.532 104.3 32.336 104.538 32.028C104.916 31.552 106.932 28.43 108.038 28.43C108.206 28.43 108.262 28.57 108.262 28.71C108.262 29.214 108.038 30.012 108.038 30.642C108.038 31.692 108.99 32.434 109.984 32.434C110.754 32.434 112.126 32.014 112.826 31.664C113.05 31.552 113.106 31.468 113.106 30.978C113.106 30.712 113.05 29.844 113.008 29.578C112.994 29.466 112.966 29.326 112.826 29.326C112.63 29.326 112.308 29.522 112.084 29.662C112.042 29.69 112 29.718 111.972 29.732C111.58 29.97 110.768 30.432 110.306 30.432C110.124 30.432 110.068 30.32 110.068 30.152C110.068 29.998 110.138 29.564 110.166 29.396C110.222 29.032 110.264 28.668 110.264 28.304C110.264 27.618 110.054 27.1 109.382 26.848C109.158 26.764 109.06 26.708 109.06 26.54C109.06 26.442 109.186 26.302 109.396 26.106C109.746 25.784 110.502 25.098 110.866 24.832C110.992 24.748 111.132 24.664 111.132 24.496C111.132 24.244 110.278 22.97 109.872 22.97C109.718 22.97 109.368 23.082 109.144 23.152ZM119.588 25.196C119.644 25.196 119.742 25.182 119.798 25.168C120.526 24.958 121.478 24.748 122.22 24.608C122.43 24.566 122.836 24.482 122.976 24.482C123.13 24.482 123.228 24.566 123.228 24.692C123.228 24.804 123.144 24.916 123.088 25C122.346 26.064 121.94 27.17 121.94 28.472C121.94 31.496 124.11 32.168 126.714 32.168C127.008 32.168 127.176 32.14 127.302 31.846C127.442 31.51 127.54 30.614 127.54 30.208C127.54 29.942 127.442 29.9 127.19 29.9C126.98 29.9 126.532 29.942 126.168 29.942C124.936 29.942 124.25 29.578 124.25 28.248C124.25 26.4 125.412 24.776 127.134 24.16C127.848 23.908 128.408 23.922 129.15 23.908C129.724 23.894 129.892 23.894 129.892 23.628C129.892 23.264 129.794 22.438 129.724 22.074C129.682 21.85 129.612 21.612 129.36 21.612C129.318 21.612 129.276 21.612 129.234 21.626C128.226 21.808 127.106 21.948 126.098 22.074C124.04 22.326 121.996 22.522 119.938 22.634C119.196 22.676 119 22.676 119 23.11C119 23.474 119.14 24.23 119.224 24.608C119.266 24.804 119.35 25.196 119.588 25.196ZM136.598 28.402C136.598 28.822 136.976 29.606 137.214 29.942C138.166 31.258 139.776 31.426 141.274 31.426C142.366 31.426 144.466 31.286 145.488 31.034C145.838 30.95 145.978 30.88 145.978 30.628C145.978 30.25 145.978 30.04 145.894 29.144C145.866 28.85 145.74 28.724 145.586 28.724C145.488 28.724 145.362 28.752 145.264 28.78C144.06 29.158 142.492 29.284 141.218 29.284C140.49 29.284 139.622 29.256 139.076 28.696C138.866 28.486 138.74 28.024 138.712 27.786C138.698 27.632 138.67 27.45 138.46 27.45C138.306 27.45 137.312 27.87 137.144 27.94C136.948 28.024 136.598 28.164 136.598 28.402ZM145.67 21.402C145.516 21.402 144.802 21.92 144.802 22.116C144.802 22.186 144.858 22.228 144.956 22.326C145.222 22.592 145.502 22.858 145.74 23.152C145.782 23.194 145.81 23.236 145.852 23.278C145.992 23.446 146.104 23.586 146.188 23.586C146.342 23.586 147 23.054 147 22.802C147 22.578 146.09 21.724 145.894 21.542C145.824 21.472 145.74 21.402 145.67 21.402ZM147.014 20.17C146.888 20.17 146.16 20.674 146.16 20.898C146.16 20.968 146.244 21.052 146.286 21.094C146.594 21.388 146.888 21.668 147.168 22.004C147.378 22.27 147.448 22.368 147.532 22.368C147.686 22.368 148.358 21.822 148.358 21.57C148.358 21.36 147.154 20.17 147.014 20.17ZM138.572 22.158C138.376 22.158 138.264 22.27 138.208 22.438C138.152 22.62 137.928 23.768 137.928 23.95C137.928 24.118 138.054 24.216 138.194 24.272C139.006 24.594 141.162 24.692 142.086 24.692C142.758 24.692 143.57 24.65 144.228 24.538C144.522 24.482 144.564 24.398 144.564 24.104C144.564 23.698 144.55 23.292 144.522 22.886C144.508 22.676 144.452 22.326 144.144 22.326C144.06 22.326 143.99 22.34 143.92 22.354C143.164 22.494 142.408 22.578 141.652 22.578C140.63 22.578 139.748 22.438 139.104 22.256C138.95 22.214 138.698 22.158 138.572 22.158ZM159.334 20.632C158.956 20.632 158.564 20.618 158.186 20.618C157.92 20.618 157.64 20.66 157.64 20.996C157.64 21.248 157.654 21.556 157.654 21.892V24.44C157.654 24.776 157.64 25.098 157.64 25.35C157.64 25.686 157.934 25.714 158.2 25.714C158.578 25.714 158.956 25.7 159.334 25.7H161.742C162.134 25.7 162.512 25.714 162.904 25.714C163.17 25.714 163.45 25.686 163.45 25.35C163.45 25.084 163.422 24.762 163.422 24.44V21.892C163.422 21.57 163.45 21.262 163.45 20.996C163.45 20.646 163.156 20.618 162.89 20.618C162.512 20.618 162.12 20.632 161.742 20.632H159.334ZM159.502 22.228C159.502 22.102 159.6 22.004 159.726 22.004H161.35C161.476 22.004 161.574 22.102 161.574 22.228V22.326C161.574 22.452 161.476 22.55 161.35 22.55H159.726C159.6 22.55 159.516 22.466 159.502 22.326V22.228ZM159.502 23.992C159.516 23.852 159.6 23.768 159.726 23.768H161.35C161.476 23.768 161.574 23.866 161.574 23.992V24.118C161.574 24.23 161.476 24.342 161.35 24.342H159.726C159.6 24.342 159.502 24.23 159.502 24.118V23.992ZM159.796 30.18C159.796 30.446 159.782 30.53 159.642 30.53C159.46 30.53 158.788 30.026 158.788 29.578C158.788 29.452 158.83 29.298 158.858 29.172C158.886 29.018 158.928 28.976 159.054 28.906C159.138 28.878 159.222 28.822 159.222 28.724C159.222 28.542 159.026 28.528 158.564 28.416C158.368 28.374 157.486 28.178 157.346 28.178C157.136 28.178 157.136 28.304 157.122 28.472C156.996 29.452 156.422 30.992 155.862 31.79C155.792 31.874 155.68 32.014 155.68 32.126C155.68 32.574 156.884 32.868 157.192 32.868C157.5 32.868 157.766 32.266 158.018 31.748C158.074 31.636 158.158 31.426 158.298 31.426C158.41 31.426 158.494 31.524 158.55 31.594C159.362 32.532 160.594 32.742 161.77 32.742C162.386 32.742 163.016 32.742 163.632 32.742C163.8 32.742 164.024 32.742 164.15 32.616C164.388 32.378 164.5 31.678 164.5 31.328C164.5 31.02 164.332 30.88 164.024 30.88C163.954 30.88 163.87 30.88 163.814 30.894C163.534 30.908 162.932 30.95 162.652 30.95H162.302C161.784 30.95 161.672 30.894 161.672 30.572V30.334C161.672 30.18 161.798 30.054 161.952 30.054H162.302C162.764 30.054 163.226 30.096 163.688 30.096C163.94 30.096 163.968 29.984 163.968 29.648V28.836C163.968 28.514 163.94 28.402 163.688 28.402C163.226 28.402 162.764 28.43 162.302 28.43H161.952C161.798 28.43 161.672 28.318 161.672 28.164V28.052C161.672 27.912 161.798 27.786 161.952 27.786H162.722C163.338 27.786 163.744 27.814 163.996 27.814C164.43 27.814 164.486 27.73 164.486 27.254V26.68C164.486 26.274 164.458 26.134 164.08 26.134C163.632 26.134 163.184 26.162 162.722 26.162H158.522C158.074 26.162 157.626 26.134 157.178 26.134C156.814 26.134 156.772 26.274 156.772 26.652V27.282C156.772 27.66 156.8 27.814 157.15 27.814C157.612 27.814 158.074 27.786 158.522 27.786H159.404C159.628 27.786 159.796 27.968 159.796 28.178V30.18ZM153.272 26.19C153.272 26.694 153.188 26.778 152.698 26.904C152.6 26.932 152.516 26.946 152.39 26.974C151.984 27.072 151.802 27.114 151.802 27.31C151.802 27.422 151.858 27.618 151.886 27.73C151.942 27.982 151.998 28.178 152.04 28.36C152.194 29.018 152.236 29.2 152.404 29.2C152.516 29.2 152.586 29.13 152.628 29.032C152.754 28.808 153.034 28.766 153.104 28.766C153.272 28.766 153.272 28.878 153.272 29.046V30.656C153.272 30.768 153.258 30.936 152.964 30.936C152.838 30.936 152.628 30.894 152.53 30.894C152.194 30.894 152.152 31.188 152.152 31.454C152.152 31.804 152.208 32.392 152.39 32.7C152.488 32.896 152.698 32.952 153.104 32.952C153.65 32.952 154.378 32.91 154.798 32.546C155.148 32.252 155.176 31.832 155.176 31.412C155.176 31.076 155.148 30.726 155.148 30.39V28.514C155.148 28.192 155.204 28.052 155.526 27.926C156.548 27.534 156.646 27.506 156.646 26.778C156.646 26.554 156.618 25.714 156.296 25.714C156.198 25.714 156.044 25.784 155.946 25.826C155.806 25.896 155.47 26.036 155.33 26.036C155.162 26.036 155.148 25.91 155.148 25.658V24.944C155.148 24.678 155.218 24.412 155.54 24.412C155.708 24.412 155.876 24.44 156.044 24.44C156.394 24.44 156.422 24.286 156.422 23.88V23.096C156.422 22.69 156.38 22.55 156.03 22.55C155.862 22.55 155.68 22.578 155.498 22.578C155.232 22.578 155.148 22.396 155.148 22.046V21.486C155.148 21.108 155.148 20.912 155.302 20.814C155.4 20.744 155.498 20.702 155.498 20.562C155.498 20.366 155.176 20.366 155.036 20.366C154.616 20.338 153.93 20.296 153.538 20.296C153.384 20.296 153.23 20.31 153.23 20.506C153.23 20.632 153.272 21.122 153.272 21.864V22.046C153.272 22.34 153.23 22.578 152.88 22.578C152.698 22.578 152.53 22.55 152.348 22.55C151.984 22.55 151.956 22.704 151.956 23.138V23.88C151.956 24.286 151.984 24.44 152.348 24.44C152.53 24.44 152.726 24.412 152.908 24.412C153.202 24.412 153.272 24.566 153.272 24.888V26.19ZM171.318 29.998C171.416 29.998 171.612 29.998 171.612 30.138C171.612 30.432 169.386 31.272 169.036 31.37C168.882 31.412 168.686 31.468 168.686 31.608C168.686 31.762 168.84 31.972 169.12 32.35C169.288 32.56 169.61 32.98 169.89 32.98C170.17 32.98 171.402 32.308 171.71 32.14C172.312 31.79 173.082 31.314 173.614 30.866C173.684 30.81 173.754 30.768 173.796 30.768C173.992 30.768 173.992 30.95 173.992 31.034C173.992 31.552 173.95 32.056 173.95 32.574C173.95 32.938 174.118 32.966 174.58 32.966H175.406C175.868 32.966 176.022 32.938 176.022 32.574C176.022 32.098 175.994 31.608 175.994 31.132C175.994 31.006 175.994 30.852 176.176 30.852C176.246 30.852 176.316 30.908 176.372 30.95C176.988 31.426 177.66 31.832 178.332 32.224C179.102 32.63 179.774 32.98 179.97 32.98C180.376 32.98 181.188 31.874 181.188 31.622C181.188 31.468 181.09 31.44 180.894 31.384C180.054 31.118 179.06 30.726 178.346 30.278C178.248 30.222 178.122 30.152 178.122 30.082C178.122 29.998 178.22 29.998 178.29 29.998H179.27C179.802 29.998 180.334 30.026 180.88 30.026C181.216 30.026 181.244 29.914 181.244 29.508V28.962C181.244 28.598 181.216 28.472 180.88 28.472C180.334 28.472 179.802 28.5 179.27 28.5H176.316C176.148 28.5 176.064 28.416 176.064 28.29C176.064 28.22 176.092 28.164 176.148 28.108C176.26 28.024 176.33 27.982 176.33 27.898C176.33 27.8 176.26 27.758 176.134 27.73C175.994 27.702 175.7 27.674 175.532 27.66C175.28 27.646 175.238 27.632 175.238 27.576C175.238 27.506 175.308 27.478 175.378 27.45C175.714 27.296 176.022 27.156 176.218 27.156C176.68 27.156 178.15 27.842 178.598 28.094C178.682 28.15 178.878 28.262 178.962 28.262C179.382 28.262 180.054 27.212 180.054 26.89C180.054 26.736 179.886 26.68 179.648 26.582C179.2 26.4 178.738 26.232 178.276 26.092C178.15 26.05 178.024 26.022 178.024 25.854C178.024 25.756 178.08 25.686 178.136 25.616C178.178 25.574 178.22 25.518 178.262 25.476C178.43 25.266 178.57 25.084 178.906 25.084C179.186 25.084 179.466 25.112 179.76 25.112C179.984 25.112 180.11 25.056 180.11 24.818C180.11 24.538 180.194 24.454 180.474 24.454C180.992 24.454 181.118 24.44 181.118 24.174C181.118 23.978 181.09 23.782 181.09 23.558V22.438C181.09 22.186 181.104 21.948 181.104 21.864C181.104 21.472 180.544 21.472 180.208 21.472C179.704 21.472 179.2 21.5 178.682 21.5H176.54C176.26 21.5 176.148 21.318 176.148 21.15C176.148 20.996 176.19 20.94 176.288 20.828C176.358 20.772 176.442 20.702 176.442 20.618C176.442 20.436 176.176 20.436 176.05 20.436C175.42 20.436 174.804 20.38 174.188 20.38C174.048 20.38 173.852 20.38 173.852 20.576C173.852 20.744 173.894 20.982 173.894 21.136C173.894 21.262 173.81 21.5 173.418 21.5H171.318C170.814 21.5 170.31 21.472 169.792 21.472C169.47 21.472 168.896 21.472 168.896 21.864C168.896 21.948 168.91 22.186 168.91 22.438V23.572C168.91 23.824 168.896 24.062 168.896 24.258C168.896 24.496 169.12 24.51 169.372 24.51H169.694C169.848 24.51 169.974 24.636 169.988 24.79C170.002 24.986 170.016 25.112 170.338 25.112C170.66 25.112 170.982 25.084 171.304 25.084C171.346 25.084 171.416 25.084 171.416 25.14C171.416 25.224 171.15 25.434 171.08 25.49C171.038 25.518 170.954 25.588 170.954 25.658C170.954 25.938 172.102 26.47 172.396 26.47C172.466 26.47 172.522 26.456 172.578 26.428C172.676 26.372 172.76 26.33 172.872 26.33C172.942 26.33 173.292 26.358 173.292 26.456C173.292 26.526 172.928 26.568 172.858 26.568C172.13 26.68 171.43 26.68 170.702 26.68H170.548C170.394 26.68 170.282 26.708 170.282 26.89C170.282 27.058 170.478 27.52 170.548 27.688C170.744 28.122 170.856 28.29 171.164 28.29C171.668 28.29 173.124 28.094 173.614 27.982C173.656 27.968 173.684 27.968 173.712 27.968C173.852 27.968 173.978 28.08 173.978 28.22C173.978 28.36 173.894 28.5 173.684 28.5H170.8C170.268 28.5 169.722 28.472 169.19 28.472C168.854 28.472 168.826 28.584 168.826 28.962V29.508C168.826 29.914 168.854 30.026 169.19 30.026C169.722 30.026 170.268 29.998 170.8 29.998H171.318ZM175.714 25.084C175.784 25.084 175.924 25.084 175.924 25.182C175.924 25.252 175.63 25.588 175.294 25.588C175.238 25.588 175.182 25.574 175.126 25.574C174.762 25.518 174.398 25.462 174.034 25.42C173.922 25.406 173.782 25.378 173.782 25.294C173.782 25.112 174.174 25.084 174.3 25.084H175.714ZM175.63 23.67C175.49 23.67 175.308 23.67 175.308 23.502C175.308 23.418 175.336 23.376 175.378 23.32C175.56 23.068 175.644 22.956 176.12 22.956H178.808C178.948 22.956 179.074 23.082 179.074 23.222V23.348C179.074 23.642 178.878 23.67 178.654 23.67H175.63ZM172.914 22.956C173.026 22.956 173.194 22.97 173.194 23.124C173.194 23.138 173.068 23.67 172.41 23.67H171.136C170.954 23.67 170.856 23.558 170.856 23.376V23.292C170.856 23.11 171.01 22.956 171.192 22.956H172.914ZM187.81 28.486C186.704 28.486 185.822 29.382 185.822 30.488C185.822 31.594 186.718 32.49 187.81 32.49C188.916 32.49 189.812 31.594 189.812 30.488C189.812 29.382 188.916 28.486 187.81 28.486ZM187.81 29.312C188.468 29.312 189 29.83 189 30.488C189 31.132 188.468 31.664 187.81 31.664C187.166 31.664 186.634 31.132 186.634 30.488C186.634 29.83 187.166 29.312 187.81 29.312Z" fill="white"/>
</g>
</svg>
