<?xml version="1.0" encoding="utf-8"?>
<!-- Generator: Adobe Illustrator 24.0.2, SVG Export Plug-In . SVG Version: 6.00 Build 0)  -->
<svg version="1.1" id="レイヤー_1" xmlns="http://www.w3.org/2000/svg" xmlns:xlink="http://www.w3.org/1999/xlink" x="0px"
	 y="0px" viewBox="0 0 81.824 140.651" style="enable-background:new 0 0 81.824 140.651;" xml:space="preserve">
<style type="text/css">
	.st0{fill-rule:evenodd;clip-rule:evenodd;fill:#479AD5;}
</style>
<g>
	<path class="st0" d="M9.131,112.872c2.809,3.868,6.321,7.736,10.184,11.252c4.214,3.516,8.428,6.329,12.994,9.142
		c4.214,2.461,9.131,4.923,14.398,7.384l0,0c0.351,0,0.351,0,0.351,0c-4.214-7.736-5.97-14.417-5.97-20.394
		c0-3.165,0.702-5.978,2.107-8.791c1.405-2.813,3.512-5.274,5.97-7.384c2.107-2.461,4.916-4.571,7.726-6.681
		c3.161-2.11,5.97-4.571,8.779-7.033c3.161-2.813,5.619-5.274,8.077-8.087c2.458-2.813,4.565-6.329,5.97-10.549
		c1.405-3.868,2.107-8.439,2.107-13.01c0-5.978-0.702-11.604-2.458-16.878c-1.756-5.274-3.863-9.846-6.672-13.713
		c-2.809-4.22-5.97-7.736-10.184-11.252c-4.214-3.516-8.428-6.681-12.642-9.142C45.302,4.923,40.737,2.461,35.118,0l0,0
		c-0.351,0-0.351,0-0.351,0c4.214,8.087,6.321,14.768,6.321,20.394c0,3.165-1.054,6.329-2.458,9.142
		c-1.405,2.461-3.512,5.274-5.97,7.384c-2.107,2.11-4.916,4.22-7.726,6.681c-3.161,2.11-5.97,4.571-8.779,7.033
		c-3.161,2.461-5.619,5.274-8.077,8.087s-4.565,6.329-5.97,10.197C0.702,73.138,0,77.358,0,82.281
		c0,5.978,0.702,11.604,2.458,16.878C4.214,104.433,6.321,109.004,9.131,112.872L9.131,112.872z M9.131,112.872L9.131,112.872"/>
</g>
</svg>
