<?xml version="1.0" encoding="utf-8"?>
<!-- Generator: Adobe Illustrator 24.0.2, SVG Export Plug-In . SVG Version: 6.00 Build 0)  -->
<svg version="1.1" id="レイヤー_1" xmlns="http://www.w3.org/2000/svg" xmlns:xlink="http://www.w3.org/1999/xlink" x="0px"
	 y="0px" viewBox="0 0 135.591 151.03" style="enable-background:new 0 0 135.591 151.03;" xml:space="preserve">
<style type="text/css">
	.st0{fill:#F4E829;}
	.st1{fill:url(#SVGID_1_);}
	.st2{fill:url(#SVGID_2_);}
</style>
<g>
	<polygon class="st0" points="50.102,63.264 74.39,63.264 49.533,92.894 69.841,92.894 21.843,141.691 47.151,102.456 
		24.054,102.456 	"/>
	<g>
		<linearGradient id="SVGID_1_" gradientUnits="userSpaceOnUse" x1="-3.0229" y1="101.9346" x2="85.1347" y2="13.777">
			<stop  offset="0" style="stop-color:#7DC4E7"/>
			<stop  offset="0.5738" style="stop-color:#45A3DA"/>
			<stop  offset="0.9" style="stop-color:#1E95D4"/>
		</linearGradient>
		<path class="st1" d="M96.067,24.71c-48.202-8.672-126.293,41.461-83.873,92.443C15.28,59.899,61.359,36.284,96.067,24.71z"/>
		<linearGradient id="SVGID_2_" gradientUnits="userSpaceOnUse" x1="21.606" y1="154.2312" x2="155.7139" y2="20.1233">
			<stop  offset="0" style="stop-color:#7DC4E7"/>
			<stop  offset="0.5738" style="stop-color:#45A3DA"/>
			<stop  offset="0.9" style="stop-color:#1E95D4"/>
		</linearGradient>
		<path class="st2" d="M135.591,0c-11.989,6.353-33.03,23.789-46.146,65.745c-12.878,41.193-29.472,70.273-71.88,84.444
			c25.1,4.837,93.367-10.132,101.733-73.115C125.386,31.232,127.228,12.332,135.591,0z"/>
	</g>
</g>
</svg>
