<?xml version="1.0" encoding="utf-8"?>
<!-- Generator: Adobe Illustrator 25.0.1, SVG Export Plug-In . SVG Version: 6.00 Build 0)  -->
<svg version="1.1" id="レイヤー_1" xmlns="http://www.w3.org/2000/svg" xmlns:xlink="http://www.w3.org/1999/xlink" x="0px"
	 y="0px" width="220.496px" height="55.563px" viewBox="0 0 220.496 55.563" style="enable-background:new 0 0 220.496 55.563;"
	 xml:space="preserve">
<style type="text/css">
	.st0{fill:#3E3A39;}
	.st1{fill:#F29600;}
</style>
<g>
	<g>
		<g>
			<path class="st0" d="M69.012,10.187c0.017,0.156,0.07,0.677-0.598,0.677c-0.504,0-0.555-0.346-0.583-0.573l-0.424-4.155
				l-1.587,0.156C65.63,6.31,65.162,6.335,65.162,5.71c0-0.417,0.251-0.519,0.546-0.546l1.588-0.138l-0.14-1.286
				C67.139,3.576,67.095,3.1,67.781,3.1c0.46,0,0.53,0.269,0.554,0.529l0.14,1.294l3.226-0.288c0.694-0.061,1.015,0.157,1.015,0.712
				c0,0.355-0.329,1.717-1.517,2.758c-0.495,0.434-0.677,0.452-0.808,0.452c-0.303,0-0.598-0.27-0.598-0.556
				c0-0.217,0.087-0.286,0.669-0.754c0.564-0.46,0.91-1.223,0.91-1.39c0-0.129-0.139-0.112-0.217-0.105l-2.567,0.261L69.012,10.187z
				"/>
			<path class="st0" d="M82.47,3.959c0.598,0,1.292,0.174,1.292,1.075c0,0.607-0.373,2.342-1.527,3.67
				c-1.352,1.551-3.469,2.013-3.861,2.013c-0.476,0-0.58-0.469-0.58-0.643c0-0.347,0.287-0.442,0.659-0.537
				c2.576-0.669,3.478-2.099,3.85-3.323c0.122-0.39,0.182-0.755,0.182-0.876c0-0.243-0.156-0.243-0.278-0.243h-4.769
				c-0.14,0-0.582,0-0.582-0.563c0-0.573,0.442-0.573,0.582-0.573H82.47z M83.233,3.135c0.087,0.147,0.26,0.478,0.26,0.633
				c0,0.165-0.148,0.277-0.32,0.277c-0.166,0-0.217-0.096-0.347-0.39c-0.035-0.087-0.139-0.27-0.2-0.374
				c-0.035-0.052-0.063-0.147-0.063-0.217c0-0.182,0.227-0.252,0.296-0.252C83.007,2.813,83.068,2.866,83.233,3.135z M84.257,3.005
				c0.103,0.182,0.25,0.468,0.25,0.632c0,0.148-0.147,0.271-0.303,0.271c-0.139,0-0.165-0.019-0.408-0.487
				c-0.199-0.381-0.226-0.424-0.226-0.51c0-0.165,0.199-0.252,0.303-0.252C84.032,2.658,84.1,2.726,84.257,3.005z"/>
			<path class="st0" d="M90.505,7.342c-0.391-0.208-0.521-0.252-1.675-0.703c-0.252-0.095-0.494-0.209-0.494-0.53
				c0-0.173,0.094-0.572,0.504-0.572c0.311,0,1.248,0.347,1.726,0.556c0.677,0.286,0.936,0.407,0.936,0.789
				c0,0.261-0.174,0.616-0.519,0.616C90.869,7.498,90.73,7.454,90.505,7.342z M95.648,5.286c0,0.286-0.711,2.42-2.349,3.738
				c-1.641,1.327-3.652,1.561-3.931,1.561c-0.598,0-0.598-0.589-0.598-0.634c0-0.459,0.399-0.527,0.642-0.563
				c0.685-0.112,2.09-0.33,3.304-1.362c0.929-0.799,1.442-1.995,1.528-2.221c0.329-0.823,0.346-0.85,0.451-0.944
				c0.06-0.063,0.146-0.106,0.312-0.106C95.119,4.756,95.648,4.835,95.648,5.286z M91.233,5.087
				c-0.415-0.217-0.539-0.261-1.674-0.694c-0.234-0.086-0.494-0.208-0.494-0.528c0-0.167,0.086-0.582,0.503-0.582
				c0.32,0,1.267,0.364,1.726,0.555c0.694,0.296,0.937,0.417,0.937,0.798c0,0.269-0.182,0.617-0.522,0.617
				C91.597,5.251,91.458,5.199,91.233,5.087z"/>
			<path class="st0" d="M106.113,3.941c0.633,0,0.866,0.313,0.866,0.763c0,0.356-0.355,2.439-1.683,3.939
				c-1.578,1.787-4.058,2.152-4.275,2.152c-0.418,0-0.574-0.312-0.574-0.59c0-0.373,0.096-0.408,0.946-0.624
				c1.709-0.443,2.351-1.023,2.673-1.31c-0.721-0.564-1.787-1.223-2.552-1.665c-0.459,0.408-0.728,0.564-0.989,0.564
				c-0.295,0-0.562-0.286-0.562-0.59c0-0.217,0.086-0.303,0.467-0.581c0.886-0.651,1.388-1.371,1.779-2.109
				c0.139-0.269,0.278-0.381,0.537-0.381c0.217,0,0.609,0.112,0.625,0.434H106.113z M102.894,5.018
				c-0.252,0.364-0.442,0.597-0.598,0.779c0.286,0.14,1.742,0.972,2.515,1.589c0.546-0.859,0.867-2.005,0.867-2.213
				c0-0.156-0.121-0.156-0.321-0.156H102.894z"/>
			<path class="st0" d="M114.694,8.928c-0.424,0.687-0.885,1.051-1.526,1.051c-1.128,0-1.744-1.153-1.744-2.532
				c0-2.648,1.97-4.052,4.155-4.052c2.646,0,3.704,1.727,3.704,3.617c0,0.435,0,1.934-1.578,2.974
				c-0.893,0.599-1.961,0.678-2.098,0.678c-0.574,0-0.583-0.53-0.583-0.598c0-0.451,0.322-0.503,0.643-0.546
				c0.694-0.105,2.421-0.374,2.421-2.585c0-1.423-0.773-2.369-2.125-2.456C115.675,6.734,115.119,8.226,114.694,8.928z
				 M113.844,4.895c-0.998,0.616-1.31,1.717-1.31,2.567c0,0.833,0.337,1.302,0.684,1.302c0.364,0,0.625-0.486,0.859-1.111
				c0.478-1.266,0.625-2.203,0.755-3.149C114.633,4.556,114.26,4.643,113.844,4.895z"/>
			<path class="st0" d="M124.906,10.056c-0.07,0.192-0.209,0.409-0.486,0.409c-0.303,0-0.755-0.217-0.755-0.547
				c0-0.034,0.009-0.139,0.06-0.286l2.074-5.708c0.252-0.694,0.711-0.842,1.172-0.842c0.345,0,0.911,0.044,1.196,0.842l2.073,5.708
				c0.027,0.06,0.051,0.164,0.051,0.259c0,0.408-0.502,0.574-0.763,0.574c-0.303,0-0.433-0.321-0.468-0.409l-0.52-1.413h-3.123
				L124.906,10.056z M125.809,7.567h2.342l-0.963-2.638c-0.078-0.208-0.148-0.226-0.209-0.226c-0.052,0-0.13,0.017-0.207,0.226
				L125.809,7.567z"/>
			<path class="st0" d="M134.616,9.866c0,0.313-0.139,0.599-0.625,0.599c-0.441,0-0.633-0.217-0.633-0.599V3.672
				c0-0.303,0.129-0.59,0.623-0.59c0.444,0,0.635,0.218,0.635,0.59V9.866z"/>
			<path class="st0" d="M145.101,9.64c0,0.329,0.121,0.329,0.667,0.329c0.755,0,0.782-0.026,0.826-0.39
				c0.008-0.095,0.034-0.529,0.06-0.616c0.052-0.208,0.165-0.33,0.469-0.33c0.529,0,0.554,0.338,0.554,0.686
				c0,1.075-0.225,1.423-0.573,1.553c-0.225,0.077-0.746,0.095-1.568,0.095c-1.059,0-1.51,0-1.51-1.042V8.443h-1.068
				c-0.104,1.839-2.282,2.611-2.862,2.611c-0.4,0-0.555-0.304-0.555-0.615c0-0.321,0.192-0.409,0.435-0.46
				c1.656-0.382,1.821-1.179,1.891-1.536h-0.373c-0.713,0-1.077-0.241-1.077-1.075V4.228c0-0.859,0.391-1.086,1.077-1.086h4.232
				c0.685,0,1.077,0.218,1.077,1.086v3.139c0,0.825-0.356,1.075-1.077,1.075h-0.624V9.64z M145.717,4.678V4.314
				c0-0.164-0.087-0.25-0.252-0.25h-3.731c-0.181,0-0.25,0.095-0.25,0.25v0.364H145.717z M145.717,5.486h-4.233v0.616h4.233V5.486z
				 M145.717,6.891h-4.233v0.417c0,0.138,0.061,0.25,0.25,0.25h3.731c0.166,0,0.252-0.087,0.252-0.25V6.891z"/>
			<path class="st0" d="M157.906,10.004c0,1.016-0.485,1.016-1.674,1.016c-0.415,0-0.789,0-0.945-0.044
				c-0.242-0.07-0.373-0.294-0.373-0.581c0-0.373,0.252-0.511,0.503-0.511c0.104,0,0.771,0.026,0.91,0.026
				c0.26,0,0.434-0.044,0.434-0.33V7.099h-4.719c-0.13,0-0.529,0-0.529-0.478c0-0.39,0.173-0.536,0.529-0.536h4.719V5.433
				c0-0.13,0-0.486,0.529-0.486c0.468,0,0.616,0.157,0.616,0.486v0.652h1.267c0.129,0,0.528,0,0.528,0.476
				c0,0.347-0.103,0.539-0.528,0.539h-1.267V10.004z M155.035,3.316c0-0.312,0.182-0.45,0.521-0.45c0.348,0,0.616,0.061,0.616,0.45
				v0.296h2.325c0.667,0,1.006,0.232,1.006,1.006v0.642c0,0.173-0.017,0.53-0.503,0.53c-0.391,0-0.581-0.113-0.581-0.53V4.861
				c0-0.191-0.104-0.296-0.294-0.296h-5.04c-0.209,0-0.295,0.105-0.295,0.296v0.39c0,0.13,0,0.538-0.496,0.538
				c-0.389,0-0.58-0.122-0.58-0.538V4.618c0-0.702,0.26-1.006,1.006-1.006h2.316V3.316z M154.462,8.218
				c0.216,0.269,0.616,0.763,0.616,1.022c0,0.4-0.443,0.607-0.686,0.607c-0.251,0-0.338-0.121-0.669-0.598
				c-0.242-0.364-0.433-0.598-0.719-0.936c-0.113-0.132-0.164-0.269-0.164-0.373c0-0.261,0.269-0.554,0.658-0.554
				C153.795,7.386,154.115,7.784,154.462,8.218z"/>
			<path class="st0" d="M165.603,5.685c0.208,0,0.391,0.165,0.391,0.373c0,0.131-0.035,0.208-0.296,0.693
				c-0.338,0.635-0.442,1.007-0.459,1.597c-0.009,0.2-0.018,0.573-0.564,0.573c-0.435,0-0.651-0.07-0.651-1.693
				c0-1.23,0.138-2.974,0.268-3.531c0.044-0.172,0.121-0.467,0.592-0.467c0.25,0,0.606,0.104,0.606,0.486
				c0,0.112-0.078,0.503-0.182,1.022c-0.139,0.66-0.191,1.102-0.251,1.537C165.265,5.866,165.361,5.685,165.603,5.685z
				 M170.053,3.629c0.036,0.435,0.113,2.308,0.113,3.243c0,1.944-0.493,3.939-4.354,3.939c-0.444,0-0.91,0-0.91-0.589
				c0-0.39,0.278-0.53,0.598-0.53c0.85,0,0.945,0,1.335-0.06c1.718-0.26,2.125-1.189,2.125-2.916c0-0.077-0.026-1.187-0.06-2.245
				c-0.009-0.139-0.043-0.747-0.043-0.877c0-0.139,0-0.589,0.607-0.589C169.976,3.005,170.028,3.352,170.053,3.629z"/>
			<path class="st0" d="M179.685,3.724c0-0.251,0.078-0.547,0.572-0.547c0.374,0,0.581,0.148,0.581,0.547v1.075h0.912
				c0.112,0,0.572,0,0.572,0.539c0,0.408-0.252,0.546-0.572,0.546h-0.912v1.015c0,1.232-0.251,2.533-1.925,3.315
				c-0.867,0.408-1.726,0.536-1.996,0.536c-0.564,0-0.598-0.536-0.598-0.633c0-0.399,0.243-0.443,0.894-0.538
				c0.981-0.148,1.917-0.608,2.255-1.37c0.216-0.478,0.216-1.233,0.216-1.337V5.884h-2.653v1.718c0,0.372-0.183,0.536-0.566,0.536
				c-0.294,0-0.571-0.085-0.571-0.536V5.884h-0.894c-0.113,0-0.573,0-0.573-0.537c0-0.417,0.269-0.548,0.573-0.548h0.894V3.741
				c0-0.226,0.061-0.537,0.563-0.537c0.382,0,0.574,0.156,0.574,0.537v1.058h2.653V3.724z"/>
			<path class="st0" d="M187.312,7.567c-0.191,0-0.643,0-0.643-0.591c0-0.563,0.391-0.597,0.643-0.597h6.454
				c0.182,0,0.641,0,0.641,0.589c0,0.581-0.408,0.599-0.641,0.599H187.312z"/>
			<path class="st0" d="M200.491,8.756c0,0.572,0.025,0.608,1.553,0.608c1.17,0,1.787,0,2.437-0.036
				c0.13-0.008,0.694-0.043,0.799-0.043c0.32,0,0.521,0.182,0.521,0.546c0,0.504-0.409,0.564-0.634,0.599
				c-0.209,0.026-0.781,0.06-2.889,0.06c-0.902,0-1.681,0-2.074-0.095c-0.718-0.174-0.901-0.755-0.901-1.319V3.784
				c0-0.25,0.061-0.546,0.59-0.546c0.416,0,0.599,0.157,0.599,0.546v2.109c1.214-0.295,2.161-0.607,3.287-1.137
				c0.538-0.251,0.719-0.345,0.937-0.345c0.33,0,0.581,0.355,0.581,0.641c0,0.235-0.104,0.4-0.945,0.738
				c-1.318,0.539-2.507,0.946-3.859,1.231V8.756z M205.609,4.167c0,0.173-0.181,0.268-0.313,0.268c-0.146,0-0.182-0.043-0.406-0.486
				c-0.044-0.077-0.191-0.329-0.261-0.468c-0.027-0.043-0.044-0.104-0.044-0.164c0-0.139,0.157-0.251,0.312-0.251
				C205.201,3.065,205.609,4.002,205.609,4.167z M206.303,3.177c0.095,0.175,0.251,0.443,0.251,0.607c0,0.157-0.174,0.27-0.311,0.27
				c-0.166,0-0.208-0.07-0.478-0.609c-0.033-0.06-0.147-0.25-0.199-0.355c-0.017-0.043-0.034-0.095-0.034-0.138
				c0-0.147,0.156-0.261,0.313-0.261C206.016,2.692,206.104,2.823,206.303,3.177z"/>
			<path class="st0" d="M211.647,4.61c-0.181,0-0.571-0.044-0.571-0.546c0-0.408,0.242-0.556,0.571-0.556h4.313
				c0.399,0,0.944,0.068,0.944,0.746c0,0.608-0.658,1.996-1.413,3.027c0.486,0.365,1.136,0.858,2.169,1.822
				c0.478,0.442,0.555,0.589,0.555,0.815c0,0.364-0.329,0.651-0.668,0.651c-0.277,0-0.391-0.13-0.696-0.478
				c-0.683-0.78-1.655-1.664-2.037-1.969c-1.223,1.38-2.949,2.5-3.462,2.5c-0.295,0-0.555-0.303-0.555-0.643
				c0-0.269,0.087-0.313,0.702-0.634c2.691-1.404,4.017-4.223,4.017-4.597c0-0.13-0.095-0.138-0.243-0.138H211.647z"/>
		</g>
		<g>
			<path class="st0" d="M89.851,26.312c-0.253,0.003-1.389,0.158-3.228,0.413c-1.39,0.192-2.965,0.411-4.203,0.561
				c-0.251,0.03-0.498-0.108-0.604-0.334c-0.109-0.232-0.057-0.504,0.129-0.679c1.475-1.391,3.007-2.999,3.789-3.836l0.056-0.059
				c0.742-0.832,1.03-1.407,1.03-2.044c0-1.067-0.987-2.002-2.137-2.002H84.68c-0.132,0.007-0.434,0.064-1.508,0.323l-0.307,0.073
				c-1.646,0.328-3.442,0.586-5.483,0.786c-1.697,0.152-2.752,0.152-4.851,0.152c-0.892,0-1.233,0.072-1.609,0.35
				c-0.35,0.296-0.728,0.882-0.728,1.471c0,0.274,0.069,0.972,0.714,1.514c0.308,0.271,0.821,0.548,2.29,0.548
				c1.03,0,2.81-0.148,5.146-0.428c0.25-0.031,0.484,0.099,0.596,0.319c0.111,0.222,0.073,0.491-0.099,0.67
				c-0.937,0.994-1.863,1.87-2.749,2.601c-1.904,1.537-2.674,1.788-4.908,2.119l-0.524,0.061c-1.257,0.147-2.757,0.323-3.242,0.395
				c-1.158,0.124-2.23,0.448-2.23,1.972c0,0.993,0.637,2.062,2.034,2.062c0.532,0,0.999-0.066,4.161-0.577
				c1.276-0.203,2.62-0.396,3.992-0.578c0.236-0.029,0.468,0.086,0.586,0.29c0.12,0.205,0.104,0.461-0.04,0.65
				c-0.919,1.207-1.385,2.62-1.385,4.194c0,3.647,2.467,5.394,4.54,6.217c2.849,1.099,6.061,1.24,6.198,1.246
				c0.006,0,0.014,0,0.019,0c0.001,0,0.002,0,0.004,0c0.929-0.008,2.013-0.592,2.013-2.214c0-1.009-0.57-1.569-1.128-1.764
				c-0.201-0.057-0.739-0.121-1.673-0.218c-0.519-0.055-0.967-0.102-1.182-0.145c-4.111-0.64-4.666-2.197-4.666-3.637
				c0-2.888,3.143-4.555,3.777-4.86c1.357-0.672,3.54-1.186,6.716-1.579l0.238-0.03c1.429-0.139,2.438-0.363,2.438-1.972
				C91.826,27.071,91.091,26.312,89.851,26.312z"/>
			<path class="st0" d="M110.287,32.05c-1.321-1.173-3.191-1.791-5.403-1.791c-3.585,0-7.377,1.668-8.213,2.125
				c-0.851,0.427-1.263,1.054-1.263,1.914c0,0.773,0.608,2.214,2.076,2.214c0.528,0,0.898-0.179,1.458-0.472l0.098-0.052
				c2.763-1.485,4.517-1.685,5.868-1.685c2.994,0,3.34,1.475,3.34,2.586c0,0.978-0.377,1.929-1.007,2.542
				c-0.747,0.727-2.055,1.065-4.117,1.065c-0.252,0-0.47,0-0.879-0.066c-0.086-0.009-0.19-0.02-0.326-0.037l-0.092-0.01
				c-0.292-0.036-0.388-0.041-0.442-0.044c-0.986,0-2.031,0.721-2.031,2.055c0,0.969,0.409,1.603,1.251,1.936
				c0.694,0.274,1.552,0.274,2.118,0.274c1.492,0,4.306-0.196,6.394-1.508c2.781-1.789,3.195-4.686,3.195-6.253
				C112.312,34.878,111.612,33.221,110.287,32.05z"/>
			<path class="st0" d="M137.895,39.394c-0.237,0-0.898,0.115-1.968,0.315c-0.299,0.056-0.504,0.093-0.615,0.112
				c-1.505,0.248-4.12,0.362-5.913,0.362c-3.335,0-7.313-0.548-7.313-3.155c0-3.313,4.996-5.206,7.688-6.228
				c2.269-0.824,3.824-1.239,6.704-1.919c0.956-0.238,2.054-0.703,2.054-2.206c0-0.986-0.712-2.033-2.033-2.033
				c-1.429,0-4.193,0.776-7.583,2.129c-0.145,0.057-0.314,0.054-0.458-0.01c-0.143-0.064-0.259-0.186-0.312-0.335l-0.047-0.126
				c-0.773-2.111-1.573-4.293-2.559-6.381l-0.038-0.079c-0.802-1.63-1.113-2.145-2.353-2.145c-1.275,0-2.276,0.892-2.276,2.033
				c0,0.522,0,0.522,1.248,3.259c0.595,1.283,1.185,2.762,1.768,4.229l0.418,1.046c0.113,0.28-0.004,0.598-0.269,0.74
				c-3.186,1.691-6.44,3.968-6.44,8.025c0,2.894,1.552,4.929,4.748,6.221l0.073,0.03c1.822,0.703,4.465,1.031,8.316,1.031
				c2.543,0,5.954-0.2,7.563-0.579c1.022-0.252,1.541-0.945,1.541-2.061C139.837,40.393,138.984,39.394,137.895,39.394z"/>
			<path class="st0" d="M171.101,37.71c0.217-1.041,0.506-2.793,0.506-5.996c0-1.227,0-3.777-0.969-5.998
				c-1.218-2.784-3.439-4.138-6.799-4.138c-2.677,0-5.24,0.967-7.415,2.798c-0.134,0.113-0.316,0.164-0.494,0.127
				c-0.177-0.036-0.325-0.146-0.409-0.309c-0.062-0.117-0.145-0.221-0.245-0.308c-0.132-0.112-0.207-0.276-0.207-0.447v-2.073
				c0-1.355,0-1.916-0.312-2.359c-0.145-0.215-0.694-0.919-1.69-0.919c-0.56,0-1.059,0.202-1.451,0.59
				c-0.562,0.536-0.581,0.927-0.581,2.688v1.686c0,0.325-0.264,0.589-0.588,0.589h-1.87c-1.596,0-2.126,0.026-2.7,0.594
				c-0.414,0.45-0.485,0.789-0.485,1.379c0,0.705,0.279,1.041,0.498,1.24c0.597,0.565,0.908,0.579,2.686,0.579h1.788
				c0.209,0,0.404,0.113,0.51,0.293c0.105,0.18,0.106,0.405,0.002,0.587c-1.758,3.095-2.822,4.533-4.942,7.4l-0.082,0.112
				c-0.565,0.765-0.612,1.105-0.612,1.414c0,1.142,0.848,2.002,1.973,2.002c0.82,0,1.327-0.225,2.741-2.383
				c0.141-0.213,0.425-0.313,0.661-0.241c0.251,0.075,0.42,0.302,0.42,0.564v4.125c0,1.354,0,1.915,0.313,2.357
				c0.229,0.344,0.759,0.918,1.72,0.918c0.537,0,1.039-0.207,1.418-0.586c0.584-0.584,0.584-1.03,0.584-2.69V30.841
				c0-0.138,0.049-0.271,0.136-0.376c1.667-2.011,5.237-5.002,8.24-5.002c1.144,0,2.171,0.397,2.896,1.119
				c1.11,1.084,1.199,2.856,1.199,4.89c0,1.348-0.056,2.51-0.172,3.544c-0.02,0.175-0.117,0.332-0.266,0.428
				c-0.145,0.097-0.332,0.12-0.498,0.067c-0.662-0.208-1.72-0.488-3.251-0.488c-3.225,0-5.31,1.68-5.31,4.28
				c0,2.912,2.322,4.947,5.643,4.947c1.899,0,3.663-0.693,4.965-1.949c0.111-0.108,0.258-0.165,0.43-0.165h0.001
				c0.159,0.004,0.311,0.076,0.418,0.195c0.539,0.601,0.979,0.825,1.622,0.825c0.95,0,1.971-0.655,1.971-2.093
				c0-0.88-0.559-1.536-1.834-2.819C171.119,38.104,171.06,37.904,171.101,37.71z M163.172,38.422c0.869,0,1.7,0.205,2.475,0.606
				c0.17,0.09,0.288,0.256,0.313,0.448c0.025,0.191-0.047,0.382-0.189,0.512c-0.462,0.416-1.123,0.62-2.021,0.62
				c-1.235,0-2.032-0.441-2.032-1.123C161.716,39.237,161.822,38.422,163.172,38.422z"/>
			<path class="st0" d="M191.663,31.429c-1.322-1.171-3.19-1.791-5.403-1.791c-3.585,0-7.375,1.67-8.213,2.126
				c-0.85,0.426-1.263,1.052-1.263,1.913c0,0.772,0.608,2.214,2.075,2.214c0.529,0,0.897-0.179,1.457-0.471l0.097-0.052
				c2.765-1.486,4.518-1.687,5.869-1.687c2.994,0,3.341,1.477,3.341,2.587c0,0.98-0.377,1.931-1.008,2.544
				c-0.746,0.726-2.055,1.064-4.116,1.064c-0.254,0-0.47,0-0.881-0.066c-0.097-0.009-0.219-0.023-0.35-0.041l-0.066-0.006
				c-0.289-0.036-0.388-0.042-0.443-0.044c-0.985,0-2.031,0.721-2.031,2.055c0,0.969,0.41,1.603,1.251,1.935
				c0.694,0.274,1.551,0.274,2.117,0.274c1.493,0,4.307-0.196,6.394-1.508c2.779-1.79,3.196-4.686,3.196-6.253
				C193.688,34.26,192.987,32.603,191.663,31.429z"/>
			<path class="st0" d="M218.553,39.394c-0.238,0-0.898,0.115-1.968,0.315c-0.299,0.056-0.502,0.093-0.616,0.112
				c-1.504,0.248-4.118,0.362-5.912,0.362c-3.335,0-7.311-0.548-7.311-3.155c0-3.313,4.995-5.208,7.686-6.228
				c2.267-0.824,3.822-1.239,6.704-1.919c0.955-0.238,2.054-0.703,2.054-2.206c0-0.986-0.713-2.033-2.032-2.033
				c-1.409,0-4.244,0.795-7.583,2.128c-0.146,0.058-0.312,0.056-0.458-0.009c-0.145-0.064-0.257-0.186-0.313-0.335l-0.047-0.126
				c-0.772-2.11-1.569-4.292-2.559-6.383l-0.038-0.075c-0.8-1.632-1.113-2.148-2.354-2.148c-1.275,0-2.275,0.892-2.275,2.033
				c0,0.522,0,0.522,1.248,3.259c0.593,1.274,1.179,2.747,1.756,4.197l0.43,1.078c0.113,0.281-0.004,0.598-0.269,0.74
				c-3.186,1.692-6.441,3.968-6.441,8.025c0,2.894,1.552,4.929,4.748,6.223l0.073,0.026c1.822,0.705,4.465,1.033,8.316,1.033
				c2.537,0,5.949-0.2,7.57-0.58c1.017-0.254,1.534-0.946,1.534-2.06C220.496,40.393,219.642,39.394,218.553,39.394z"/>
		</g>
		<g>
			<g>
				<path class="st0" d="M120.696,51.856c0.082,0.13,0.185,0.335,0.185,0.526c0,0.252-0.239,0.354-0.471,0.354
					c-0.321,0-0.395-0.143-0.43-0.259c-0.1-0.375-0.299-0.511-0.83-0.511c-0.157,0-0.75,0-0.75,0.437
					c0,0.326,0.287,0.394,1.124,0.578c0.736,0.158,1.485,0.355,1.485,1.227c0,0.858-0.648,1.355-1.792,1.355
					c-0.729,0-1.185-0.197-1.485-0.483c-0.265-0.252-0.382-0.573-0.382-0.77c0-0.219,0.171-0.389,0.464-0.389
					c0.327,0,0.382,0.142,0.477,0.402c0.123,0.327,0.382,0.47,0.946,0.47c0.185,0,0.825,0,0.825-0.477
					c0-0.307-0.095-0.333-1.131-0.566c-0.866-0.198-1.465-0.45-1.465-1.24c0-0.709,0.531-1.295,1.683-1.295
					C119.805,51.217,120.362,51.354,120.696,51.856z"/>
				<path class="st0" d="M126.772,53.391c0,1.123-0.639,2.172-2.016,2.172c-1.376,0-2.016-1.049-2.016-2.172
					c0-1.111,0.627-2.174,2.016-2.174C126.154,51.217,126.772,52.28,126.772,53.391z M123.714,53.391
					c0,0.564,0.259,1.362,1.042,1.362c0.784,0,1.049-0.797,1.049-1.362c0-0.545-0.243-1.37-1.049-1.37
					C123.947,52.021,123.714,52.866,123.714,53.391z"/>
				<path class="st0" d="M129.095,50.55c0-0.266,0.13-0.444,0.458-0.444c0.293,0,0.484,0.103,0.484,0.444v0.81h0.538
					c0.156,0,0.38,0.055,0.38,0.368c0,0.28-0.17,0.369-0.38,0.369h-0.538v2.316c0,0.347,0.217,0.382,0.448,0.382
					c0.185,0,0.483,0,0.483,0.347c0,0.416-0.551,0.422-0.701,0.422c-0.831,0-1.173-0.286-1.173-1.022v-2.445h-0.394
					c-0.178,0-0.387-0.062-0.387-0.361c0-0.294,0.182-0.375,0.387-0.375h0.394V50.55z"/>
				<path class="st0" d="M133.482,50.55c0-0.266,0.13-0.444,0.457-0.444c0.294,0,0.484,0.103,0.484,0.444v0.81h0.537
					c0.158,0,0.382,0.055,0.382,0.368c0,0.28-0.17,0.369-0.382,0.369h-0.537v2.316c0,0.347,0.218,0.382,0.449,0.382
					c0.185,0,0.484,0,0.484,0.347c0,0.416-0.551,0.422-0.701,0.422c-0.831,0-1.172-0.286-1.172-1.022v-2.445h-0.395
					c-0.176,0-0.388-0.062-0.388-0.361c0-0.294,0.184-0.375,0.388-0.375h0.395V50.55z"/>
				<path class="st0" d="M141.179,53.391c0,1.123-0.64,2.172-2.016,2.172c-1.377,0-2.016-1.049-2.016-2.172
					c0-1.111,0.626-2.174,2.016-2.174C140.561,51.217,141.179,52.28,141.179,53.391z M138.12,53.391
					c0,0.564,0.259,1.362,1.043,1.362s1.048-0.797,1.048-1.362c0-0.545-0.243-1.37-1.048-1.37
					C138.353,52.021,138.12,52.866,138.12,53.391z"/>
				<path class="st0" d="M150.491,55.114c0,0.272-0.129,0.449-0.456,0.449c-0.292,0-0.484-0.109-0.484-0.449v-2.229
					c0-0.142,0-0.865-0.693-0.865c-0.56,0-0.881,0.491-0.881,0.94v2.153c0,0.109,0,0.449-0.45,0.449
					c-0.292,0-0.489-0.102-0.489-0.449V51.66c0-0.103,0.005-0.443,0.455-0.443c0.294,0,0.484,0.102,0.484,0.443v0.129
					c0.137-0.143,0.526-0.572,1.193-0.572c0.286,0,1.321,0.095,1.321,1.498V55.114z"/>
				<path class="st0" d="M153.434,53.643c0.033,0.796,0.518,1.13,0.994,1.13c0.552,0,0.73-0.361,0.791-0.484
					c0.096-0.197,0.17-0.34,0.464-0.34c0.245,0,0.483,0.115,0.483,0.388c0,0.219-0.436,1.227-1.752,1.227
					c-1.361,0-1.975-1.042-1.975-2.179c0-1.233,0.682-2.167,1.9-2.167c1.418,0,1.88,1.253,1.88,1.867
					c0,0.559-0.551,0.559-0.701,0.559H153.434z M154.988,52.947c0.095,0,0.218-0.02,0.218-0.163c0-0.266-0.313-0.783-0.852-0.783
					c-0.489,0-0.783,0.354-0.899,0.947H154.988z"/>
				<path class="st0" d="M158.68,50.55c0-0.266,0.13-0.444,0.456-0.444c0.293,0,0.484,0.103,0.484,0.444v0.81h0.539
					c0.157,0,0.381,0.055,0.381,0.368c0,0.28-0.169,0.369-0.381,0.369h-0.539v2.316c0,0.347,0.219,0.382,0.45,0.382
					c0.184,0,0.484,0,0.484,0.347c0,0.416-0.551,0.422-0.701,0.422c-0.833,0-1.172-0.286-1.172-1.022v-2.445h-0.395
					c-0.177,0-0.389-0.062-0.389-0.361c0-0.294,0.185-0.375,0.389-0.375h0.395V50.55z"/>
			</g>
		</g>
	</g>
	<path class="st1" d="M40.694,32.335c0,4.376,3.561,7.936,7.939,7.936c4.376,0,7.936-3.56,7.936-7.936
		c0-3.372-2.115-6.25-5.084-7.399v-7.01c0-0.958-0.483-1.854-1.284-2.382L27.311,0.471c-0.951-0.627-2.185-0.627-3.137,0
		L1.285,15.543C0.484,16.071,0,16.967,0,17.925V52.05c0,1.574,1.279,2.852,2.853,2.852h45.78c1.575,0,2.852-1.278,2.852-2.852
		v-6.565c0-1.576-1.277-2.852-2.852-2.852c-1.577,0-2.854,1.276-2.854,2.852v3.711H5.708V19.463L25.743,6.27l20.036,13.193v5.473
		C42.809,26.084,40.694,28.963,40.694,32.335z M48.633,34.566c-1.232,0-2.233-1.001-2.233-2.231c0-1.232,1.001-2.231,2.233-2.231
		c1.229,0,2.23,1,2.23,2.231C50.863,33.565,49.862,34.566,48.633,34.566z"/>
</g>
</svg>
